<?xml version="1.0" encoding="utf-8"?>
<!-- Generator: Adobe Illustrator 27.0.1, SVG Export Plug-In . SVG Version: 6.00 Build 0)  -->
<svg version="1.1" id="Layer_1" xmlns="http://www.w3.org/2000/svg" xmlns:xlink="http://www.w3.org/1999/xlink" x="0px" y="0px"
	 viewBox="0 0 339.5 600" enable-background="new 0 0 339.5 600" xml:space="preserve">
<path fill="#43EFBB" d="M-0.5,0.1h340v1032.6h-340V0.1z"/>
<path id="bg" fill="#FFFFFF" d="M427.9,595.8c0-73.7-120.6-133.4-269.5-133.4S-111,522.1-111,595.8c0,43.5,42.2,82.2,107.4,106.6
	v334.3h342.3V694.9C393.4,670.5,427.9,635.1,427.9,595.8L427.9,595.8z"/>
<ellipse id="ombra" opacity="0.5" fill="#C1D1D6" stroke="#C1D1D6" stroke-width="3" stroke-linecap="round" stroke-linejoin="round" stroke-miterlimit="10" enable-background="new    " cx="159.9" cy="512.3" rx="65.3" ry="3.4"/>
<g id="Neve_5_" opacity="0.5">
	<path fill="#FFFFFF" d="M270.5,143.8c-3-0.6-4.4,2.5-4.2,3.3c0.3,0.8,0.6,2.9,2.4,2.9s3.8-1,3.8-2.9S272.4,144.2,270.5,143.8
		L270.5,143.8z M320.1,164.6c-3-0.6-4.4,2.5-4.2,3.3c0.3,0.8,0.6,2.9,2.4,2.9s3.8-1,3.8-2.9S322,165,320.1,164.6L320.1,164.6z
		 M38.1,185.3c-3-0.6-4.4,2.5-4.2,3.3c0.3,0.8,0.6,2.9,2.4,2.9c1.8,0,3.8-1,3.8-2.9S40,185.7,38.1,185.3z M96.5,139.2
		c-3-0.6-4.4,2.5-4.2,3.3c0.3,0.8,0.6,2.9,2.4,2.9s3.8-1,3.8-2.9S98.4,139.6,96.5,139.2z M323.3,295c-3-0.6-4.4,2.5-4.2,3.3
		c0.3,0.8,0.6,2.9,2.4,2.9s3.8-1,3.8-2.9S325.1,295.4,323.3,295L323.3,295z M284.5,378.5c-3-0.6-4.4,2.5-4.2,3.3
		c0.3,0.8,0.6,2.9,2.4,2.9s3.8-1,3.8-2.9S286.4,378.9,284.5,378.5L284.5,378.5z M298.1,328.2c-3-0.6-4.4,2.5-4.2,3.3
		c0.3,0.8,0.6,2.9,2.4,2.9s3.8-1,3.8-2.9S300,328.6,298.1,328.2L298.1,328.2z M72.9,237.3c-3-0.6-4.4,2.5-4.2,3.3
		c0.3,0.8,0.6,2.9,2.4,2.9s3.8-1,3.8-2.9S74.7,237.7,72.9,237.3z M27.9,433.1c-3-0.6-4.4,2.5-4.2,3.3c0.3,0.8,0.6,2.9,2.4,2.9
		s3.8-1,3.8-2.9S29.8,433.5,27.9,433.1z M227.6,115.5c-2.4-0.5-3.6,2.1-3.4,2.7c0.2,0.7,0.5,2.4,2,2.4s3.1-0.8,3.1-2.4
		C229.3,116.7,229.2,115.8,227.6,115.5L227.6,115.5z M277.5,96c-2.4-0.5-3.6,2.1-3.4,2.7c0.2,0.7,0.5,2.4,2,2.4s3.1-0.8,3.1-2.4
		C279.1,97.2,279,96.3,277.5,96z M25.2,129.6c-2.4-0.5-3.6,2.1-3.4,2.7c0.2,0.7,0.5,2.4,2,2.4s3.1-0.8,3.1-2.4
		S26.7,129.9,25.2,129.6z M176.8,124.4c-2.4-0.5-3.6,2.1-3.4,2.7c0.2,0.7,0.5,2.4,2,2.4s3.1-0.8,3.1-2.4
		C178.4,125.6,178.3,124.7,176.8,124.4L176.8,124.4z M225.1,234.1c-2.4-0.5-3.6,2.1-3.4,2.7c0.2,0.7,0.5,2.4,2,2.4s3.1-0.8,3.1-2.4
		S226.6,234.4,225.1,234.1L225.1,234.1z M256.3,345.7c-2.4-0.5-3.6,2.1-3.4,2.7c0.2,0.7,0.5,2.4,2,2.4s3.1-0.8,3.1-2.4
		S257.9,346,256.3,345.7z M303.5,225c-2.4-0.5-3.6,2.1-3.4,2.7c0.2,0.7,0.5,2.4,2,2.4s3.1-0.8,3.1-2.4S305.1,225.4,303.5,225z
		 M65.8,192c-2.4-0.5-3.6,2.1-3.4,2.7c0.2,0.7,0.5,2.4,2,2.4s3.1-0.8,3.1-2.4S67.3,192.4,65.8,192z M22.6,250.9
		c-2.4-0.5-3.6,2.1-3.4,2.7c0.2,0.7,0.5,2.4,2,2.4s3.1-0.8,3.1-2.4S24.2,251.3,22.6,250.9z M291.5,277.1c-3-0.6-4.4,2.5-4.2,3.3
		c0.3,0.8,0.6,2.9,2.4,2.9s3.8-1,3.8-2.9S293.4,277.5,291.5,277.1L291.5,277.1z M76,417.3c-3-0.6-4.4,2.5-4.2,3.3
		c0.3,0.8,0.6,2.9,2.4,2.9s3.8-1,3.8-2.9S77.8,417.7,76,417.3z M38.5,305.5c-3-0.6-4.4,2.5-4.2,3.3c0.3,0.8,0.6,2.9,2.4,2.9
		c1.8,0,3.8-1,3.8-2.9C40.5,307,40.4,305.9,38.5,305.5z M130.3,95.4c-3-0.6-4.4,2.5-4.2,3.3c0.3,0.8,0.6,2.9,2.4,2.9
		c1.8,0,3.8-1,3.8-2.9S132.2,95.8,130.3,95.4z M260.1,429.9c-3-0.6-4.4,2.5-4.2,3.3c0.3,0.8,0.6,2.9,2.4,2.9c1.8,0,3.8-1,3.8-2.9
		S261.9,430.3,260.1,429.9z M320.1,413.7c-3-0.6-4.4,2.5-4.2,3.3c0.3,0.8,0.6,2.9,2.4,2.9s3.8-1,3.8-2.9S322,414.1,320.1,413.7
		L320.1,413.7z M298.5,448.4c-3-0.6-4.4,2.5-4.2,3.3c0.3,0.8,0.6,2.9,2.4,2.9s3.8-1,3.8-2.9S300.4,448.8,298.5,448.4L298.5,448.4z
		 M71.1,360c-3-0.6-4.4,2.5-4.2,3.3c0.3,0.8,0.6,2.9,2.4,2.9s3.8-1,3.8-2.9S73,360.4,71.1,360z M38.5,354.4c-3-0.6-4.4,2.5-4.2,3.3
		c0.3,0.8,0.6,2.9,2.4,2.9c1.8,0,3.8-1,3.8-2.9S40.4,354.8,38.5,354.4z"/>
</g>
<g id="gamba_x5F_dex_3_">
	<path fill="none" stroke="#5347FF" stroke-width="10" stroke-miterlimit="10" d="M127.7,444.3v49.3"/>
	<path fill="none" stroke="#0C45CA" stroke-width="10" stroke-miterlimit="10" stroke-dasharray="22" d="M127.6,444.1v49.2"/>
	<path id="Scarpa_dex_2_" fill="#002764" stroke="#002764" stroke-width="2" stroke-miterlimit="10" d="M131.1,493.6l-7.9-0.5
		c0,0-1.2,10.4-6.1,11s-7.4-1.4-8.7-5.5c-1.3-4-1-7.3-3.5-7.3c-3,0-3.1,5.3-1.8,9.8c1.2,4.3,5.5,9.8,12.2,9.8s10.4-6.7,10.4-6.7
		l0.5,6.7h5v-17.3H131.1z"/>
</g>
<g id="braccio_x5F_six_x5F_1_4_">
	<path fill="none" stroke="#5347FF" stroke-width="10" stroke-miterlimit="10" d="M191,355.4c0,0,48.6,20.1,44.7,102.1"/>
	<path fill="none" stroke="#0C45CA" stroke-width="10" stroke-miterlimit="10" stroke-dasharray="22" d="M190.8,355.2
		c0,0,48.6,20.1,44.7,102.1"/>
	<path id="mano_six_7_" fill="#F8CEDE" d="M230.4,456.6h9.6c0,0,3.5,11.2,1.2,11.2s-3.5-5.6-3.5-5.6s0.8,8.9-1.6,8.7
		s-2.4-8.2-2.4-8.2s-0.6,5.1-3.4,4.8C227.5,467.2,230.4,456.6,230.4,456.6L230.4,456.6z"/>
</g>
<g id="braccio_x5F_dex_x5F_1_2_">
	<path fill="none" stroke="#5347FF" stroke-width="10" stroke-miterlimit="10" d="M88.5,453.4c0,0-4.3-73.8,37.8-89.6"/>
	<path fill="none" stroke="#0C45CA" stroke-width="10" stroke-miterlimit="10" stroke-dasharray="22" d="M88.4,453.2
		c0,0-4.3-73.8,37.8-89.6"/>
	<path fill="#F8CEDE" d="M93.3,452.8h-9.6c0,0-3.5,11.2-1.2,11.2s3.5-5.6,3.5-5.6s-0.8,8.9,1.6,8.7s2.4-8.2,2.4-8.2s0.6,5.1,3.4,4.8
		C96.2,463.4,93.3,452.8,93.3,452.8z"/>
</g>
<g id="gamba_x5F_six_3_">
	<path fill="none" stroke="#5347FF" stroke-width="10" stroke-miterlimit="10" d="M191.2,446.1v49.2"/>
	<path fill="none" stroke="#0C45CA" stroke-width="10" stroke-miterlimit="10" stroke-dasharray="22" d="M191,445.9v49.2"/>
	<path id="Scarpa_six_2_" fill="#002764" stroke="#002764" stroke-width="2" stroke-miterlimit="10" d="M187.8,494.8l7.9-0.5
		c0,0,1.5,9.2,6.1,11c4,1.5,7.1-1.3,8.1-5.5c1.3-5.2,1-7.9,3.5-7.9c3,0,3.7,5.9,2.4,10.4c-1.2,4.3-5.5,9.8-12.2,9.8
		s-10.4-6.7-10.4-6.7l-0.5,6.7h-5L187.8,494.8L187.8,494.8z"/>
</g>
<g id="Corpo_3_">
	<path fill="#5347FF" d="M198.6,343c0,0-2.1,108.3-2.1,102.7c0-0.2-73.3,2.7-74.4,0c-1.2-2.7-0.7-76.4,0-84.4"/>
	<path fill="#002764" stroke="#002764" stroke-miterlimit="10" d="M196.9,417.8v11l-74.9,2l-0.4-10.6L196.9,417.8z"/>
	<path d="M158.6,401.4c-4.5-1-6.7,4.1-6.3,5.3c0.4,1.3,0.9,4.6,3.6,4.7c2.8,0,5.8-1.7,5.8-4.7S161.5,402.1,158.6,401.4z
		 M158.7,383.3c-4.5-1-6.7,4.1-6.3,5.3c0.4,1.3,0.9,4.6,3.6,4.7s5.8-1.7,5.8-4.7C161.8,385.7,161.6,384,158.7,383.3z"/>
</g>
<g id="cappello_3_">
	<path fill="#5347FF" d="M100.5,276c0,0,4.4-74,35.2-92.3s46.3-22,64.4-22s49,17.6,59.7,32.7c10.7,15.1,12.7,57.9,10.7,60.5
		s-13.4-50.4-35.6-51c-22.1-0.6-24.8,20.2-26.2,25.8c-1.3,5.7-3.3,38.7-3.3,38.7L100.5,276z"/>
	<path fill="#002764" d="M100.2,276c0,0,2-35.6,12.6-61.7c0,0,17.3,48.1,19.6,56.2c0,0,20.4-60.8,23.3-64.1
		c2.9-3.4,23.7,61.2,23.7,61.2s33.7-55.1,35.7-56.4c2-1.3-4,57-4,56.8S100.2,276,100.2,276z M274.6,255
		c-11.3-2.3-16.8,9.4-15.8,12.4s2.1,10.7,9.1,10.8c6.9,0.1,14.4-3.9,14.4-10.8S281.8,256.5,274.6,255z"/>
</g>
<path id="viso" fill="#F8CEDE" d="M100.8,276c-0.3,22-7.3,73.8,26.6,90.7c27.3,10.1,54.2,6.8,70.4-12.5
	c17.3-22.3,15.6-65.9,13.9-86.2c-0.7-3.3-39.7,0.3-55.4,1C140.7,269.7,102.8,272.2,100.8,276L100.8,276z"/>
<path id="sopracciglio-six-2" fill="none" stroke="#111428" stroke-width="3" stroke-linecap="round" stroke-linejoin="round" d="
	M182.5,282.1c0,0,1.8,1.9,6.8,0"/>
<path id="sopracciglio-dex-2" fill="none" stroke="#111428" stroke-width="3" stroke-linecap="round" stroke-linejoin="round" d="
	M126.8,283.4c0,0-2.9,2.1-6.8,0.6"/>
<path id="sopracciglio-six-1" fill="none" stroke="#11142A" stroke-width="3" stroke-linecap="round" stroke-linejoin="round" stroke-miterlimit="10" d="
	M182.2,277.8c0,0,2.6-3.5,6.8,0"/>
<path id="sopracciglio-dex-1" fill="none" stroke="#11142A" stroke-width="3" stroke-linecap="round" stroke-linejoin="round" stroke-miterlimit="10" d="
	M126.4,279c0,0-3.8-3-6.8,0.6"/>
<g id="orecchio_dex_7_">
	<path fill="#F8CEDE" d="M210.7,319.1c0,0,2.4-26.8,12.3-40s15.3-17.6,17.3-18.9c0,0,2.7,18.3-9.3,37.2S210.7,319.1,210.7,319.1
		L210.7,319.1z"/>
	<path fill="none" stroke="#DE8BB5" stroke-width="3" stroke-linecap="round" stroke-linejoin="round" stroke-miterlimit="10" d="
		M212.1,310.3l13.2-20.8"/>
</g>
<g id="orecchio_dex_6_">
	<path fill="#F8CEDE" d="M68.9,280.4c0,0,12.6,4.4,21.9,21.4s9.3,16.6,12.6,28.1c0,0-19.1-9.4-27.2-24.8
		C68.3,289.8,68.9,280.4,68.9,280.4z"/>
	<path fill="none" stroke="#DE8BB5" stroke-width="3" stroke-linecap="round" stroke-linejoin="round" stroke-miterlimit="10" d="
		M99.3,320.5l-18.4-17.2"/>
</g>
<g id="facce_3_">
	
		<ellipse id="bianco-dex" transform="matrix(0.9951 -9.853766e-02 9.853766e-02 0.9951 -29.3514 13.5104)" fill="#FFFFFF" cx="122.1" cy="303.9" rx="9.2" ry="9.2"/>
	<circle id="bianco-six" fill="#FFFFFF" cx="186.8" cy="303.9" r="9.2"/>
	<circle id="occhio-dex" fill="#11142A" cx="117.6" cy="303.7" r="2.5"/>
	<circle id="occhio-six" fill="#11142A" cx="182.3" cy="303.7" r="2.5"/>
	<ellipse id="guancia-dex" fill="#F8CEDE" cx="122.9" cy="323.8" rx="9" ry="9.3"/>
	<ellipse id="guancia-six" fill="#F8CEDE" cx="187.3" cy="323.8" rx="9" ry="9.3"/>
	
		<path id="Guancia_10_" fill="#FF0055" stroke="#FF0055" stroke-width="2" stroke-linecap="round" stroke-linejoin="round" stroke-miterlimit="10" d="
		M195.3,320.3c-6.3-1.4-9.3,5.6-8.7,7.4s1.2,6.4,5,6.5c3.9,0.1,8-2.3,8-6.5C199.6,323.6,199.3,321.2,195.3,320.3z"/>
	
		<path id="Guancia_7_" fill="#FF0055" stroke="#FF0055" stroke-width="2" stroke-linecap="round" stroke-linejoin="round" stroke-miterlimit="10" d="
		M118.9,323.5c2.4,0.3,5.9,1,4.7,7.7c-1.2,6.9-4.1,5.1-6.5,5.1s-4.1-3.7-4.4-6.3C112.4,327.4,116,323.1,118.9,323.5L118.9,323.5z"/>
	
		<path id="Naso_3_" fill="none" stroke="#11142A" stroke-width="3" stroke-linecap="round" stroke-linejoin="round" stroke-miterlimit="10" d="
		M150.2,312.1c0,0,0.5,5.6,3,5.6s3-5.6,3-6.6"/>
</g>
<g id="palla3">
	<path fill="#F8CEDE" d="M274.8,110.5c-10.2-5.2-9.9-11.5-9.9-11.5h-7.8c0,0,0.4,6.3-10.5,11.5s-18.2,9.7-17.8,19.4
		s10.5,13.8,19.5,17.2c9,3.4,12.7,13.2,12.7,13.2h0.2c0,0,3.5-9.8,11.9-13.2s17.9-7.5,18.3-17.2S285,115.7,274.8,110.5z"/>
	<g>
		<path fill="#FF0055" d="M258.1,130.6l-13,3.4c-3,0.8-6-1.5-6-4.7c0-2.8,2.3-5,5.1-4.9c0.4,0,0.8,0.1,1.1,0.1l12.8,3.3V130.6z
			 M262.1,130.6l13,3.4c3,0.8,6-1.5,6-4.7c0-2.8-2.3-5-5.1-4.9c-0.4,0-0.8,0.1-1.1,0.1l-12.8,3.3V130.6z M261.1,131.6l3.4,13
			c0.8,3-1.5,6-4.7,6c-2.8,0-5-2.3-4.9-5.1c0-0.4,0.1-0.8,0.1-1.1l3.3-12.8H261.1L261.1,131.6z M261.1,127.7l3.4-13
			c0.8-3-1.5-6-4.7-6c-2.8,0-5,2.3-4.9,5.1c0,0.4,0.1,0.8,0.1,1.1l3.3,12.8H261.1L261.1,127.7z"/>
		<circle fill="#5347FF" cx="259.9" cy="129.3" r="2.8"/>
		<path fill="none" stroke="#5347FF" stroke-linecap="round" stroke-linejoin="round" stroke-miterlimit="10" d="M274.1,141.7
			l-28.4-24.9 M245.7,141.7l28.4-24.9"/>
	</g>
	<path fill="#FFF6C9" d="M264.2,96.4h-6.7c-1,0-1.9,0.9-1.9,2v0.1c0,1.1,0.9,2,1.9,2h6.8c1,0,1.9-0.9,1.9-2v-0.1
		C266.1,97.3,265.3,96.4,264.2,96.4L264.2,96.4z"/>
	<path fill="none" stroke="#003580" stroke-width="3" stroke-miterlimit="10" d="M260.4,96.4l-0.6-94.3"/>
</g>
<g id="palla1">
	<path fill="#FF0055" d="M81.9,144.8c-8.3-6.8-8-15.1-8-15.1h-6.3c0,0,0.3,8.3-8.5,15.1c-8.9,6.8-14.7,12.7-14.4,25.5
		c0.3,12.7,8.5,18.2,15.8,22.6c7.3,4.4,10.3,17.3,10.3,17.3H71c0,0,2.8-12.9,9.6-17.3s14.5-9.8,14.8-22.6
		C95.6,157.6,90.2,151.6,81.9,144.8z"/>
	<path fill="#FFF6C9" d="M74,125.7h-6.7c-1,0-1.9,0.9-1.9,2v0.1c0,1.1,0.9,2,1.9,2H74c1,0,1.9-0.9,1.9-2v-0.1
		C75.9,126.6,75,125.7,74,125.7z"/>
	<path fill="none" stroke="#003580" stroke-width="3" stroke-miterlimit="10" d="M70.6,125.7L70-128.6"/>
	<g>
		<path fill="#FFF6C9" d="M67.7,170.2l-13,3.4c-3,0.8-6-1.5-6-4.7c0-2.8,2.3-5,5.1-4.9c0.4,0,0.8,0.1,1.1,0.1l12.8,3.3V170.2z
			 M71.6,170.3l13,3.4c3,0.8,6-1.5,6-4.7c0-2.8-2.3-5-5.1-4.9c-0.4,0-0.8,0.1-1.1,0.1l-12.8,3.3V170.3z M70.6,171.3l3.4,13
			c0.8,3-1.5,6-4.7,6c-2.8,0-5-2.3-4.9-5.1c0-0.4,0.1-0.8,0.1-1.1l3.3-12.8C67.8,171.3,70.6,171.3,70.6,171.3z M70.6,167.3l3.4-13
			c0.8-3-1.5-6-4.7-6c-2.8,0-5,2.3-4.9,5.1c0,0.4,0.1,0.8,0.1,1.1l3.3,12.8C67.8,167.3,70.6,167.3,70.6,167.3z"/>
		<circle fill="#5347FF" cx="69.4" cy="168.9" r="2.8"/>
		<path fill="none" stroke="#5347FF" stroke-linecap="round" stroke-linejoin="round" stroke-miterlimit="10" d="M83.6,181.4
			l-28.4-24.9 M55.2,181.4l28.4-24.9"/>
	</g>
</g>
<g id="palla2">
	<path fill="#009488" d="M181.4,96.5c-8.3-5.5-8-12.3-8-12.3h-6.3c0,0,0.3,6.8-8.5,12.3c-8.9,5.5-14.7,10.4-14.4,20.8
		s8.5,14.8,15.8,18.4c7.3,3.6,10.3,14.1,10.3,14.1h0.2c0,0,2.8-10.5,9.6-14.1s14.5-8,14.8-18.4C195.1,106.9,189.6,102,181.4,96.5
		L181.4,96.5z"/>
	<path fill="#FFF6C9" d="M173.5,80.9h-6.7c-1,0-1.9,0.7-1.9,1.7v0.1c0,0.9,0.9,1.7,1.9,1.7h6.8c1,0,1.9-0.7,1.9-1.7v-0.1
		C175.4,81.6,174.5,80.9,173.5,80.9z"/>
	<path fill="none" stroke="#003580" stroke-width="3" stroke-miterlimit="10" d="M170.1,80.9l-0.6-101.4"/>
	<g>
		<path fill="#FFF6C9" d="M167.1,117.2l-13,2.7c-3,0.6-6-1.2-6-3.8c0-2.6,3.1-4.6,6.2-3.9l12.8,2.7
			C167.1,114.9,167.1,117.2,167.1,117.2z M171.1,117.3l13,2.7c3,0.6,6-1.2,6-3.8c0-2.6-3.1-4.6-6.2-3.9l-12.8,2.7
			C171.1,115,171.1,117.3,171.1,117.3z M170.1,118.1l3.4,10.6c0.8,2.5-1.5,4.9-4.7,4.9s-5.6-2.5-4.8-5.1l3.3-10.4L170.1,118.1
			L170.1,118.1z M170.1,114.9l3.4-10.6c0.8-2.5-1.5-4.9-4.7-4.9s-5.6,2.5-4.8,5.1l3.3,10.4H170.1z"/>
		<ellipse fill="#5347FF" cx="168.9" cy="116.2" rx="2.8" ry="2.2"/>
		<path fill="none" stroke="#5347FF" stroke-linecap="round" stroke-linejoin="round" stroke-miterlimit="10" d="M183.1,126.3
			L154.7,106 M154.7,126.3l28.4-20.3"/>
	</g>
</g>
<g id="rami2">
	
		<path id="pino_x5F_1_5_" fill="#002764" stroke="#002764" stroke-width="2" stroke-linecap="round" stroke-linejoin="round" stroke-miterlimit="10" d="
		M178.2,15.6c-5.8,0.9-11.3,2.9-16.2,6c4.8,1.5,9.6,3.2,14.3,5.2c1.8,0.7,0.6,3.4-1.2,2.7c-3.1-1.3-6.3-2.5-9.5-3.6
		c2,2.9,4.4,5.6,7.2,8c1.4,1.2-0.4,3.6-1.8,2.3c-3.8-3.3-7.1-7.2-9.7-11.6l-0.1-0.1c-3.9-1.2-7.9-2.4-11.9-3.4
		c3.3,4.7,7.1,9,11.6,12.8c1.4,1.2-0.4,3.6-1.8,2.3c-5.4-4.6-10-10-13.8-16l-0.1-0.2l-8.4-1.9c3.8,6.5,8.7,12.3,14.6,17
		c1.5,1.2-0.4,3.5-1.8,2.3c-6.5-5.2-11.8-11.6-15.8-18.9c-0.2-0.4-0.2-0.8-0.2-1.1l-11.7-2.2c5,8.9,11.6,16.6,19.6,22.9
		c1.5,1.2-0.3,3.5-1.8,2.3c-8.8-7-16-15.6-21.3-25.5l-0.1-0.3l-4.2-0.7l-8.5-1.4c4.8,8.6,11.2,16.3,18.8,22.6
		c1.5,1.2-0.4,3.5-1.8,2.3c-8.4-6.9-15.4-15.4-20.4-25.1l-0.1-0.4l-10-1.5c6.1,8.6,12.6,16.9,19.4,24.8c1.2,1.4-1.2,3.2-2.4,1.7
		c-7.3-8.5-14.2-17.3-20.6-26.5l-0.2-0.6L80.4,9c0.5,5.3,2.6,9.2,5.8,13.5c3.5,4.7,7.3,9.2,11.5,13.4c1.3,1.3-0.5,3.7-1.8,2.3
		c-8.3-8-17.9-17.6-18.8-29.4c-7.9-0.5-15.8-0.4-23.6,0.8c-1.9,0.3-2.2-2.7-0.3-2.9c7.7-1.2,15.5-1.3,23.2-0.9
		c5-8.5,11.9-15.4,20.5-20.2c1.6-0.9,3.4,1.5,1.7,2.4c-7.7,4.3-14.3,10.5-19,18l8.2,0.8C95.5-1.9,105-8.5,114.5-15
		c1.6-1.1,3.3,1.3,1.7,2.4c-8.8,6-17.6,12-24.8,19.9l12,1.8C111.2,0.8,121-5.4,131.8-9c1.8-0.6,2.9,2.2,1,2.8
		C123-3,114.2,2.4,106.9,9.7l7.5,1.3l3.9,0.7c6.4-6.7,14.6-11.5,23.6-13.8c1.8-0.5,2.9,2.3,1,2.8c-8,2.1-15.2,6-21.1,11.7l12.4,2.3
		c5.7-6.4,12.9-11.3,20.9-14.4c1.8-0.7,2.8,2.1,1,2.8c-7,2.7-13.4,7-18.6,12.4l7,1.6l0.1-0.1c6.8-5.5,14.6-9.8,22.9-12.6
		c1.8-0.6,2.9,2.2,1,2.8c-7.3,2.5-14.2,6.1-20.3,10.8c3.4,0.8,6.7,1.7,10,2.7l0.4-0.4c6-3.4,12.1-6.7,19.1-7.4
		C179.8,12.5,180.1,15.4,178.2,15.6z"/>
	
		<path id="pino_x5F_2_5_" fill="#002764" stroke="#002764" stroke-width="2" stroke-linecap="round" stroke-linejoin="round" stroke-miterlimit="10" d="
		M96.1,68.4c-5.6-1.5-11.5-1.8-17.2-1c3.8,3.3,7.5,6.8,11,10.5c1.3,1.4-0.8,3.4-2.2,2l-7.3-7.1c0.7,3.5,1.8,6.9,3.4,10.2
		c0.8,1.7-1.8,3.1-2.6,1.4c-2.2-4.6-3.6-9.5-4.2-14.5v-0.1l-9.5-7.9c1.1,5.7,2.9,11.2,5.5,16.4c0.8,1.7-1.8,3.1-2.6,1.4
		c-3.1-6.4-5.2-13.2-6.3-20.2v-0.2l-6.9-5.1c0.9,7.5,3,14.7,6.5,21.4c0.9,1.7-1.7,3.1-2.6,1.4c-3.8-7.3-6.2-15.4-7-23.6
		c0-0.4,0.1-0.8,0.3-1.1c-3.2-2.3-6.5-4.5-9.8-6.7c1,10.1,4,19.8,8.8,28.8c0.9,1.7-1.7,3.1-2.6,1.4c-5.3-9.9-8.4-20.7-9.3-31.9v-0.3
		L38,41.3l-7.2-4.7c0.9,9.9,3.7,19.4,8.2,28.3c0.9,1.7-1.8,3.1-2.6,1.4c-5-9.8-7.8-20.3-8.7-31.2v-0.4c-2.8-1.8-5.7-3.7-8.6-5.4
		c2.1,10.3,4.7,20.5,7.8,30.5c0.6,1.8-2.3,2.5-2.9,0.6c-3.3-10.7-6.1-21.6-8.3-32.6v-0.6l-6.9-3.9c-1.7,5-1.3,9.4-0.1,14.7
		c1.3,5.7,3,11.4,5.1,16.9c0.7,1.8-1.9,3.2-2.6,1.4c-4-10.6-9-23.2-5.1-34.4c-7-3.6-14.3-6.7-22-8.7c-1.8-0.5-0.9-3.3,0.9-2.8
		c7.5,2,14.7,5,21.6,8.5c7.9-5.8,17.2-9.3,26.9-10.3c1.9-0.2,2.5,2.7,0.6,2.9c-8.9,0.9-17.3,3.9-24.6,8.9l7.2,4
		c10.5-5,21.8-7.3,33.1-9.4c1.9-0.3,2.5,2.5,0.6,2.9c-10.5,1.5-20.8,4.3-30.7,8.3L30,32.7c10.5-4.4,21.9-6.2,33.3-5.2
		c1.9,0.2,1.8,3.1-0.1,3c-10.3-1-20.5,0.4-30.1,4.2c3.1,2.1,6.3,4.2,9.6,6.2c8.6-3.5,18-4.7,27.2-3.2c1.9,0.3,1.7,3.3-0.1,3
		c-8.1-1.3-16.3-0.6-24,2.2L56.2,50c7.8-3.6,16.3-5.2,24.9-4.9c1.9,0.1,1.8,3-0.1,3c-7.6-0.3-15,1-22,3.9l5.8,4.2h0.1
		c8.5-2.3,17.3-3.1,26-2.4c1.9,0.2,1.8,3.1-0.1,3c-7.7-0.6-15.4,0-22.9,1.8c2.7,2.1,5.4,4.3,8.1,6.5l0.6-0.2
		c6.9-0.7,13.8-1.3,20.5,0.9C98.8,66.2,97.9,69,96.1,68.4z"/>
	
		<path id="pino_x5F_3_5_" fill="#002764" stroke="#002764" stroke-width="2" stroke-linecap="round" stroke-linejoin="round" stroke-miterlimit="10" d="
		M220.1,14.9c5.6-1.4,10.9-3.8,15.6-7.3c-4.9-1.1-9.8-2.4-14.7-3.9c-1.8-0.6-0.9-3.4,1-2.8l9.8,2.8c-2.3-2.8-4.9-5.2-7.8-7.4
		c-1.5-1.1,0.1-3.6,1.6-2.5c4.2,3,7.8,6.7,10.7,10.9c4,0.9,8.1,1.7,12.1,2.4c-3.7-4.5-7.9-8.4-12.6-11.8c-1.5-1.1,0.1-3.6,1.6-2.5
		c5.7,4.1,10.8,9.1,15.1,14.8l0.1,0.2l8.5,1.2c-4.3-6.2-9.7-11.5-15.9-15.7c-1.6-1.1,0.1-3.5,1.6-2.5c6.9,4.7,12.8,10.6,17.4,17.5
		c0.2,0.4,0.3,0.8,0.2,1.1c3.9,0.5,7.9,0.9,11.8,1.2c-5.7-8.4-13-15.6-21.4-21.2c-1.6-1.1,0.1-3.5,1.6-2.5
		c9.3,6.2,17.3,14.3,23.3,23.7l0.2,0.3l4.2,0.4l8.6,0.7c-5.5-8.2-12.5-15.3-20.6-21c-1.6-1.1,0.1-3.5,1.6-2.5
		c9,6.2,16.5,14.1,22.5,23.3l0.2,0.4l10.1,0.7c-6.8-8-13.9-15.8-21.4-23.1c-1.4-1.3,0.9-3.3,2.2-1.9c8,7.9,15.6,16.1,22.8,24.7
		l0.3,0.5l8,0.2c-0.9-5.2-3.4-8.9-6.9-13c-3.9-4.4-8.1-8.5-12.5-12.4c-1.4-1.2,0.2-3.7,1.6-2.5c8.6,7.4,18.9,16.1,20.8,27.8
		c7.9-0.2,15.7-0.9,23.5-2.8c1.9-0.4,2.4,2.5,0.5,2.9c-7.6,1.8-15.3,2.6-23.1,2.8c-4.2,8.8-10.6,16.3-18.7,21.8
		c-1.6,1.1-3.5-1.2-1.9-2.2c7.4-5,13.4-11.6,17.4-19.6l-8.2-0.1c-7.1,9.1-15.4,17.2-24.7,24c-1.5,1.2-3.4-1-1.9-2.2
		c8.5-6.4,16.3-13.7,23.1-21.9l-12.1-0.8c-7.2,8.9-16.4,15.9-26.9,20.4c-1.7,0.7-3-1.9-1.3-2.7c9.5-4,17.8-10.2,24.5-18l-7.5-0.6
		l-3.9-0.3c-5.9,7.2-13.6,12.6-22.4,15.7c-1.8,0.6-3.1-2-1.3-2.7c7.7-2.7,14.6-7.3,20.1-13.4L264,12.2c-5.2,6.9-11.9,12.4-19.6,16.1
		c-1.7,0.8-3-1.8-1.3-2.7c6.8-3.3,12.7-8,17.5-13.9c-2.4-0.3-4.7-0.6-7.1-1l-0.1,0.1c-6.4,6-13.7,10.9-21.7,14.5
		c-1.7,0.8-3-1.9-1.3-2.7c7.1-3.1,13.6-7.3,19.3-12.4c-3.4-0.6-6.8-1.2-10.2-1.9l-0.4,0.4c-5.5,4.3-11.8,7.3-18.5,9
		C218.8,18.1,218.2,15.2,220.1,14.9L220.1,14.9z"/>
	
		<path id="pino_x5F_4_8_" fill="#002764" stroke="#002764" stroke-width="2" stroke-linecap="round" stroke-linejoin="round" stroke-miterlimit="10" d="
		M301.9,114.8c1.3-5.7,0.6-11.5-0.4-17.2c-3,4.1-6.2,8-9.5,11.9c-1.3,1.4-3.4-0.6-2.2-2l6.5-7.9c-3.4,1-6.7,2.4-9.9,4.2
		c-1.6,1-3.2-1.5-1.6-2.5c4.4-2.6,9.1-4.4,14.1-5.4h0.1c2.5-3.3,4.8-6.7,7.1-10.1c-5.6,1.6-10.9,3.8-15.9,6.8
		c-1.6,1-3.2-1.5-1.6-2.5c6.1-3.6,12.7-6.2,19.6-7.9h0.2l4.5-7.3c-7.4,1.4-14.4,4.3-20.8,8.3c-1.6,1-3.2-1.5-1.6-2.5
		c7-4.4,14.8-7.4,23-8.9c0.4-0.1,0.8,0,1.1,0.2l5.9-10.3c-10,1.8-19.5,5.6-28,11.1c-1.6,1-3.2-1.5-1.6-2.5c9.5-6.1,19.9-10,31-11.9
		h0.3l2-3.7l4.1-7.6c-9.8,1.7-19.1,5.3-27.5,10.5c-1.6,1-3.2-1.5-1.6-2.5c9.3-5.7,19.6-9.5,30.4-11.2h0.4l4.7-9
		c-10.1,3-20,6.4-29.8,10.3c-1.8,0.7-2.6-2.1-0.9-2.8c10.4-4.2,21-7.8,31.8-10.9l0.6-0.1l3.4-7.2c-5.1-1.2-9.5-0.5-14.7,1.1
		c-5.6,1.8-11.1,4-16.4,6.5c-1.7,0.8-3.3-1.7-1.6-2.5c10.2-4.9,22.4-10.9,33.9-7.9c3-7.3,5.5-14.8,6.9-22.6c0.3-1.9,3.2-1.2,2.9,0.7
		c-1.4,7.7-3.7,15.1-6.7,22.3c6.4,7.4,10.7,16.4,12.5,26c0.3,1.9-2.5,2.7-2.8,0.9c-1.6-8.7-5.3-16.9-10.9-23.8l-3.4,7.5
		c5.9,10,9,21.1,12,32.3c0.5,1.8-2.3,2.7-2.8,0.9c-2.4-10.4-6-20.4-10.8-29.9l-5.6,10.7c5.3,10.1,8,21.3,7.9,32.7c0,1.9-3,2-3,0.1
		c0.1-10.3-2.1-20.4-6.6-29.7l-3.6,6.7l-1.9,3.5c4.2,8.3,6.1,17.5,5.4,26.8c-0.1,1.9-3.1,2-3,0.1c0.6-8.2-0.8-16.3-4.2-23.8l-6.2,11
		c4.2,7.5,6.5,15.8,6.9,24.4c0.1,1.9-2.9,2-3,0.1c-0.3-7.5-2.2-14.9-5.7-21.6l-3.7,6.1v0.1c3,8.3,4.5,16.9,4.5,25.7c0,1.9-3,2-3,0.1
		c0-7.8-1.2-15.3-3.6-22.7l-5.8,8.6l0.2,0.5c1.7,6.7,2,13.7,0.8,20.5C304.4,117.4,301.5,116.7,301.9,114.8L301.9,114.8z"/>
	
		<path id="pino_x5F_5_5_" fill="#002764" stroke="#002764" stroke-width="2" stroke-linecap="round" stroke-linejoin="round" stroke-miterlimit="10" d="
		M20,156.4c-1.9-5.5-5-10.5-8.9-14.8c-0.6,5-1.4,10-2.4,15c-0.4,1.9-3.3,1.2-2.9-0.7c0.7-3.3,1.3-6.7,1.8-10
		c-2.5,2.6-4.7,5.4-6.5,8.5c-1,1.6-3.6,0.3-2.6-1.4c2.6-4.4,5.8-8.3,9.7-11.7l0.1-0.1c0.5-4.1,0.9-8.2,1.1-12.3
		c-4.1,4.1-7.6,8.7-10.5,13.7c-1,1.6-3.6,0.3-2.6-1.4c3.6-6.2,8-11.7,13.2-16.5l0.2-0.1L10,116c-5.7,4.9-10.4,10.8-14,17.4
		c-0.9,1.7-3.5,0.3-2.6-1.4c3.9-7.3,9.2-13.8,15.6-19c0.3-0.3,0.7-0.4,1.1-0.4v-11.9c-7.8,6.5-14.2,14.5-18.9,23.5
		c-0.9,1.7-3.5,0.3-2.6-1.4c5.2-9.9,12.4-18.7,21.2-25.6l0.3-0.2L10,92.8l-0.2-8.6c-7.6,6.3-14,14-18.7,22.7
		c-0.9,1.7-3.5,0.3-2.6-1.4c5.3-9.6,12.5-18,21.2-24.7L9.3,70.6C2,78.2-4.9,86.1-11.5,94.3c-1.2,1.5-3.3-0.5-2.2-2
		c7-8.8,14.4-17.2,22.3-25.2c0.2-0.2,0.3-0.3,0.5-0.3l-0.6-8C3.7,60.3-0.6,63.1-3.8,67c-4,4.3-7.7,8.9-11.1,13.7
		c-1.1,1.5-3.7,0.2-2.6-1.4C-11,70.1-3.4,58.9,8.1,55.8c-1-7.8-2.5-15.6-5.2-23.1c-0.6-1.8,2.2-2.6,2.8-0.8c2.6,7.4,4.2,15,5.2,22.7
		c9.2,3.3,17.3,8.9,23.6,16.4c1.2,1.4-0.8,3.6-2,2.2c-5.7-6.8-12.9-12.1-21.2-15.3l0.7,8.2C22,71.9,30.3,80,38.4,88.2
		c1.3,1.3-0.7,3.5-2,2.2c-7.2-7.8-15.3-14.8-24.2-20.7l0.4,12.1c9.6,6.2,17.5,14.6,23,24.6c0.9,1.7-1.6,3.2-2.5,1.5
		c-5-9-11.9-16.7-20.4-22.5l0.1,7.6l0.1,3.9c7.8,5.1,14,12.3,17.9,20.7c0.8,1.7-1.7,3.3-2.5,1.5c-3.4-7.4-8.7-13.8-15.4-18.6v12.6
		c7.4,4.4,13.5,10.6,18,17.9c1,1.6-1.5,3.2-2.5,1.5c-4-6.4-9.3-11.8-15.6-16l-0.2,7.1h0.1c6.7,5.7,12.3,12.5,16.6,20.1
		c0.9,1.7-1.6,3.2-2.5,1.5c-3.8-6.7-8.6-12.8-14.3-18l-0.8,10.3l0.5,0.4c4.8,5,8.5,10.9,10.8,17.4C23.4,157.4,20.6,158.3,20,156.4
		L20,156.4z"/>
	
		<path id="pino_x5F_4_7_" fill="#002764" stroke="#002764" stroke-width="2" stroke-linecap="round" stroke-linejoin="round" stroke-miterlimit="10" d="
		M352.2,204.9c-1.6-5.5-4.3-10.7-8-15.2c-0.9,5-1.9,9.9-3.2,14.9c-0.5,1.8-3.3,1-2.8-0.8c0.9-3.3,1.6-6.6,2.3-9.9
		c-2.6,2.4-5,5.1-7,8.1c-1.1,1.6-3.6,0.1-2.5-1.5c2.8-4.3,6.2-8,10.3-11.1l0.1-0.1c0.7-4.1,1.3-8.1,1.8-12.2
		c-4.3,3.9-8,8.3-11.2,13.1c-1,1.6-3.6,0.1-2.5-1.5c3.9-6,8.6-11.2,14-15.8l0.2-0.1l0.8-8.5c-6,4.6-11,10.2-15,16.7
		c-1,1.6-3.5,0.1-2.5-1.5c4.3-7.1,9.9-13.3,16.6-18.2c0.4-0.3,0.7-0.3,1.1-0.3c0.3-3.9,0.5-7.9,0.6-11.8
		c-8.1,6.1-14.9,13.7-20.1,22.4c-1,1.6-3.5,0.1-2.5-1.5c5.7-9.6,13.4-17.9,22.5-24.4l0.3-0.2l0.1-4.2l0.3-8.6
		c-8,5.9-14.7,13.2-19.9,21.6c-1,1.6-3.5,0.1-2.5-1.5c5.9-9.3,13.5-17.4,22.6-23.7l0.2-10.1c-7.7,7.2-15.1,14.7-22.1,22.5
		c-1.3,1.4-3.3-0.7-2-2.1c7.5-8.4,15.3-16.3,23.6-23.9c0.2-0.2,0.3-0.3,0.5-0.3l-0.2-8c-4.8,1.2-9.2,3.8-12.6,7.5
		c-4.2,4.1-8.2,8.5-11.8,13.1c-1.2,1.5-3.7,0-2.5-1.5c7-8.9,15.2-19.7,26.8-22.1c-0.4-7.9-1.8-15.7-3.9-23.3
		c-0.5-1.8,2.3-2.5,2.9-0.7c2.2,7.5,3.4,15.2,3.9,22.9c9,3.8,16.8,9.8,22.7,17.7c1.1,1.5-1,3.6-2.1,2c-5.3-7.1-12.3-12.8-20.4-16.4
		l0.2,8.2c9.7,6.4,17.5,14.9,25.2,23.5c1.3,1.4-0.9,3.5-2.1,2c-7.1-7.9-14.2-15.9-23-22l-0.2,12.1c9.3,6.6,16.7,15.5,21.6,25.8
		c0.8,1.7-1.8,3.1-2.6,1.4c-4.5-9.3-11-17.3-19.2-23.6l-0.3,7.6l-0.1,3.9c7.5,5.5,13.3,13,16.8,21.6c0.7,1.7-1.9,3.2-2.6,1.4
		c-3-7.6-7.9-14.3-14.3-19.4l-0.7,12.6c7.1,4.8,12.9,11.3,17.1,18.8c0.9,1.7-1.7,3.1-2.6,1.4c-3.6-6.6-8.6-12.3-14.7-16.8L347,172
		h0.1c6.4,6,11.6,13.1,15.5,21c0.8,1.7-1.8,3.1-2.6,1.4c-3.4-7-7.9-13.2-13.3-18.7c-0.4,3.4-0.8,6.9-1.4,10.3l0.4,0.4
		c4.5,5.2,7.8,11.4,9.8,18C355.5,206.1,352.6,206.8,352.2,204.9L352.2,204.9z"/>
</g>
<g id="rami">
	<path id="pino_x5F_1_4_" fill="#009488" stroke="#009488" stroke-width="3" stroke-miterlimit="10" d="M164,49.9
		c5.3-2.5,11.1-3,16.9-3.3c-3.3,3.8-6.5,7.7-9.5,11.8c-1.1,1.5,1.3,3.2,2.4,1.7c2-2.7,4.1-5.4,6.3-8c-0.2,3.6-0.9,7.1-2,10.5
		c-0.6,1.8,2.2,2.8,2.8,1c1.6-4.9,2.3-9.8,2.2-15v-0.1c2.7-3.1,5.5-6.1,8.4-9.1c-0.4,5.8-1.4,11.5-3.2,17c-0.6,1.8,2.2,2.8,2.8,1
		c2.2-6.7,3.4-13.7,3.5-20.8v-0.2l6.2-6c0.2,7.6-1,15-3.6,22.1c-0.6,1.8,2.1,2.8,2.8,1c2.8-7.8,4.1-16.1,3.7-24.4
		c0-0.4-0.2-0.8-0.5-1l8.8-7.9c0.3,10.1-1.3,20.2-4.9,29.7c-0.7,1.8,2.1,2.8,2.8,1c3.9-10.5,5.5-21.7,4.9-32.9l-0.1-0.3
		c1.1-0.9,2.2-1.8,3.2-2.8l6.5-5.6c0.4,9.9-1.1,19.7-4.3,29.1c-0.6,1.8,2.1,2.8,2.8,1c3.6-10.3,5.1-21.2,4.4-32.1l-0.1-0.4
		c2.6-2.2,5.1-4.4,7.8-6.5c-0.7,10.5-2,20.9-3.7,31.3c-0.3,1.9,2.6,2.1,2.9,0.2c1.8-11.1,3.1-22.2,3.8-33.4l-0.1-0.6
		c2.1-1.7,4.2-3.3,6.4-4.8c2.3,4.8,2.5,9.2,2,14.6c-0.5,5.9-1.5,11.7-2.8,17.4c-0.4,1.8,2.3,2.9,2.8,1c2.6-11,5.8-24.2,0.4-34.8
		c6.5-4.5,13.3-8.5,20.6-11.6c1.8-0.7,0.5-3.4-1.3-2.7c-7.2,3-13.9,6.9-20.3,11.3c-8.6-4.7-18.2-7-28-6.6c-1.9,0.1-2.2,3-0.2,2.9
		c8.9-0.3,17.7,1.5,25.6,5.6l-6.6,5c-11-3.6-22.6-4.3-34.1-4.9c-1.9-0.1-2.2,2.9-0.2,2.9c10.6,0.5,21.3,1.1,31.6,4.1l-9.3,7.8
		c-11-3-22.5-3.3-33.7-0.7c-1.8,0.4-1.3,3.3,0.5,2.9c10-2.3,20.4-2.3,30.4,0.1l-5.7,4.9l-3,2.6c-9-2.3-18.5-2.2-27.4,0.5
		c-1.8,0.5-1.3,3.5,0.5,2.9c7.8-2.4,16.1-2.8,24.1-1l-9.4,8.4c-8.3-2.5-16.8-3-25.4-1.5c-1.9,0.3-1.3,3.2,0.5,2.9
		c7.5-1.3,15-1,22.3,0.9l-5.2,5h-0.1c-8.7-1.2-17.5-0.8-26.1,1.1c-1.9,0.4-1.3,3.3,0.5,2.9c7.5-1.7,15.2-2.1,22.9-1.3l-7.1,7.5
		l-0.6-0.1c-6.9,0.2-13.9,0.6-20.2,3.6C161,48.1,162.2,50.7,164,49.9L164,49.9z"/>
	<path id="pino_x5F_2_4_" fill="#009488" stroke="#009488" stroke-width="3" stroke-miterlimit="10" d="M243,58.4
		c5.6-1.5,11.5-1.8,17.2-1c-3.8,3.3-7.5,6.8-11,10.5c-1.3,1.4,0.8,3.4,2.2,2l7.3-7.1c-0.7,3.5-1.8,6.9-3.4,10.2
		c-0.8,1.7,1.8,3.1,2.6,1.4c2.2-4.6,3.6-9.4,4.2-14.5v-0.1l9.5-7.9c-1.1,5.7-2.9,11.2-5.5,16.4c-0.8,1.7,1.8,3.1,2.6,1.4
		c3.1-6.4,5.2-13.2,6.3-20.2v-0.2l6.9-5.1c-0.9,7.5-3,14.7-6.5,21.4c-0.9,1.7,1.7,3.1,2.6,1.4c3.8-7.3,6.2-15.4,7-23.6
		c0-0.4-0.1-0.8-0.3-1.1c3.2-2.3,6.5-4.5,9.8-6.7c-1,10.1-4,19.8-8.8,28.8c-0.9,1.7,1.7,3.1,2.6,1.4c5.3-9.9,8.4-20.7,9.3-31.9v-0.3
		l3.5-2.3l7.2-4.7c-0.9,9.9-3.7,19.5-8.2,28.3c-0.9,1.7,1.8,3.1,2.6,1.4c5-9.8,7.8-20.3,8.7-31.2v-0.4c2.8-1.8,5.7-3.7,8.6-5.4
		c-2.1,10.3-4.7,20.5-7.8,30.5c-0.6,1.8,2.3,2.5,2.9,0.6c3.3-10.7,6.1-21.6,8.3-32.6v-0.6l6.9-3.9c1.7,5,1.3,9.4,0.1,14.7
		c-1.3,5.7-3,11.4-5.1,16.9c-0.7,1.8,1.9,3.2,2.6,1.4c4-10.6,9-23.2,5.1-34.4c7-3.6,14.3-6.7,22-8.7c1.8-0.5,0.9-3.3-0.9-2.8
		c-7.5,2-14.7,5-21.6,8.5c-7.9-5.8-17.2-9.3-26.9-10.3c-1.9-0.2-2.5,2.7-0.6,2.9c8.9,0.9,17.3,3.9,24.6,8.9l-7.2,4
		c-10.5-5-21.8-7.3-33.1-9.4c-1.9-0.3-2.5,2.5-0.6,2.9c10.5,1.9,21,4,30.7,8.3l-10.3,6.5c-10.5-4.4-21.9-6.2-33.3-5.2
		c-1.9,0.2-1.8,3.1,0.1,3c10.3-1,20.5,0.4,30.1,4.2l-6.3,4.1l-3.3,2.1c-8.6-3.5-18-4.7-27.2-3.2c-1.9,0.3-1.7,3.3,0.1,3
		c8.1-1.3,16.3-0.6,24,2.2L282.9,40c-7.8-3.6-16.3-5.2-24.9-4.9c-1.9,0.1-1.8,3,0.1,3c7.6-0.3,15,1,22,3.9l-5.8,4.2h-0.1
		c-8.5-2.3-17.3-3.1-26-2.4c-1.9,0.2-1.8,3.1,0.1,3c7.7-0.6,15.4,0,22.9,1.8c-2.7,2.1-5.4,4.3-8.1,6.5l-0.6-0.2
		c-6.8-1.2-13.8-0.8-20.5,0.9C240.3,56.2,241.1,59,243,58.4z"/>
	<path id="pino_x5F_5_4_" fill="#009488" stroke="#009488" stroke-width="3" stroke-miterlimit="10" d="M319,146.4
		c1.9-5.5,5-10.5,8.9-14.8c0.6,5,1.4,10,2.4,15c0.4,1.9,3.3,1.2,2.9-0.7c-0.7-3.3-1.3-6.7-1.8-10c2.5,2.6,4.7,5.4,6.5,8.5
		c1,1.6,3.6,0.3,2.6-1.4c-2.6-4.4-5.9-8.3-9.7-11.7l-0.1-0.1c-0.5-4.1-0.9-8.2-1.1-12.3c4.1,4.1,7.6,8.7,10.5,13.7
		c1,1.6,3.6,0.3,2.6-1.4c-3.6-6.2-8-11.7-13.2-16.5l-0.2-0.1L329,106c5.7,4.9,10.4,10.8,14,17.4c0.9,1.7,3.5,0.3,2.6-1.4
		c-3.9-7.3-9.2-13.8-15.6-19c-0.3-0.3-0.7-0.4-1.1-0.4V90.7c7.8,6.5,14.2,14.5,18.9,23.5c0.9,1.7,3.5,0.3,2.6-1.4
		c-5.2-9.9-12.4-18.7-21.2-25.6l-0.3-0.2l0.1-4.2l0.2-8.6c7.6,6.3,14,14,18.7,22.7c0.9,1.7,3.5,0.3,2.6-1.4
		c-5.3-9.7-12.6-18.1-21.3-24.9l0.3-10.1c7.3,7.5,14.3,15.5,20.8,23.7c1.2,1.5,3.3-0.5,2.2-2c-7-8.8-14.4-17.2-22.3-25.2
		c-0.2-0.2-0.3-0.3-0.5-0.3l0.6-8c5.1,1.5,8.5,4.2,12.2,8.2c4,4.3,7.7,8.9,11.1,13.7c1.1,1.5,3.7,0.2,2.6-1.4
		c-6.5-9.3-14.1-20.5-25.6-23.6c1-7.8,2.5-15.6,5.2-23.1c0.6-1.8-2.2-2.6-2.8-0.8c-2.6,7.4-4.2,15-5.2,22.7
		c-9.2,3.3-17.3,8.9-23.6,16.4c-1.2,1.4,0.8,3.6,2,2.2c5.7-6.8,12.9-12.1,21.2-15.3l-0.7,8.2c-10,5.8-18.3,13.9-26.4,22.1
		c-1.3,1.3,0.7,3.5,2,2.2c7.5-7.6,15.1-15.1,24.2-20.7l-0.4,12.1c-9.6,6.2-17.5,14.6-23,24.6c-0.9,1.7,1.6,3.2,2.5,1.5
		c5-9,11.9-16.7,20.4-22.5l-0.1,7.6l-0.1,3.9c-7.8,5.1-14,12.3-17.9,20.7c-0.8,1.7,1.7,3.3,2.5,1.5c3.4-7.4,8.7-13.8,15.4-18.6v12.6
		c-7.4,4.4-13.5,10.6-18,17.9c-1,1.6,1.5,3.2,2.5,1.5c4-6.4,9.3-11.8,15.6-16l0.2,7.1H326c-6.7,5.7-12.3,12.5-16.6,20.1
		c-0.9,1.7,1.6,3.2,2.5,1.5c3.8-6.7,8.6-12.8,14.3-18l0.8,10.3l-0.5,0.4c-4.8,5-8.5,10.9-10.8,17.4
		C315.6,147.4,318.5,148.3,319,146.4L319,146.4z"/>
	<path id="pino_x5F_3_4_" fill="#009488" stroke="#009488" stroke-width="3" stroke-miterlimit="10" d="M118.9,4.9
		c-5.6-1.4-10.9-3.8-15.6-7.3c4.9-1.1,9.8-2.4,14.7-3.9c1.8-0.6,0.9-3.4-1-2.8l-9.8,2.8c2.3-2.8,4.9-5.2,7.8-7.4
		c1.5-1.1-0.1-3.6-1.6-2.5c-4.1,3-7.7,6.6-10.6,10.8l-0.1,0.1c-4,0.9-8.1,1.7-12.1,2.4c3.7-4.5,7.9-8.4,12.6-11.8
		c1.5-1.1-0.1-3.6-1.6-2.5c-5.8,4.1-10.9,9.1-15.2,14.8l-0.1,0.2L77.8-1c4.3-6.2,9.7-11.5,15.9-15.7c1.6-1.1-0.1-3.5-1.6-2.5
		C85.2-14.6,79.3-8.7,74.7-1.8c-0.2,0.4-0.3,0.8-0.2,1.1c-3.9,0.5-7.9,0.9-11.8,1.2c5.7-8.4,13-15.6,21.4-21.2
		c1.6-1.1-0.1-3.5-1.6-2.5C73.1-17,65.2-8.9,59.1,0.6L59,0.9l-4.2,0.4L46.2,2c5.5-8.2,12.5-15.3,20.6-21c1.6-1.1-0.1-3.5-1.6-2.5
		c-9,6.2-16.6,14.1-22.5,23.3l-0.2,0.4L32.4,2.9c6.8-8,13.9-15.8,21.4-23.1c1.4-1.3-0.9-3.3-2.2-1.9C43.6-14.3,36-6,28.9,2.6
		l-0.3,0.5l-8,0.2c0.9-5.2,3.4-8.9,6.9-13c3.9-4.4,8.1-8.5,12.5-12.4c1.4-1.2-0.2-3.7-1.6-2.5C29.8-17.2,19.5-8.5,17.6,3.2
		C9.7,3.1,1.8,2.3-5.9,0.5C-7.7,0-8.3,2.9-6.4,3.4C1.2,5.2,8.9,6,16.6,6.2C20.8,15,27.3,22.5,35.4,28c1.6,1.1,3.5-1.2,1.9-2.2
		c-7.4-4.9-13.4-11.7-17.4-19.6l8.2-0.1c6.8,9.4,15.7,16.8,24.7,24c1.5,1.2,3.4-1,1.9-2.2C46.2,21.5,38.4,14.2,31.6,6l12.1-0.8
		C50.9,14,60.1,21,70.6,25.5c1.7,0.7,3-1.9,1.3-2.7c-9.5-4-17.8-10.2-24.5-18l7.5-0.6l3.9-0.3c6,7.2,13.6,12.6,22.4,15.7
		c1.8,0.6,3.1-2,1.3-2.7c-7.7-2.7-14.6-7.3-20.1-13.4L75,2.2c5.2,6.9,11.9,12.4,19.6,16.1c1.7,0.8,3-1.8,1.3-2.7
		c-6.8-3.3-12.7-8-17.5-13.9l7.1-1l0.1,0.1c6.4,6.2,13.7,11,21.7,14.6c1.7,0.8,3-1.9,1.3-2.7C101.5,9.6,95,5.4,89.3,0.3
		c3.4-0.6,6.8-1.2,10.2-1.9l0.4,0.4c5.5,4.3,11.8,7.3,18.5,9C120.2,8.1,120.8,5.2,118.9,4.9z"/>
	<path id="pino_x5F_4_6_" fill="#009488" stroke="#009488" stroke-width="3" stroke-miterlimit="10" d="M37.1,104.8
		c-1.3-5.7-0.6-11.5,0.4-17.2c3,4.1,6.2,8,9.5,11.9c1.3,1.4,3.4-0.6,2.2-2l-6.5-7.9c3.4,1,6.7,2.4,9.9,4.2c1.6,1,3.2-1.5,1.6-2.5
		c-4.4-2.6-9.1-4.4-14.1-5.4H40c-2.5-3.3-4.8-6.7-7.1-10.1c5.6,1.6,10.9,3.8,15.9,6.8c1.6,1,3.2-1.5,1.6-2.5
		c-6.1-3.6-12.7-6.2-19.6-7.9h-0.2l-4.5-7.3c7.4,1.4,14.4,4.3,20.8,8.3c1.6,1,3.2-1.5,1.6-2.5c-7-4.4-14.8-7.4-23-8.9
		c-0.4-0.1-0.8,0-1.1,0.2l-5.9-10.3c10,1.8,19.5,5.6,28,11.1c1.6,1,3.2-1.5,1.6-2.5c-9.4-6-20-10.1-31-11.9h-0.3l-2-3.7l-4.1-7.6
		c9.8,1.7,19.1,5.3,27.5,10.5c1.6,1,3.2-1.5,1.6-2.5c-9.3-5.7-19.6-9.5-30.4-11.2H9l-4.7-9c10.1,3,20,6.4,29.8,10.3
		c1.8,0.7,2.6-2.1,0.9-2.8c-10.4-4.2-21-7.8-31.8-10.9l-0.6-0.1c-1.3-2.3-2.5-4.7-3.6-7.2c5.1-1.2,9.5-0.5,14.7,1.1
		c5.6,1.8,11.1,4,16.4,6.5c1.7,0.8,3.3-1.7,1.6-2.5C21.5,14.4,9.3,8.4-2.2,11.4C-5.3,4.1-7.5-3.4-9-11.2c-0.3-1.9-3.2-1.2-2.9,0.7
		c1.4,7.7,3.7,15.1,6.7,22.3c-6.4,7.4-10.7,16.4-12.5,26c-0.3,1.9,2.5,2.7,2.8,0.9C-13.3,30-9.6,21.8-4,14.9l3.4,7.5
		c-5.9,10-9,21.1-12,32.3c-0.5,1.8,2.3,2.7,2.8,0.9c2.4-10.4,6-20.4,10.8-29.9l5.6,10.7c-5.3,10.1-8,21.3-7.9,32.7c0,1.9,3,2,3,0.1
		c0-10.5,2.2-20.6,6.7-29.8c1.9,3.4,3.7,6.8,5.5,10.2c-4.2,8.2-6.1,17.5-5.4,26.7c0.1,1.9,3.1,2,3,0.1c-0.6-8.2,0.8-16.3,4.2-23.8
		l6.2,11C17.7,71.1,15.4,79.4,15,88c-0.1,1.9,2.9,2,3,0.1c0.3-7.6,2.2-14.9,5.7-21.6l3.7,6.1v0.1c-3,8.3-4.5,16.9-4.5,25.7
		c0,1.9,3,2,3,0.1c0-7.8,1.2-15.3,3.6-22.7l5.8,8.6L35,85c-1.7,6.7-2,13.7-0.8,20.5C34.6,107.4,37.5,106.7,37.1,104.8L37.1,104.8z"
		/>
</g>
<path id="bocca" fill="none" stroke="#11142A" stroke-width="3" stroke-linecap="round" stroke-linejoin="round" stroke-miterlimit="10" d="
	M157,334.2h-4.7"/>
<ellipse id="bocca2" fill="none" stroke="#11142A" stroke-width="3" stroke-linecap="round" stroke-linejoin="round" stroke-miterlimit="10" cx="155.3" cy="334.4" rx="3.8" ry="2.9"/>
<g id="braccio-six-conserto">
	<path fill="none" stroke="#5347FF" stroke-width="10" stroke-miterlimit="10" d="M130.8,404.4c52.4,4.5,73.4,2.7,81-5.4
		c2.3-2.5,3.4-6,2.4-9.3c-2.1-6.9-8.5-11.6-15.7-11.6"/>
	<path fill="none" stroke="#0C45CA" stroke-width="10" stroke-miterlimit="10" stroke-dasharray="22" d="M130.8,404.4
		c52.4,4.5,73.4,2.7,81-5.4c2.3-2.5,3.4-6,2.4-9.3c-2.1-6.9-8.5-11.6-15.7-11.6"/>
	<path id="mano_six_00000133490671645723739620000009166666353727198337_" fill="#F8CEDE" d="M132.9,399.5l-2.6,9.3
		c0,0-11.7,0.4-11.1-1.8c0.6-2.2,6.3-1.8,6.3-1.8s-8.8-1.6-7.9-3.8c0.9-2.2,8.6-0.1,8.6-0.1s-4.7-1.9-3.7-4.6
		C123.4,393.9,132.9,399.5,132.9,399.5z"/>
</g>
<g id="braccio-dex-conserto">
	<path fill="none" stroke="#5347FF" stroke-width="10" stroke-miterlimit="10" d="M187.3,407.3c-52.4,4.5-73.4,2.7-81-5.4
		c-2.4-2.5-3.3-6-2.4-9.3c1.2-4,4.6-12.1,17.7-12.1"/>
	<path fill="none" stroke="#0C45CA" stroke-width="10" stroke-miterlimit="10" stroke-dasharray="22" d="M187.3,407.3
		c-52.4,4.5-73.4,2.7-81-5.4c-2.4-2.5-3.3-6-2.4-9.3c1.2-4,4.6-12.1,17.7-12.1"/>
	<path id="mano_six_00000114062054388517870960000002922429533928407452_" fill="#F8CEDE" d="M185.2,402.5l2.6,9.3
		c0,0,11.7,0.4,11.1-1.8c-0.6-2.2-6.3-1.8-6.3-1.8s8.8-1.6,7.9-3.8c-0.9-2.2-8.6-0.1-8.6-0.1s4.7-1.9,3.7-4.6
		C194.6,396.9,185.2,402.5,185.2,402.5z"/>
</g>
</svg>
