<?xml version="1.0" encoding="utf-8"?>
<!-- Generator: Adobe Illustrator 27.0.1, SVG Export Plug-In . SVG Version: 6.00 Build 0)  -->
<svg version="1.1" id="Livello_1" xmlns="http://www.w3.org/2000/svg" xmlns:xlink="http://www.w3.org/1999/xlink" x="0px" y="0px"
	viewBox="0 0 339.5 405.4" enable-background="new 0 0 339.5 405.4" xml:space="preserve">
	<ellipse opacity="0.48" fill="#C1D1D6" stroke="#C1D1D6" stroke-width="3" stroke-linecap="round" stroke-linejoin="round" stroke-miterlimit="10" enable-background="new    " cx="161.6" cy="378.7" rx="65.3" ry="3.4" />
	<g id="braccio_x5F_six_x5F_1">
		<path fill="none" stroke="#009488" stroke-width="10" stroke-miterlimit="10" d="M194.2,217.2c0,0,48.6,20.1,44.7,102.1" />
		<path fill="none" stroke="#6CF7C6" stroke-width="10" stroke-miterlimit="10" stroke-dasharray="22" d="M194.1,217
		c0,0,48.6,20.1,44.7,102.1" />
		<path id="mano_six_4_" fill="#F8CEDE" d="M233.6,318.5h9.6c0,0,3.5,11.2,1.2,11.2s-3.5-5.6-3.5-5.6s0.8,8.9-1.6,8.7
		c-2.4-0.2-2.4-8.2-2.4-8.2s-0.6,5.1-3.4,4.8S233.6,318.5,233.6,318.5z" />
	</g>
	<g id="braccio_x5F_dex_x5F_1">
		<path fill="none" stroke="#009488" stroke-width="10" stroke-miterlimit="10" d="M91.8,320.3c0,0-4.3-73.8,37.8-89.6" />
		<path fill="none" stroke="#6CF7C6" stroke-width="10" stroke-miterlimit="10" stroke-dasharray="22" d="M91.6,320
		c0,0-4.3-73.8,37.8-89.6" />
		<path fill="#F8CEDE" d="M96.6,319.7H87c0,0-3.5,11.2-1.2,11.2s3.5-5.6,3.5-5.6s-0.8,8.9,1.6,8.7s2.4-8.2,2.4-8.2s0.6,5.1,3.4,4.8
		C99.4,330.3,96.6,319.7,96.6,319.7z" />
	</g>
	<g id="gamba_x5F_dex_1_">
		<line fill="none" stroke="#009488" stroke-width="10" stroke-miterlimit="10" x1="130.4" y1="307.6" x2="130.4" y2="356.8" />

		<line fill="none" stroke="#6CF7C6" stroke-width="10" stroke-miterlimit="10" stroke-dasharray="22" x1="130.3" y1="307.4" x2="130.3" y2="356.6" />
		<path id="Scarpa_dex_4_" fill="#002764" stroke="#002764" stroke-width="2" stroke-miterlimit="10" d="M133.8,356.8l-7.9-0.5
		c0,0-1.2,10.4-6.1,11s-7.4-1.4-8.7-5.5c-1.3-4-1-7.3-3.5-7.3c-3,0-3.1,5.3-1.8,9.8c1.2,4.3,5.5,9.8,12.2,9.8s10.4-6.7,10.4-6.7
		l0.5,6.7h5L133.8,356.8L133.8,356.8z" />
	</g>
	<g id="gamba_x5F_six_1_">
		<line fill="none" stroke="#009488" stroke-width="10" stroke-miterlimit="10" x1="193.9" y1="309.4" x2="193.9" y2="358.6" />

		<line fill="none" stroke="#6CF7C6" stroke-width="10" stroke-miterlimit="10" stroke-dasharray="22" x1="193.7" y1="309.1" x2="193.7" y2="358.3" />
		<path id="Scarpa_six_4_" fill="#002764" stroke="#002764" stroke-width="2" stroke-miterlimit="10" d="M190.5,358l7.9-0.5
		c0,0,1.5,9.2,6.1,11c4,1.5,7.1-1.3,8.1-5.5c1.3-5.2,1-7.9,3.5-7.9c3,0,3.7,5.9,2.4,10.4c-1.2,4.3-5.5,9.8-12.2,9.8
		s-10.4-6.7-10.4-6.7l-0.5,6.7h-5L190.5,358L190.5,358z" />
	</g>
	<g id="Corpo_4_">
		<path d="M201.3,206.2c0,0-2.1,108.3-2.1,102.7c0-0.2-73.3,2.7-74.4,0c-1.2-2.7-0.7-76.4,0-84.4" />
		<polygon fill="#002764" stroke="#002764" stroke-miterlimit="10" points="199.6,281 199.6,292 124.7,294.1 124.3,283.4 	" />
		<path d="M161.3,264.7c-4.5-1-6.7,4.1-6.3,5.3c0.4,1.3,0.9,4.6,3.6,4.7c2.8,0,5.8-1.7,5.8-4.7C164.4,267,164.2,265.3,161.3,264.7z"
		 />
		<path d="M161.4,246.6c-4.5-1-6.7,4.1-6.3,5.3c0.4,1.3,0.9,4.6,3.6,4.7s5.8-1.7,5.8-4.7C164.5,248.9,164.3,247.2,161.4,246.6z" />
	</g>
	<g>
		<defs>
			<path id="forma-faccia" d="M192.9,97.7c-28.3-9.4-56.4-7.3-73.8,8.7c-7.4,7.4-11.7,17.7-14.1,28.5v0.1c-3.7,16.4-3,33.9-2.3,44.4
			c0.1,0.4,0.9,0.7,2.3,0.9c2.1,20,8.8,39.9,27.7,49.3c28.5,10.6,56.6,7.1,73.5-13c8.1-10.5,11.2-25.4,12-40.7
			c0.2-0.1,0.3-0.2,0.4-0.4C219.5,156.9,227.8,113,192.9,97.7z" />
		</defs>
		<clipPath id="forma-faccia_00000106866043046554961920000000216513391094998924_">
			<use xlink:href="#forma_x002D_faccia" overflow="visible" />
		</clipPath>
		<g clip-path="url(#forma-faccia_00000106866043046554961920000000216513391094998924_)">

			<image overflow="visible" width="150" height="230" xlink:href="Xmas/1x/Asset 1faccia.png" transform="matrix(0.7824 0 0 0.7824 99.6579 64.3706)"></image>
		</g>
	</g>
	<g id="orecchio_dex">
		<path fill="#F8CEDE" d="M207.4,181.4c0,0,2.4-26.8,12.3-40s15.3-17.6,17.3-18.9c0,0,2.7,18.3-9.3,37.2S207.4,181.4,207.4,181.4z" />

		<line fill="none" stroke="#DE8BB5" stroke-width="3" stroke-linecap="round" stroke-linejoin="round" stroke-miterlimit="10" x1="208.8" y1="172.6" x2="222" y2="151.8" />
	</g>
	<g id="orecchio_dex_1_">
		<path fill="#F8CEDE" d="M75.6,129.6c0,0,12.6,4.4,21.9,21.4s9.3,16.6,12.6,28.1c0,0-19.1-9.4-27.2-24.8S75.6,129.6,75.6,129.6z" />

		<line fill="none" stroke="#DE8BB5" stroke-width="3" stroke-linecap="round" stroke-linejoin="round" stroke-miterlimit="10" x1="106" y1="169.8" x2="87.6" y2="152.6" />
	</g>
	<g>
		<path d="M116.7,107.1c0,0,3.2-53.7,25.6-67s33.6-16,46.7-16s35.5,12.8,43.3,23.8s9.3,42.1,7.8,43.9s-9.7-36.6-25.8-37
		s-18,14.6-19,18.7s-2.4,28.1-2.4,28.1L116.7,107.1z" />
		<path d="M116.5,107.1c0,0,4.8-34.7,9.2-44.8c0,0,12.5,35,14.2,40.8c0,0,14.8-44.1,16.9-46.6C158.9,54.1,174,101,174,101
		s24.5-40,25.9-40.9s-2.9,41.4-2.9,41.3C197,101.2,116.5,107.1,116.5,107.1z" />
		<path d="M243.1,91.9c-8.2-1.7-12.2,6.8-11.5,9c0.8,2.2,1.6,7.8,6.6,7.8c5,0.1,10.5-2.8,10.5-7.8S248.3,93,243.1,91.9z" />
	</g>
</svg>