<?xml version="1.0" encoding="utf-8"?>
<!-- Generator: Adobe Illustrator 27.0.1, SVG Export Plug-In . SVG Version: 6.00 Build 0)  -->
<svg version="1.1" id="felice" xmlns="http://www.w3.org/2000/svg" xmlns:xlink="http://www.w3.org/1999/xlink" x="0px" y="0px"
	 viewBox="0 0 340 580" enable-background="new 0 0 340 580" xml:space="preserve">
<path id="BG" fill="#0C45CA" d="M-10.5-2.7h340v1032.6h-340V-2.7z"/>
<g id="Neve_1_" opacity="0.3">
	<path fill="#FFFFFF" d="M270.1,140.7c-3-0.6-4.4,2.5-4.2,3.3c0.3,0.8,0.6,2.9,2.4,2.9s3.8-1,3.8-2.9S272,141,270.1,140.7
		L270.1,140.7z M319.8,161.4c-3-0.6-4.4,2.5-4.2,3.3c0.3,0.8,0.6,2.9,2.4,2.9s3.8-1,3.8-2.9S321.7,161.8,319.8,161.4L319.8,161.4z
		 M37.8,182.2c-3-0.6-4.4,2.5-4.2,3.3c0.3,0.8,0.6,2.9,2.4,2.9c1.8,0,3.8-1,3.8-2.9S39.7,182.5,37.8,182.2z M96.2,136
		c-3-0.6-4.4,2.5-4.2,3.3c0.3,0.8,0.6,2.9,2.4,2.9s3.8-1,3.8-2.9S98.1,136.4,96.2,136z M322.9,291.9c-3-0.6-4.4,2.5-4.2,3.3
		c0.3,0.8,0.6,2.9,2.4,2.9s3.8-1,3.8-2.9S324.8,292.3,322.9,291.9L322.9,291.9z M284.2,375.3c-3-0.6-4.4,2.5-4.2,3.3
		c0.3,0.8,0.6,2.9,2.4,2.9s3.8-1,3.8-2.9S286,375.7,284.2,375.3L284.2,375.3z M297.8,325c-3-0.6-4.4,2.5-4.2,3.3
		c0.3,0.8,0.6,2.9,2.4,2.9s3.8-1,3.8-2.9S299.6,325.4,297.8,325L297.8,325z M72.5,234.1c-3-0.6-4.4,2.5-4.2,3.3
		c0.3,0.8,0.6,2.9,2.4,2.9s3.8-1,3.8-2.9S74.4,234.5,72.5,234.1z M27.6,429.9c-3-0.6-4.4,2.5-4.2,3.3c0.3,0.8,0.6,2.9,2.4,2.9
		s3.8-1,3.8-2.9S29.5,430.3,27.6,429.9z M227.3,112.3c-2.4-0.5-3.6,2.1-3.4,2.7c0.2,0.7,0.5,2.4,2,2.4s3.1-0.8,3.1-2.4
		S228.8,112.7,227.3,112.3L227.3,112.3z M277.1,92.8c-2.4-0.5-3.6,2.1-3.4,2.7c0.2,0.7,0.5,2.4,2,2.4s3.1-0.8,3.1-2.4
		S278.7,93.1,277.1,92.8z M24.9,126.4c-2.4-0.5-3.6,2.1-3.4,2.7c0.2,0.7,0.5,2.4,2,2.4s3.1-0.8,3.1-2.4
		C26.5,127.6,26.4,126.7,24.9,126.4z M176.5,121.2c-2.4-0.5-3.6,2.1-3.4,2.7c0.2,0.7,0.5,2.4,2,2.4s3.1-0.8,3.1-2.4
		S178,121.6,176.5,121.2L176.5,121.2z M224.8,230.9c-2.4-0.5-3.6,2.1-3.4,2.7c0.2,0.7,0.5,2.4,2,2.4s3.1-0.8,3.1-2.4
		C226.4,232.1,226.3,231.3,224.8,230.9L224.8,230.9z M256,342.5c-2.4-0.5-3.6,2.1-3.4,2.7c0.2,0.7,0.5,2.4,2,2.4s3.1-0.8,3.1-2.4
		S257.6,342.8,256,342.5z M303.2,221.9c-2.4-0.5-3.6,2.1-3.4,2.7c0.2,0.7,0.5,2.4,2,2.4s3.1-0.8,3.1-2.4S304.7,222.2,303.2,221.9z
		 M65.5,188.9c-2.4-0.5-3.6,2.1-3.4,2.7c0.2,0.7,0.5,2.4,2,2.4s3.1-0.8,3.1-2.4C67.1,190.1,67,189.2,65.5,188.9z M22.3,247.8
		c-2.4-0.5-3.6,2.1-3.4,2.7c0.2,0.7,0.5,2.4,2,2.4s3.1-0.8,3.1-2.4S23.9,248.1,22.3,247.8z M291.2,274c-3-0.6-4.4,2.5-4.2,3.3
		c0.3,0.8,0.6,2.9,2.4,2.9s3.8-1,3.8-2.9S293.1,274.4,291.2,274L291.2,274z M75.6,414.1c-3-0.6-4.4,2.5-4.2,3.3
		c0.3,0.8,0.6,2.9,2.4,2.9s3.8-1,3.8-2.9S77.5,414.5,75.6,414.1z M38.2,302.4c-3-0.6-4.4,2.5-4.2,3.3c0.3,0.8,0.6,2.9,2.4,2.9
		c1.8,0,3.8-1,3.8-2.9S40.1,302.8,38.2,302.4z M130,92.2c-3-0.6-4.4,2.5-4.2,3.3c0.3,0.8,0.6,2.9,2.4,2.9c1.8,0,3.8-1,3.8-2.9
		S131.9,92.6,130,92.2z M259.7,426.8c-3-0.6-4.4,2.5-4.2,3.3c0.3,0.8,0.6,2.9,2.4,2.9s3.8-1,3.8-2.9S261.6,427.2,259.7,426.8z
		 M319.8,410.5c-3-0.6-4.4,2.5-4.2,3.3c0.3,0.8,0.6,2.9,2.4,2.9s3.8-1,3.8-2.9S321.7,410.9,319.8,410.5L319.8,410.5z M298.2,445.2
		c-3-0.6-4.4,2.5-4.2,3.3c0.3,0.8,0.6,2.9,2.4,2.9s3.8-1,3.8-2.9S300,445.6,298.2,445.2L298.2,445.2z M70.8,356.8
		c-3-0.6-4.4,2.5-4.2,3.3c0.3,0.8,0.6,2.9,2.4,2.9s3.8-1,3.8-2.9S72.6,357.2,70.8,356.8z M38.2,351.2c-3-0.6-4.4,2.5-4.2,3.3
		c0.3,0.8,0.6,2.9,2.4,2.9c1.8,0,3.8-1,3.8-2.9S40.1,351.6,38.2,351.2z"/>
</g>
<g id="palla2">
	<path fill="#FDB9D1" d="M284.9,121c-10.2-5.2-9.9-11.5-9.9-11.5h-7.8c0,0,0.4,6.3-10.5,11.5s-18.2,9.7-17.8,19.4
		s10.5,13.8,19.5,17.2c9,3.4,12.7,13.2,12.7,13.2h0.2c0,0,3.5-9.8,11.9-13.2s17.9-7.5,18.3-17.2C301.8,130.7,295.1,126.2,284.9,121
		L284.9,121z"/>
	<g id="fiore_x5F_1_1_">
		<path fill="#FF0055" d="M268.2,141.1l-13,3.4c-3,0.8-6-1.5-6-4.7c0-2.8,2.3-5,5.1-4.9c0.4,0,0.8,0.1,1.1,0.1l12.8,3.3V141.1z
			 M272.1,141.1l13,3.4c3,0.8,6-1.5,6-4.7c0-2.8-2.3-5-5.1-4.9c-0.4,0-0.8,0.1-1.1,0.1l-12.8,3.3V141.1z M271.1,142.1l3.4,13
			c0.8,3-1.5,6-4.7,6c-2.8,0-5-2.3-4.9-5.1c0-0.4,0.1-0.8,0.1-1.1l3.3-12.8L271.1,142.1L271.1,142.1z M271.2,138.2l3.4-13
			c0.8-3-1.5-6-4.7-6c-2.8,0-5,2.3-4.9,5.1c0,0.4,0.1,0.8,0.1,1.1l3.3,12.8H271.2L271.2,138.2z"/>
		<circle fill="#5347FF" cx="270" cy="139.8" r="2.8"/>
		<path fill="none" stroke="#5347FF" stroke-linecap="round" stroke-linejoin="round" stroke-miterlimit="10" d="M284.2,152.2
			l-28.4-24.9 M255.8,152.2l28.4-24.9"/>
	</g>
	<path fill="#FFF6C9" d="M274.3,106.9h-6.7c-1,0-1.9,0.9-1.9,2v0.1c0,1.1,0.9,2,1.9,2h6.8c1,0,1.9-0.9,1.9-2v-0.1
		C276.2,107.8,275.4,106.9,274.3,106.9L274.3,106.9z"/>
	<path fill="none" stroke="#003580" stroke-width="3" stroke-miterlimit="10" d="M270.5,106.9l-0.6-94.3"/>
</g>
<g>
	
		<path id="pino_x5F_1_1_" fill="#002764" stroke="#002764" stroke-width="2" stroke-linecap="round" stroke-linejoin="round" stroke-miterlimit="10" d="
		M181.5,13c-5.8,0.9-11.3,2.9-16.2,6c4.8,1.5,9.6,3.2,14.3,5.2c1.8,0.7,0.6,3.4-1.2,2.7c-3.1-1.3-6.3-2.5-9.5-3.6
		c2,2.9,4.4,5.6,7.2,8c1.4,1.2-0.4,3.6-1.8,2.3c-3.8-3.3-7.1-7.2-9.7-11.6l-0.1-0.1c-3.9-1.2-7.9-2.4-11.9-3.4
		c3.3,4.7,7.1,9,11.6,12.8c1.4,1.2-0.4,3.6-1.8,2.3c-5.4-4.6-10-10-13.8-16l-0.1-0.2l-8.4-1.9c3.8,6.5,8.7,12.3,14.6,17
		c1.5,1.2-0.4,3.5-1.8,2.3c-6.5-5.2-11.8-11.6-15.8-18.9c-0.2-0.4-0.2-0.8-0.2-1.1l-11.7-2.2c5,8.9,11.6,16.6,19.6,22.9
		c1.5,1.2-0.3,3.5-1.8,2.3c-8.8-7-16-15.6-21.3-25.5l-0.1-0.3l-4.2-0.7l-8.5-1.4c4.8,8.6,11.2,16.3,18.8,22.6
		c1.5,1.2-0.4,3.5-1.8,2.3c-8.4-6.9-15.4-15.4-20.4-25.1l-0.1-0.4l-10-1.5c6.1,8.6,12.6,16.9,19.4,24.8c1.2,1.4-1.2,3.2-2.4,1.7
		C105,25.8,98,17,91.6,7.7l-0.2-0.6l-7.9-0.8c0.5,5.3,2.6,9.2,5.8,13.5c3.5,4.7,7.3,9.2,11.5,13.4c1.3,1.3-0.5,3.7-1.8,2.3
		c-8.1-8-17.7-17.5-18.6-29.4C72.5,5.5,64.6,5.8,56.8,7c-1.9,0.3-2.2-2.7-0.3-2.9c7.7-1.3,15.5-1.4,23.2-1
		c5-8.5,11.9-15.4,20.5-20.2c1.6-0.9,3.4,1.5,1.7,2.4c-7.7,4.3-14.3,10.5-19,18l8.2,0.8c7.6-8.8,17.1-15.4,26.6-21.9
		c1.6-1.1,3.3,1.3,1.7,2.4c-8.8,6-17.6,12-24.8,19.9l12,1.8C114.4-2,124.2-8.2,135-11.8c1.8-0.6,2.9,2.2,1,2.8
		c-9.8,3.2-18.6,8.6-25.9,15.9l7.5,1.3l3.9,0.7c6.4-6.7,14.6-11.5,23.6-13.8c1.8-0.5,2.9,2.3,1,2.8c-8,2.1-15.2,6-21.1,11.7
		l12.4,2.3c5.7-6.4,12.9-11.3,20.9-14.4c1.8-0.7,2.8,2.1,1,2.8C152.4,3,146.1,7.2,141,12.6l7,1.6l0.1-0.1
		c6.8-5.5,14.6-9.8,22.9-12.6c1.8-0.6,2.9,2.2,1,2.8c-7.3,2.5-14.2,6.1-20.3,10.8c3.4,0.8,6.7,1.7,10,2.7l0.4-0.4
		c6-3.4,12.1-6.7,19.1-7.4C183.1,9.8,183.4,12.8,181.5,13z"/>
	
		<path id="pino_x5F_2_1_" fill="#002764" stroke="#002764" stroke-width="2" stroke-linecap="round" stroke-linejoin="round" stroke-miterlimit="10" d="
		M99.4,65.7c-5.6-1.5-11.5-1.8-17.2-1c3.8,3.3,7.5,6.8,11,10.5c1.3,1.4-0.8,3.4-2.2,2l-7.3-7.1c0.7,3.5,1.8,6.9,3.4,10.2
		c0.8,1.7-1.8,3.1-2.6,1.4c-2.2-4.6-3.6-9.5-4.2-14.5v-0.1l-9.5-7.9c1.1,5.7,2.9,11.2,5.5,16.4c0.8,1.7-1.8,3.1-2.6,1.4
		c-3.1-6.4-5.2-13.2-6.3-20.2v-0.2l-6.9-5.1c0.9,7.5,3,14.7,6.5,21.4c0.9,1.7-1.7,3.1-2.6,1.4c-3.8-7.3-6.2-15.4-7-23.6
		c0-0.4,0.1-0.8,0.3-1.1c-3.2-2.3-6.5-4.5-9.8-6.7c1,10.1,4,19.8,8.8,28.8c0.9,1.7-1.7,3.1-2.6,1.4c-5.3-9.9-8.4-20.7-9.3-31.9v-0.3
		l-3.5-2.3l-7.2-4.7c0.9,9.9,3.7,19.4,8.2,28.3c0.9,1.7-1.8,3.1-2.6,1.4c-5-9.8-7.8-20.3-8.7-31.2V32c-2.8-1.8-5.7-3.7-8.6-5.4
		c2.1,10.3,4.7,20.5,7.8,30.5c0.6,1.8-2.3,2.5-2.9,0.6C24,47,21.2,36.1,19,25.1v-0.6l-6.9-3.9c-1.7,5-1.3,9.4-0.1,14.7
		c1.3,5.7,3,11.4,5.1,16.9c0.7,1.8-1.9,3.2-2.6,1.4c-4-10.6-9-23.2-5.1-34.4c-7-3.6-14.3-6.7-22-8.7c-1.8-0.5-0.9-3.3,0.9-2.8
		c7.5,2,14.7,5,21.6,8.5c8.1-6,17.2-9.6,27-10.5c1.9-0.2,2.5,2.7,0.6,2.9c-8.9,0.9-17.3,3.9-24.6,8.9l7.2,4
		c10.5-5,21.8-7.3,33.1-9.4c1.9-0.3,2.5,2.5,0.6,2.9c-10.5,1.5-20.8,4.3-30.7,8.3l10.3,6.5c10.5-4.4,21.9-6.2,33.3-5.2
		c1.9,0.2,1.8,3.1-0.1,3c-10.3-1-20.5,0.4-30.1,4.2c3.1,2.1,6.3,4.2,9.6,6.2c8.6-3.5,18-4.7,27.2-3.2c1.9,0.3,1.7,3.3-0.1,3
		c-8.1-1.3-16.3-0.6-24,2.2l10.4,7.1c7.8-3.6,16.3-5.2,24.9-4.9c1.9,0.1,1.8,3-0.1,3c-7.6-0.3-15,1-22,3.9l5.8,4.2h0.1
		c8.5-2.3,17.3-3.1,26-2.4c1.9,0.2,1.8,3.1-0.1,3c-7.7-0.6-15.4,0-22.9,1.8c2.7,2.1,5.4,4.3,8.1,6.5L80,62
		c6.9-0.7,13.8-1.3,20.5,0.9C102.1,63.5,101.2,66.3,99.4,65.7z"/>
	
		<path id="pino_x5F_3_1_" fill="#002764" stroke="#002764" stroke-width="2" stroke-linecap="round" stroke-linejoin="round" stroke-miterlimit="10" d="
		M223.5,12.2c5.6-1.4,10.9-3.8,15.6-7.3c-4.9-1.1-9.8-2.4-14.7-3.9c-1.8-0.6-0.9-3.4,1-2.8l9.8,2.8c-2.3-2.8-4.9-5.2-7.8-7.4
		c-1.5-1.1,0.1-3.6,1.6-2.5c4.2,3,7.8,6.7,10.7,10.9c4,0.9,8.1,1.7,12.1,2.4c-3.7-4.5-7.9-8.4-12.6-11.8c-1.5-1.1,0.1-3.6,1.6-2.5
		c5.7,4.1,10.8,9.1,15.1,14.8l0.1,0.2l8.5,1.2c-4.3-6.2-9.7-11.5-15.9-15.7c-1.6-1.1,0.1-3.5,1.6-2.5c6.9,4.7,12.8,10.6,17.4,17.5
		c0.2,0.4,0.3,0.8,0.2,1.1c3.9,0.5,7.9,0.9,11.8,1.2c-5.7-8.4-13-15.6-21.4-21.2c-1.6-1.1,0.1-3.5,1.6-2.5
		c9.3,6.2,17.3,14.3,23.3,23.7l0.2,0.3l4.2,0.4l8.6,0.7c-5.5-8.2-12.5-15.3-20.6-21c-1.6-1.1,0.1-3.5,1.6-2.5
		c9,6.2,16.5,14.1,22.5,23.3l0.2,0.4l10.1,0.7c-6.8-8-13.9-15.8-21.4-23.1c-1.4-1.3,0.9-3.3,2.2-1.9c8,7.9,15.6,16.1,22.8,24.7
		l0.3,0.5l8,0.2c-0.9-5.2-3.4-8.9-6.9-13c-3.9-4.4-8.1-8.5-12.5-12.4c-1.4-1.2,0.2-3.7,1.6-2.5c8.6,7.4,18.9,16.1,20.8,27.8
		c7.9-0.2,15.7-0.9,23.5-2.8c1.9-0.4,2.4,2.5,0.5,2.9c-7.6,1.8-15.3,2.6-23.1,2.8c-4.2,8.8-10.6,16.3-18.7,21.8
		c-1.6,1.1-3.5-1.2-1.9-2.2c7.4-5,13.4-11.6,17.4-19.6l-8.2-0.1c-7.1,9.1-15.4,17.2-24.7,24c-1.5,1.2-3.4-1-1.9-2.2
		c8.5-6.4,16.3-13.7,23.1-21.9l-12.1-0.8c-7.1,8.9-16.3,15.9-26.8,20.4c-1.7,0.7-3-1.9-1.3-2.7c9.5-4,17.8-10.2,24.5-18l-7.5-0.6
		l-3.9-0.3c-5.9,7.2-13.6,12.6-22.4,15.7c-1.8,0.6-3.1-2-1.3-2.7c7.7-2.7,14.6-7.3,20.1-13.4l-12.6-1.3
		c-5.2,6.9-11.9,12.4-19.6,16.1c-1.7,0.8-3-1.8-1.3-2.7c6.8-3.3,12.7-8,17.5-13.9c-2.4-0.3-4.7-0.6-7.1-1l-0.1,0.1
		c-6.4,6-13.7,10.9-21.7,14.5c-1.7,0.8-3-1.9-1.3-2.7c7.1-3.1,13.6-7.3,19.3-12.4c-3.4-0.6-6.8-1.2-10.2-1.9L242.6,6
		c-5.5,4.3-11.8,7.3-18.5,9C222.1,15.5,221.6,12.6,223.5,12.2z"/>
	
		<path id="pino_x5F_4_1_" fill="#002764" stroke="#002764" stroke-width="2" stroke-linecap="round" stroke-linejoin="round" stroke-miterlimit="10" d="
		M305.3,112.2c1.3-5.7,0.6-11.5-0.4-17.2c-3,4.1-6.2,8-9.5,11.9c-1.3,1.4-3.4-0.6-2.2-2l6.5-7.9c-3.4,1-6.7,2.4-9.9,4.2
		c-1.6,1-3.2-1.5-1.6-2.5c4.4-2.6,9.1-4.4,14.1-5.4h0.1c2.5-3.3,4.8-6.7,7.1-10.1c-5.6,1.6-10.9,3.8-15.9,6.8
		c-1.6,1-3.2-1.5-1.6-2.5c6.1-3.6,12.7-6.2,19.6-7.9h0.2l4.5-7.3c-7.4,1.4-14.4,4.3-20.8,8.3c-1.6,1-3.2-1.5-1.6-2.5
		c7-4.4,14.8-7.4,23-8.9c0.4-0.1,0.8,0,1.1,0.2l5.9-10.3c-10,1.8-19.5,5.6-28,11.1c-1.6,1-3.2-1.5-1.6-2.5c9.5-6.1,19.9-10,31-11.9
		h0.3l2-3.7l4.1-7.6c-9.8,1.7-19.1,5.3-27.5,10.5c-1.6,1-3.2-1.5-1.6-2.5c9.3-5.7,19.6-9.5,30.4-11.2h0.4l4.7-9
		c-10.1,3-20,6.4-29.8,10.3c-1.8,0.7-2.6-2.1-0.9-2.8c10.4-4.2,21-7.8,31.8-10.9l0.6-0.1l3.4-7.2c-5.1-1.2-9.5-0.5-14.7,1.1
		c-5.6,1.8-11.1,4-16.4,6.5c-1.7,0.8-3.3-1.7-1.6-2.5c10.2-4.9,22.4-10.9,33.9-7.9c3-7.3,5.5-14.8,6.9-22.6c0.3-1.9,3.2-1.2,2.9,0.7
		c-1.4,7.7-3.7,15.1-6.7,22.3c6.4,7.4,10.7,16.4,12.5,26c0.3,1.9-2.5,2.7-2.8,0.9c-1.6-8.7-5.3-16.9-10.9-23.8l-3.4,7.5
		c5.9,10,9,21.1,12,32.3c0.5,1.8-2.3,2.7-2.8,0.9c-2.4-10.4-6-20.4-10.8-29.9l-5.6,10.7c5.3,10.1,8,21.3,7.9,32.7c0,1.9-3,2-3,0.1
		c0.1-10.3-2.1-20.4-6.6-29.7l-3.6,6.7l-1.9,3.5c4.2,8.3,6.1,17.5,5.4,26.8c-0.1,1.9-3.1,2-3,0.1c0.6-8.2-0.8-16.3-4.2-23.8l-6.2,11
		c4.2,7.5,6.5,15.8,6.9,24.4c0.1,1.9-2.9,2-3,0.1c-0.3-7.5-2.2-14.9-5.7-21.6l-3.7,6.1v0.1c3,8.3,4.5,16.9,4.5,25.7c0,1.9-3,2-3,0.1
		c0-7.8-1.2-15.3-3.6-22.7l-5.8,8.6l0.2,0.5c1.7,6.7,2,13.7,0.8,20.5C307.7,114.7,304.8,114,305.3,112.2L305.3,112.2z"/>
	
		<path id="pino_x5F_5_1_" fill="#002764" stroke="#002764" stroke-width="2" stroke-linecap="round" stroke-linejoin="round" stroke-miterlimit="10" d="
		M23.4,153.8c-1.9-5.5-5-10.5-8.9-14.8c-0.6,5-1.4,10-2.4,15c-0.4,1.9-3.3,1.2-2.9-0.7c0.7-3.3,1.3-6.7,1.8-10
		c-2.5,2.6-4.7,5.4-6.5,8.5c-1,1.6-3.6,0.3-2.6-1.4c2.6-4.4,5.8-8.3,9.7-11.7l0.1-0.1c0.5-4.1,0.9-8.2,1.1-12.3
		C8.7,130.4,5.2,135,2.3,140c-1,1.6-3.6,0.3-2.6-1.4c3.6-6.2,8-11.7,13.2-16.5l0.2-0.1l0.3-8.6c-5.7,4.9-10.4,10.8-14,17.4
		c-0.9,1.7-3.5,0.3-2.6-1.4c3.9-7.3,9.2-13.8,15.6-19c0.3-0.3,0.7-0.4,1.1-0.4V98.1c-7.8,6.5-14.2,14.5-18.9,23.5
		c-0.9,1.7-3.5,0.3-2.6-1.4c5.2-9.9,12.4-18.7,21.2-25.6l0.3-0.2l-0.1-4.2l-0.2-8.6c-7.6,6.3-14,14-18.7,22.7
		c-0.9,1.7-3.5,0.3-2.6-1.4C-2.9,93.3,4.3,84.8,13,78.1L12.7,68C5.3,75.5-1.6,83.4-8.2,91.6c-1.2,1.5-3.3-0.5-2.2-2
		c7-8.8,14.4-17.2,22.3-25.2c0.2-0.2,0.3-0.3,0.5-0.3l-0.6-8c-4.8,1.5-9,4.3-12.2,8.2c-4,4.3-7.7,8.9-11.1,13.7
		c-1.1,1.5-3.7,0.2-2.6-1.4C-7.6,67.4,0,56.2,11.4,53.2c-1-7.8-2.5-15.6-5.2-23.1c-0.6-1.8,2.2-2.6,2.8-0.8c2.6,7.4,4.2,15,5.2,22.7
		c9.2,3.3,17.3,8.9,23.6,16.4c1.2,1.4-0.8,3.6-2,2.2c-5.7-6.8-12.9-12.1-21.2-15.3l0.7,8.2c10,5.8,18.3,13.9,26.4,22.1
		c1.3,1.3-0.7,3.5-2,2.2C32.5,79.9,24.4,72.9,15.6,67L16,79.1c9.6,6.2,17.5,14.6,23,24.6c0.9,1.7-1.6,3.2-2.5,1.5
		c-5-9-11.9-16.7-20.4-22.5l0.1,7.6l0.1,3.9c7.8,5.1,14,12.3,17.9,20.7c0.8,1.7-1.7,3.3-2.5,1.5c-3.4-7.4-8.7-13.8-15.4-18.6v12.6
		c7.4,4.4,13.5,10.6,18,17.9c1,1.6-1.5,3.2-2.5,1.5c-4-6.4-9.3-11.8-15.6-16l-0.2,7.1h0.1c6.7,5.7,12.3,12.5,16.6,20.1
		c0.9,1.7-1.6,3.2-2.5,1.5c-3.8-6.7-8.6-12.8-14.3-18l-0.8,10.3l0.5,0.4c4.8,5,8.5,10.9,10.8,17.4C26.7,154.8,23.9,155.6,23.4,153.8
		L23.4,153.8z"/>
	
		<path id="pino_x5F_4_2_" fill="#002764" stroke="#002764" stroke-width="2" stroke-linecap="round" stroke-linejoin="round" stroke-miterlimit="10" d="
		M355.5,202.3c-1.6-5.5-4.3-10.7-8-15.2c-0.9,5-1.9,9.9-3.2,14.9c-0.5,1.8-3.3,1-2.8-0.8c0.9-3.3,1.6-6.6,2.3-9.9
		c-2.6,2.4-5,5.1-7,8.1c-1.1,1.6-3.6,0.1-2.5-1.5c2.8-4.3,6.2-8,10.3-11.1l0.1-0.1c0.7-4.1,1.3-8.1,1.8-12.2
		c-4.3,3.9-8,8.3-11.2,13.1c-1,1.6-3.6,0.1-2.5-1.5c3.9-6,8.6-11.2,14-15.8l0.2-0.1l0.8-8.5c-6,4.6-11,10.2-15,16.7
		c-1,1.6-3.5,0.1-2.5-1.5c4.3-7.1,9.9-13.3,16.6-18.2c0.4-0.3,0.7-0.3,1.1-0.3c0.3-3.9,0.5-7.9,0.6-11.8
		c-8.1,6.1-14.9,13.7-20.1,22.4c-1,1.6-3.5,0.1-2.5-1.5c5.7-9.6,13.4-17.9,22.5-24.4l0.3-0.2l0.1-4.2l0.3-8.6
		c-8,5.9-14.7,13.2-19.9,21.6c-1,1.6-3.5,0.1-2.5-1.5c5.9-9.3,13.5-17.4,22.6-23.7l0.2-10.1c-7.7,7.2-15.1,14.7-22.1,22.5
		c-1.3,1.4-3.3-0.7-2-2.1c7.5-8.4,15.3-16.3,23.6-23.9c0.2-0.2,0.3-0.3,0.5-0.3l-0.2-8c-4.8,1.2-9.2,3.8-12.6,7.5
		c-4.2,4.1-8.2,8.5-11.8,13.1c-1.2,1.5-3.7,0-2.5-1.5c7-8.9,15.2-19.7,26.8-22.1c-0.4-7.9-1.8-15.7-3.9-23.3
		c-0.5-1.8,2.3-2.5,2.9-0.7c2.2,7.5,3.4,15.2,3.9,22.9c9,3.8,16.8,9.8,22.7,17.7c1.1,1.5-1,3.6-2.1,2c-5.3-7.1-12.3-12.8-20.4-16.4
		l0.2,8.2c9.7,6.4,17.5,14.9,25.2,23.5c1.3,1.4-0.9,3.5-2.1,2c-7.1-7.9-14.2-15.9-23-22l-0.2,12.1c9.3,6.6,16.7,15.5,21.6,25.8
		c0.8,1.7-1.8,3.1-2.6,1.4c-4.5-9.3-11-17.3-19.2-23.6l-0.3,7.6l-0.1,3.9c7.5,5.5,13.3,13,16.8,21.6c0.7,1.7-1.9,3.2-2.6,1.4
		c-3-7.6-7.9-14.3-14.3-19.4l-0.7,12.6c7.1,4.8,12.9,11.3,17.1,18.8c0.9,1.7-1.7,3.1-2.6,1.4c-3.6-6.6-8.6-12.3-14.7-16.8l-0.6,7.1
		h0.1c6.4,6,11.6,13.1,15.5,21c0.8,1.7-1.8,3.1-2.6,1.4c-3.4-7-7.9-13.2-13.3-18.7c-0.4,3.4-0.8,6.9-1.4,10.3l0.4,0.4
		c4.5,5.2,7.8,11.4,9.8,18C358.8,203.4,356,204.1,355.5,202.3L355.5,202.3z"/>
</g>
<path id="pino_x5F_1" fill="#009488" stroke="#009488" stroke-width="3" stroke-miterlimit="10" d="M167.3,47.2
	c5.3-2.5,11.1-3,16.9-3.3c-3.3,3.8-6.5,7.7-9.5,11.8c-1.1,1.5,1.3,3.2,2.4,1.7c2-2.7,4.1-5.4,6.3-8c-0.2,3.6-0.9,7.1-2,10.5
	c-0.6,1.8,2.2,2.8,2.8,1c1.6-4.9,2.3-9.8,2.2-15v-0.1c2.7-3.1,5.5-6.1,8.4-9.1c-0.4,5.8-1.4,11.5-3.2,17c-0.6,1.8,2.2,2.8,2.8,1
	c2.2-6.7,3.4-13.7,3.5-20.8v-0.2l6.2-6c0.2,7.6-1,15-3.6,22.1c-0.6,1.8,2.1,2.8,2.8,1c2.8-7.8,4.1-16.1,3.7-24.4
	c0-0.4-0.2-0.8-0.5-1l8.8-7.9c0.3,10.1-1.3,20.2-4.9,29.7c-0.7,1.8,2.1,2.8,2.8,1c3.9-10.5,5.5-21.7,4.9-32.9L218,15
	c1.1-0.9,2.2-1.8,3.2-2.8l6.5-5.6c0.4,9.9-1.1,19.7-4.3,29.1c-0.6,1.8,2.1,2.8,2.8,1c3.6-10.3,5.1-21.2,4.4-32.1l-0.1-0.4
	c2.6-2.2,5.1-4.4,7.8-6.5c-0.7,10.5-2,20.9-3.7,31.3c-0.3,1.9,2.6,2.1,2.9,0.2c1.8-11.1,3.1-22.2,3.8-33.4l-0.1-0.6
	c2.1-1.7,4.2-3.3,6.4-4.8c2.3,4.8,2.5,9.2,2,14.6c-0.5,5.9-1.5,11.7-2.8,17.4c-0.4,1.8,2.3,2.9,2.8,1c2.6-11,5.8-24.2,0.4-34.8
	c6.5-4.5,13.3-8.5,20.6-11.6c1.8-0.7,0.5-3.4-1.3-2.7c-7.2,3-13.9,6.9-20.3,11.3c-8.6-4.7-18.2-7-28-6.6c-1.9,0.1-2.2,3-0.2,2.9
	c8.9-0.3,17.7,1.5,25.6,5.6l-6.6,5c-11-3.6-22.6-4.3-34.1-4.9c-1.9-0.1-2.2,2.9-0.2,2.9c10.6,0.5,21.3,1.1,31.6,4.1l-9.3,7.8
	c-11-3-22.5-3.3-33.7-0.7c-1.8,0.4-1.3,3.3,0.5,2.9c10-2.3,20.4-2.3,30.4,0.1l-5.7,4.9l-3,2.6c-9-2.3-18.5-2.2-27.4,0.5
	c-1.8,0.5-1.3,3.5,0.5,2.9c7.8-2.4,16.1-2.8,24.1-1l-9.4,8.4c-8.3-2.5-16.8-3-25.4-1.5c-1.9,0.3-1.3,3.2,0.5,2.9
	c7.5-1.3,15-1,22.3,0.9l-5.2,5h-0.1c-8.7-1.2-17.5-0.8-26.1,1.1c-1.9,0.4-1.3,3.3,0.5,2.9c7.5-1.7,15.2-2.1,22.9-1.3l-7.1,7.5
	l-0.6-0.1c-6.9,0.2-13.9,0.6-20.2,3.6C164.3,45.4,165.6,48.1,167.3,47.2L167.3,47.2z"/>
<path id="pino_x5F_2" fill="#009488" stroke="#009488" stroke-width="3" stroke-miterlimit="10" d="M246.3,55.7
	c5.6-1.5,11.5-1.8,17.2-1c-3.8,3.3-7.5,6.8-11,10.5c-1.3,1.4,0.8,3.4,2.2,2l7.3-7.1c-0.7,3.5-1.8,6.9-3.4,10.2
	c-0.8,1.7,1.8,3.1,2.6,1.4c2.2-4.6,3.6-9.4,4.2-14.5v-0.1l9.5-7.9c-1.1,5.7-2.9,11.2-5.5,16.4c-0.8,1.7,1.8,3.1,2.6,1.4
	c3.1-6.4,5.2-13.2,6.3-20.2v-0.2l6.9-5.1c-0.9,7.5-3,14.7-6.5,21.4c-0.9,1.7,1.7,3.1,2.6,1.4c3.8-7.3,6.2-15.4,7-23.6
	c0-0.4-0.1-0.8-0.3-1.1c3.2-2.3,6.5-4.5,9.8-6.7c-1,10.1-4,19.8-8.8,28.8c-0.9,1.7,1.7,3.1,2.6,1.4c5.3-9.9,8.4-20.7,9.3-31.9v-0.3
	l3.5-2.3l7.2-4.7c-0.9,9.9-3.7,19.5-8.2,28.3c-0.9,1.7,1.8,3.1,2.6,1.4c5-9.8,7.8-20.3,8.7-31.2V22c2.8-1.8,5.7-3.7,8.6-5.4
	c-2.1,10.3-4.7,20.5-7.8,30.5c-0.6,1.8,2.3,2.5,2.9,0.6c3.3-10.7,6.1-21.6,8.3-32.6v-0.6l6.9-3.9c1.7,5,1.3,9.4,0.1,14.7
	c-1.3,5.7-3,11.4-5.1,16.9c-0.7,1.8,1.9,3.2,2.6,1.4c4-10.6,9-23.2,5.1-34.4c7-3.6,14.3-6.7,22-8.7c1.8-0.5,0.9-3.3-0.9-2.8
	c-7.5,2-14.7,5-21.6,8.5c-7.9-5.8-17.2-9.3-26.9-10.3c-1.9-0.2-2.5,2.7-0.6,2.9c8.9,0.9,17.3,3.9,24.6,8.9l-7.2,4
	c-10.5-5-21.8-7.3-33.1-9.4c-1.9-0.3-2.5,2.5-0.6,2.9c10.5,1.9,21,4,30.7,8.3L312.4,20c-10.5-4.4-21.9-6.2-33.3-5.2
	c-1.9,0.2-1.8,3.1,0.1,3c10.3-1,20.5,0.4,30.1,4.2l-6.3,4.1l-3.3,2.1c-8.6-3.5-18-4.7-27.2-3.2c-1.9,0.3-1.7,3.3,0.1,3
	c8.1-1.3,16.3-0.6,24,2.2l-10.4,7.1c-7.8-3.6-16.3-5.2-24.9-4.9c-1.9,0.1-1.8,3,0.1,3c7.6-0.3,15,1,22,3.9l-5.8,4.2h-0.1
	c-8.5-2.3-17.3-3.1-26-2.4c-1.9,0.2-1.8,3.1,0.1,3c7.7-0.6,15.4,0,22.9,1.8c-2.7,2.1-5.4,4.3-8.1,6.5l-0.6-0.2
	c-6.8-1.2-13.8-0.8-20.5,0.9C243.6,53.5,244.5,56.3,246.3,55.7L246.3,55.7z"/>
<path id="pino_x5F_5" fill="#009488" stroke="#009488" stroke-width="3" stroke-miterlimit="10" d="M322.3,143.8
	c1.9-5.5,5-10.5,8.9-14.8c0.6,5,1.4,10,2.4,15c0.4,1.9,3.3,1.2,2.9-0.7c-0.7-3.3-1.3-6.7-1.8-10c2.5,2.6,4.7,5.4,6.5,8.5
	c1,1.6,3.6,0.3,2.6-1.4c-2.6-4.4-5.9-8.3-9.7-11.7l-0.1-0.1c-0.5-4.1-0.9-8.2-1.1-12.3c4.1,4.1,7.6,8.7,10.5,13.7
	c1,1.6,3.6,0.3,2.6-1.4c-3.6-6.2-8-11.7-13.2-16.5l-0.2-0.1l-0.3-8.6c5.7,4.9,10.4,10.8,14,17.4c0.9,1.7,3.5,0.3,2.6-1.4
	c-3.9-7.3-9.2-13.8-15.6-19c-0.3-0.3-0.7-0.4-1.1-0.4V88.1c7.8,6.5,14.2,14.5,18.9,23.5c0.9,1.7,3.5,0.3,2.6-1.4
	c-5.2-9.9-12.4-18.7-21.2-25.6l-0.3-0.2l0.1-4.2l0.2-8.6c7.6,6.3,14,14,18.7,22.7c0.9,1.7,3.5,0.3,2.6-1.4
	c-5.3-9.7-12.6-18.1-21.3-24.9l0.3-10.1c7.3,7.5,14.3,15.5,20.8,23.7c1.2,1.5,3.3-0.5,2.2-2c-7-8.8-14.4-17.2-22.3-25.2
	c-0.2-0.2-0.3-0.3-0.5-0.3l0.6-8c5.1,1.5,8.5,4.2,12.2,8.2c4,4.3,7.7,8.9,11.1,13.7c1.1,1.5,3.7,0.2,2.6-1.4
	c-6.5-9.3-14.1-20.5-25.6-23.6c1-7.8,2.5-15.6,5.2-23.1c0.6-1.8-2.2-2.6-2.8-0.8c-2.6,7.4-4.2,15-5.2,22.7
	c-9.2,3.3-17.3,8.9-23.6,16.4c-1.2,1.4,0.8,3.6,2,2.2c5.7-6.8,12.9-12.1,21.2-15.3l-0.7,8.2c-10,5.8-18.3,13.9-26.4,22.1
	c-1.3,1.3,0.7,3.5,2,2.2c7.5-7.6,15.1-15.1,24.2-20.7L329.4,69c-9.6,6.2-17.5,14.6-23,24.6c-0.9,1.7,1.6,3.2,2.5,1.5
	c5-9,11.9-16.7,20.4-22.5l-0.1,7.6l-0.1,3.9c-7.8,5.1-14,12.3-17.9,20.7c-0.8,1.7,1.7,3.3,2.5,1.5c3.4-7.4,8.7-13.8,15.4-18.6v12.6
	c-7.4,4.4-13.5,10.6-18,17.9c-1,1.6,1.5,3.2,2.5,1.5c4-6.4,9.3-11.8,15.6-16l0.2,7.1h-0.1c-6.7,5.7-12.3,12.5-16.6,20.1
	c-0.9,1.7,1.6,3.2,2.5,1.5c3.8-6.7,8.6-12.8,14.3-18l0.8,10.3l-0.5,0.4c-4.8,5-8.5,10.9-10.8,17.4
	C318.9,144.8,321.8,145.6,322.3,143.8L322.3,143.8z"/>
<path id="BG_x5F_2" opacity="0.9" fill="#FFFFFF" enable-background="new    " d="M427.3,605.2c0-73.7-120.6-133.4-269.5-133.4
	s-269.5,59.7-269.5,133.4c0,43.5,42.2,82.2,107.4,106.6v334.3H338V704.4C392.9,679.9,427.3,644.6,427.3,605.2z"/>
<ellipse opacity="0.5" fill="#C1D1D6" stroke="#C1D1D6" stroke-width="3" stroke-linecap="round" stroke-linejoin="round" stroke-miterlimit="10" enable-background="new    " cx="158.5" cy="512.3" rx="65.3" ry="3.4"/>
<g id="gruppo">
	<g id="braccio-six-basso">
		<path fill="none" stroke="#009488" stroke-width="10" stroke-miterlimit="10" d="M235.9,452.9c1.3-10.8,2.7-35.7-9.9-63
			c-10.2-22.1-24.9-35.7-33.3-42.3"/>
		<path fill="none" stroke="#6CF7C6" stroke-width="10" stroke-miterlimit="10" d="M235.9,452.9c1.3-10.8,2.7-35.7-9.9-63
			c-10.2-22.1-24.9-35.7-33.3-42.3"/>
		<path fill="#FDB9D1" d="M230.6,452h9.6c0,0,3.5,11.2,1.2,11.2s-3.5-5.6-3.5-5.6s0.8,8.9-1.6,8.7s-2.4-8.2-2.4-8.2
			s-0.6,5.1-3.4,4.8C227.8,462.6,230.6,452,230.6,452L230.6,452z"/>
	</g>
	<g id="braccio-dex-basso">
		<path fill="none" stroke="#009488" stroke-width="10" stroke-miterlimit="10" d="M127.1,363.5c0,0-41.2,12.3-38.3,90.4"/>
		<path fill="none" stroke="#6CF7C6" stroke-width="10" stroke-miterlimit="10" d="M127.1,363.5c0,0-41.2,12.3-38.3,90.4"/>
		<path fill="#FDB9D1" d="M93.6,453.2H84c0,0-3.5,11.2-1.2,11.2s3.5-5.6,3.5-5.6s-0.8,8.9,1.6,8.7s2.4-8.2,2.4-8.2s0.6,5.1,3.4,4.8
			C96.4,463.8,93.6,453.2,93.6,453.2z"/>
	</g>
	<g id="braccio-dex-alto">
		<path fill="none" stroke="#009488" stroke-width="10" stroke-miterlimit="10" d="M50.3,303.6c0,0,26.7,68.9,71.6,65.9"/>
		<path fill="none" stroke="#6CF7C6" stroke-width="10" stroke-miterlimit="10" d="M50.3,303.9c0,0,26.7,68.9,71.6,65.9"/>
		<path fill="#FDB9D1" d="M55,302.2l-8.8,4c0,0-7.8-8.7-5.8-9.6s5.5,3.6,5.5,3.6s-4.4-7.8-2.1-8.6c2.3-0.8,5.6,6.5,5.6,6.5
			s-1.6-4.9,1.1-5.8C53.2,291.3,55,302.2,55,302.2z"/>
	</g>
	<g id="braccio-six-alto">
		<path fill="none" stroke="#009488" stroke-width="10" stroke-miterlimit="10" d="M185.8,364.3c0,0,52.4,5,87.4-69.3"/>
		<path fill="none" stroke="#6CF7C6" stroke-width="10" stroke-miterlimit="10" d="M185.6,364.5c0,0,52.4,5,87.4-69.3"/>
		<path id="mano_six_2_" fill="#FDB9D1" d="M268,293.4l8.5,4.5c0,0,8.3-8.2,6.3-9.3s-5.7,3.3-5.7,3.3s4.9-7.5,2.6-8.4
			c-2.2-0.9-6,6.2-6,6.2s1.9-4.8-0.8-5.9C270.5,282.7,268,293.4,268,293.4L268,293.4z"/>
	</g>
	<g id="gamba_x5F_dex_1_">
		<path fill="none" stroke="#009488" stroke-width="10" stroke-miterlimit="10" d="M127.4,441.2v49.2"/>
		<path fill="none" stroke="#6CF7C6" stroke-width="10" stroke-miterlimit="10" d="M127.2,440.9v49.2"/>
	</g>
	<g id="gamba_x5F_six_1_">
		<path fill="none" stroke="#009488" stroke-width="10" stroke-miterlimit="10" d="M190.8,442.9v49.3"/>
		<path fill="none" stroke="#6CF7C6" stroke-width="10" stroke-miterlimit="10" d="M190.7,442.7v49.2"/>
	</g>
	<g id="Corpo_4_">
		<path fill="#009488" d="M198.3,339.8c0,0-2.1,108.3-2.1,102.7c0-0.2-73.3,2.7-74.4,0c-1.2-2.7-0.7-76.4,0-84.4"/>
		<path fill="#002764" stroke="#002764" stroke-miterlimit="10" d="M196.5,414.6v11l-74.8,2.1l-0.4-10.7L196.5,414.6z"/>
		<path fill="#002764" d="M158.3,398.3c-4.5-1-6.7,4.1-6.3,5.3c0.4,1.3,0.9,4.6,3.6,4.7c2.8,0,5.8-1.7,5.8-4.7
			S161.2,398.9,158.3,398.3z M158.4,380.2c-4.5-1-6.7,4.1-6.3,5.3c0.4,1.3,0.9,4.6,3.6,4.7s5.8-1.7,5.8-4.7
			C161.4,382.5,161.2,380.8,158.4,380.2z"/>
	</g>
	<g id="cappello">
		<path fill="#002764" d="M274.3,251.8c-11.3-2.3-16.8,9.4-15.8,12.4s2.1,10.7,9.1,10.8c6.9,0.1,14.4-3.9,14.4-10.8
			S281.5,253.3,274.3,251.8L274.3,251.8z"/>
		<path fill="#009488" d="M100.2,272.8c0,0,4.4-74,35.2-92.3s46.3-22,64.4-22s49,17.6,59.7,32.7c10.7,15.1,12.7,57.9,10.7,60.5
			s-13.4-50.4-35.6-51c-22.1-0.6-24.8,20.2-26.2,25.8c-1.3,5.7-3.3,38.7-3.3,38.7L100.2,272.8z"/>
		<path fill="#002764" d="M99.8,272.8c0,0,2-35.6,12.6-61.7c0,0,17.3,48.1,19.6,56.2c0,0,20.4-60.8,23.3-64.1
			c2.9-3.4,23.7,61.2,23.7,61.2s33.7-55.1,35.7-56.4c2-1.3-4,57-4,56.8S99.8,272.8,99.8,272.8z"/>
	</g>
	<path fill="#FDB9D1" d="M100.5,272.8c-0.3,22-7.3,73.8,26.6,90.7c27.3,10.1,54.2,6.8,70.4-12.5c17.3-22.3,15.6-65.9,13.9-86.2
		c-0.7-3.3-39.7,0.3-55.4,1C140.4,266.5,102.5,269,100.5,272.8z"/>
	<g id="orecchio_dex">
		<path fill="#FDB9D1" d="M210.4,315.9c0,0,2.4-26.8,12.3-40c4.8-7.1,10.6-13.5,17.3-18.9c0,0,2.7,18.3-9.3,37.2
			S210.4,315.9,210.4,315.9L210.4,315.9z"/>
		<path fill="none" stroke="#DE8BB5" stroke-width="3" stroke-linecap="round" stroke-linejoin="round" stroke-miterlimit="10" d="
			M211.8,307.1l13.2-20.8"/>
	</g>
	<g id="orecchio_dex_1_">
		<path fill="#FDB9D1" d="M68.6,277.2c0,0,12.6,4.4,21.9,21.4s9.3,16.6,12.6,28.1c0,0-19.1-9.4-27.2-24.8
			C68,286.7,68.6,277.2,68.6,277.2z"/>
		<path fill="none" stroke="#DE8BB5" stroke-width="3" stroke-linecap="round" stroke-linejoin="round" stroke-miterlimit="10" d="
			M99,317.3l-18.4-17.2"/>
	</g>
	<g id="facce">
		<g id="sopracciglia-2">
			<path fill="none" stroke="#111428" stroke-width="3" stroke-linecap="round" stroke-linejoin="round" stroke-miterlimit="10" d="
				M117.9,284.6c0,0,2.6-3.7,6.8-0.8"/>
			<path fill="none" stroke="#111428" stroke-width="3" stroke-linecap="round" stroke-linejoin="round" stroke-miterlimit="10" d="
				M182.9,281.9c0,0,4.1-2.5,7,0.6"/>
		</g>
		<g id="sopracciglia" display="none">
			
				<path display="inline" fill="none" stroke="#11142A" stroke-width="3" stroke-linecap="round" stroke-linejoin="round" stroke-miterlimit="10" d="
				M187.4,281.7c0,0,4.6,1.9,5.9,3.8"/>
			
				<path display="inline" fill="none" stroke="#11142A" stroke-width="3" stroke-linecap="round" stroke-linejoin="round" stroke-miterlimit="10" d="
				M117.9,284.5c0,0,4.5-2.1,6.8-1.8"/>
		</g>
		
			<path id="bocca" fill="none" stroke="#11142A" stroke-width="3" stroke-linecap="round" stroke-linejoin="round" stroke-miterlimit="10" d="
			M158,331.3c0,0,0.1,5-3.4,5.2s-6.5-3.9-6.5-3.9"/>
		<circle fill="#FFFFFF" cx="121.8" cy="300.7" r="9.2"/>
		<circle fill="#FFFFFF" cx="186.5" cy="300.7" r="9.2"/>
		<circle id="Occhio_Dex_4_" fill="red" cx="122.3" cy="300.5" r="2.5"/>
		<circle id="Occhio_six_4_" fill="#11142A" cx="187" cy="300.5" r="2.5"/>
		
			<path id="bocca_x5F_small" fill="none" stroke="#111428" stroke-width="3" stroke-linecap="round" stroke-linejoin="round" stroke-miterlimit="10" d="
			M151.2,328c0,0,0.5,0.2,2,0.2c1,0,1.5-0.2,1.5-0.2"/>
		
			<path id="bocca-2" fill="none" stroke="#11142A" stroke-width="3" stroke-linecap="round" stroke-linejoin="round" stroke-miterlimit="10" d="
			M152.7,338.4c0,0-5.4,1.5-5.5-1.2c-0.1-2.8,4.6-3.4,4.6-3.4s-4.8-1.1-4.6-3.2s4.7-2.9,4.7-2.9"/>
		<path fill="#FDB9D1" d="M122.6,329.9c5,0,9-4.2,9-9.3c0-5.1-4-9.3-9-9.3s-9,4.2-9,9.3c-0.2,5,3.7,9.1,8.7,9.3
			C122.4,329.9,122.5,329.9,122.6,329.9z M187,329.9c5,0,9-4.2,9-9.3c0-5.1-4-9.3-9-9.3s-9,4.2-9,9.3c-0.2,5,3.7,9.1,8.7,9.3
			C186.8,329.9,186.9,329.9,187,329.9z"/>
		
			<path id="Guancia_9_" fill="#FF0055" stroke="#FF0055" stroke-width="2" stroke-linecap="round" stroke-linejoin="round" stroke-miterlimit="10" d="
			M195,317.2c-6.3-1.4-9.3,5.6-8.7,7.4s1.2,6.4,5,6.5c3.9,0.1,8-2.3,8-6.5S199,318.1,195,317.2z"/>
		
			<path id="Guancia_8_" fill="#FF0055" stroke="#FF0055" stroke-width="2" stroke-linecap="round" stroke-linejoin="round" stroke-miterlimit="10" d="
			M118.6,320.3c2.4,0.3,5.9,1,4.7,7.7c-1.2,6.9-4.1,5.1-6.5,5.1s-4.1-3.7-4.4-6.3C112.1,324.2,115.7,319.9,118.6,320.3L118.6,320.3z
			"/>
		
			<path id="Naso_4_" fill="none" stroke="#11142A" stroke-width="3" stroke-linecap="round" stroke-linejoin="round" stroke-miterlimit="10" d="
			M149.9,308.9c0,0,0.5,5.6,3,5.6s3-5.6,3-6.6"/>
		
			<path id="occhio-dex-2" fill="none" stroke="#11142A" stroke-width="3" stroke-linecap="round" stroke-linejoin="round" stroke-miterlimit="10" d="
			M116.3,303c0,0,5.5-6,12.3,0"/>
		
			<path id="occhio-six-2" fill="none" stroke="#11142A" stroke-width="3" stroke-linecap="round" stroke-linejoin="round" stroke-miterlimit="10" d="
			M180.3,303.3c0,0,5.5-6,12.3,0"/>
	</g>
	<g id="bacio">
		<path fill="#FF0055" d="M161.4,321.6l37.8,11.1c0,0-3.1-12.6-8.2-13.4c-5.1-0.8-9.4,3.4-9.4,3.4s-1.6-6.6-5.4-7.5
			C172.3,314.3,161.4,321.6,161.4,321.6L161.4,321.6z"/>
		<path fill="#FF003E" d="M161.4,321.6c0,0,4.3,13.8,14.9,17.1c10.6,3.3,22.8-6,22.8-6L161.4,321.6z"/>
	</g>
</g>
<path id="Scarpa_dex_4_" fill="#002764" stroke="#002764" stroke-width="2" d="M130.8,490.4l-7.9-0.5c0,0-1.2,10.4-6.1,11
	s-7.4-1.4-8.7-5.5c-1.3-4-1-7.3-3.5-7.3c-3,0-3.1,5.3-1.8,9.8c1.2,4.3,5.5,9.8,12.2,9.8s10.4-6.7,10.4-6.7l0.5,6.7h5L130.8,490.4
	L130.8,490.4z"/>
<path id="Scarpa_six_4_" fill="#002764" stroke="#002764" stroke-width="2" d="M187.5,491.6l7.9-0.5c0,0,1.5,9.2,6.1,11
	c4,1.5,7.1-1.3,8.1-5.5c1.3-5.2,1-7.9,3.5-7.9c3,0,3.7,5.9,2.4,10.4c-1.2,4.3-5.5,9.8-12.2,9.8s-10.4-6.7-10.4-6.7l-0.5,6.7h-5
	L187.5,491.6L187.5,491.6z"/>
<g id="palla1">
	<path fill="#FF0055" d="M76.8,146.8c-8.3-6.8-8-15.1-8-15.1h-6.3c0,0,0.3,8.3-8.5,15.1c-8.9,6.8-14.7,12.7-14.4,25.5
		c0.3,12.7,8.5,18.2,15.8,22.6c7.3,4.4,10.3,17.3,10.3,17.3h0.2c0,0,2.8-12.9,9.6-17.3s14.5-9.8,14.8-22.6
		C90.5,159.5,85.1,153.6,76.8,146.8z"/>
	<path fill="#FFF6C9" d="M68.9,127.7h-6.7c-1,0-1.9,0.9-1.9,2v0.1c0,1.1,0.9,2,1.9,2H69c1,0,1.9-0.9,1.9-2v-0.1
		C70.8,128.6,69.9,127.7,68.9,127.7z"/>
	<path fill="none" stroke="#003580" stroke-width="3" stroke-miterlimit="10" d="M65.5,127.7L64.9,3.4"/>
	<g id="fiore_x5F_1">
		<path fill="#FFF6C9" d="M62.6,172.2l-13,3.4c-3,0.8-6-1.5-6-4.7c0-2.8,2.3-5,5.1-4.9c0.4,0,0.8,0.1,1.1,0.1l12.8,3.3
			C62.6,169.4,62.6,172.2,62.6,172.2z M66.5,172.3l13,3.4c3,0.8,6-1.5,6-4.7c0-2.8-2.3-5-5.1-4.9c-0.4,0-0.8,0.1-1.1,0.1l-12.8,3.3
			V172.3z M65.5,173.3l3.4,13c0.8,3-1.5,6-4.7,6c-2.8,0-5-2.3-4.9-5.1c0-0.4,0.1-0.8,0.1-1.1l3.3-12.8
			C62.7,173.3,65.5,173.3,65.5,173.3z M65.5,169.3l3.4-13c0.8-3-1.5-6-4.7-6c-2.8,0-5,2.3-4.9,5.1c0,0.4,0.1,0.8,0.1,1.1l3.3,12.8
			C62.7,169.3,65.5,169.3,65.5,169.3z"/>
		<circle fill="#5347FF" cx="64.3" cy="170.9" r="2.8"/>
		<path fill="none" stroke="#5347FF" stroke-linecap="round" stroke-linejoin="round" stroke-miterlimit="10" d="M78.5,183.4
			l-28.4-25 M50.1,183.4l28.4-25"/>
	</g>
</g>
<path id="pino_x5F_3" fill="#009488" stroke="#009488" stroke-width="3" stroke-miterlimit="10" d="M122.2,2.2
	c-5.6-1.4-10.9-3.8-15.6-7.3c4.9-1.1,9.8-2.4,14.7-3.9c1.8-0.6,0.9-3.4-1-2.8L110.5-9c2.3-2.8,4.9-5.2,7.8-7.4
	c1.5-1.1-0.1-3.6-1.6-2.5c-4.1,3-7.7,6.6-10.6,10.8L106-8c-4,0.9-8.1,1.7-12.1,2.4c3.7-4.5,7.9-8.4,12.6-11.8
	c1.5-1.1-0.1-3.6-1.6-2.5C99.1-15.8,94-10.8,89.7-5.1l-0.1,0.2l-8.5,1.2c4.3-6.2,9.7-11.5,15.9-15.7c1.6-1.1-0.1-3.5-1.6-2.5
	C88.5-17.3,82.6-11.3,78-4.4c-0.2,0.4-0.3,0.8-0.2,1.1L66-2.1c5.7-8.4,13-15.6,21.4-21.2c1.6-1.1-0.1-3.5-1.6-2.5
	c-9.3,6.2-17.3,14.3-23.3,23.7l-0.2,0.3l-4.2,0.4l-8.6,0.7C55-9,62-16.1,70.2-21.7c1.6-1.1-0.1-3.5-1.6-2.5
	C59.6-18,52-10.1,46.1-0.9l-0.2,0.4L35.8,0.2c6.8-8,13.9-15.8,21.4-23.1c1.4-1.3-0.9-3.3-2.2-1.9C47-17,39.4-8.7,32.2-0.1l-0.3,0.5
	l-8,0.2c0.9-5.2,3.4-8.9,6.9-13c3.9-4.4,8.1-8.5,12.5-12.4c1.4-1.2-0.2-3.7-1.6-2.5c-8.6,7.4-18.9,16.1-20.8,27.8
	C13,0.4,5.2-0.4-2.5-2.2C-4.4-2.6-4.9,0.3-3,0.7c7.5,1.8,15.2,2.6,23,2.8c4.2,8.8,10.6,16.3,18.7,21.8c1.6,1.1,3.5-1.2,1.9-2.2
	c-7.4-4.9-13.4-11.7-17.4-19.6l8.2-0.1c6.8,9.4,15.7,16.8,24.7,24c1.5,1.2,3.4-1,1.9-2.2c-8.5-6.4-16.3-13.7-23.1-21.9L47,2.5
	c7.1,8.9,16.3,15.9,26.8,20.4c1.7,0.7,3-1.9,1.3-2.7c-9.5-4-17.8-10.2-24.5-18l7.5-0.6L62,1.3C68,8.5,75.6,13.9,84.4,17
	c1.8,0.6,3.1-2,1.3-2.7c-7.6-2.8-14.5-7.4-19.9-13.4l12.6-1.3C83.6,6.4,90.3,11.9,98,15.7c1.7,0.8,3-1.8,1.3-2.7
	C92.4,9.7,86.5,5,81.8-0.8l7.1-1L89-1.7c6.4,6,13.7,10.9,21.7,14.5c1.7,0.8,3-1.9,1.3-2.7C104.9,7,98.4,2.8,92.7-2.3l10.1-2l0.4,0.4
	c5.5,4.3,11.8,7.3,18.5,9C123.6,5.5,124.1,2.6,122.2,2.2z"/>
<path id="pino_x5F_4" fill="#009488" stroke="#009488" stroke-width="3" stroke-miterlimit="10" d="M40.4,102.2
	c-1.3-5.7-0.6-11.5,0.4-17.2c3,4.1,6.2,8,9.5,11.9c1.3,1.4,3.4-0.6,2.2-2L46,87c3.4,1,6.7,2.4,9.9,4.2c1.6,1,3.2-1.5,1.6-2.5
	c-4.4-2.6-9.1-4.4-14.1-5.4h-0.1c-2.5-3.3-4.8-6.7-7.1-10.1c5.6,1.6,10.9,3.8,15.9,6.8c1.6,1,3.2-1.5,1.6-2.5
	C47.6,73.8,41,71,34,69.4h-0.2l-4.5-7.3c7.4,1.4,14.4,4.3,20.8,8.3c1.6,1,3.2-1.5,1.6-2.5c-7-4.4-14.8-7.4-23-8.9
	c-0.4-0.1-0.8,0-1.1,0.2l-5.9-10.3c10,1.8,19.5,5.6,28,11.1c1.6,1,3.2-1.5,1.6-2.5c-9.4-6-20-10.1-31-11.9H20l-2-3.7l-4.1-7.6
	C23.7,36,33,39.6,41.4,44.8c1.6,1,3.2-1.5,1.6-2.5c-9.3-5.7-19.6-9.5-30.4-11.2h-0.4l-4.7-9c10.1,3,20,6.4,29.8,10.3
	c1.8,0.7,2.6-2.1,0.9-2.8c-10.4-4.2-21-7.8-31.8-10.9l-0.6-0.1l-3.4-7.2c5.1-1.2,9.5-0.5,14.7,1.1c5.6,1.8,11.1,4,16.4,6.5
	c1.7,0.8,3.3-1.7,1.6-2.5C24.8,11.7,12.7,5.7,1.2,8.7C-2,1.5-4.3-6.1-5.7-13.9c-0.3-1.9-3.2-1.2-2.9,0.7C-7.2-5.5-4.8,1.9-1.9,9.1
	c-6.4,7.4-10.7,16.4-12.5,26c-0.3,1.9,2.5,2.7,2.8,0.9c1.7-8.9,5.3-17,11-23.9l3.4,7.5c-5.9,10-9,21.1-12,32.3
	c-0.5,1.8,2.3,2.7,2.8,0.9c2.4-10.4,6-20.4,10.8-29.9L10,33.5C4.7,43.6,2,54.9,2.2,66.3c0,1.9,3,2,3,0.1C5,56,7.2,45.9,11.7,36.7
	c1.9,3.4,3.7,6.8,5.5,10.2c-4.2,8.3-6.1,17.5-5.4,26.8c0.1,1.9,3.1,2,3,0.1C14.2,65.6,15.6,57.5,19,50l6.2,11
	c-4.2,7.5-6.5,15.8-6.9,24.4c-0.1,1.9,2.9,2,3,0.1c0.3-7.6,2.2-14.9,5.7-21.6l3.7,6.1v0.1c-3,8.3-4.5,16.9-4.5,25.7c0,1.9,3,2,3,0.1
	c0-7.8,1.2-15.3,3.6-22.7l5.8,8.6l-0.2,0.5c-1.7,6.7-2,13.7-0.8,20.5C38,104.7,40.9,104,40.4,102.2L40.4,102.2z"/>
<g id="vischio">
	<path fill="none" stroke="#002764" stroke-width="2" stroke-linecap="round" stroke-linejoin="round" stroke-miterlimit="10" d="
		M119,78.4c0,0,43.6,20,80.9,24.4"/>
	<path fill="none" stroke="#002764" stroke-width="2" stroke-linecap="round" stroke-linejoin="round" stroke-miterlimit="10" d="
		M170.4,84.6c0,0-11.3,6.8-23.9,4.8 M167.4,96c4.1,7.2,9.8,13.5,16.7,18.2 M167.4,115c0,0-5.9-10.4,0.2-18.5"/>
	
		<path id="Guancia_2_" fill="#FF0055" stroke="#FF0055" stroke-width="2" stroke-linecap="round" stroke-linejoin="round" stroke-miterlimit="10" d="
		M213.3,109.6c4.7-5.5-0.7-12.2-2.8-12.6c-2.1-0.3-7-2.2-9.1,1.6s-1.9,9.2,2.2,11.3C207.8,112.2,210.3,113.1,213.3,109.6
		L213.3,109.6z"/>
	
		<path id="Guancia_3_" fill="#FF0055" stroke="#FF0055" stroke-width="2" stroke-linecap="round" stroke-linejoin="round" stroke-miterlimit="10" d="
		M193.9,126.7c6.3-3.6,3.5-11.8,1.6-12.8c-1.8-1-5.8-4.4-9.1-1.5s-4.9,8-1.7,11.4C187.9,127.3,189.9,129,193.9,126.7z"/>
	
		<path id="Guancia_4_" fill="#FF0055" stroke="#FF0055" stroke-width="2" stroke-linecap="round" stroke-linejoin="round" stroke-miterlimit="10" d="
		M171,127.3c5.8-1.9,4.8-9.1,3.5-10.2c-1.3-1.2-4.1-4.6-7.2-2.8c-3.1,1.8-5.4,5.8-3.3,9.1S167.4,128.6,171,127.3z"/>
	
		<path id="Guancia_5_" fill="#FF0055" stroke="#FF0055" stroke-width="2" stroke-linecap="round" stroke-linejoin="round" stroke-miterlimit="10" d="
		M180.3,88.7c6.3-3.6,3.5-11.8,1.6-12.8s-5.8-4.4-9.1-1.5c-3.2,2.9-4.9,8-1.7,11.4C174.2,89.2,176.3,91,180.3,88.7z"/>
	<path fill="#009488" d="M177.3,97.1c0,0,12.2-6.8,10.3-16.2c0,0,9.9,5,15.1-3.9c0,0,9.3,8.4,15.5,4.7c0,0-13.6,4.7-11,12.7
		c0,0-11-4-11.7,4.9C195.5,99.3,190.9,92.3,177.3,97.1L177.3,97.1z M143.9,88.3c0,0,6.1,10.3,14.9,7.2c0,0-4.9,9.7,3.4,13.3
		c0,0-8,9.6-4.7,14.8c0,0-4.2-11.7-11.6-8.4c0,0,4-10.6-4.4-10C141.5,105.3,148.2,100.1,143.9,88.3L143.9,88.3z"/>
	<path fill="none" stroke="#003580" stroke-width="3" stroke-miterlimit="10" d="M152.2,89.7l-0.6-109.1"/>
</g>
<path id="cuore2" fill="#FF0055" d="M296.7,321.9l0.8-1.3c1.4-1.8,3.2-3,5.5-3.3c2.7-0.3,5,0.6,6.8,2.6c1.4,1.5,2,3.3,2,5.4
	c0,2.6-0.9,4.8-2.2,7c-1.1,1.7-2.4,3.2-3.9,4.5c-3,2.8-6.1,5.3-9.4,7.7l-7.9-6.7c-1.5-1.4-3-2.8-4.2-4.4c-1.4-1.8-2.3-3.9-2.8-6.1
	c-0.4-2.1-0.2-4.2,0.9-6.1c1.3-2.3,3.6-3.7,6.2-3.9c2.7-0.2,4.8,0.8,6.6,2.8C295.9,320.7,296.3,321.3,296.7,321.9z"/>
<path id="cuore1" fill="#FF0055" d="M47.5,235.5l0.8-1.3c1.4-1.8,3.2-3,5.5-3.3c2.7-0.3,5,0.6,6.8,2.6c1.4,1.5,2,3.3,2,5.4
	c0,2.6-0.9,4.8-2.2,7c-1.1,1.7-2.4,3.2-3.9,4.5c-3,2.8-6.1,5.3-9.4,7.7l-7.9-6.7c-1.5-1.4-3-2.8-4.2-4.4c-1.4-1.8-2.3-3.9-2.8-6.1
	c-0.4-2.1-0.2-4.2,0.9-6.1c1.3-2.3,3.6-3.7,6.2-3.9c2.7-0.2,4.8,0.8,6.6,2.8C46.7,234.2,47.1,234.9,47.5,235.5L47.5,235.5z"/>
<path fill="none" stroke="#11142A" stroke-width="3" stroke-linecap="round" stroke-linejoin="round" stroke-miterlimit="10" d="
	M152.2,327.3"/>
<path fill="none" stroke="#11142A" stroke-width="3" stroke-linecap="round" stroke-linejoin="round" stroke-miterlimit="10" d="
	M151,327.3"/>
<path id="bocca-speciale" opacity="0.5" fill="none" stroke="#00E969" stroke-width="3" stroke-linecap="round" stroke-linejoin="round" stroke-miterlimit="10" enable-background="new    " d="
	M151.9,327.7c-3.5,0.6-4.7,1.9-4.7,3.2c0,1,1.6,2.1,4.5,2.8c-4.5,1.4-4.8,2.8-4.6,3.9c0.3,1,1.3,1.2,5.6,0.8"/>
w</svg>
