<?xml version="1.0" encoding="utf-8"?>
<!-- Generator: Adobe Illustrator 27.0.1, SVG Export Plug-In . SVG Version: 6.00 Build 0)  -->
<svg version="1.1" id="Layer_1" xmlns="http://www.w3.org/2000/svg" xmlns:xlink="http://www.w3.org/1999/xlink" x="0px" y="0px"
	 viewBox="0 0 339.5 600" enable-background="new 0 0 339.5 600" xml:space="preserve">
<path fill="#002764" d="M-0.6-0.1h340v1047.8h-340C-0.6,1047.7-0.6-0.1-0.6-0.1z"/>
<path fill="#FFFFFF" d="M428.8,595.6c0-73.7-120.6-133.4-269.5-133.4s-269.5,59.7-269.5,133.4c0,43.5,42.2,82.2,107.4,106.6v345.3
	h342.3V694.7C394.3,670.3,428.8,634.9,428.8,595.6L428.8,595.6z"/>
<ellipse opacity="0.5" fill="#C1D1D6" stroke="#C1D1D6" stroke-width="3" stroke-linecap="round" stroke-linejoin="round" stroke-miterlimit="10" enable-background="new    " cx="157.5" cy="509.4" rx="65.3" ry="3.4"/>
<g id="elfo-intero">
	<g id="gamba-dex">
		<path fill="none" stroke="#021732" stroke-width="10" stroke-miterlimit="10" d="M125.2,441.3v49.2"/>
		
			<path id="Scarpa_dex_00000145050843037930707490000007793094744171910571_" fill="#021732" stroke="#021732" stroke-width="2" stroke-miterlimit="10" d="
			M129.7,490.7l-7.9-0.5c0,0-1.2,10.4-6.1,11s-7.4-1.4-8.7-5.5c-1.3-4-1-7.3-3.5-7.3c-3,0-3.1,5.3-1.8,9.8c1.2,4.3,5.5,9.8,12.2,9.8
			s10.4-6.7,10.4-6.7l0.5,6.7h5L129.7,490.7L129.7,490.7z"/>
	</g>
	<path id="braccio-six-alto" fill="none" stroke="#021732" stroke-width="10" stroke-miterlimit="10" d="M189.7,359.5
		c0,0,70.4-7.5,79.7,43.8"/>
	<path id="braccio-dex-alto" fill="none" stroke="#021732" stroke-width="10" stroke-miterlimit="10" d="M62.8,406.8
		c0,0,1.1-44.3,65.1-42.9"/>
	<g id="gamba-six">
		<path fill="none" stroke="#021732" stroke-width="10" stroke-miterlimit="10" d="M188.8,443.3v49.2"/>
		
			<path id="Scarpa_six_00000148619417099307885650000012939927578238555546_" fill="#021732" stroke="#021732" stroke-width="2" stroke-miterlimit="10" d="
			M184.4,491.9l7.9-0.5c0,0,1.5,9.2,6.1,11c4,1.5,7.1-1.3,8.1-5.5c1.3-5.2,1-7.9,3.5-7.9c3,0,3.7,5.9,2.4,10.4
			c-1.2,4.3-5.5,9.8-12.2,9.8s-10.4-6.7-10.4-6.7l-0.5,6.7h-5L184.4,491.9L184.4,491.9z"/>
	</g>
	<g id="braccio-six-basso" transform="matrix(1,0,0,1,0,-10)">
		<path fill="none" stroke="#021732" stroke-width="10" stroke-miterlimit="10" d="M189.7,359.5c0,0,70.4-7.5,79.7,43.8"/>
		<path fill="#F8CEDE" d="M263.9,401.6h9.6c0,0,3.5,11.2,1.2,11.2c-2.3,0-3.5-5.6-3.5-5.6s0.8,8.9-1.6,8.7c-2.4-0.2-2.4-8.2-2.4-8.2
			s-0.6,5.1-3.4,4.8C261,412.2,263.9,401.6,263.9,401.6L263.9,401.6z"/>
	</g>
	<g id="braccio-dex-basso" transform="matrix(1,0,0,1,0,-10)">
		<path fill="none" stroke="#021732" stroke-width="10" stroke-miterlimit="10" d="M62.8,406.8c0,0,1.1-44.3,65.1-42.9"/>
		<path fill="#F8CEDE" d="M67.8,406.8h-9.6c0,0-3.5,11.2-1.2,11.2s3.5-5.6,3.5-5.6s-0.8,8.9,1.6,8.7s2.4-8.2,2.4-8.2
			s0.6,5.1,3.4,4.8C70.7,417.4,67.8,406.8,67.8,406.8z"/>
	</g>
	<g id="Corpo_00000044856005998392278640000008266036666772470933_">
		<path fill="#0C45CA" d="M196.2,340.1c0,0-2.1,108.3-2.1,102.7c0-0.2-73.3,2.7-74.4,0c-1.2-2.7-0.7-76.4,0-84.4"/>
		<path fill="#021732" stroke="#002764" stroke-miterlimit="10" d="M194.5,414.9v11l-74.9,2.1l-0.4-10.7L194.5,414.9z"/>
		<path fill="#021732" d="M156.2,398.6c-4.5-1-6.7,4.1-6.3,5.3c0.4,1.3,0.9,4.6,3.6,4.7s5.8-1.7,5.8-4.7S159.1,399.2,156.2,398.6z
			 M156.3,380.5c-4.5-1-6.7,4.1-6.3,5.3c0.4,1.3,0.9,4.6,3.6,4.7c2.8,0,5.8-1.7,5.8-4.7S159.2,381.1,156.3,380.5z"/>
	</g>
	<g id="testa" transform="matrix(1,0,0,1,0,10)">
		<path id="testa-shape" fill="#FF0055" d="M100,274.4c-0.3,22-7.3,73.8,26.6,90.7c27.3,10.1,54.2,6.8,70.4-12.5
			c17.3-22.3,15.6-65.9,13.9-86.2c-0.7-3.3-39.7,0.3-55.4,1S102,270.6,100,274.4L100,274.4z"/>
		<g id="cappello_4_">
			<path fill="#021732" d="M100.4,275.8c0,0,4.4-74,35.2-92.3s46.3-22,64.4-22s49,17.6,59.7,32.7c10.7,15.1,12.7,57.9,10.7,60.5
				s-13.4-50.4-35.6-51s-24.8,20.2-26.2,25.8c-1.3,5.7-3.3,38.7-3.3,38.7L100.4,275.8L100.4,275.8z"/>
			<path fill="#0C45CA" d="M100.1,275.8c0,0,2-35.6,12.6-61.7c0,0,17.3,48.1,19.6,56.2c0,0,20.4-60.8,23.3-64.1
				c2.9-3.4,23.7,61.2,23.7,61.2S213,212.3,215,211s-4,57-4,56.8S100.1,275.8,100.1,275.8z M274.5,254.8
				c-11.3-2.3-16.8,9.4-15.8,12.4c1.1,3,2.1,10.7,9.1,10.8c6.9,0.1,14.4-3.9,14.4-10.8S281.7,256.3,274.5,254.8L274.5,254.8z"/>
		</g>
		<g id="facce_4_">
			<g id="occhio-dex-small" transform="matrix(1,0,0,0.1,0,273.33)">
				<ellipse id="bianco-dex-small" fill="#FFFFFF" cx="122" cy="303.7" rx="9.2" ry="0.9"/>
				<ellipse id="pupilla-dex" fill="#11142A" cx="122.5" cy="303.5" rx="2.5" ry="0.2"/>
			</g>
			<g id="occhio-six-small" transform="matrix(1,0,0,0.1,0,273.33)">
				<ellipse id="bianco-six-small" fill="#FFFFFF" cx="186.7" cy="303.7" rx="9.2" ry="0.9"/>
				<ellipse id="pupilla-six" fill="#11142A" cx="187.2" cy="303.5" rx="2.5" ry="0.2"/>
			</g>
			
				<path id="Naso_5_" fill="none" stroke="#11142A" stroke-width="3" stroke-linecap="round" stroke-linejoin="round" stroke-miterlimit="10" d="
				M150.1,311.9c0,0,0.5,5.6,3,5.6s3-5.6,3-6.6"/>
			
				<path id="bocca" fill="none" stroke="#11142A" stroke-width="3" stroke-linecap="round" stroke-linejoin="round" stroke-miterlimit="10" d="
				M165.2,333.4c0,0-1.8-5.6-10.7-5.6s-10.7,5.6-10.7,6.6"/>
			
				<path id="bocca2" fill="none" stroke="#11142A" stroke-width="3" stroke-linecap="round" stroke-linejoin="round" stroke-miterlimit="10" d="
				M165.2,333.4c0,0-1.8-5.6-10.7-5.6s-10.7,5.6-10.7,6.6"/>
			
				<path id="guancia-dex" fill="#FF0055" stroke="#FF0055" stroke-width="2.8" stroke-linecap="round" stroke-linejoin="round" stroke-miterlimit="14" d="
				M196.3,314c-8.8-2-13,7.8-12.2,10.4c0.8,2.5,1.7,9,7,9.1c5.5,0.1,11.2-3.2,11.2-9.1C202.3,318.4,201.9,315.2,196.3,314z"/>
			
				<path id="guancia-six" fill="#FF0055" stroke="#FF0055" stroke-width="2.8" stroke-linecap="round" stroke-linejoin="round" stroke-miterlimit="14" d="
				M119.3,317.2c3.4,0.4,8.3,1.4,6.6,10.8c-1.7,9.7-5.7,7.1-9.1,7.1s-5.7-5.2-6.2-8.8C110.2,322.7,115.2,316.6,119.3,317.2
				L119.3,317.2z"/>
			<circle id="bianco-dex-big" fill="#FFFFFF" cx="122.5" cy="303.4" r="10.5"/>
			<circle id="bianco-six-big" fill="#FFFFFF" cx="187.3" cy="303.4" r="10.5"/>
			<g id="vene-six">
				<g>
					<g>
						<defs>
							<circle id="SVGID_1_" cx="187.3" cy="303.4" r="10.5"/>
						</defs>
						<clipPath id="SVGID_00000132771594931393723960000006979402391986185909_">
							<use xlink:href="#SVGID_1_"  overflow="visible"/>
						</clipPath>
						
							<path clip-path="url(#SVGID_00000132771594931393723960000006979402391986185909_)" fill="none" stroke="#FF0055" stroke-width="0.8" stroke-miterlimit="10" d="
							M177.9,298.7l2.6,1.6"/>
					</g>
				</g>
				<g>
					<g>
						<defs>
							<circle id="SVGID_00000116930994697329799730000017395024845419382156_" cx="187.3" cy="303.4" r="10.5"/>
						</defs>
						<clipPath id="SVGID_00000035515475355281121850000008065275268483287191_">
							<use xlink:href="#SVGID_00000116930994697329799730000017395024845419382156_"  overflow="visible"/>
						</clipPath>
						
							<path clip-path="url(#SVGID_00000035515475355281121850000008065275268483287191_)" fill="none" stroke="#FF0055" stroke-width="0.8" stroke-miterlimit="10" d="
							M177.8,308.7l1.9-2.3"/>
					</g>
				</g>
				<g>
					<g>
						<defs>
							<circle id="SVGID_00000161619555133754107130000001892834588117226923_" cx="187.3" cy="303.4" r="10.5"/>
						</defs>
						<clipPath id="SVGID_00000120534877521378479100000017500136056783353751_">
							<use xlink:href="#SVGID_00000161619555133754107130000001892834588117226923_"  overflow="visible"/>
						</clipPath>
						
							<path clip-path="url(#SVGID_00000120534877521378479100000017500136056783353751_)" fill="none" stroke="#FF0055" stroke-width="0.8" stroke-miterlimit="10" d="
							M194.8,310.9l-1.9-2.4"/>
					</g>
				</g>
				<g>
					<g>
						<defs>
							<circle id="SVGID_00000139990398053856507710000016323630999202222215_" cx="187.3" cy="303.4" r="10.5"/>
						</defs>
						<clipPath id="SVGID_00000159454310709816735040000007248326535782812063_">
							<use xlink:href="#SVGID_00000139990398053856507710000016323630999202222215_"  overflow="visible"/>
						</clipPath>
						
							<path clip-path="url(#SVGID_00000159454310709816735040000007248326535782812063_)" fill="none" stroke="#FF0055" stroke-width="0.8" stroke-miterlimit="10" d="
							M197.8,303.2l-3-0.1"/>
					</g>
				</g>
				<g>
					<g>
						<defs>
							<circle id="SVGID_00000076567216859333450930000010518289285119310993_" cx="187.3" cy="303.4" r="10.5"/>
						</defs>
						<clipPath id="SVGID_00000062187737524439816630000002600033588632457137_">
							<use xlink:href="#SVGID_00000076567216859333450930000010518289285119310993_"  overflow="visible"/>
						</clipPath>
						
							<path clip-path="url(#SVGID_00000062187737524439816630000002600033588632457137_)" fill="none" stroke="#FF0055" stroke-width="0.8" stroke-miterlimit="10" d="
							M183.7,293.4l1,2.8"/>
					</g>
				</g>
			</g>
			<g id="vene-dex">
				<g>
					<g>
						<defs>
							<circle id="SVGID_00000137099144709883993670000011107954246407728524_" cx="122.5" cy="303.4" r="10.5"/>
						</defs>
						<clipPath id="SVGID_00000080206913323290794360000005147518745311748747_">
							<use xlink:href="#SVGID_00000137099144709883993670000011107954246407728524_"  overflow="visible"/>
						</clipPath>
						
							<path clip-path="url(#SVGID_00000080206913323290794360000005147518745311748747_)" fill="none" stroke="#FF0055" stroke-width="0.8" stroke-miterlimit="10" d="
							M132.9,304.5l-3-0.5"/>
					</g>
				</g>
				<g>
					<g>
						<defs>
							<circle id="SVGID_00000026847873566358520690000016021981188688194702_" cx="122.5" cy="303.4" r="10.5"/>
						</defs>
						<clipPath id="SVGID_00000056420341894731913890000004893224698183644577_">
							<use xlink:href="#SVGID_00000026847873566358520690000016021981188688194702_"  overflow="visible"/>
						</clipPath>
						
							<path clip-path="url(#SVGID_00000056420341894731913890000004893224698183644577_)" fill="none" stroke="#FF0055" stroke-width="0.8" stroke-miterlimit="10" d="
							M129.6,295.1l-1,2.8"/>
					</g>
				</g>
				<g>
					<g>
						<defs>
							<circle id="SVGID_00000101801046849034113740000012388584120829565365_" cx="122.5" cy="303.4" r="10.5"/>
						</defs>
						<clipPath id="SVGID_00000064334032811155017880000012647020764021602961_">
							<use xlink:href="#SVGID_00000101801046849034113740000012388584120829565365_"  overflow="visible"/>
						</clipPath>
						
							<path clip-path="url(#SVGID_00000064334032811155017880000012647020764021602961_)" fill="none" stroke="#FF0055" stroke-width="0.8" stroke-miterlimit="10" d="
							M112.9,298.9l2.6,1.6"/>
					</g>
				</g>
				<g>
					<g>
						<defs>
							<circle id="SVGID_00000111890173815381768780000018223458948022465686_" cx="122.5" cy="303.4" r="10.5"/>
						</defs>
						<clipPath id="SVGID_00000152945534174621133820000006259655839701997465_">
							<use xlink:href="#SVGID_00000111890173815381768780000018223458948022465686_"  overflow="visible"/>
						</clipPath>
						
							<path clip-path="url(#SVGID_00000152945534174621133820000006259655839701997465_)" fill="none" stroke="#FF0055" stroke-width="0.8" stroke-miterlimit="10" d="
							M112.8,307.2l2.8-0.9"/>
					</g>
				</g>
				<g>
					<g>
						<defs>
							<circle id="SVGID_00000063632097314302460940000010007924338202697610_" cx="122.5" cy="303.4" r="10.5"/>
						</defs>
						<clipPath id="SVGID_00000175295558615153480760000014829002312745498010_">
							<use xlink:href="#SVGID_00000063632097314302460940000010007924338202697610_"  overflow="visible"/>
						</clipPath>
						
							<path clip-path="url(#SVGID_00000175295558615153480760000014829002312745498010_)" fill="none" stroke="#FF0055" stroke-width="0.8" stroke-miterlimit="10" d="
							M129.4,311.5l-2-2.3"/>
					</g>
				</g>
			</g>
			
				<path id="sopracciglio-1" fill="none" stroke="#111428" stroke-width="3" stroke-linecap="round" stroke-linejoin="round" stroke-miterlimit="4" stroke-dasharray="6.7487,4.5991" d="
				M128.7,297.5c-2.1,0.6-5.8-6.6-9.3-5.3"/>
			
				<path id="sopracciglio-2" fill="none" stroke="#11142A" stroke-width="3" stroke-linecap="round" stroke-linejoin="round" stroke-miterlimit="10" d="
				M178.7,296.5c2.2,1.3,5.5-3.3,6-4.2"/>
		</g>
		<g id="orecchio-six" transform="matrix(1,0,0,1,0,0)">
			<path fill="#FF0055" d="M209.9,317.5c0,0,2.4-26.8,12.3-40s15.3-17.6,17.3-18.9c0,0,2.7,18.3-9.3,37.2
				C218.3,314.7,209.9,317.5,209.9,317.5L209.9,317.5z"/>
			<path fill="none" stroke="#DB1D41" stroke-width="3" stroke-linecap="round" stroke-linejoin="round" stroke-miterlimit="10" d="
				M211.3,308.7l13.2-20.8"/>
		</g>
		<g id="orecchio-dex" transform="matrix(0.98481,0.17365,-0.17365,0.98481,58.04357,-11.83688)">
			<path fill="#FF0055" d="M68.1,278.8c0,0,12.6,4.4,21.9,21.4s9.3,16.6,12.6,28.1c0,0-19.1-9.4-27.2-24.8
				C67.5,288.2,68.1,278.8,68.1,278.8z"/>
			<path fill="none" stroke="#DB1D41" stroke-width="3" stroke-linecap="round" stroke-linejoin="round" stroke-miterlimit="10" d="
				M98.5,318.9l-18.4-17.2"/>
		</g>
	</g>
</g>
<g>
	<path id="pino_x5F_1_7_" fill="#021F45" stroke="#021F45" stroke-width="3" stroke-miterlimit="10" d="M178.1,15.4
		c-5.8,0.9-11.3,2.9-16.2,6c4.8,1.5,9.6,3.2,14.3,5.2c1.8,0.7,0.6,3.4-1.2,2.7c-3.1-1.3-6.3-2.5-9.5-3.6c2,2.9,4.4,5.6,7.2,8
		c1.4,1.2-0.4,3.6-1.8,2.3c-3.8-3.3-7.1-7.2-9.7-11.6l-0.1-0.1c-3.9-1.2-7.9-2.4-11.9-3.4c3.3,4.7,7.1,9,11.6,12.8
		c1.4,1.2-0.4,3.6-1.8,2.3c-5.4-4.6-10-10-13.8-16l-0.1-0.2l-8.4-1.9c3.8,6.5,8.7,12.3,14.6,17c1.5,1.2-0.4,3.5-1.8,2.3
		c-6.5-5.2-11.8-11.6-15.8-18.9c-0.2-0.4-0.2-0.8-0.2-1.1L121.8,15c5,8.9,11.6,16.6,19.6,22.9c1.5,1.2-0.3,3.5-1.8,2.3
		c-8.8-7-16-15.6-21.3-25.5l-0.1-0.3l-4.2-0.7l-8.5-1.4c4.8,8.6,11.2,16.3,18.8,22.6c1.5,1.2-0.4,3.5-1.8,2.3
		c-8.4-6.9-15.4-15.4-20.4-25.1l-0.1-0.4l-10-1.5c6.1,8.6,12.6,16.9,19.4,24.8c1.2,1.4-1.2,3.2-2.4,1.7
		c-7.3-8.5-14.2-17.3-20.6-26.5C88,10,88,9.8,87.9,9.7C85.3,9.3,82.6,9,80,8.8c0.5,5.3,2.6,9.2,5.8,13.5c3.5,4.7,7.3,9.2,11.5,13.4
		c1.3,1.3-0.5,3.7-1.8,2.3c-8-8-17.6-17.5-18.5-29.4c-7.9-0.5-15.8-0.4-23.6,0.8c-1.9,0.3-2.2-2.7-0.3-2.9
		c7.7-1.2,15.5-1.3,23.2-0.9c5-8.5,11.9-15.4,20.5-20.2c1.6-0.9,3.4,1.5,1.7,2.4c-7.7,4.3-14.3,10.5-19,18C82.3,6,85,6.3,87.8,6.7
		c7.6-8.8,17.1-15.4,26.6-21.9c1.6-1.1,3.3,1.3,1.7,2.4c-8.8,6-17.6,12-24.8,19.9l12,1.8c7.8-8.3,17.6-14.5,28.4-18.1
		c1.8-0.6,2.9,2.2,1,2.8c-9.8,3.2-18.6,8.6-25.9,15.9l7.5,1.3l3.9,0.7c6.4-6.7,14.6-11.5,23.6-13.8c1.8-0.5,2.9,2.3,1,2.8
		c-8,2.1-15.2,6-21.1,11.7l12.4,2.3C139.8,8.1,147,3.1,155,0c1.8-0.7,2.8,2.1,1,2.8c-7,2.7-13.4,7-18.6,12.4l7,1.6l0.1-0.1
		c6.8-5.5,14.6-9.8,22.9-12.6c1.8-0.6,2.9,2.2,1,2.8c-7.3,2.5-14.2,6.1-20.3,10.8c3.4,0.8,6.7,1.7,10,2.7l0.4-0.4
		c6-3.4,12.1-6.7,19.1-7.4C179.7,12.3,180,15.3,178.1,15.4L178.1,15.4z"/>
	<path id="pino_x5F_2_7_" fill="#021F45" stroke="#021F45" stroke-width="3" stroke-miterlimit="10" d="M96,68.2
		c-5.6-1.5-11.5-1.8-17.2-1c3.8,3.3,7.5,6.8,11,10.5c1.3,1.4-0.8,3.4-2.2,2l-7.3-7.1c0.7,3.5,1.8,6.9,3.4,10.2
		c0.8,1.7-1.8,3.1-2.6,1.4c-2.2-4.6-3.6-9.5-4.2-14.5v-0.1l-9.5-7.9c1.1,5.7,2.9,11.2,5.5,16.4c0.8,1.7-1.8,3.1-2.6,1.4
		c-3.1-6.4-5.3-13.2-6.4-20.3V59L57,53.9c0.9,7.5,3,14.7,6.5,21.4c0.9,1.7-1.7,3.1-2.6,1.4c-3.8-7.3-6.2-15.4-7-23.6
		c0-0.4,0.1-0.8,0.3-1.1c-3.2-2.3-6.5-4.5-9.8-6.7c1,10.1,4,19.8,8.8,28.8c0.9,1.7-1.7,3.1-2.6,1.4c-5.3-9.9-8.4-20.7-9.3-31.9v-0.3
		L37.8,41l-7.2-4.7c0.9,9.9,3.7,19.4,8.2,28.3c0.9,1.7-1.8,3.1-2.6,1.4c-5-9.8-7.8-20.3-8.7-31.2v-0.4c-2.8-1.8-5.7-3.7-8.6-5.4
		c2.1,10.3,4.7,20.5,7.8,30.5c0.6,1.8-2.3,2.5-2.9,0.6c-3.3-10.7-6.1-21.6-8.3-32.6v-0.6L8.6,23c-1.7,5-1.3,9.4-0.1,14.7
		c1.3,5.7,3,11.4,5.1,16.9c0.7,1.8-1.9,3.2-2.6,1.4C7,45.4,2,32.8,5.9,21.6c-7-3.6-14.3-6.7-22-8.7c-1.8-0.5-0.9-3.3,0.9-2.8
		c7.5,2,14.7,5,21.6,8.5c7.9-5.8,17.2-9.3,26.9-10.3C35.4,8,36,10.8,34.1,11c-8.9,0.9-17.3,3.9-24.6,8.9l7.2,4
		c10.5-5,21.8-7.3,33.1-9.4c1.9-0.3,2.5,2.5,0.6,2.9c-10.5,1.5-20.8,4.3-30.7,8.3L30,32.2C40.5,27.8,51.9,26,63.3,27
		c1.9,0.2,1.8,3.1-0.1,3c-10.3-1-20.5,0.4-30.1,4.2c3.1,2.1,6.3,4.2,9.6,6.2c8.6-3.5,18-4.7,27.2-3.2c1.9,0.3,1.7,3.3-0.1,3
		c-8.1-1.3-16.3-0.6-24,2.2l10.4,7.1c7.8-3.6,16.3-5.2,24.9-4.9c1.9,0.1,1.8,3-0.1,3c-7.6-0.3-15,1-22,3.9l5.8,4.2h0.1
		c8.5-2.3,17.3-3.1,26-2.4c1.9,0.2,1.8,3.1-0.1,3c-7.7-0.6-15.4,0-22.9,1.8c2.7,2.1,5.4,4.3,8.1,6.5l0.6-0.2
		c6.9-0.7,13.8-1.3,20.5,0.9C98.7,66,97.8,68.8,96,68.2z"/>
	<path id="pino_x5F_3_7_" fill="#021F45" stroke="#021F45" stroke-width="3" stroke-miterlimit="10" d="M220,14.7
		c5.6-1.4,10.9-3.8,15.6-7.3c-4.9-1.1-9.8-2.4-14.7-3.9c-1.8-0.6-0.9-3.4,1-2.8l9.8,2.8c-2.3-2.8-4.9-5.2-7.8-7.4
		c-1.5-1.1,0.1-3.6,1.6-2.5c4.2,3,7.8,6.7,10.7,10.9c4,0.9,8.1,1.7,12.1,2.4c-3.7-4.5-7.9-8.4-12.6-11.8c-1.5-1.1,0.1-3.6,1.6-2.5
		c5.7,4.1,10.8,9.1,15.1,14.8l0.1,0.2l8.5,1.2c-4.3-6.2-9.7-11.5-15.9-15.7c-1.6-1.1,0.1-3.5,1.6-2.5c6.9,4.7,12.8,10.6,17.4,17.5
		c0.2,0.4,0.3,0.8,0.2,1.1c3.9,0.5,7.9,0.9,11.8,1.2c-5.7-8.4-13-15.6-21.4-21.2c-1.6-1.1,0.1-3.5,1.6-2.5
		c9.3,6.2,17.3,14.3,23.3,23.7l0.2,0.3l4.2,0.4l8.6,0.7c-5.5-8.2-12.5-15.3-20.6-21c-1.6-1.1,0.1-3.5,1.6-2.5
		c9,6.2,16.5,14.1,22.5,23.3l0.2,0.4l10.1,0.7c-6.8-8-13.9-15.8-21.4-23.1c-1.4-1.3,0.9-3.3,2.2-1.9c8,7.9,15.6,16.1,22.8,24.7
		l0.3,0.5l8,0.2c-0.9-5.2-3.4-8.9-6.9-13c-3.9-4.4-8.1-8.5-12.5-12.4c-1.4-1.2,0.2-3.7,1.6-2.5c8.6,7.4,18.9,16.1,20.8,27.8
		c7.9-0.2,15.7-0.9,23.5-2.8c1.9-0.4,2.4,2.5,0.5,2.9c-7.6,1.8-15.3,2.6-23.1,2.8c-4.2,8.8-10.6,16.3-18.7,21.8
		c-1.6,1.1-3.5-1.2-1.9-2.2C309,30.6,315,23.9,319,16l-8.2-0.1c-7.1,9.1-15.4,17.2-24.7,24c-1.5,1.2-3.4-1-1.9-2.2
		c8.5-6.4,16.3-13.7,23.1-21.9L295.2,15c-7.1,8.9-16.3,15.9-26.8,20.4c-1.7,0.7-3-1.9-1.3-2.7c9.5-4,17.8-10.2,24.5-18l-7.5-0.6
		l-3.9-0.3c-5.9,7.2-13.6,12.6-22.4,15.7c-1.8,0.6-3.1-2-1.3-2.7c7.7-2.7,14.6-7.3,20.1-13.4L264,12.1c-5.2,6.9-11.9,12.4-19.6,16.1
		c-1.7,0.8-3-1.8-1.3-2.7c6.8-3.3,12.7-8,17.5-13.9c-2.4-0.3-4.7-0.6-7.1-1l-0.1,0.1c-6.4,6-13.7,10.9-21.7,14.5
		c-1.7,0.8-3-1.9-1.3-2.7c7.1-3.1,13.6-7.3,19.3-12.4c-3.4-0.6-6.8-1.2-10.2-1.9l-0.4,0.4c-5.5,4.3-11.8,7.3-18.5,9
		C218.7,17.9,218.1,15,220,14.7L220,14.7z"/>
	<path id="pino_x5F_4_12_" fill="#021F45" stroke="#021F45" stroke-width="3" stroke-miterlimit="10" d="M301.8,114.6
		c1.3-5.7,0.6-11.5-0.4-17.2c-3,4.1-6.2,8-9.5,11.9c-1.3,1.4-3.4-0.6-2.2-2l6.5-7.9c-3.4,1-6.7,2.4-9.9,4.2c-1.6,1-3.2-1.5-1.6-2.5
		c4.4-2.6,9.1-4.4,14.1-5.4h0.1c2.5-3.3,4.8-6.7,7.1-10.1c-5.6,1.6-10.9,3.8-15.9,6.8c-1.6,1-3.2-1.5-1.6-2.5
		c6.1-3.6,12.7-6.2,19.6-7.9h0.2l4.5-7.3c-7.4,1.4-14.4,4.3-20.8,8.3c-1.6,1-3.2-1.5-1.6-2.5c7-4.4,14.8-7.4,23-8.9
		c0.4-0.1,0.8,0,1.1,0.2l5.9-10.3c-10,1.8-19.5,5.6-28,11.1c-1.6,1-3.2-1.5-1.6-2.5c9.5-6.1,19.9-10,31-11.9h0.3l2-3.7l4.1-7.6
		c-9.8,1.7-19.1,5.3-27.5,10.5c-1.6,1-3.2-1.5-1.6-2.5c9.3-5.7,19.6-9.5,30.4-11.2h0.4l4.7-9c-10.1,3-20,6.4-29.8,10.3
		c-1.8,0.7-2.6-2.1-0.9-2.8c10.4-4.2,21-7.8,31.8-10.9l0.6-0.1l3.4-7.2c-5.1-1.2-9.5-0.5-14.7,1.1c-5.6,1.8-11.1,4-16.4,6.5
		c-1.7,0.8-3.3-1.7-1.6-2.5c10.2-4.9,22.4-10.9,33.9-7.9c3-7.3,5.5-14.8,6.9-22.6c0.3-1.9,3.2-1.2,2.9,0.7
		C349.3,7,347,14.4,344,21.6c6.4,7.4,10.7,16.4,12.5,26c0.3,1.9-2.5,2.7-2.8,0.9c-1.6-8.7-5.3-16.9-10.9-23.8l-3.4,7.5
		c5.9,10,9,21.1,12,32.3c0.5,1.8-2.3,2.7-2.8,0.9c-2.4-10.4-6-20.4-10.8-29.9l-5.6,10.7c5.3,10.1,8,21.3,7.9,32.7c0,1.9-3,2-3,0.1
		c0.1-10.3-2.1-20.4-6.6-29.7l-3.6,6.7l-1.9,3.5c4.2,8.3,6.1,17.5,5.4,26.8c-0.1,1.9-3.1,2-3,0.1c0.6-8.2-0.8-16.3-4.2-23.8l-6.2,11
		c4.2,7.5,6.5,15.8,6.9,24.4c0.1,1.9-2.9,2-3,0.1c-0.3-7.5-2.2-14.9-5.7-21.6l-3.7,6.1v0.1c3,8.3,4.5,16.9,4.5,25.7c0,1.9-3,2-3,0.1
		c0-7.8-1.2-15.3-3.6-22.7l-5.8,8.6l0.2,0.5c1.7,6.7,2,13.7,0.8,20.5C304.3,117.2,301.4,116.5,301.8,114.6L301.8,114.6z"/>
	<path id="pino_x5F_5_7_" fill="#021F45" stroke="#021F45" stroke-width="3" stroke-miterlimit="10" d="M19.9,156.3
		c-1.9-5.5-5-10.5-8.9-14.8c-0.6,5-1.4,10-2.4,15c-0.4,1.9-3.3,1.2-2.9-0.7c0.7-3.3,1.3-6.7,1.8-10c-2.5,2.6-4.7,5.4-6.5,8.5
		c-1,1.6-3.6,0.3-2.6-1.4c2.6-4.4,5.8-8.3,9.7-11.7l0.1-0.1c0.5-4.1,0.9-8.2,1.1-12.3c-4.1,4.1-7.6,8.7-10.5,13.7
		c-1,1.6-3.6,0.3-2.6-1.4c3.6-6.2,8-11.7,13.2-16.5l0.2-0.1l0.3-8.6c-5.7,4.9-10.4,10.8-14,17.4c-0.9,1.7-3.5,0.3-2.6-1.4
		c3.9-7.3,9.2-13.8,15.6-19c0.3-0.3,0.7-0.4,1.1-0.4v-11.9c-7.8,6.6-14.2,14.6-19,23.6c-0.9,1.7-3.5,0.3-2.6-1.4
		c5.2-9.9,12.4-18.7,21.2-25.6L9.9,97l-0.1-4.2l-0.2-8.6c-7.6,6.3-14,14-18.7,22.7c-0.9,1.7-3.5,0.3-2.6-1.4
		c5.3-9.7,12.6-18.1,21.3-24.9L9.3,70.5C1.9,78-5.1,85.9-11.6,94.1c-1.2,1.5-3.3-0.5-2.2-2c7-8.8,14.4-17.2,22.3-25.2
		c0.2-0.2,0.3-0.3,0.5-0.3l-0.6-8c-4.8,1.5-9,4.3-12.2,8.2c-4,4.3-7.7,8.9-11.1,13.7c-1.1,1.5-3.7,0.2-2.6-1.4
		c6.4-9.2,14-20.4,25.5-23.5C7,47.8,5.5,40,2.8,32.5C2.2,30.8,5,30,5.7,31.7c2.6,7.4,4.2,15,5.2,22.7c9.2,3.3,17.3,8.9,23.6,16.4
		c1.2,1.4-0.8,3.6-2,2.2c-5.7-6.8-12.9-12.1-21.2-15.3l0.7,8.2C22,71.7,30.3,79.8,38.4,88c1.3,1.3-0.7,3.5-2,2.2
		c-7.2-7.8-15.3-14.8-24.2-20.7l0.4,12.1c9.6,6.2,17.5,14.6,23,24.6c0.9,1.7-1.6,3.2-2.5,1.5c-5-9-11.9-16.7-20.4-22.5l0.1,7.6
		l0.1,3.9c7.8,5.1,14,12.3,17.9,20.7c0.8,1.7-1.7,3.3-2.5,1.5c-3.4-7.4-8.7-13.8-15.4-18.6v12.6c7.4,4.4,13.5,10.6,18,17.9
		c1,1.6-1.5,3.2-2.5,1.5c-4-6.4-9.3-11.8-15.6-16l-0.2,7.1h0.1c6.7,5.7,12.3,12.5,16.6,20.1c0.9,1.7-1.6,3.2-2.5,1.5
		c-3.8-6.7-8.6-12.8-14.3-18l-0.8,10.3l0.5,0.4c4.8,5,8.5,10.9,10.8,17.4C23.3,157.2,20.5,158.1,19.9,156.3z"/>
	<path id="pino_x5F_4_11_" fill="#021F45" stroke="#021F45" stroke-width="3" stroke-miterlimit="10" d="M352.1,204.7
		c-1.6-5.5-4.3-10.7-8-15.2c-0.9,5-1.9,9.9-3.2,14.9c-0.5,1.8-3.3,1-2.8-0.8c0.9-3.3,1.6-6.6,2.3-9.9c-2.6,2.4-5,5.1-7,8.1
		c-1.1,1.6-3.6,0.1-2.5-1.5c2.8-4.3,6.2-8,10.3-11.1l0.1-0.1c0.7-4.1,1.3-8.1,1.8-12.2c-4.3,3.9-8,8.3-11.2,13.1
		c-1,1.6-3.6,0.1-2.5-1.5c3.9-6,8.6-11.2,14-15.8l0.2-0.1l0.8-8.5c-6,4.6-11,10.2-15,16.7c-1,1.6-3.5,0.1-2.5-1.5
		c4.3-7.1,9.9-13.3,16.6-18.2c0.4-0.3,0.7-0.3,1.1-0.3c0.3-3.9,0.5-7.9,0.6-11.8c-8.1,6.1-14.9,13.7-20.1,22.4
		c-1,1.6-3.5,0.1-2.5-1.5c5.7-9.6,13.4-17.9,22.5-24.4l0.3-0.2l0.1-4.2l0.3-8.6c-8,5.9-14.7,13.2-19.9,21.6c-1,1.6-3.5,0.1-2.5-1.5
		c5.9-9.3,13.5-17.4,22.6-23.7l0.2-10.1c-7.7,7.2-15.1,14.7-22.1,22.5c-1.3,1.4-3.3-0.7-2-2.1c7.5-8.4,15.3-16.3,23.6-23.9
		c0.2-0.2,0.3-0.3,0.5-0.3l-0.2-8c-4.8,1.2-9.2,3.8-12.6,7.5c-4.2,4.1-8.2,8.5-11.8,13.1c-1.2,1.5-3.7,0-2.5-1.5
		c7-8.9,15.2-19.7,26.8-22.1c-0.4-7.9-1.8-15.7-3.9-23.3c-0.5-1.8,2.3-2.5,2.9-0.7c2.2,7.5,3.4,15.2,3.9,22.9
		c9,3.8,16.8,9.8,22.7,17.7c1.1,1.5-1,3.6-2.1,2c-5.3-7.1-12.3-12.8-20.4-16.4l0.2,8.2c9.7,6.4,17.5,14.9,25.2,23.5
		c1.3,1.4-0.9,3.5-2.1,2c-7.1-7.9-14.2-15.9-23-22l-0.2,12.1c9.3,6.6,16.7,15.5,21.6,25.8c0.8,1.7-1.8,3.1-2.6,1.4
		c-4.5-9.3-11-17.3-19.2-23.6l-0.3,7.6l-0.1,3.9c7.5,5.5,13.3,13,16.8,21.6c0.7,1.7-1.9,3.2-2.6,1.4c-3-7.6-7.9-14.3-14.3-19.4
		l-0.7,12.6c7.1,4.8,12.9,11.3,17.1,18.8c0.9,1.7-1.7,3.1-2.6,1.4c-3.6-6.6-8.6-12.3-14.7-16.8l-0.6,7.1h0.1
		c6.4,6,11.6,13.1,15.5,21c0.8,1.7-1.8,3.1-2.6,1.4c-3.4-7-7.9-13.2-13.3-18.7c-0.4,3.4-0.8,6.9-1.4,10.3l0.4,0.4
		c4.5,5.2,7.8,11.4,9.8,18C355.4,205.9,352.5,206.6,352.1,204.7L352.1,204.7z"/>
</g>
<g>
	<path id="pino_x5F_1_9_" fill="#009488" stroke="#009488" stroke-width="3" stroke-miterlimit="10" d="M163.9,49.7
		c5.3-2.5,11.1-3,16.9-3.3c-3.3,3.8-6.5,7.7-9.5,11.8c-1.1,1.5,1.3,3.2,2.4,1.7c2-2.7,4.1-5.4,6.3-8c-0.2,3.6-0.9,7.1-2,10.5
		c-0.6,1.8,2.2,2.8,2.8,1c1.6-4.9,2.3-9.8,2.2-15v-0.1c2.7-3.1,5.5-6.1,8.4-9.1c-0.4,5.8-1.4,11.5-3.2,17c-0.6,1.8,2.2,2.8,2.8,1
		c2.2-6.7,3.4-13.7,3.5-20.8v-0.2l6.2-6c0.2,7.6-1,15-3.6,22.1c-0.6,1.8,2.1,2.8,2.8,1c2.8-7.8,4.1-16.1,3.7-24.4
		c0-0.4-0.2-0.8-0.5-1l8.8-7.9c0.3,10.1-1.3,20.2-4.9,29.7c-0.7,1.8,2.1,2.8,2.8,1c3.9-10.5,5.5-21.7,4.9-32.9l-0.1-0.3
		c1.1-0.9,2.2-1.8,3.2-2.8l6.5-5.6c0.4,9.9-1.1,19.7-4.3,29.1c-0.6,1.8,2.1,2.8,2.8,1c3.6-10.3,5.1-21.2,4.4-32.1l-0.1-0.4
		c2.6-2.2,5.1-4.4,7.8-6.5c-0.7,10.5-2,20.9-3.7,31.3c-0.3,1.9,2.6,2.1,2.9,0.2c1.8-11.1,3.1-22.2,3.8-33.4l-0.1-0.6
		c2.1-1.7,4.2-3.3,6.4-4.8c2.3,4.8,2.5,9.2,2,14.6c-0.5,5.9-1.5,11.7-2.8,17.4c-0.4,1.8,2.3,2.9,2.8,1c2.6-11,5.8-24.2,0.4-34.8
		c6.5-4.5,13.3-8.5,20.6-11.6c1.8-0.7,0.5-3.4-1.3-2.7c-7.2,3-13.9,6.9-20.3,11.3c-8.6-4.7-18.2-7-28-6.6c-1.9,0.1-2.2,3-0.2,2.9
		c8.9-0.3,17.7,1.5,25.6,5.6l-6.6,5c-11-3.6-22.6-4.3-34.1-4.9c-1.9-0.1-2.2,2.9-0.2,2.9c10.6,0.5,21.3,1.1,31.6,4.1l-9.3,7.8
		c-11-3-22.5-3.3-33.7-0.7c-1.8,0.4-1.3,3.3,0.5,2.9c10-2.3,20.4-2.3,30.4,0.1l-5.7,4.9l-3,2.6c-9-2.3-18.5-2.2-27.4,0.5
		c-1.8,0.5-1.3,3.5,0.5,2.9c7.8-2.4,16.1-2.8,24.1-1l-9.4,8.4c-8.3-2.5-16.8-3-25.4-1.5c-1.9,0.3-1.3,3.2,0.5,2.9
		c7.5-1.3,15-1,22.3,0.9l-5.2,5h-0.1c-8.7-1.2-17.5-0.8-26.1,1.1c-1.9,0.4-1.3,3.3,0.5,2.9c7.5-1.7,15.2-2.1,22.9-1.3L183,43
		l-0.6-0.1c-6.9,0.2-13.9,0.6-20.2,3.6C160.9,47.9,162.1,50.5,163.9,49.7z"/>
	<path id="pino_x5F_2_9_" fill="#009488" stroke="#009488" stroke-width="3" stroke-miterlimit="10" d="M242.9,58.2
		c5.6-1.5,11.5-1.8,17.2-1c-3.8,3.3-7.5,6.8-11,10.5c-1.3,1.4,0.8,3.4,2.2,2l7.3-7.1c-0.7,3.5-1.8,6.9-3.4,10.2
		c-0.8,1.7,1.8,3.1,2.6,1.4c2.2-4.6,3.6-9.4,4.2-14.5v-0.1l9.5-7.9c-1.1,5.7-2.9,11.2-5.5,16.4c-0.8,1.7,1.8,3.1,2.6,1.4
		c3.1-6.4,5.2-13.2,6.3-20.2v-0.2l6.9-5.1c-0.9,7.5-3,14.7-6.5,21.4c-0.9,1.7,1.7,3.1,2.6,1.4c3.8-7.3,6.2-15.4,7-23.6
		c0-0.4-0.1-0.8-0.3-1.1c3.2-2.3,6.5-4.5,9.8-6.7c-1,10.1-4,19.8-8.8,28.8c-0.9,1.7,1.7,3.1,2.6,1.4c5.3-9.9,8.4-20.7,9.3-31.9v-0.3
		l3.5-2.3l7.2-4.7c-0.9,9.9-3.7,19.5-8.2,28.3c-0.9,1.7,1.8,3.1,2.6,1.4c5-9.8,7.8-20.3,8.7-31.2v-0.4c2.8-1.8,5.7-3.7,8.6-5.4
		c-2.1,10.3-4.7,20.5-7.8,30.5c-0.6,1.8,2.3,2.5,2.9,0.6c3.3-10.7,6.1-21.6,8.3-32.6V17l6.9-3.9c1.7,5,1.3,9.4,0.1,14.7
		c-1.3,5.7-3,11.4-5.1,16.9c-0.7,1.8,1.9,3.2,2.6,1.4c4-10.6,9-23.2,5.1-34.4c7-3.6,14.3-6.7,22-8.7c1.8-0.5,0.9-3.3-0.9-2.8
		c-7.5,2-14.7,5-21.6,8.5c-7.9-5.8-17.2-9.3-26.9-10.3c-1.9-0.2-2.5,2.7-0.6,2.9c8.9,0.9,17.3,3.9,24.6,8.9l-7.2,4
		c-10.5-5-21.8-7.3-33.1-9.4c-1.9-0.3-2.5,2.5-0.6,2.9c10.5,1.9,21,4,30.7,8.3L309,22.5c-10.5-4.4-21.9-6.2-33.3-5.2
		c-1.9,0.2-1.8,3.1,0.1,3c10.3-1,20.5,0.4,30.1,4.2l-6.3,4.1l-3.3,2.1c-8.6-3.5-18-4.7-27.2-3.2c-1.9,0.3-1.7,3.3,0.1,3
		c8.1-1.3,16.3-0.6,24,2.2l-10.4,7.1c-7.8-3.6-16.3-5.2-24.9-4.9c-1.9,0.1-1.8,3,0.1,3c7.6-0.3,15,1,22,3.9l-5.8,4.2h-0.1
		c-8.5-2.3-17.3-3.1-26-2.4c-1.9,0.2-1.8,3.1,0.1,3c7.7-0.6,15.4,0,22.9,1.8c-2.7,2.1-5.4,4.3-8.1,6.5l-0.6-0.2
		c-6.8-1.2-13.8-0.8-20.5,0.9C240.2,56,241,58.8,242.9,58.2L242.9,58.2z"/>
	<path id="pino_x5F_5_9_" fill="#009488" stroke="#009488" stroke-width="3" stroke-miterlimit="10" d="M318.9,146.3
		c1.9-5.5,5-10.5,8.9-14.8c0.6,5,1.4,10,2.4,15c0.4,1.9,3.3,1.2,2.9-0.7c-0.7-3.3-1.3-6.7-1.8-10c2.5,2.6,4.7,5.4,6.5,8.5
		c1,1.6,3.6,0.3,2.6-1.4c-2.6-4.4-5.9-8.3-9.7-11.7l-0.1-0.1c-0.5-4.1-0.9-8.2-1.1-12.3c4.1,4.1,7.6,8.7,10.5,13.7
		c1,1.6,3.6,0.3,2.6-1.4c-3.6-6.2-8-11.7-13.2-16.5l-0.2-0.1l-0.3-8.6c5.7,4.9,10.4,10.8,14,17.4c0.9,1.7,3.5,0.3,2.6-1.4
		c-3.9-7.3-9.2-13.8-15.6-19c-0.3-0.3-0.7-0.4-1.1-0.4V90.6c7.8,6.5,14.2,14.5,18.9,23.5c0.9,1.7,3.5,0.3,2.6-1.4
		c-5.2-9.9-12.4-18.7-21.2-25.6l-0.3-0.2l0.1-4.2l0.2-8.6c7.6,6.3,14,14,18.7,22.7c0.9,1.7,3.5,0.3,2.6-1.4
		c-5.3-9.7-12.6-18.1-21.3-24.9l0.3-10.1c7.3,7.5,14.3,15.5,20.8,23.7c1.2,1.5,3.3-0.5,2.2-2c-7-8.8-14.4-17.2-22.3-25.2
		c-0.2-0.2-0.3-0.3-0.5-0.3l0.6-8c5.1,1.5,8.5,4.2,12.2,8.2c4,4.3,7.7,8.9,11.1,13.7c1.1,1.5,3.7,0.2,2.6-1.4
		c-6.5-9.3-14.1-20.5-25.6-23.6c1-7.8,2.5-15.6,5.2-23.1c0.6-1.8-2.2-2.6-2.8-0.8c-2.6,7.4-4.2,15-5.2,22.7
		c-9.2,3.3-17.3,8.9-23.6,16.4c-1.2,1.4,0.8,3.6,2,2.2c5.7-6.8,12.9-12.1,21.2-15.3l-0.7,8.2c-10,5.8-18.3,13.9-26.4,22.1
		c-1.3,1.3,0.7,3.5,2,2.2c7.5-7.6,15.1-15.1,24.2-20.7L326,71.5c-9.6,6.2-17.5,14.6-23,24.6c-0.9,1.7,1.6,3.2,2.5,1.5
		c5-9,11.9-16.7,20.4-22.5l-0.1,7.6l-0.1,3.9c-7.8,5.1-14,12.3-17.9,20.7c-0.8,1.7,1.7,3.3,2.5,1.5c3.4-7.4,8.7-13.8,15.4-18.6v12.6
		c-7.4,4.4-13.5,10.6-18,17.9c-1,1.6,1.5,3.2,2.5,1.5c4-6.4,9.3-11.8,15.6-16l0.2,7.1h-0.1c-6.7,5.7-12.3,12.5-16.6,20.1
		c-0.9,1.7,1.6,3.2,2.5,1.5c3.8-6.7,8.6-12.8,14.3-18l0.8,10.3l-0.5,0.4c-4.8,5-8.5,10.9-10.8,17.4
		C315.5,147.2,318.3,148.1,318.9,146.3L318.9,146.3z"/>
	<path id="pino_x5F_3_9_" fill="#009488" stroke="#009488" stroke-width="3" stroke-miterlimit="10" d="M118.8,4.7
		c-5.6-1.4-10.9-3.8-15.6-7.3c4.9-1.1,9.8-2.4,14.7-3.9c1.8-0.6,0.9-3.4-1-2.8l-9.8,2.8c2.3-2.8,4.9-5.2,7.8-7.4
		c1.5-1.1-0.1-3.6-1.6-2.5c-4.1,3-7.7,6.6-10.6,10.8l-0.1,0.1c-4,0.9-8.1,1.7-12.1,2.4c3.7-4.5,7.9-8.4,12.6-11.8
		c1.5-1.1-0.1-3.6-1.6-2.5c-5.7,4.1-10.8,9.1-15.1,14.8l-0.1,0.2l-8.5,1.2C82-7.4,87.4-12.8,93.6-17c1.6-1.1-0.1-3.5-1.6-2.5
		C85.1-14.8,79.2-8.9,74.6-2c-0.2,0.4-0.3,0.8-0.2,1.1L62.5,0.4c5.7-8.4,13-15.6,21.4-21.2c1.6-1.1-0.1-3.5-1.6-2.5
		C73-17.1,65-9,59,0.4l-0.2,0.3L54.6,1L46,1.7c5.5-8.2,12.5-15.3,20.6-21c1.6-1.1-0.1-3.5-1.6-2.5C56-15.6,48.4-7.7,42.5,1.5
		l-0.2,0.4L32.2,2.6c6.8-8,13.9-15.8,21.4-23.1c1.4-1.3-0.9-3.3-2.2-1.9c-8,7.9-15.6,16.1-22.8,24.7l-0.3,0.5l-8,0.2
		c0.9-5.2,3.4-8.9,6.9-13c3.9-4.4,8.1-8.5,12.5-12.4c1.4-1.2-0.2-3.7-1.6-2.5c-8.4,7.5-18.7,16.2-20.6,28C9.6,3,1.7,2-6,0.3
		c-1.9-0.4-2.4,2.5-0.5,2.9C1.1,5,8.8,5.8,16.5,6c4.2,8.8,10.6,16.3,18.7,21.8c1.6,1.1,3.5-1.2,1.9-2.2c-7.3-5-13.3-11.7-17.3-19.6
		L28,5.9c6.8,9.4,15.7,16.8,24.7,24c1.5,1.2,3.4-1,1.9-2.2c-8.5-6.4-16.2-13.8-23-22l12.1-0.8c7.1,8.9,16.3,15.9,26.8,20.4
		c1.7,0.7,3-1.9,1.3-2.7c-9.5-4-17.8-10.2-24.5-18L54.8,4l3.9-0.3c6,7.2,13.6,12.6,22.4,15.7c1.8,0.6,3.1-2,1.3-2.7
		c-7.7-2.7-14.6-7.3-20-13.4L75,2c5.2,6.9,11.9,12.4,19.6,16.1c1.7,0.8,3-1.8,1.3-2.7c-6.8-3.3-12.7-8-17.5-13.9l7.1-1l0.1,0.1
		c6.4,6,13.7,10.9,21.7,14.5c1.7,0.8,3-1.9,1.3-2.7C101.5,9.3,95,5.1,89.3,0c3.4-0.6,6.8-1.2,10.2-1.9l0.4,0.4
		c5.5,4.3,11.8,7.3,18.5,9C120.1,7.9,120.7,5,118.8,4.7z"/>
	<path id="pino_x5F_4_14_" fill="#009488" stroke="#009488" stroke-width="3" stroke-miterlimit="10" d="M37,104.6
		c-1.3-5.7-0.6-11.5,0.4-17.2c3,4.1,6.2,8,9.5,11.9c1.3,1.4,3.4-0.6,2.2-2l-6.5-7.9c3.4,1,6.7,2.4,9.9,4.2c1.6,1,3.2-1.5,1.6-2.5
		c-4.4-2.6-9.1-4.4-14.1-5.4h-0.1c-2.5-3.3-4.8-6.7-7.1-10.1c5.6,1.6,10.9,3.8,15.9,6.8c1.6,1,3.2-1.5,1.6-2.5
		c-6.1-3.6-12.7-6.2-19.6-7.9h-0.2L26,64.7c7.4,1.4,14.4,4.3,20.8,8.3c1.6,1,3.2-1.5,1.6-2.5c-7-4.4-14.8-7.4-23-8.9
		c-0.4-0.1-0.8,0-1.1,0.2l-5.9-10.3c10,1.8,19.5,5.6,28,11.1c1.6,1,3.2-1.5,1.6-2.5c-9.4-6-20-10.1-31-11.9h-0.3l-2-3.7l-4.1-7.6
		c9.8,1.7,19.1,5.3,27.5,10.5c1.6,1,3.2-1.5,1.6-2.5c-9.4-5.7-19.8-9.5-30.6-11.2H8.7l-4.7-9c10.1,3,20,6.4,29.8,10.3
		c1.8,0.7,2.6-2.1,0.9-2.8c-10.4-4.2-21-7.8-31.8-10.9l-0.6-0.1L-1.1,14c5.1-1.2,9.5-0.5,14.7,1.1c5.6,1.8,11.1,4,16.4,6.5
		c1.7,0.8,3.3-1.7,1.6-2.5C21.3,14.2,9.2,8.2-2.3,11.2c-3-7.3-5.5-14.8-6.9-22.6c-0.3-1.9-3.2-1.2-2.9,0.7
		c1.5,7.6,3.8,15.1,6.8,22.2c-6.4,7.4-10.7,16.4-12.5,26c-0.3,1.9,2.5,2.7,2.8,0.9c1.6-8.7,5.3-16.9,10.9-23.8l3.4,7.5
		c-5.9,10-9,21.1-12,32.3c-0.5,1.8,2.3,2.7,2.8,0.9C-7,44.9-4.2,34.6,1,25.3L6.6,36c-5.3,10.1-8,21.3-7.9,32.7c0,1.9,3,2,3,0.1
		C1.6,58.6,3.8,48.4,8.3,39.2c1.9,3.4,3.7,6.8,5.5,10.2c-4.2,8.3-6.1,17.5-5.4,26.8c0.1,1.9,3.1,2,3,0.1c-0.6-8.2,0.8-16.3,4.2-23.8
		l6.2,11c-4.2,7.5-6.5,15.8-6.9,24.4c-0.1,1.9,2.9,2,3,0.1c0.3-7.6,2.2-14.9,5.7-21.6l3.7,6.1v0.1c-3,8.3-4.5,16.9-4.5,25.7
		c0,1.9,3,2,3,0.1c0-7.8,1.2-15.3,3.6-22.7l5.8,8.6L35,84.8c-1.7,6.7-2,13.7-0.8,20.5C34.5,107.2,37.4,106.5,37,104.6L37,104.6z"/>
</g>
<g id="Neve_4_" opacity="0.3">
	<path fill="#FFFFFF" d="M270.4,143.6c-3-0.6-4.4,2.5-4.2,3.3c0.3,0.8,0.6,2.9,2.4,2.9s3.8-1,3.8-2.9S272.3,144,270.4,143.6
		L270.4,143.6z M320,164.4c-3-0.6-4.4,2.5-4.2,3.3c0.3,0.8,0.6,2.9,2.4,2.9s3.8-1,3.8-2.9S321.9,164.8,320,164.4L320,164.4z
		 M38,185.1c-3-0.6-4.4,2.5-4.2,3.3c0.3,0.8,0.6,2.9,2.4,2.9c1.8,0,3.8-1,3.8-2.9S39.9,185.5,38,185.1z M96.4,139
		c-3-0.6-4.4,2.5-4.2,3.3c0.3,0.8,0.6,2.9,2.4,2.9s3.8-1,3.8-2.9S98.3,139.4,96.4,139z M323.2,294.9c-3-0.6-4.4,2.5-4.2,3.3
		c0.3,0.8,0.6,2.9,2.4,2.9s3.8-1,3.8-2.9S325,295.3,323.2,294.9L323.2,294.9z M284.4,378.3c-3-0.6-4.4,2.5-4.2,3.3
		c0.3,0.8,0.6,2.9,2.4,2.9s3.8-1,3.8-2.9S286.3,378.7,284.4,378.3L284.4,378.3z M298,328c-3-0.6-4.4,2.5-4.2,3.3
		c0.3,0.8,0.6,2.9,2.4,2.9s3.8-1,3.8-2.9S299.9,328.4,298,328L298,328z M72.8,237.1c-3-0.6-4.4,2.5-4.2,3.3c0.3,0.8,0.6,2.9,2.4,2.9
		s3.8-1,3.8-2.9S74.6,237.5,72.8,237.1z M27.8,432.9c-3-0.6-4.4,2.5-4.2,3.3c0.3,0.8,0.6,2.9,2.4,2.9s3.8-1,3.8-2.9
		S29.7,433.3,27.8,432.9z M227.5,115.3c-2.4-0.5-3.6,2.1-3.4,2.7c0.2,0.7,0.5,2.4,2,2.4s3.1-0.8,3.1-2.4S229.1,115.6,227.5,115.3
		L227.5,115.3z M277.4,95.8c-2.4-0.5-3.6,2.1-3.4,2.7c0.2,0.7,0.5,2.4,2,2.4s3.1-0.8,3.1-2.4C279,97,278.9,96.1,277.4,95.8z
		 M25.1,129.4c-2.4-0.5-3.6,2.1-3.4,2.7c0.2,0.7,0.5,2.4,2,2.4s3.1-0.8,3.1-2.4S26.6,129.7,25.1,129.4z M176.7,124.2
		c-2.4-0.5-3.6,2.1-3.4,2.7c0.2,0.7,0.5,2.4,2,2.4s3.1-0.8,3.1-2.4C178.3,125.4,178.2,124.5,176.7,124.2L176.7,124.2z M225,233.9
		c-2.4-0.5-3.6,2.1-3.4,2.7c0.2,0.7,0.5,2.4,2,2.4s3.1-0.8,3.1-2.4S226.5,234.3,225,233.9L225,233.9z M256.2,345.5
		c-2.4-0.5-3.6,2.1-3.4,2.7c0.2,0.7,0.5,2.4,2,2.4s3.1-0.8,3.1-2.4S257.8,345.8,256.2,345.5z M303.4,224.8c-2.4-0.5-3.6,2.1-3.4,2.7
		c0.2,0.7,0.5,2.4,2,2.4s3.1-0.8,3.1-2.4C305.1,226,305,225.2,303.4,224.8z M65.7,191.9c-2.4-0.5-3.6,2.1-3.4,2.7
		c0.2,0.7,0.5,2.4,2,2.4s3.1-0.8,3.1-2.4S67.2,192.2,65.7,191.9z M22.5,250.7c-2.4-0.5-3.6,2.1-3.4,2.7c0.2,0.7,0.5,2.4,2,2.4
		s3.1-0.8,3.1-2.4S24.1,251.1,22.5,250.7z M291.4,277c-3-0.6-4.4,2.5-4.2,3.3c0.3,0.8,0.6,2.9,2.4,2.9s3.8-1,3.8-2.9
		S293.3,277.4,291.4,277L291.4,277z M75.9,417.1c-3-0.6-4.4,2.5-4.2,3.3c0.3,0.8,0.6,2.9,2.4,2.9s3.8-1,3.8-2.9
		S77.7,417.5,75.9,417.1z M38.4,305.3c-3-0.6-4.4,2.5-4.2,3.3c0.3,0.8,0.6,2.9,2.4,2.9c1.8,0,3.8-1,3.8-2.9S40.3,305.7,38.4,305.3z
		 M130.2,95.2c-3-0.6-4.4,2.5-4.2,3.3c0.3,0.8,0.6,2.9,2.4,2.9c1.8,0,3.8-1,3.8-2.9S132.1,95.6,130.2,95.2z M260,429.7
		c-3-0.6-4.4,2.5-4.2,3.3c0.3,0.8,0.6,2.9,2.4,2.9c1.8,0,3.8-1,3.8-2.9S261.8,430.1,260,429.7z M320,413.5c-3-0.6-4.4,2.5-4.2,3.3
		c0.3,0.8,0.6,2.9,2.4,2.9s3.8-1,3.8-2.9S321.9,413.9,320,413.5L320,413.5z M298.4,448.2c-3-0.6-4.4,2.5-4.2,3.3
		c0.3,0.8,0.6,2.9,2.4,2.9s3.8-1,3.8-2.9S300.3,448.6,298.4,448.2L298.4,448.2z M71,359.8c-3-0.6-4.4,2.5-4.2,3.3
		c0.3,0.8,0.6,2.9,2.4,2.9s3.8-1,3.8-2.9S72.9,360.2,71,359.8z M38.4,354.2c-3-0.6-4.4,2.5-4.2,3.3c0.3,0.8,0.6,2.9,2.4,2.9
		c1.8,0,3.8-1,3.8-2.9S40.3,354.6,38.4,354.2z"/>
</g>
<g id="coriandoli">
		<path fill="none" stroke="#FF0055" stroke-width="4" stroke-linecap="round" stroke-linejoin="round" stroke-miterlimit="10" d="
			M222.4,315c18.3,10.4,40.5,11.2,59.5,2.1c8-4.3,15.2-11.4,15.7-20.9c0.3-4.3-1-8.4-4-11.4c-2.7-2.8-6.4-4.3-10.2-3.9l-0.6,0.1
			l-0.6,0.2l-0.7,0.2l-0.3,0.1l-1,0.6l-0.6,0.4l-0.1,0.1c-1.5,1.3-2.3,2.3-3.1,4.1c-0.3,0.5,0-0.2-0.2,0.3l-0.2,0.7l-0.3,1.1
			l-0.2,0.7v1.5l0.1,1c0-0.4,0.1,0.1,0.1,0.2l0.3,1.2l0.2,0.4l0.2,0.3l0.3,0.6l0.2,0.3"/>
		<path fill="none" stroke="#FF0055" stroke-width="4" stroke-linecap="round" stroke-linejoin="round" stroke-miterlimit="10" d="
			M218.6,320.7L218.6,320.7c18.2,1.8,36,6.1,53,12.7c7.1,2.6,13.6,6.5,19.2,11.5c4.9,4.4,8.1,10.4,8.9,17c0.4,3.7,0.2,6.9-1,10.3
			c-1,2.9-3,5.9-5.3,7.7"/>
		<path fill="none" stroke="#FF0055" stroke-width="4" stroke-linecap="round" stroke-linejoin="round" stroke-miterlimit="10" d="
			M252,315.8L252,315.8c14.8,5.1,31-2.4,36.7-17"/>
		<path fill="none" stroke="#FF0055" stroke-width="4" stroke-linecap="round" stroke-linejoin="round" stroke-miterlimit="10" d="
			M87.1,315.1c-9.5,5.6-20.4,8.5-31.4,8.5c-9.7,0.1-19.5-1.9-28.1-6.4c-8-4.3-15.2-11.4-15.7-20.9c-0.2-4.3,1-8.4,4-11.4
			c2.7-2.7,6.4-4.3,10.2-3.9l0.6,0.1l0.6,0.2l0.7,0.2l0.3,0.1c0.3,0.2,0.7,0.3,1,0.6c0.2,0.2,0.5,0.2,0.6,0.4l0.1,0.1
			c1.5,1.3,2.3,2.3,3.1,4.1c0.2,0.5,0-0.2,0.2,0.3l0.2,0.7c0.2,0.3,0.2,0.7,0.3,1.1l0.2,0.7v1.5l-0.1,1c0-0.5-0.1,0.1-0.1,0.2
			l-0.3,1.2l-0.2,0.4l-0.2,0.3l-0.3,0.6l-0.2,0.3"/>
		<path fill="none" stroke="#FF0055" stroke-width="4" stroke-linecap="round" stroke-linejoin="round" stroke-miterlimit="10" d="
			M91.3,321.2L91.3,321.2c-18.2,1.8-36,6.1-53,12.7c-7.1,2.5-13.6,6.5-19.2,11.5c-4.9,4.4-8.1,10.4-8.9,17c-0.5,3.5-0.2,7,1,10.3
			c1,3,2.9,5.7,5.3,7.7"/>
		<path fill="none" stroke="#FF0055" stroke-width="4" stroke-linecap="round" stroke-linejoin="round" stroke-miterlimit="10" d="
			M57.7,316.1L57.7,316.1c-14.8,5.1-31-2.4-36.7-17"/>

</g>
</svg>
