<svg xmlns="http://www.w3.org/2000/svg" xmlns:xlink="http://www.w3.org/1999/xlink" xml:space="preserve" id="Livello_1" x="0" y="0" version="1.1" viewBox="0 0 339.5 405.4">
    <ellipse cx="161.6" cy="378.7" fill="#C1D1D6" stroke="#C1D1D6" stroke-linecap="round" stroke-linejoin="round" stroke-miterlimit="10" stroke-width="3" opacity=".5" rx="65.3" ry="3.4"></ellipse>
    <g id="braccio_x5F_six_x5F_1">
        <path fill="none" stroke="#009488" stroke-miterlimit="10" stroke-width="10" d="M194.2 217.2s48.6 20.1 44.7 102.1"></path>
        <path fill="none" stroke="#6CF7C6" stroke-dasharray="22" stroke-miterlimit="10" stroke-width="10" d="M194.1 217s48.6 20.1 44.7 102.1"></path>
        <path id="mano_six_4_" fill="#F8CEDE" d="M233.6 318.5h9.6s3.5 11.2 1.2 11.2-3.5-5.6-3.5-5.6.8 8.9-1.6 8.7c-2.4-.2-2.4-8.2-2.4-8.2s-.6 5.1-3.4 4.8.1-10.9.1-10.9z"></path>
    </g>
    <g id="braccio_x5F_dex_x5F_1">
        <path fill="none" stroke="#009488" stroke-miterlimit="10" stroke-width="10" d="M91.8 320.3s-4.3-73.8 37.8-89.6"></path>
        <path fill="none" stroke="#6CF7C6" stroke-dasharray="22" stroke-miterlimit="10" stroke-width="10" d="M91.6 320s-4.3-73.8 37.8-89.6"></path>
        <path fill="#F8CEDE" d="M96.6 319.7H87s-3.5 11.2-1.2 11.2 3.5-5.6 3.5-5.6-.8 8.9 1.6 8.7 2.4-8.2 2.4-8.2.6 5.1 3.4 4.8c2.7-.3-.1-10.9-.1-10.9z"></path>
    </g>
    <g id="gamba_x5F_dex_1_" stroke-miterlimit="10">
        <path fill="none" stroke="#009488" stroke-width="10" d="M130.4 307.6v49.2"></path>
        <path fill="none" stroke="#6CF7C6" stroke-dasharray="22" stroke-width="10" d="M130.3 307.4v49.2"></path>
        <path id="Scarpa_dex_4_" fill="#002764" stroke="#002764" stroke-width="2" d="m133.8 356.8-7.9-.5s-1.2 10.4-6.1 11-7.4-1.4-8.7-5.5c-1.3-4-1-7.3-3.5-7.3-3 0-3.1 5.3-1.8 9.8 1.2 4.3 5.5 9.8 12.2 9.8s10.4-6.7 10.4-6.7l.5 6.7h5l-.1-17.3z"></path>
    </g>
    <g id="gamba_x5F_six_1_" stroke-miterlimit="10">
        <path fill="none" stroke="#009488" stroke-width="10" d="M193.9 309.4v49.2"></path>
        <path fill="none" stroke="#6CF7C6" stroke-dasharray="22" stroke-width="10" d="M193.7 309.1v49.2"></path>
        <path id="Scarpa_six_4_" fill="#002764" stroke="#002764" stroke-width="2" d="m190.5 358 7.9-.5s1.5 9.2 6.1 11c4 1.5 7.1-1.3 8.1-5.5 1.3-5.2 1-7.9 3.5-7.9 3 0 3.7 5.9 2.4 10.4-1.2 4.3-5.5 9.8-12.2 9.8s-10.4-6.7-10.4-6.7l-.5 6.7h-5l.1-17.3z"></path>
    </g>
    <g id="Corpo_4_">
        <path d="M201.3 206.2s-2.1 108.3-2.1 102.7c0-.2-73.3 2.7-74.4 0-1.2-2.7-.7-76.4 0-84.4"></path>
        <path fill="#002764" stroke="#002764" stroke-miterlimit="10" d="M199.6 281v11l-74.9 2.1-.4-10.7z"></path>
        <path d="M161.3 264.7c-4.5-1-6.7 4.1-6.3 5.3.4 1.3.9 4.6 3.6 4.7 2.8 0 5.8-1.7 5.8-4.7s-.2-4.7-3.1-5.3zM161.4 246.6c-4.5-1-6.7 4.1-6.3 5.3.4 1.3.9 4.6 3.6 4.7s5.8-1.7 5.8-4.7-.2-4.7-3.1-5.3z"></path>
    </g>
    <defs>
        <path id="forma-faccia" d="M192.9 97.7c-28.3-9.4-56.4-7.3-73.8 8.7a57.4 57.4 0 0 0-14.1 28.5v.1c-3.7 16.4-3 33.9-2.3 44.4.1.4.9.7 2.3.9 2.1 20 8.8 39.9 27.7 49.3 28.5 10.6 56.6 7.1 73.5-13 8.1-10.5 11.2-25.4 12-40.7l.4-.4c.9-18.6 9.2-62.5-25.7-77.8z"></path>
    </defs>
    <clipPath id="forma-faccia-clip">
        <use xlink:href="#forma-faccia" overflow="visible"></use>
    </clipPath>
    <g clip-path="url(#forma-faccia-clip">
        <image overflow="visible" width="150" height="230" xlink:href="/giulio.png" transform="matrix(0.7824 0 0 0.7824 99.6579 64.3706)"></image>
    </g>
    <g id="orecchio_dex">
        <path fill="#F8CEDE" d="M207.4 181.4s2.4-26.8 12.3-40 15.3-17.6 17.3-18.9c0 0 2.7 18.3-9.3 37.2s-20.3 21.7-20.3 21.7z"></path>
        <path fill="none" stroke="#DE8BB5" stroke-linecap="round" stroke-linejoin="round" stroke-miterlimit="10" stroke-width="3" d="m208.8 172.6 13.2-20.8"></path>
    </g>
    <g id="orecchio_dex_1_">
        <path fill="#F8CEDE" d="M75.6 129.6S88.2 134 97.5 151s9.3 16.6 12.6 28.1c0 0-19.1-9.4-27.2-24.8s-7.3-24.7-7.3-24.7z"></path>
        <path fill="none" stroke="#DE8BB5" stroke-linecap="round" stroke-linejoin="round" stroke-miterlimit="10" stroke-width="3" d="m106 169.8-18.4-17.2"></path>
    </g>
    <path d="M116.7 107.1s3.2-53.7 25.6-67 33.6-16 46.7-16 35.5 12.8 43.3 23.8 9.3 42.1 7.8 43.9-9.7-36.6-25.8-37-18 14.6-19 18.7-2.4 28.1-2.4 28.1l-76.2 5.5z"></path>
    <path d="M116.5 107.1s4.8-34.7 9.2-44.8c0 0 12.5 35 14.2 40.8 0 0 14.8-44.1 16.9-46.6C158.9 54.1 174 101 174 101s24.5-40 25.9-40.9-2.9 41.4-2.9 41.3c0-.2-80.5 5.7-80.5 5.7zM243.1 91.9c-8.2-1.7-12.2 6.8-11.5 9 .8 2.2 1.6 7.8 6.6 7.8 5 .1 10.5-2.8 10.5-7.8s-.4-7.9-5.6-9z"></path>
</svg>