<svg xmlns="http://www.w3.org/2000/svg" id="esaltato" viewBox="0 0 340 900" xmlns:xlink="http://www.w3.org/1999/xlink">
    <defs>
        <path id="base_occhio" fill="#fff" d="M124.9 310.1c5 0 9-4.2 9-9.3s-4-9.3-9-9.3-9 4.2-9 9.3 4 9.3 9 9.3Z"></path>
        <path id="base_occhio-2" fill="#fff" d="M188.9 310.1c5 0 9-4.2 9-9.3s-4-9.3-9-9.3-9 4.2-9 9.3 4 9.3 9 9.3Z"></path>
    </defs>
    <defs>
        <clipPath id="clippath">
            <path fill="none" d="m198.7 339.8-.3 104.3c0-.2-74.4 2.8-75.6 0s-.7-77.6 0-85.6"></path>
        </clipPath>
    </defs>
    <path id="bg" fill="#004e45" d="M0 0h340v1032.6H0z"></path>
    <path id="pino" fill="#009488" stroke="#009488" stroke-miterlimit="10" stroke-width="3" d="M154.4 54.2c5.3-2.5 11.1-3 16.9-3.3-3.3 3.8-6.5 7.7-9.5 11.8-1.1 1.5 1.3 3.2 2.4 1.7 2-2.7 4.1-5.4 6.3-8-.2 3.6-.9 7.1-2 10.5-.6 1.8 2.2 2.8 2.8 1 1.6-4.9 2.3-9.8 2.2-15v-.1a238 238 0 0 1 8.4-9.1 70.9 70.9 0 0 1-3.2 17c-.6 1.8 2.2 2.8 2.8 1a70.3 70.3 0 0 0 3.5-20.8v-.2l6.2-6c.2 7.6-1 15-3.6 22.1-.6 1.8 2.1 2.8 2.8 1a63 63 0 0 0 3.7-24.4c0-.4-.2-.8-.5-1l8.8-7.9a77 77 0 0 1-4.9 29.7c-.7 1.8 2.1 2.8 2.8 1a81.8 81.8 0 0 0 4.9-32.9l-.1-.3a80 80 0 0 0 3.2-2.8l6.5-5.6a80 80 0 0 1-4.3 29.1c-.6 1.8 2.1 2.8 2.8 1a81.2 81.2 0 0 0 4.4-32.1l-.1-.4c2.6-2.2 5.1-4.4 7.8-6.5-.7 10.5-2 20.9-3.7 31.3-.3 1.9 2.6 2.1 2.9.2 1.8-11.1 3.1-22.2 3.8-33.4l-.1-.6a97 97 0 0 1 6.4-4.8c2.3 4.8 2.5 9.2 2 14.6-.5 5.9-1.5 11.7-2.8 17.4-.4 1.8 2.3 2.9 2.8 1 2.6-11 5.8-24.2.4-34.8 6.5-4.5 13.3-8.5 20.6-11.6 1.8-.7.5-3.4-1.3-2.7-7.2 3-13.9 6.9-20.3 11.3-8.6-4.7-18.2-7-28-6.6-1.9.1-2.2 3-.2 2.9 8.9-.3 17.7 1.5 25.6 5.6l-6.6 5c-11-3.6-22.6-4.3-34.1-4.9-1.9-.1-2.2 2.9-.2 2.9C203.3-1.6 214-1 224.2 2l-9.3 7.8c-11-3-22.5-3.3-33.7-.7-1.8.4-1.3 3.3.5 2.9a66.4 66.4 0 0 1 30.4.1l-5.7 4.9-3 2.6a51 51 0 0 0-27.4.5c-1.8.5-1.3 3.5.5 2.9a47 47 0 0 1 24.1-1l-9.4 8.4c-8.3-2.5-16.8-3-25.4-1.5-1.9.3-1.3 3.2.5 2.9 7.5-1.3 15-1 22.3.9l-5.2 5h-.1a74 74 0 0 0-26.1 1.1c-1.9.4-1.3 3.3.5 2.9a70.6 70.6 0 0 1 22.9-1.3l-7.1 7.5-.6-.1c-6.9.2-13.9.6-20.2 3.6-1.3.9 0 3.6 1.7 2.8Z"></path>
    <path id="pino-2" fill="#009488" stroke="#009488" stroke-miterlimit="10" stroke-width="3" d="M246.7 56.2a43.3 43.3 0 0 1 17.2-1c-3.8 3.3-7.5 6.8-11 10.5-1.3 1.4.8 3.4 2.2 2l7.3-7.1c-.7 3.5-1.8 6.9-3.4 10.2-.8 1.7 1.8 3.1 2.6 1.4 2.2-4.6 3.6-9.4 4.2-14.5v-.1l9.5-7.9a64.7 64.7 0 0 1-5.5 16.4c-.8 1.7 1.8 3.1 2.6 1.4a71.9 71.9 0 0 0 6.3-20.2v-.2l6.9-5.1c-.9 7.5-3 14.7-6.5 21.4-.9 1.7 1.7 3.1 2.6 1.4a65 65 0 0 0 7-23.6 2 2 0 0 0-.3-1.1 338 338 0 0 1 9.8-6.7c-1 10.1-4 19.8-8.8 28.8-.9 1.7 1.7 3.1 2.6 1.4a81 81 0 0 0 9.3-31.9v-.3l3.5-2.3 7.2-4.7a78.2 78.2 0 0 1-8.2 28.3c-.9 1.7 1.8 3.1 2.6 1.4 5-9.8 7.8-20.3 8.7-31.2v-.4c2.8-1.8 5.7-3.7 8.6-5.4a316.9 316.9 0 0 1-7.8 30.5c-.6 1.8 2.3 2.5 2.9.6 3.3-10.7 6.1-21.6 8.3-32.6V15l6.9-3.9c1.7 5 1.3 9.4.1 14.7-1.3 5.7-3 11.4-5.1 16.9-.7 1.8 1.9 3.2 2.6 1.4 4-10.6 9-23.2 5.1-34.4 7-3.6 14.3-6.7 22-8.7 1.8-.5.9-3.3-.9-2.8-7.5 2-14.7 5-21.6 8.5a54.5 54.5 0 0 0-26.9-10.3c-1.9-.2-2.5 2.7-.6 2.9 8.9.9 17.3 3.9 24.6 8.9l-7.2 4c-10.5-5-21.8-7.3-33.1-9.4-1.9-.3-2.5 2.5-.6 2.9 10.5 1.9 21 4 30.7 8.3l-10.3 6.5a70.2 70.2 0 0 0-33.3-5.2c-1.9.2-1.8 3.1.1 3 10.3-1 20.5.4 30.1 4.2l-6.3 4.1-3.3 2.1a50.6 50.6 0 0 0-27.2-3.2c-1.9.3-1.7 3.3.1 3 8.1-1.3 16.3-.6 24 2.2l-10.4 7.1a55 55 0 0 0-24.9-4.9c-1.9.1-1.8 3 .1 3 7.6-.3 15 1 22 3.9L278 44h-.1a76 76 0 0 0-26-2.4c-1.9.2-1.8 3.1.1 3 7.7-.6 15.4 0 22.9 1.8a461 461 0 0 0-8.1 6.5l-.6-.2a48.8 48.8 0 0 0-20.5.9c-1.7.3-.8 3.1 1 2.6Z"></path>
    <path id="bg-2" fill="#fff" d="M427.8 605.7c0-73.7-120.6-133.4-269.5-133.4S-111.1 532-111.1 605.7c0 43.5 42.2 82.2 107.4 106.6v334.3h342.3V704.8c54.7-24.4 89.2-59.8 89.2-99.1Z" opacity=".9"></path>
    <ellipse cx="162" cy="512.7" fill="#c1d1d6" stroke="#c1d1d6" stroke-linecap="round" stroke-linejoin="round" stroke-width="3" opacity=".5" rx="65.3" ry="3.4"></ellipse>
    <g id="folletto-full">
        <path id="gamba_dex" fill="none" stroke="#009488" stroke-miterlimit="10" stroke-width="10" d="M127.7 442v49.9"></path>
        <path id="gamba_six" fill="none" stroke="#009488" stroke-miterlimit="10" stroke-width="10" d="M192.9 443.1V493"></path>
        <path id="SVGID" fill="#f50045" d="m198.4 339.8-.3 104.3c0-.2-74.4 2.8-75.6 0s-.7-77.6 0-85.6"></path>
        <path id="scarpa2" fill="#004e45" stroke="#004e45" stroke-miterlimit="10" d="m131.5 491.9-8-.5s-1.2 10.5-6.2 11.1-7.5-1.4-8.9-5.6c-1.4-4-1.1-7.4-3.5-7.4-3.1 0-3.2 5.4-1.9 9.9 1.2 4.3 5.6 9.9 12.4 9.9s10.5-6.8 10.5-6.8l.5 6.8h5.1v-17.4Z"></path>
        <path id="scarpa1" fill="#004e45" stroke="#004e45" stroke-miterlimit="10" d="m189.1 493.2 8-.5s1.5 9.3 6.2 11.1c4 1.5 7.2-1.4 8.2-5.6 1.4-5.3 1.1-8 3.5-8 3.1 0 3.8 6 2.5 10.5-1.2 4.3-5.6 9.9-12.4 9.9s-10.5-6.8-10.5-6.8l-.5 6.8H189v-17.4h.1Z"></path>
        <g id="braccio-six">
            <path d="M195.32,355.74s49.38,20.39,45.44,103.52" fill="none" stroke="#f50045" stroke-miterlimit="10" stroke-width="10"></path>
            <path d="M236.02,458.36h9.81s3.61,11.26,1.24,11.26-3.5-5.63-3.5-5.63c0,0,.79,9.01-1.58,8.79-2.37-.22-2.37-8.33-2.37-8.33,0,0-.56,5.18-3.5,4.84-2.93-.22-.11-10.93-.11-10.93Z" fill="#ebbecf"></path>
        </g>
        <g id="braccio-dex">
            <path d="M91.77,453.34h-9.81s-3.61,11.26-1.24,11.26,3.5-5.63,3.5-5.63c0,0-.79,9.01,1.58,8.79,2.37-.22,2.37-8.34,2.37-8.34,0,0,.56,5.18,3.5,4.84,2.93-.11,.11-10.93,.11-10.93Z" fill="#ebbecf"></path>
            <path d="M86.81,454.02s-4.28-74.8,38.33-90.79" fill="none" stroke="#f50045" stroke-miterlimit="10" stroke-width="10"></path>
        </g>
        <g id="braccio-six-2">
            <path id="braccio_s_3" d="M195.7,350.7s8.2,56.1,26.6,52.6,1.4-42,1.2-66.8" fill="none" stroke="#f50045" stroke-miterlimit="10" stroke-width="10"></path>
            <path id="mano_six" d="M228.2,338.5l-9.7-1.4s-1.9-11.7,.4-11.4c2.3,.3,2.6,6.1,2.6,6.1,0,0,.6-9.1,2.9-8.5s1.2,8.6,1.2,8.6c0,0,1.4-5,4.2-4.3,2.9,.7-1.6,10.9-1.6,10.9h0Z" fill="#ffaec6"></path>
        </g>
        <g id="braccio-dex-2">
            <path id="braccio_d_3" d="M121.4,358.9s-27.3,28.8-22.3,46.9c6.2,22.1,119.3-43.8,119.4-68.7" fill="none" stroke="#f50045" stroke-miterlimit="10" stroke-width="10"></path>
            <path id="mano_dex" d="M214.6,338.3l9.7-1.1s2.2-11.7-.1-11.4-2.8,6-2.8,6c0,0-.3-9.1-2.6-8.6-2.4,.5-1.4,8.6-1.4,8.6,0,0-1.2-5.1-4-4.5s1.2,11,1.2,11h0Z" fill="#ffaec6"></path>
        </g>
        <g id="cappello">
            <path fill="#f50045" d="M104.3 272.5s3.6-75.2 34.1-93.6c30.5-18.6 45.7-22.4 63.6-22.4s48.3 17.9 59 33.2c10.5 15.3 12.5 58.8 10.5 61.4s-13.2-51.2-35.1-51.8-24.5 20.4-25.8 26.2-3.3 39.2-3.3 39.2l-103 7.8Z"></path>
            <path fill="#fff" d="M104.3 272.5s-.5-19.6 11.5-62.7c0 0 17 48.9 19.3 57.1 0 0 20.2-61.6 23.1-65.1 2.9-3.4 23.4 62.1 23.4 62.1s33.2-55.9 35.2-57.2c2-1.2-3.4 57.7-3.3 57.7l-109.2 8.1Z"></path>
            <path id="pom-pom" fill="#fff" d="M275.5 251.2c-11.2-2.4-16.7 9.5-15.7 12.6 1.1 3 2.2 10.8 9 11 6.9.1 14.2-3.9 14.2-11s-.4-11.1-7.5-12.6Z"></path>
        </g>
        <g id="orecchio_dex">
            <path fill="#ffaec6" d="M62.9 288.7s13.2-.4 27.8 12.1c14.7 12.8 14.5 12.4 21.7 22 0 0-21-1.9-33.8-13.4-13-11.5-15.7-20.7-15.7-20.7Z"></path>
            <path fill="none" stroke="#de8bb5" stroke-linecap="round" stroke-linejoin="round" stroke-width="3" d="m105.2 315.5-23-9.5"></path>
        </g>
        <g id="orecchio_six">
            <path fill="#ffaec6" d="M204.3 320.7s14.3-23 29.1-30.1a81 81 0 0 1 23.7-8.8s-6 17.7-25.2 29c-19 11.3-27.6 9.8-27.6 9.9Z"></path>
            <path fill="none" stroke="#de8bb5" stroke-linecap="round" stroke-linejoin="round" stroke-width="3" d="m209.6 313.4 21-12.4"></path>
        </g>
        <path id="faccia_forma" fill="#ffaec6" d="M104 272.5c-.4 22.3-7.2 74.9 26.2 92 26.9 10.3 53.5 6.9 69.5-12.7 17.2-22.6 15.4-66.8 13.8-87.5-.7-3.3-39.2.3-54.7 1.1-15.5.7-52.9 3.3-54.8 7.1Z"></path>
        <g id="faccia">
            <path id="naso" fill="none" stroke="#11142a" stroke-linecap="round" stroke-linejoin="round" stroke-width="3" d="M152.7 309.2s.5 5.7 3 5.7 3-5.7 3-6.7"></path>
            <use xlink:href="#base_occhio"></use>
            <use xlink:href="#base_occhio-2"></use>
            <path id="pupilla" fill="#11142a" d="M125.5 302.8c1.4 0 2.5-1.1 2.5-2.5s-1.1-2.5-2.5-2.5-2.5 1.1-2.5 2.5 1.1 2.5 2.5 2.5Z"></path>
            <path id="pupilla-2" fill="#11142a" d="M189.3 302.8c1.4 0 2.5-1.1 2.5-2.5s-1.1-2.5-2.5-2.5-2.5 1.1-2.5 2.5c.1 1.4 1.2 2.5 2.5 2.5Z"></path>
            <g id="occhio_3">
                <use xlink:href="#base_occhio"></use>
                <path fill="#11142a" d="M124.8 307.9c3.9 0 7-3.1 7-7s-3.1-7-7-7-7 3.1-7 7 3.1 7 7 7Z"></path>
                <path class="glitter" fill="#fff" d="M122.1 301.8c1.2 0 2.2-1 2.2-2.2s-1-2.2-2.2-2.2-2.2 1-2.2 2.2 1 2.2 2.2 2.2ZM126.4 304.3c.8 0 1.5-.7 1.5-1.5s-.7-1.5-1.5-1.5-1.5.7-1.5 1.5.7 1.5 1.5 1.5Z"></path>
            </g>
            <g id="occhio_4">
                <use xlink:href="#base_occhio-2"></use>
                <path fill="#11142a" d="M188.9 308c3.9 0 7-3.1 7-7s-3.1-7-7-7-7 3.1-7 7c-.1 3.9 3.1 7 7 7Z"></path>
                <path class="glitter" fill="#fff" d="M190.8 301.1c1.2 0 2.2-1 2.2-2.2s-1-2.2-2.2-2.2-2.2 1-2.2 2.2 1 2.2 2.2 2.2ZM186.3 304c.8 0 1.5-.7 1.5-1.5s-.7-1.5-1.5-1.5-1.5.7-1.5 1.5.7 1.5 1.5 1.5Z"></path>
            </g>
            <path id="guanciotte" fill="#ffaec6" d="M125.1 325.5c5 0 9-4.2 9-9.3s-4-9.3-9-9.3-9 4.2-9 9.3a9 9 0 0 0 9 9.3ZM189.5 325.5c5 0 9-4.2 9-9.3s-4-9.3-9-9.3-9 4.2-9 9.3a9 9 0 0 0 9 9.3Z"></path>
            <path id="guancia_2" fill="#f05" stroke="#f05" stroke-linecap="round" stroke-linejoin="round" stroke-width="2" d="M197.2 315c-6.1-1.4-9.2 5.8-8.5 7.6.6 1.8 1.2 6.5 4.9 6.6 3.9 0 7.9-2.4 7.9-6.6s-.3-6.6-4.3-7.6h0Z"></path>
            <path id="guancia_1" fill="#f05" stroke="#f05" stroke-linecap="round" stroke-linejoin="round" stroke-width="2" d="M121.9 318.2c2.3.3 5.8 1 4.7 7.9-1.2 6.9-4.1 5.1-6.4 5.1s-4.1-3.8-4.4-6.4c-.4-2.6 3.1-7 6.1-6.6Z"></path>
            <path id="bocca-wide" d="M135.9,324.3s6.8,9.9,19.5,9.7c19-.3,26.3-17.2,26.3-17.2" fill="none" stroke="#11142c" stroke-linecap="round" stroke-linejoin="round" stroke-width="3"></path>
            <path id="bocca" d="M145.97,326.04s5.52,7.66,11.73,7.21c6.2-.45,11.73-9.69,11.73-9.69" fill="none" stroke="#11142a" stroke-linecap="round" stroke-linejoin="round" stroke-width="3"></path>
            <path id="bocca_small" d="M154.6,336.18c1.19,0,2.19,0,2.19,0" fill="none" stroke="#11142a" stroke-linecap="round" stroke-linejoin="round" stroke-width="3"></path>
            <path id="sopracciglio_2" fill="none" stroke="#11142a" stroke-linecap="round" stroke-linejoin="round" stroke-width="3" d="M186.3 283.2s4.1-4.1 6.9 1.2"></path>
            <path id="sopracciglio_1" fill="none" stroke="#11142a" stroke-linecap="round" stroke-linejoin="round" stroke-width="3" d="M128.2 285.8s-4.1-4-6.9 1.2"></path>
        </g>
    </g>
    <g id="neve" fill="#fff" opacity=".3">
        <path d="M270.6 147.1c-3-.6-4.4 2.5-4.2 3.3.3.8.6 2.9 2.4 2.9s3.8-1 3.8-2.9-.1-2.9-2-3.3ZM320.3 167.8c-3-.6-4.4 2.5-4.2 3.3.3.8.6 2.9 2.4 2.9s3.8-1 3.8-2.9c0-1.8-.2-2.9-2-3.3ZM38.2 188.6c-3-.6-4.4 2.5-4.2 3.3.3.8.6 2.9 2.4 2.9s3.8-1 3.8-2.9-.1-2.9-2-3.3ZM96.6 142.5c-3-.6-4.4 2.5-4.2 3.3.3.8.6 2.9 2.4 2.9s3.8-1 3.8-2.9-.1-2.9-2-3.3ZM323.4 298.3c-3-.6-4.4 2.5-4.2 3.3.3.8.6 2.9 2.4 2.9s3.8-1 3.8-2.9-.1-2.9-2-3.3ZM284.6 381.8c-3-.6-4.4 2.5-4.2 3.3.3.8.6 2.9 2.4 2.9s3.8-1 3.8-2.9-.1-2.9-2-3.3ZM298.2 331.5c-3-.6-4.4 2.5-4.2 3.3.3.8.6 2.9 2.4 2.9s3.8-1 3.8-2.9-.1-2.9-2-3.3ZM73 240.5c-3-.6-4.4 2.5-4.2 3.3.3.8.6 2.9 2.4 2.9s3.8-1 3.8-2.9-.1-2.9-2-3.3ZM28 436.4c-3-.6-4.4 2.5-4.2 3.3.3.8.6 2.9 2.4 2.9s3.8-1 3.8-2.9-.1-3-2-3.3ZM227.7 118.8c-2.4-.5-3.6 2.1-3.4 2.7.2.7.5 2.4 2 2.4s3.1-.8 3.1-2.4-.1-2.4-1.7-2.7ZM277.6 99.2c-2.4-.5-3.6 2.1-3.4 2.7.2.7.5 2.4 2 2.4s3.1-.8 3.1-2.4-.2-2.3-1.7-2.7ZM25.3 132.9c-2.4-.5-3.6 2.1-3.4 2.7.2.7.5 2.4 2 2.4s3.1-.8 3.1-2.4-.2-2.4-1.7-2.7ZM176.9 127.7c-2.4-.5-3.6 2.1-3.4 2.7.2.7.5 2.4 2 2.4s3.1-.8 3.1-2.4-.2-2.4-1.7-2.7ZM225.2 237.4c-2.4-.5-3.6 2.1-3.4 2.7.2.7.5 2.4 2 2.4s3.1-.8 3.1-2.4-.2-2.4-1.7-2.7ZM256.5 348.9c-2.4-.5-3.6 2.1-3.4 2.7.2.7.5 2.4 2 2.4s3.1-.8 3.1-2.4-.2-2.4-1.7-2.7ZM303.6 228.3c-2.4-.5-3.6 2.1-3.4 2.7.2.7.5 2.4 2 2.4s3.1-.8 3.1-2.4-.1-2.4-1.7-2.7ZM65.9 195.3c-2.4-.5-3.6 2.1-3.4 2.7.2.7.5 2.4 2 2.4s3.1-.8 3.1-2.4-.1-2.4-1.7-2.7ZM22.7 254.2c-2.4-.5-3.6 2.1-3.4 2.7.2.7.5 2.4 2 2.4s3.1-.8 3.1-2.4-.1-2.4-1.7-2.7ZM291.6 280.4c-3-.6-4.4 2.5-4.2 3.3.3.8.6 2.9 2.4 2.9s3.8-1 3.8-2.9-.1-2.9-2-3.3ZM76.1 420.6c-3-.6-4.4 2.5-4.2 3.3.3.8.6 2.9 2.4 2.9s3.8-1 3.8-2.9-.1-3-2-3.3ZM38.6 308.8c-3-.6-4.4 2.5-4.2 3.3.3.8.6 2.9 2.4 2.9s3.8-1 3.8-2.9-.1-2.9-2-3.3ZM130.4 98.7c-3-.6-4.4 2.5-4.2 3.3.3.8.6 2.9 2.4 2.9s3.8-1 3.8-2.9-.1-2.9-2-3.3ZM260.2 433.2c-3-.6-4.4 2.5-4.2 3.3.3.8.6 2.9 2.4 2.9s3.8-1 3.8-2.9-.1-2.9-2-3.3ZM320.3 417c-3-.6-4.4 2.5-4.2 3.3.3.8.6 2.9 2.4 2.9s3.8-1 3.8-2.9-.2-3-2-3.3ZM298.6 451.7c-3-.6-4.4 2.5-4.2 3.3.3.8.6 2.9 2.4 2.9s3.8-1 3.8-2.9-.1-2.9-2-3.3ZM71.2 363.3c-3-.6-4.4 2.5-4.2 3.3.3.8.6 2.9 2.4 2.9s3.8-1 3.8-2.9-.1-2.9-2-3.3ZM38.6 357.7c-3-.6-4.4 2.5-4.2 3.3.3.8.6 2.9 2.4 2.9s3.8-1 3.8-2.9-.1-2.9-2-3.3Z"></path>
    </g>
    <g id="luci_2">
        <path class="luce-bianca" d="M99.4 3.6C99.4 0 97.5-3 95.3-3s-4.2 3-4.2 6.6 1.8 6.5 4.1 6.5 4.2-2.9 4.2-6.5Z"></path>
        <path class="luce-gialla" d="M134.3 17.7c0-3.6-2-6.5-4.4-6.5s-4.4 2.9-4.4 6.5 2 6.5 4.4 6.5 4.4-2.9 4.4-6.5Z"></path>
        <path class="luce-bianca" d="M166.3 29.1c0-3.6-2-6.5-4.4-6.5s-4.4 2.9-4.4 6.5 2 6.5 4.4 6.5 4.4-2.9 4.4-6.5Z"></path>
        <path class="luce-gialla" d="M275.3 54.7c0-3.6-1.8-6.5-4.1-6.5s-4.1 2.9-4.1 6.5 1.8 6.5 4.1 6.5c2.3.1 4.1-2.8 4.1-6.5Z"></path>
        <path class="luce-bianca" d="M311.3 59.3c0-3.6-1.8-6.5-4-6.5s-4 2.9-4 6.5 1.8 6.5 4 6.5 4-2.8 4-6.5Z"></path>
        <path class="luce-gialla" d="M343.3 63.8c0-3.6-1.7-6.5-3.8-6.5s-3.8 2.9-3.8 6.5 1.7 6.5 3.8 6.5 3.8-2.9 3.8-6.5ZM202.5 38.4c0-3.6-1.9-6.5-4.2-6.5s-4.2 2.9-4.2 6.5 1.9 6.5 4.2 6.5 4.2-2.9 4.2-6.5Z"></path>
        <path fill="none" stroke="#003580" stroke-miterlimit="10" stroke-width="2" d="M91.1-4.9S232.6 64 456 60.8"></path>
        <path class="luce-bianca" d="M240.1 48c0-3.6-1.9-6.5-4.2-6.5s-4.2 2.9-4.2 6.5 1.9 6.5 4.2 6.5 4.2-2.9 4.2-6.5Z"></path>
    </g>
    <path id="pino-3" fill="#009488" stroke="#009488" stroke-miterlimit="10" stroke-width="3" d="M122.7 2.6a43 43 0 0 1-15.6-7.3c4.9-1.1 9.8-2.4 14.7-3.9 1.8-.6.9-3.4-1-2.8L111-8.6c2.3-2.8 4.9-5.2 7.8-7.4 1.5-1.1-.1-3.6-1.6-2.5-4.1 3-7.7 6.6-10.6 10.8l-.1.1c-4 .9-8.1 1.7-12.1 2.4 3.7-4.5 7.9-8.4 12.6-11.8 1.5-1.1-.1-3.6-1.6-2.5A70.6 70.6 0 0 0 90.3-4.7l-.1.2-8.5 1.2A59.4 59.4 0 0 1 97.6-19c1.6-1.1-.1-3.5-1.6-2.5A60.8 60.8 0 0 0 78.5-4c-.2.4-.3.8-.2 1.1-3.9.5-7.9.9-11.8 1.2 5.7-8.4 13-15.6 21.4-21.2 1.6-1.1-.1-3.5-1.6-2.5A81.3 81.3 0 0 0 62.9-1.7l-.2.3-4.2.4-8.6.7a80.7 80.7 0 0 1 20.6-21c1.6-1.1-.1-3.5-1.6-2.5A83.2 83.2 0 0 0 46.4-.5l-.2.4c-3.2.4-6.6.6-10 .8 6.8-8 13.9-15.8 21.4-23.1 1.4-1.3-.9-3.3-2.2-1.9-8 7.9-15.6 16.1-22.8 24.7l-.3.5-8 .1c.9-5.2 3.4-8.9 6.9-13a133 133 0 0 1 12.5-12.4c1.4-1.2-.2-3.7-1.6-2.5C33.6-19.4 23.2-10.7 21.4 1 13.5.8 5.6.1-2.1-1.8-4-2.2-4.5.7-2.6 1.1 5 2.9 12.7 3.7 20.5 3.9a54.8 54.8 0 0 0 18.7 21.8c1.6 1.1 3.5-1.2 1.9-2.2A51.3 51.3 0 0 1 23.7 3.9l8.2-.1c6.8 9.4 15.7 16.8 24.7 24 1.5 1.2 3.4-1 1.9-2.2-8.2-6.7-16.5-13.4-23-21.9l12.1-.8a69.8 69.8 0 0 0 26.8 20.4c1.7.7 3-1.9 1.3-2.7a66.2 66.2 0 0 1-24.5-18l7.5-.6 3.9-.3c6 7.2 13.6 12.6 22.4 15.7 1.8.6 3.1-2 1.3-2.7A48.2 48.2 0 0 1 66.2 1.3L78.8 0a54.6 54.6 0 0 0 19.6 16.1c1.7.8 3-1.8 1.3-2.7-6.8-3.3-12.7-8-17.5-13.9l7.1-1 .1.1a77 77 0 0 0 21.7 14.5c1.7.8 3-1.9 1.3-2.7A72 72 0 0 1 93-2a365 365 0 0 0 10.2-1.9l.4.4a49 49 0 0 0 18.5 9c1.9.4 2.4-2.5.6-2.9Z"></path>
    <g id="luci_1">
        <path class="luce-bianca" d="M297.2 3.6c0-3.6 1.8-6.5 4.1-6.5s4.1 2.9 4.1 6.5-1.8 6.5-4.1 6.5-4.1-2.9-4.1-6.5Z"></path>
        <path class="luce-gialla" d="M266.4 17c0-3.6 1.6-6.5 3.5-6.5s3.5 2.9 3.5 6.5-1.6 6.5-3.5 6.5c-2 0-3.5-2.9-3.5-6.5Z"></path>
        <path class="luce-bianca" d="M231.6 28.2c0-3.6 1.7-6.5 3.9-6.5s3.9 2.9 3.9 6.5-1.7 6.5-3.9 6.5-3.9-2.9-3.9-6.5Z"></path>
        <path class="luce-gialla" d="M123.8 52.7c0-3.6 2-6.5 4.4-6.5s4.4 2.9 4.4 6.5-2 6.5-4.4 6.5-4.4-2.9-4.4-6.5Z"></path>
        <path class="luce-bianca" d="M87.3 59.2c0-3.6 2-6.5 4.5-6.5s4.5 2.9 4.5 6.5-2 6.5-4.5 6.5-4.5-2.9-4.5-6.5Z"></path>
        <path class="luce-gialla" d="M56.6 62.3c0-3.6 1.9-6.5 4.2-6.5s4.2 2.9 4.2 6.5-1.9 6.5-4.2 6.5-4.2-2.9-4.2-6.5Z"></path>
        <path class="luce-bianca" d="M17.2 66.3c0-3.6 1.8-6.5 4-6.5s4 2.9 4 6.5-1.8 6.5-4 6.5-4-2.9-4-6.5Z"></path>
        <path class="luce-gialla" d="M194.6 38.4c0-3.6 1.9-6.5 4.3-6.5s4.3 2.9 4.3 6.5-1.9 6.5-4.3 6.5-4.3-2.9-4.3-6.5Z"></path>
        <path fill="none" stroke="#003580" stroke-miterlimit="10" stroke-width="2" d="M306.2-5S164.7 63.9-58.7 60.7"></path>
        <path class="luce-bianca" d="M161.1 46.9c0-3.6 2.1-6.5 4.6-6.5s4.6 2.9 4.6 6.5-2.1 6.5-4.6 6.5-4.6-2.9-4.6-6.5Z"></path>
    </g>
    <path id="pino-4" fill="#009488" stroke="#009488" stroke-miterlimit="10" stroke-width="3" d="M40.9 102.6c-1.3-5.7-.6-11.5.4-17.2 3 4.1 6.2 8 9.5 11.9 1.3 1.4 3.4-.6 2.2-2l-6.5-7.9c3.4 1 6.7 2.4 9.9 4.2 1.6 1 3.2-1.5 1.6-2.5a44.8 44.8 0 0 0-14.1-5.4h-.1c-2.5-3.3-4.8-6.7-7.1-10.1a65.7 65.7 0 0 1 15.9 6.8c1.6 1 3.2-1.5 1.6-2.5A72.6 72.6 0 0 0 34.6 70h-.2l-4.5-7.3A60.5 60.5 0 0 1 50.7 71c1.6 1 3.2-1.5 1.6-2.5a66 66 0 0 0-23-8.9c-.4-.1-.8 0-1.1.2l-5.9-10.3c10 1.8 19.5 5.6 28 11.1 1.6 1 3.2-1.5 1.6-2.5a82.6 82.6 0 0 0-31-11.9h-.3l-2-3.7-4.1-7.6A78 78 0 0 1 42 45.4c1.6 1 3.2-1.5 1.6-2.5A84 84 0 0 0 13 31.6h-.4l-4.7-9c10.1 3 20 6.4 29.8 10.3 1.8.7 2.6-2.1.9-2.8-10.4-4.2-21-7.8-31.8-10.9l-.6-.1-3.4-7.2c5.1-1.2 9.5-.5 14.7 1.1 5.6 1.8 11.1 4 16.4 6.5 1.7.8 3.3-1.7 1.6-2.5C25.2 12.2 13.1 6.2 1.6 9.2c-3-7.3-5.5-14.8-6.9-22.6-.3-1.9-3.2-1.2-2.9.7 1.4 7.6 3.8 15 6.7 22.2a55 55 0 0 0-12.5 26c-.3 1.9 2.5 2.7 2.8.9A52.4 52.4 0 0 1-.3 12.6l3.4 7.5c-5.9 10-9 21.1-12 32.3-.4 1.7 2.4 2.6 2.9.7A135 135 0 0 1 4.8 23.2l5.6 10.7a69 69 0 0 0-7.9 32.7c0 1.9 3 2 3 .1A66.4 66.4 0 0 1 12.1 37a407.4 407.4 0 0 1 5.5 10.2A51 51 0 0 0 12.2 74c.1 1.9 3.1 2 3 .1-.6-8.2.8-16.3 4.2-23.8l6.2 11a55 55 0 0 0-6.9 24.4c-.1 1.9 2.9 2 3 .1.3-7.6 2.2-14.9 5.7-21.6l3.7 6.1v.1c-3 8.3-4.5 16.9-4.5 25.7 0 1.9 3 2 3 .1 0-7.8 1.2-15.3 3.6-22.7l5.8 8.6-.2.5a49 49 0 0 0-.8 20.5c.4 2 3.3 1.3 2.9-.5Z"></path>
    <path id="pino-5" fill="#009488" stroke="#009488" stroke-miterlimit="10" stroke-width="3" d="M322.8 144.2a43 43 0 0 1 8.9-14.8c.6 5 1.4 10 2.4 15 .4 1.9 3.3 1.2 2.9-.7-.7-3.3-1.3-6.7-1.8-10 2.5 2.6 4.7 5.4 6.5 8.5 1 1.6 3.6.3 2.6-1.4a47.3 47.3 0 0 0-9.7-11.7l-.1-.1c-.5-4.1-.9-8.2-1.1-12.3 4.1 4.1 7.6 8.7 10.5 13.7 1 1.6 3.6.3 2.6-1.4-3.6-6.2-8-11.7-13.2-16.5l-.2-.1-.3-8.6a62 62 0 0 1 14 17.4c.9 1.7 3.5.3 2.6-1.4a62.3 62.3 0 0 0-15.6-19c-.3-.3-.7-.4-1.1-.4V88.5a76.9 76.9 0 0 1 18.9 23.5c.9 1.7 3.5.3 2.6-1.4A79.5 79.5 0 0 0 333 85l-.3-.2.1-4.2.2-8.6c7.6 6.3 14 14 18.7 22.7.9 1.7 3.5.3 2.6-1.4A81.4 81.4 0 0 0 333 68.4l.3-10.1A312 312 0 0 1 354.1 82c1.2 1.5 3.3-.5 2.2-2A332 332 0 0 0 334 54.8c-.2-.2-.3-.3-.5-.3l.6-8c5.1 1.5 8.5 4.2 12.2 8.2 4 4.3 7.7 8.9 11.1 13.7 1.1 1.5 3.7.2 2.6-1.4-6.5-9.3-14.1-20.5-25.6-23.6 1-7.8 2.5-15.6 5.2-23.1.6-1.8-2.2-2.6-2.8-.8-2.6 7.4-4.2 15-5.2 22.7A54.9 54.9 0 0 0 308 58.6c-1.2 1.4.8 3.6 2 2.2a52.1 52.1 0 0 1 21.2-15.3l-.7 8.2c-10 5.8-18.3 13.9-26.4 22.1-1.3 1.3.7 3.5 2 2.2 7.5-7.6 15.1-15.1 24.2-20.7l-.4 12.1a68.7 68.7 0 0 0-23 24.6c-.9 1.7 1.6 3.2 2.5 1.5 5-9 11.9-16.7 20.4-22.5l-.1 7.6-.1 3.9a50.5 50.5 0 0 0-17.9 20.7c-.8 1.7 1.7 3.3 2.5 1.5a47.2 47.2 0 0 1 15.4-18.6v12.6a53.1 53.1 0 0 0-18 17.9c-1 1.6 1.5 3.2 2.5 1.5 4-6.4 9.3-11.8 15.6-16l.2 7.1h-.1a74.6 74.6 0 0 0-16.6 20.1c-.9 1.7 1.6 3.2 2.5 1.5a71.4 71.4 0 0 1 14.3-18l.8 10.3-.5.4a49.4 49.4 0 0 0-10.8 17.4c-.1 2.3 2.7 3.1 3.3 1.3Z"></path>
    <g id="coriandoli">
        <path id="luce4" class="stella" fill="#fff6c9" d="M298.4 162.6s-3.7 13.2-12.7 14.1c0 0 11.6 5 10 16.7 0 0 3.7-15.2 12-14.6-.1 0-8.4-2.9-9.3-16.2Z"></path>
        <path id="luce3" class="stella" fill="#f4de3a" d="M62.2 178.8c14.9 1.7 14 17.1 14 17.1-1.1-14.1 11.4-19.5 11.4-19.5-10.4-1.1-14.7-16.3-14.7-16.3-1.1 15.4-10.6 18.8-10.7 18.7Z"></path>
        <path id="luce2" class="stella" fill="#6bf5c4" d="M56.1 253s-3.2 11.5-11 12.2c0 0 10.1 4.4 8.6 14.5 0 0 3.2-13.2 10.4-12.7 0 0-7.2-2.5-8-14Z"></path>
        <path id="luce1" class="stella" fill="#f4de3a" d="M247.1 122.3c14.9 1.7 14 17.1 14 17.1-1.1-14.1 11.4-19.5 11.4-19.5-10.4-1.1-14.7-16.3-14.7-16.3-1.1 15.4-10.6 18.8-10.7 18.7Z"></path>
        <path id="linea_6" class="linea" fill="none" stroke="#fff6c9" stroke-linecap="round" stroke-linejoin="round" stroke-width="4" d="M226.4,305c18.3,10.4,40.5,11.2,59.5,2.1,8-4.3,15.2-11.4,15.7-20.9,.3-4.3-1-8.4-4-11.4-2.7-2.8-6.4-4.3-10.2-3.9l-.6,.1-.6,.2-.7,.2-.3,.1-1,.6-.6,.4-.1,.1c-1.5,1.3-2.3,2.3-3.1,4.1-.3,.5,0-.2-.2,.3l-.2,.7-.3,1.1-.2,.7v1.5l.1,1c0-.4,.1,.1,.1,.2l.3,1.2,.2,.4,.2,.3,.3,.6,.2,.3"></path>
        <path id="linea_5" class="linea" fill="none" stroke="#6bf5c4" stroke-linecap="round" stroke-linejoin="round" stroke-width="4" d="M222.6 310.7h0a201 201 0 0 1 53 12.7 59.5 59.5 0 0 1 19.2 11.5 27.3 27.3 0 0 1 8.9 17c.4 3.7.2 6.9-1 10.3-1 2.9-3 5.9-5.3 7.7"></path>
        <path id="linea_4" class="linea" fill="none" stroke="#009488" stroke-linecap="round" stroke-linejoin="round" stroke-width="4" d="M256.1 305.8h0a29.2 29.2 0 0 0 36.7-17"></path>
        <path id="linea_3" class="linea" fill="none" stroke="#fff6c9" stroke-linecap="round" stroke-linejoin="round" stroke-width="4" d="M91.1,305.1c-9.5,5.6-20.4,8.5-31.4,8.5-9.7,.1-19.5-1.9-28.1-6.4-8-4.3-15.2-11.4-15.7-20.9-.2-4.3,1-8.4,4-11.4,2.7-2.7,6.4-4.3,10.2-3.9l.6,.1,.6,.2,.7,.2,.3,.1c.3,.2,.7,.3,1,.6,.2,.2,.5,.2,.6,.4l.1,.1c1.5,1.3,2.3,2.3,3.1,4.1,.2,.5,0-.2,.2,.3l.2,.7c.2,.3,.2,.7,.3,1.1l.2,.7v1.5l-.1,1c0-.5-.1,.1-.1,.2l-.3,1.2-.2,.4-.2,.3-.3,.6-.2,.3"></path>
        <path id="linea_2" class="linea" fill="none" stroke="#6bf5c4" stroke-linecap="round" stroke-linejoin="round" stroke-width="4" d="M95.3,311.2h0c-18.2,1.8-36,6.1-53,12.7-7.1,2.5-13.6,6.5-19.2,11.5-4.9,4.4-8.1,10.4-8.9,17-.5,3.5-.2,7,1,10.3,1,3,2.9,5.7,5.3,7.7"></path>
        <path id="linea_1" class="linea" fill="none" stroke="#009488" stroke-linecap="round" stroke-linejoin="round" stroke-width="4" d="M61.7,306.1h0c-14.8,5.1-31-2.4-36.7-17"></path>
    </g>
</svg>