<?xml version="1.0" encoding="utf-8"?>
<!-- Generator: Adobe Illustrator 27.0.1, SVG Export Plug-In . SVG Version: 6.00 Build 0)  -->
<svg version="1.1" id="Livello_1" xmlns="http://www.w3.org/2000/svg" xmlns:xlink="http://www.w3.org/1999/xlink" x="0px" y="0px"
	 viewBox="0 0 339.5 915.5" enable-background="new 0 0 339.5 915.5" xml:space="preserve">
<path fill="#5347FF" d="M-0.7-0.9h340v1032.6h-340L-0.7-0.9L-0.7-0.9z"/>
<path id="br" fill="#FFFFFF" d="M427.8,594.8c0-73.7-120.6-133.4-269.5-133.4s-269.5,59.7-269.5,133.4c0,43.5,42.2,82.2,107.4,106.6
	v334.3h342.3V693.9C393.3,669.5,427.8,634.1,427.8,594.8L427.8,594.8z"/>
<ellipse id="ombra" opacity="0.5" fill="#C1D1D6" stroke="#C1D1D6" stroke-width="3" stroke-linecap="round" stroke-linejoin="round" stroke-miterlimit="10" enable-background="new    " cx="159.8" cy="511.3" rx="65.3" ry="3.4"/>
<g id="Neve_3_" opacity="0.3">
	<path fill="#FFFFFF" d="M270.3,142.9c-3-0.6-4.4,2.5-4.2,3.3c0.3,0.8,0.6,2.9,2.4,2.9s3.8-1,3.8-2.9
		C272.4,144.3,272.2,143.2,270.3,142.9L270.3,142.9z M320,163.6c-3-0.6-4.4,2.5-4.2,3.3c0.3,0.8,0.6,2.9,2.4,2.9s3.8-1,3.8-2.9
		S321.9,164,320,163.6L320,163.6z M38,184.4c-3-0.6-4.4,2.5-4.2,3.3c0.3,0.8,0.6,2.9,2.4,2.9c1.8,0,3.8-1,3.8-2.9
		S39.9,184.7,38,184.4z M96.4,138.2c-3-0.6-4.4,2.5-4.2,3.3c0.3,0.8,0.6,2.9,2.4,2.9s3.8-1,3.8-2.9S98.3,138.6,96.4,138.2z
		 M323.1,294.1c-3-0.6-4.4,2.5-4.2,3.3c0.3,0.8,0.6,2.9,2.4,2.9s3.8-1,3.8-2.9S325,294.5,323.1,294.1L323.1,294.1z M284.4,377.5
		c-3-0.6-4.4,2.5-4.2,3.3c0.3,0.8,0.6,2.9,2.4,2.9s3.8-1,3.8-2.9S286.2,377.9,284.4,377.5L284.4,377.5z M297.9,327.2
		c-3-0.6-4.4,2.5-4.2,3.3c0.3,0.8,0.6,2.9,2.4,2.9s3.8-1,3.8-2.9S299.8,327.6,297.9,327.2L297.9,327.2z M72.7,236.3
		c-3-0.6-4.4,2.5-4.2,3.3c0.3,0.8,0.6,2.9,2.4,2.9s3.8-1,3.8-2.9S74.6,236.7,72.7,236.3z M27.8,432.1c-3-0.6-4.4,2.5-4.2,3.3
		c0.3,0.8,0.6,2.9,2.4,2.9s3.8-1,3.8-2.9S29.7,432.5,27.8,432.1z M227.5,114.5c-2.4-0.5-3.6,2.1-3.4,2.7c0.2,0.7,0.5,2.4,2,2.4
		s3.1-0.8,3.1-2.4C229.1,115.7,229,114.9,227.5,114.5L227.5,114.5z M277.3,95c-2.4-0.5-3.6,2.1-3.4,2.7c0.2,0.7,0.5,2.4,2,2.4
		s3.1-0.8,3.1-2.4S278.9,95.3,277.3,95z M25,128.6c-2.4-0.5-3.6,2.1-3.4,2.7c0.2,0.7,0.5,2.4,2,2.4s3.1-0.8,3.1-2.4
		S26.6,128.9,25,128.6z M176.7,123.4c-2.4-0.5-3.6,2.1-3.4,2.7c0.2,0.7,0.5,2.4,2,2.4s3.1-0.8,3.1-2.4S178.2,123.8,176.7,123.4
		L176.7,123.4z M224.9,233.1c-2.4-0.5-3.6,2.1-3.4,2.7c0.2,0.7,0.5,2.4,2,2.4s3.1-0.8,3.1-2.4S226.5,233.5,224.9,233.1L224.9,233.1z
		 M256.2,344.7c-2.4-0.5-3.6,2.1-3.4,2.7c0.2,0.7,0.5,2.4,2,2.4s3.1-0.8,3.1-2.4S257.8,345,256.2,344.7z M303.4,224.1
		c-2.4-0.5-3.6,2.1-3.4,2.7c0.2,0.7,0.5,2.4,2,2.4s3.1-0.8,3.1-2.4C305,225.3,304.9,224.4,303.4,224.1z M65.7,191.1
		c-2.4-0.5-3.6,2.1-3.4,2.7c0.2,0.7,0.5,2.4,2,2.4s3.1-0.8,3.1-2.4S67.2,191.4,65.7,191.1z M22.5,250c-2.4-0.5-3.6,2.1-3.4,2.7
		c0.2,0.7,0.5,2.4,2,2.4s3.1-0.8,3.1-2.4S24.1,250.3,22.5,250z M291.4,276.2c-3-0.6-4.4,2.5-4.2,3.3c0.3,0.8,0.6,2.9,2.4,2.9
		s3.8-1,3.8-2.9S293.3,276.6,291.4,276.2L291.4,276.2z M75.8,416.3c-3-0.6-4.4,2.5-4.2,3.3c0.3,0.8,0.6,2.9,2.4,2.9s3.8-1,3.8-2.9
		S77.7,416.7,75.8,416.3z M38.4,304.6c-3-0.6-4.4,2.5-4.2,3.3c0.3,0.8,0.6,2.9,2.4,2.9c1.8,0,3.8-1,3.8-2.9S40.3,305,38.4,304.6z
		 M130.2,94.4c-3-0.6-4.4,2.5-4.2,3.3c0.3,0.8,0.6,2.9,2.4,2.9c1.8,0,3.8-1,3.8-2.9S132.1,94.8,130.2,94.4z M259.9,429
		c-3-0.6-4.4,2.5-4.2,3.3c0.3,0.8,0.6,2.9,2.4,2.9c1.8,0,3.8-1,3.8-2.9S261.8,429.4,259.9,429z M320,412.7c-3-0.6-4.4,2.5-4.2,3.3
		c0.3,0.8,0.6,2.9,2.4,2.9s3.8-1,3.8-2.9S321.9,413.1,320,412.7L320,412.7z M298.4,447.4c-3-0.6-4.4,2.5-4.2,3.3
		c0.3,0.8,0.6,2.9,2.4,2.9s3.8-1,3.8-2.9S300.2,447.8,298.4,447.4L298.4,447.4z M71,359c-3-0.6-4.4,2.5-4.2,3.3
		c0.3,0.8,0.6,2.9,2.4,2.9s3.8-1,3.8-2.9S72.8,359.4,71,359z M38.4,353.4c-3-0.6-4.4,2.5-4.2,3.3c0.3,0.8,0.6,2.9,2.4,2.9
		c1.8,0,3.8-1,3.8-2.9S40.3,353.8,38.4,353.4z"/>
</g>
<g id="gamba_x5F_dex_2_">
	<path fill="none" stroke="#002764" stroke-width="10" stroke-miterlimit="10" d="M127.4,443.1v49.2"/>
	<path id="Scarpa_dex_1_" fill="#002764" stroke="#002764" stroke-width="2" stroke-miterlimit="10" d="M131,492.6l-7.9-0.5
		c0,0-1.2,10.4-6.1,11s-7.4-1.4-8.7-5.5c-1.3-4-1-7.3-3.5-7.3c-3,0-3.1,5.3-1.8,9.8c1.2,4.3,5.5,9.8,12.2,9.8s10.4-6.7,10.4-6.7
		l0.5,6.7h5v-17.3H131z"/>
</g>
<g id="gamba_x5F_six_2_">
	<path fill="none" stroke="#002764" stroke-width="10" stroke-miterlimit="10" d="M191,445.1v49.3"/>
	<path id="Scarpa_six_1_" fill="#002764" stroke="#002764" stroke-width="2" stroke-miterlimit="10" d="M187.7,493.8l7.9-0.5
		c0,0,1.5,9.2,6.1,11c4,1.5,7.1-1.3,8.1-5.5c1.3-5.2,1-7.9,3.5-7.9c3,0,3.7,5.9,2.4,10.4c-1.2,4.3-5.5,9.8-12.2,9.8
		s-10.4-6.7-10.4-6.7l-0.5,6.7h-5L187.7,493.8L187.7,493.8z"/>
</g>
<g id="braccio_x5F_d_x5F_3_00000105405630430116339140000006874777489897944989_">
	<path id="braccio-six-xxx" fill="none" stroke="#002764" stroke-width="10" stroke-miterlimit="10" d="M198.1,363.7
		c38.6,0,36.9,89.9,36.9,89.9"/>
	<path id="mano_six_00000178903611617251645720000008606836962665526156_" fill="#F8CEDE" d="M230.1,453.5h9.6
		c0,0,3.5,11.2,1.2,11.2s-3.5-5.6-3.5-5.6s0.8,8.9-1.6,8.7s-2.4-8.2-2.4-8.2s-0.6,5.1-3.4,4.8S230.1,453.5,230.1,453.5L230.1,453.5z
		"/>
</g>
<g id="braccio_x5F_s_x5F_3_00000105394489572154485890000008250620820818604173_">
	<path id="braccio-dex-xxx" fill="none" stroke="#002764" stroke-width="10" stroke-miterlimit="10" d="M88.3,455.3
		c0,0-5.2-86.8,33.4-86.8"/>
	<path fill="#F8CEDE" d="M93.1,454.7h-9.6c0,0-3.5,11.2-1.2,11.2s3.5-5.6,3.5-5.6s-0.8,8.9,1.6,8.7s2.4-8.2,2.4-8.2s0.6,5.1,3.4,4.8
		C95.9,465.3,93.1,454.7,93.1,454.7z"/>
</g>
<g id="Corpo_2_">
	<path fill="#009488" d="M198.5,342c0,0-2.1,108.3-2.1,102.7c0-0.2-73.3,2.7-74.4,0c-1.2-2.7-0.7-76.4,0-84.4"/>
	<path fill="#002764" stroke="#002764" stroke-miterlimit="10" d="M196.7,416.8v11l-74.8,2.1l-0.4-10.7L196.7,416.8z"/>
	<path d="M158.5,400.5c-4.5-1-6.7,4.1-6.3,5.3s0.9,4.6,3.6,4.7s5.8-1.7,5.8-4.7S161.4,401.1,158.5,400.5z M158.6,382.4
		c-4.5-1-6.7,4.1-6.3,5.3c0.4,1.3,0.9,4.6,3.6,4.7c2.8,0,5.8-1.7,5.8-4.7S161.4,383,158.6,382.4z"/>
</g>
<g id="cappello_2_">
	<path d="M274.5,254.1c-11.3-2.3-16.8,9.4-15.8,12.4s2.1,10.7,9.1,10.8c6.9,0.1,14.4-3.9,14.4-10.8
		C282.2,259.5,281.7,255.5,274.5,254.1z"/>
	<path fill="#009488" d="M100.4,275c0,0,4.4-74,35.2-92.3s46.3-22,64.4-22s49,17.6,59.7,32.7c10.7,15.1,12.7,57.9,10.7,60.5
		c-2,2.5-13.4-50.4-35.6-51s-24.8,20.2-26.2,25.8s-3.3,38.7-3.3,38.7L100.4,275z"/>
	<path d="M100,275c0,0,2-35.6,12.6-61.7c0,0,17.3,48.1,19.6,56.2c0,0,20.4-60.8,23.3-64.1c2.9-3.4,23.7,61.2,23.7,61.2
		s33.7-55.1,35.7-56.4c2-1.3-4,57-4,56.8S100,275,100,275z"/>
</g>
<path fill="#F8CEDE" d="M100.7,275c-0.3,22-7.3,73.8,26.6,90.7c27.3,10.1,54.2,6.8,70.4-12.5c17.3-22.3,15.6-65.9,13.9-86.2
	c-0.7-3.3-39.7,0.3-55.4,1C140.6,268.7,102.7,271.2,100.7,275L100.7,275z"/>
<g id="orecchio_dex_5_">
	<path fill="#F8CEDE" d="M210.6,318.1c0,0,2.4-26.8,12.3-40s15.3-17.6,17.3-18.9c0,0,2.7,18.3-9.3,37.2
		C219,315.3,210.6,318.1,210.6,318.1L210.6,318.1z"/>
	<path fill="none" stroke="#DE8BB5" stroke-width="3" stroke-linecap="round" stroke-linejoin="round" stroke-miterlimit="10" d="
		M212,309.3l13.2-20.8"/>
</g>
<g id="orecchio_dex_4_">
	<path fill="#F8CEDE" d="M68.8,279.4c0,0,12.6,4.4,21.9,21.4s9.3,16.6,12.6,28.1c0,0-19.1-9.4-27.2-24.8
		C68.2,288.9,68.8,279.4,68.8,279.4z"/>
	<path fill="none" stroke="#DE8BB5" stroke-width="3" stroke-linecap="round" stroke-linejoin="round" stroke-miterlimit="10" d="
		M99.2,319.5l-18.4-17.2"/>
</g>
<g id="facce_2_">
	<circle fill="#FFFFFF" cx="122" cy="302.9" r="9.2"/>
	<circle fill="#FFFFFF" cx="186.7" cy="302.9" r="9.2"/>
	<circle id="Occhio_Dex_1_" fill="#11142A" cx="122.5" cy="302.7" r="2.5"/>
	<circle id="Occhio_six_1_" fill="#11142A" cx="187.2" cy="302.7" r="2.5"/>
	<path fill="#F8CEDE" d="M122.8,332.1c5,0,9-4.2,9-9.3c0-5.1-4-9.3-9-9.3s-9,4.2-9,9.3c-0.2,5,3.7,9.1,8.7,9.3
		C122.6,332.1,122.7,332.1,122.8,332.1z M187.2,332.1c5,0,9-4.2,9-9.3c0-5.1-4-9.3-9-9.3s-9,4.2-9,9.3c-0.2,5,3.7,9.1,8.7,9.3
		C187,332.1,187.1,332.1,187.2,332.1z"/>
	
		<path id="Guancia_6_" fill="#FF0055" stroke="#FF0055" stroke-width="2" stroke-linecap="round" stroke-linejoin="round" stroke-miterlimit="10" d="
		M195.2,319.4c-6.3-1.4-9.3,5.6-8.7,7.4s1.2,6.4,5,6.5c3.9,0.1,8-2.3,8-6.5S199.2,320.3,195.2,319.4z"/>
	
		<path id="Guancia_1_" fill="#FF0055" stroke="#FF0055" stroke-width="2" stroke-linecap="round" stroke-linejoin="round" stroke-miterlimit="10" d="
		M118.8,322.5c2.4,0.3,5.9,1,4.7,7.7c-1.2,6.9-4.1,5.1-6.5,5.1s-4.1-3.7-4.4-6.3C112.3,326.4,115.9,322.1,118.8,322.5L118.8,322.5z"
		/>
	
		<path id="Naso_2_" fill="none" stroke="#11142A" stroke-width="3" stroke-linecap="round" stroke-linejoin="round" stroke-miterlimit="10" d="
		M150.1,311.1c0,0,0.5,5.6,3,5.6s3-5.6,3-6.6"/>
</g>
<g id="braccio_x5F_s_x5F_1_00000051386060057332615130000006354494082865645230_" display="none">
	<path display="inline" fill="none" stroke="#002764" stroke-width="10" stroke-miterlimit="10" d="M130.8,393.7
		c52.4,4.5,73.4,2.7,81-5.4c2.3-2.5,3.4-6,2.4-9.3c-2.1-6.9-8.5-11.6-15.7-11.6"/>
	<path id="mano_six_6_" display="inline" fill="#F8CEDE" d="M132.8,388.8l-2.6,9.3c0,0-11.7,0.4-11.1-1.8c0.6-2.2,6.3-1.8,6.3-1.8
		s-8.8-1.6-7.9-3.8c0.9-2.2,8.6-0.1,8.6-0.1s-4.7-1.9-3.7-4.6S132.8,388.8,132.8,388.8z"/>
</g>
<path id="bocca_1_" fill="none" stroke="#11142A" stroke-width="3" stroke-linecap="round" stroke-linejoin="round" stroke-miterlimit="10" d="
	M155.2,335.8c0,0-4.8-1.4-7.5,0.9"/>
<path id="palpebre_1_" fill="#F8CEDE" d="M108.4,292.9h28.9v6.6h-28.9V292.9z M174.6,292.9h28.9v6.6h-28.9V292.9z"/>
<path id="sopracciglia-six" fill="none" stroke="#11142A" stroke-width="3" stroke-linecap="round" stroke-linejoin="round" stroke-miterlimit="10" d="
	M182,287.8c0,0,7.3-0.4,6.8,0"/>
<path id="sopracciglia-dex" fill="none" stroke="#11142A" stroke-width="3" stroke-linecap="round" stroke-linejoin="round" stroke-miterlimit="10" d="
	M126.3,291c0,0-6.8,0-6.8,0.6"/>
<g id="braccio_x5F_d_x5F_1_00000072265779343340727350000008197042640689560232_" display="none">
	<path display="inline" fill="none" stroke="#002764" stroke-width="10" stroke-miterlimit="10" d="M187.2,396.7
		c-52.4,4.5-73.4,2.7-81-5.4c-2.4-2.5-3.3-6-2.4-9.3c1.2-4,4.6-12.1,17.7-12.1"/>
	<path id="mano_six_8_" display="inline" fill="#F8CEDE" d="M185.2,391.8l2.6,9.3c0,0,11.7,0.4,11.1-1.8c-0.6-2.2-6.3-1.8-6.3-1.8
		s8.8-1.6,7.9-3.8c-0.9-2.2-8.6-0.1-8.6-0.1s4.7-1.9,3.7-4.6C194.6,386.2,185.2,391.8,185.2,391.8z"/>
</g>
<g id="braccio_x5F_d_x5F_2_00000176738550851783968940000006537525376803799473_" display="none">
	<path id="mano_six_00000077290159741454909040000005599876907116039346_" display="inline" fill="#EEADC6" d="M218.2,316.3l4.6-8.4
		c0,0-8.1-8.5-9.2-6.5c-1.1,2,3.2,5.7,3.2,5.7s-7.4-5-8.4-2.8c-0.9,2.2,6.1,6.1,6.1,6.1s-4.7-1.9-5.9,0.7
		C207.5,313.7,218.2,316.3,218.2,316.3L218.2,316.3z"/>
	<path display="inline" fill="none" stroke="#002764" stroke-width="10" stroke-miterlimit="10" d="M220,312.6
		c27.9,14.8,26.4,32.2,21.6,42.2c-3.2,6.7-7.2,11.9-18.2,15.5c-6.2,2-14.9,1.5-25.1,1.5"/>
</g>
<g id="braccio_x5F_s_x5F_2_00000002352373885601045740000015740135433552713881_" display="none">
	<path id="mano_six_00000152247324343541456750000016230154497229277111_" display="inline" fill="#EEADC6" d="M94.8,322.1l-4.6-8.4
		c0,0,8.1-8.5,9.2-6.5s-3.2,5.7-3.2,5.7s7.4-5,8.4-2.8s-6.1,6.1-6.1,6.1s4.7-1.9,5.9,0.7C105.4,319.5,94.8,322.1,94.8,322.1
		L94.8,322.1z"/>
	<path display="inline" fill="none" stroke="#002764" stroke-width="10" stroke-miterlimit="10" d="M92.9,318.4
		c-27.9,14.8-26.4,32.2-21.6,42.2c3.2,6.7,7.2,11.9,18.2,15.5c6.2,2,21.9,1.5,32.1,1.5"/>
</g>
<path id="Occhi" fill="none" stroke="#11142A" stroke-width="3" stroke-linecap="round" stroke-linejoin="round" stroke-miterlimit="10" d="
	M183.2,308.4c0,0,7.3,0,6.8,0.4 M127.3,308.6c0,0-6.8-0.4-6.8,0.2"/>
<g id="palla2">
	<path fill="#F8CEDE" d="M284.9,99.9c-10.2-5.2-9.9-11.5-9.9-11.5h-7.8c0,0,0.4,6.3-10.5,11.5s-18.2,9.7-17.8,19.4
		s10.5,13.8,19.5,17.2c9,3.4,12.7,13.2,12.7,13.2h0.2c0,0,3.5-9.8,11.9-13.2s17.9-7.5,18.3-17.2S295.1,105.1,284.9,99.9L284.9,99.9z
		"/>
	<g id="fiore_x5F_1_00000021091107803182820460000012927906427322232239_">
		<path fill="#FF0055" d="M268.3,120l-13,3.4c-3,0.8-6-1.5-6-4.7c0-2.8,2.3-5,5.1-4.9c0.4,0,0.8,0.1,1.1,0.1l12.8,3.3
			C268.3,117.2,268.3,120,268.3,120z M272.2,120l13,3.4c3,0.8,6-1.5,6-4.7c0-2.8-2.3-5-5.1-4.9c-0.4,0-0.8,0.1-1.1,0.1l-12.8,3.3
			C272.2,117.2,272.2,120,272.2,120z M271.2,121l3.4,13c0.8,3-1.5,6-4.7,6c-2.8,0-5-2.3-4.9-5.1c0-0.4,0.1-0.8,0.1-1.1l3.3-12.8
			L271.2,121L271.2,121z M271.2,117.1l3.4-13c0.8-3-1.5-6-4.7-6c-2.8,0-5,2.3-4.9,5.1c0,0.4,0.1,0.8,0.1,1.1l3.3,12.8H271.2
			L271.2,117.1z"/>
		<circle fill="#5347FF" cx="270" cy="118.7" r="2.8"/>
		<path fill="none" stroke="#5347FF" stroke-linecap="round" stroke-linejoin="round" stroke-miterlimit="10" d="M284.2,131.1
			l-28.4-24.9 M255.8,131.1l28.4-24.9"/>
	</g>
	<path fill="#FFF6C9" d="M274.3,85.8h-6.7c-1,0-1.9,0.9-1.9,2v0.1c0,1.1,0.9,2,1.9,2h6.8c1,0,1.9-0.9,1.9-2v-0.1
		C276.2,86.7,275.4,85.8,274.3,85.8L274.3,85.8z"/>
	<path fill="none" stroke="#003580" stroke-width="3" stroke-miterlimit="10" d="M270.5,85.8l-0.6-94.3"/>
</g>
<g id="palla1_00000155107925035004466590000001990210046824334245_">
	<path fill="#FF0055" d="M81.8,142.6c-8.3-6.8-8-15.1-8-15.1h-6.3c0,0,0.3,8.3-8.5,15.1c-8.9,6.8-14.7,12.7-14.4,25.5
		c0.3,12.7,8.5,18.2,15.8,22.6c7.3,4.4,10.3,17.3,10.3,17.3h0.2c0,0,2.8-12.9,9.6-17.3s14.5-9.8,14.8-22.6
		C95.5,155.3,90,149.4,81.8,142.6z"/>
	<path fill="#FFF6C9" d="M73.9,123.5h-6.7c-1,0-1.9,0.9-1.9,2v0.1c0,1.1,0.9,2,1.9,2H74c1,0,1.9-0.9,1.9-2v-0.1
		C75.8,124.4,74.9,123.5,73.9,123.5z"/>
	<path fill="none" stroke="#003580" stroke-width="3" stroke-miterlimit="10" d="M70.5,123.5l-0.6-254.3"/>
	<g id="fiore_x5F_1_00000155828554992203977990000017144912858424671114_">
		<path fill="#FFF6C9" d="M67.5,168l-13,3.4c-3,0.8-6-1.5-6-4.7c0-2.8,2.3-5,5.1-4.9c0.4,0,0.8,0.1,1.1,0.1l12.8,3.3V168z
			 M71.5,168.1l13,3.4c3,0.8,6-1.5,6-4.7c0-2.8-2.3-5-5.1-4.9c-0.4,0-0.8,0.1-1.1,0.1l-12.8,3.3V168.1z M70.5,169.1l3.4,13
			c0.8,3-1.5,6-4.7,6c-2.8,0-5-2.3-4.9-5.1c0-0.4,0.1-0.8,0.1-1.1l3.3-12.8C67.7,169.1,70.5,169.1,70.5,169.1z M70.5,165.1l3.4-13
			c0.8-3-1.5-6-4.7-6c-2.8,0-5,2.3-4.9,5.1c0,0.4,0.1,0.8,0.1,1.1l3.3,12.8C67.7,165.1,70.5,165.1,70.5,165.1z"/>
		<circle fill="#5347FF" cx="69.3" cy="166.7" r="2.8"/>
		<path fill="none" stroke="#5347FF" stroke-linecap="round" stroke-linejoin="round" stroke-miterlimit="10" d="M83.5,179.2
			l-28.4-24.9 M55.1,179.2l28.4-24.9"/>
	</g>
</g>
<g id="palla3">
	<path fill="#009488" d="M184,94.8c-8.3-5.5-8-12.3-8-12.3h-6.3c0,0,0.3,6.8-8.5,12.3c-8.9,5.5-14.7,10.4-14.4,20.8
		s8.5,14.8,15.8,18.4c7.3,3.6,10.3,14.1,10.3,14.1h0.2c0,0,2.8-10.5,9.6-14.1s14.5-8,14.8-18.4C197.7,105.1,192.3,100.3,184,94.8
		L184,94.8z"/>
	<path fill="#FFF6C9" d="M176.1,79.2h-6.7c-1,0-1.9,0.7-1.9,1.7V81c0,0.9,0.9,1.7,1.9,1.7h6.8c1,0,1.9-0.7,1.9-1.7v-0.1
		C178,79.9,177.2,79.2,176.1,79.2z"/>
	<path fill="none" stroke="#003580" stroke-width="3" stroke-miterlimit="10" d="M172.7,79.2l-0.6-101.4"/>
	<g id="fiore_x5F_1_00000028327300002171135220000002181511580678460094_">
		<path fill="#FFF6C9" d="M169.8,115.5l-13,2.7c-3,0.6-6-1.2-6-3.8c0-2.6,3.1-4.6,6.2-3.9l12.8,2.7
			C169.8,113.2,169.8,115.5,169.8,115.5z M173.7,115.5l13,2.7c3,0.6,6-1.2,6-3.8c0-2.6-3.1-4.6-6.2-3.9l-12.8,2.7
			C173.7,113.2,173.7,115.5,173.7,115.5z M172.7,116.3l3.4,10.6c0.8,2.5-1.5,4.9-4.7,4.9s-5.6-2.5-4.8-5.1l3.3-10.4H172.7z
			 M172.7,113.1l3.4-10.6c0.8-2.5-1.5-4.9-4.7-4.9s-5.6,2.5-4.8,5.1l3.3,10.4H172.7z"/>
		<ellipse fill="#5347FF" cx="171.5" cy="114.4" rx="2.8" ry="2.2"/>
		<path fill="none" stroke="#5347FF" stroke-linecap="round" stroke-linejoin="round" stroke-miterlimit="10" d="M185.7,124.6
			l-28.4-20.3 M157.3,124.6l28.4-20.3"/>
	</g>
</g>
<g id="rami2">
	<path id="pino_x5F_1_8_" fill="#009488" stroke="#009488" stroke-width="3" stroke-miterlimit="10" d="M163.8,48.9
		c5.3-2.5,11.1-3,16.9-3.3c-3.3,3.8-6.5,7.7-9.5,11.8c-1.1,1.5,1.3,3.2,2.4,1.7c2-2.7,4.1-5.4,6.3-8c-0.2,3.6-0.9,7.1-2,10.5
		c-0.6,1.8,2.2,2.8,2.8,1c1.6-4.9,2.3-9.8,2.2-15v-0.1c2.7-3.1,5.5-6.1,8.4-9.1c-0.4,5.8-1.4,11.5-3.2,17c-0.6,1.8,2.2,2.8,2.8,1
		c2.2-6.7,3.4-13.7,3.5-20.8v-0.2l6.2-6c0.2,7.6-1,15-3.6,22.1c-0.6,1.8,2.1,2.8,2.8,1c2.8-7.8,4.1-16.1,3.7-24.4
		c0-0.4-0.2-0.8-0.5-1l8.8-7.9c0.3,10.1-1.3,20.2-4.9,29.7c-0.7,1.8,2.1,2.8,2.8,1c3.9-10.5,5.5-21.7,4.9-32.9l-0.1-0.3
		c1.1-0.9,2.2-1.8,3.2-2.8l6.5-5.6c0.4,9.9-1.1,19.7-4.3,29.1c-0.6,1.8,2.1,2.8,2.8,1c3.6-10.3,5.1-21.2,4.4-32.1L227,5.9
		c2.6-2.2,5.1-4.4,7.8-6.5c-0.7,10.5-2,20.9-3.7,31.3c-0.3,1.9,2.6,2.1,2.9,0.2c1.8-11.1,3.1-22.2,3.8-33.4l-0.1-0.6
		c2.1-1.7,4.2-3.3,6.4-4.8c2.3,4.8,2.5,9.2,2,14.6c-0.5,5.9-1.5,11.7-2.8,17.4c-0.4,1.8,2.3,2.9,2.8,1c2.6-11,5.8-24.2,0.4-34.8
		c6.5-4.5,13.3-8.5,20.6-11.6c1.8-0.7,0.5-3.4-1.3-2.7c-7.2,3-13.9,6.9-20.3,11.3c-8.6-4.7-18.2-7-28-6.6c-1.9,0.1-2.2,3-0.2,2.9
		c8.9-0.3,17.7,1.5,25.6,5.6l-6.6,5c-11-3.6-22.6-4.3-34.1-4.9c-1.9-0.1-2.2,2.9-0.2,2.9c10.6,0.5,21.3,1.1,31.6,4.1l-9.3,7.8
		c-11-3-22.5-3.3-33.7-0.7c-1.8,0.4-1.3,3.3,0.5,2.9c10-2.3,20.4-2.3,30.4,0.1l-5.7,4.9l-3,2.6c-9-2.3-18.5-2.2-27.4,0.5
		c-1.8,0.5-1.3,3.5,0.5,2.9c7.8-2.4,16.1-2.8,24.1-1l-9.4,8.4c-8.3-2.5-16.8-3-25.4-1.5c-1.9,0.3-1.3,3.2,0.5,2.9
		c7.5-1.3,15-1,22.3,0.9l-5.2,5h-0.1c-8.7-1.2-17.5-0.8-26.1,1.1c-1.9,0.4-1.3,3.3,0.5,2.9c7.5-1.7,15.2-2.1,22.9-1.3l-7.1,7.5
		l-0.6-0.1c-6.9,0.2-13.9,0.6-20.2,3.6C160.8,47.1,162.1,49.8,163.8,48.9L163.8,48.9z"/>
	<path id="pino_x5F_2_8_" fill="#009488" stroke="#009488" stroke-width="3" stroke-miterlimit="10" d="M242.8,57.4
		c5.6-1.5,11.5-1.8,17.2-1c-3.8,3.3-7.5,6.8-11,10.5c-1.3,1.4,0.8,3.4,2.2,2l7.3-7.1c-0.7,3.5-1.8,6.9-3.4,10.2
		c-0.8,1.7,1.8,3.1,2.6,1.4c2.2-4.6,3.6-9.4,4.2-14.5v-0.1l9.5-7.9c-1.1,5.7-2.9,11.2-5.5,16.4c-0.8,1.7,1.8,3.1,2.6,1.4
		c3.1-6.4,5.2-13.2,6.3-20.2v-0.2l6.9-5.1c-0.9,7.5-3,14.7-6.5,21.4c-0.9,1.7,1.7,3.1,2.6,1.4c3.8-7.3,6.2-15.4,7-23.6
		c0-0.4-0.1-0.8-0.3-1.1c3.2-2.3,6.5-4.5,9.8-6.7c-1,10.1-4,19.8-8.8,28.8c-0.9,1.7,1.7,3.1,2.6,1.4c5.3-9.9,8.4-20.7,9.3-31.9v-0.3
		l3.5-2.3l7.2-4.7c-0.9,9.9-3.7,19.5-8.2,28.3c-0.9,1.7,1.8,3.1,2.6,1.4c5-9.8,7.8-20.3,8.7-31.2v-0.4c2.8-1.8,5.7-3.7,8.6-5.4
		c-2.1,10.3-4.7,20.5-7.8,30.5c-0.6,1.8,2.3,2.5,2.9,0.6c3.3-10.7,6.1-21.6,8.3-32.6v-0.6l6.9-3.9c1.7,5,1.3,9.4,0.1,14.7
		c-1.3,5.7-3,11.4-5.1,16.9c-0.7,1.8,1.9,3.2,2.6,1.4c4-10.6,9-23.2,5.1-34.4c7-3.6,14.3-6.7,22-8.7c1.8-0.5,0.9-3.3-0.9-2.8
		c-7.5,2-14.7,5-21.6,8.5c-7.9-5.8-17.2-9.3-26.9-10.3c-1.9-0.2-2.5,2.7-0.6,2.9c8.9,0.9,17.3,3.9,24.6,8.9l-7.2,4
		c-10.5-5-21.8-7.3-33.1-9.4c-1.9-0.3-2.5,2.5-0.6,2.9c10.5,1.9,21,4,30.7,8.3l-10.3,6.5c-10.5-4.4-21.9-6.2-33.3-5.2
		c-1.9,0.2-1.8,3.1,0.1,3c10.3-1,20.5,0.4,30.1,4.2l-6.3,4.1l-3.3,2.1c-8.6-3.5-18-4.7-27.2-3.2c-1.9,0.3-1.7,3.3,0.1,3
		c8.1-1.3,16.3-0.6,24,2.2L282.7,39c-7.8-3.6-16.3-5.2-24.9-4.9c-1.9,0.1-1.8,3,0.1,3c7.6-0.3,15,1,22,3.9l-5.8,4.2H274
		c-8.5-2.3-17.3-3.1-26-2.4c-1.9,0.2-1.8,3.1,0.1,3c7.7-0.6,15.4,0,22.9,1.8c-2.7,2.1-5.4,4.3-8.1,6.5l-0.6-0.2
		c-6.8-1.2-13.8-0.8-20.5,0.9C240.1,55.2,241,58,242.8,57.4L242.8,57.4z"/>
	<path id="pino_x5F_5_8_" fill="#009488" stroke="#009488" stroke-width="3" stroke-miterlimit="10" d="M318.9,145.5
		c1.9-5.5,5-10.5,8.9-14.8c0.6,5,1.4,10,2.4,15c0.4,1.9,3.3,1.2,2.9-0.7c-0.7-3.3-1.3-6.7-1.8-10c2.5,2.6,4.7,5.4,6.5,8.5
		c1,1.6,3.6,0.3,2.6-1.4c-2.6-4.4-5.9-8.3-9.7-11.7l-0.1-0.1c-0.5-4.1-0.9-8.2-1.1-12.3c4.1,4.1,7.6,8.7,10.5,13.7
		c1,1.6,3.6,0.3,2.6-1.4c-3.6-6.2-8-11.7-13.2-16.5l-0.2-0.1l-0.3-8.6c5.7,4.9,10.4,10.8,14,17.4c0.9,1.7,3.5,0.3,2.6-1.4
		c-3.9-7.3-9.2-13.8-15.6-19c-0.3-0.3-0.7-0.4-1.1-0.4V89.8c7.8,6.5,14.2,14.5,18.9,23.5c0.9,1.7,3.5,0.3,2.6-1.4
		c-5.2-9.9-12.4-18.7-21.2-25.6l-0.3-0.2l0.1-4.2l0.2-8.6c7.6,6.3,14,14,18.7,22.7c0.9,1.7,3.5,0.3,2.6-1.4
		c-5.3-9.7-12.6-18.1-21.3-24.9l0.3-10.1c7.3,7.5,14.3,15.5,20.8,23.7c1.2,1.5,3.3-0.5,2.2-2c-7-8.8-14.4-17.2-22.3-25.2
		c-0.2-0.2-0.3-0.3-0.5-0.3l0.6-8c5.1,1.5,8.5,4.2,12.2,8.2c4,4.3,7.7,8.9,11.1,13.7c1.1,1.5,3.7,0.2,2.6-1.4
		c-6.5-9.3-14.1-20.5-25.6-23.6c1-7.8,2.5-15.6,5.2-23.1c0.6-1.8-2.2-2.6-2.8-0.8c-2.6,7.4-4.2,15-5.2,22.7
		c-9.2,3.3-17.3,8.9-23.6,16.4c-1.2,1.4,0.8,3.6,2,2.2c5.7-6.8,12.9-12.1,21.2-15.3l-0.7,8.2c-10,5.8-18.3,13.9-26.4,22.1
		c-1.3,1.3,0.7,3.5,2,2.2c7.5-7.6,15.1-15.1,24.2-20.7L326,70.7c-9.6,6.2-17.5,14.6-23,24.6c-0.9,1.7,1.6,3.2,2.5,1.5
		c5-9,11.9-16.7,20.4-22.5l-0.1,7.6l-0.1,3.9c-7.8,5.1-14,12.3-17.9,20.7c-0.8,1.7,1.7,3.3,2.5,1.5c3.4-7.4,8.7-13.8,15.4-18.6V102
		c-7.4,4.4-13.5,10.6-18,17.9c-1,1.6,1.5,3.2,2.5,1.5c4-6.4,9.3-11.8,15.6-16l0.2,7.1h-0.1c-6.7,5.7-12.3,12.5-16.6,20.1
		c-0.9,1.7,1.6,3.2,2.5,1.5c3.8-6.7,8.6-12.8,14.3-18l0.8,10.3l-0.5,0.4c-4.8,5-8.5,10.9-10.8,17.4
		C315.5,146.5,318.3,147.3,318.9,145.5L318.9,145.5z"/>
	<path id="pino_x5F_3_8_" fill="#009488" stroke="#009488" stroke-width="3" stroke-miterlimit="10" d="M118.8,3.9
		c-5.6-1.4-10.9-3.8-15.6-7.3c4.9-1.1,9.8-2.4,14.7-3.9c1.8-0.6,0.9-3.4-1-2.8l-9.8,2.8c2.3-2.8,4.9-5.2,7.8-7.4
		c1.5-1.1-0.1-3.6-1.6-2.5c-4.1,3-7.7,6.6-10.6,10.8l-0.1,0.1c-4,0.9-8.1,1.7-12.1,2.4c3.7-4.5,7.9-8.4,12.6-11.8
		c1.5-1.1-0.1-3.6-1.6-2.5c-5.8,4.1-10.9,9.1-15.2,14.8l-0.1,0.2L77.7-2c4.3-6.2,9.7-11.5,15.9-15.7c1.6-1.1-0.1-3.5-1.6-2.5
		C85.1-15.6,79.1-9.7,74.6-2.7c-0.2,0.4-0.3,0.8-0.2,1.1c-3.9,0.5-7.9,0.9-11.8,1.2C68.2-8.8,75.5-16,84-21.6
		c1.6-1.1-0.1-3.5-1.6-2.5C73-17.9,65.1-9.8,59-0.4l-0.2,0.3l-4.2,0.4L46,1c5.5-8.2,12.5-15.3,20.6-21c1.6-1.1-0.1-3.5-1.6-2.5
		C56-16.3,48.4-8.4,42.5,0.8l-0.2,0.4L32.3,2c6.8-8,13.9-15.8,21.4-23.1c1.4-1.3-0.9-3.3-2.2-1.9c-8,7.7-15.6,16-22.8,24.6l-0.3,0.5
		l-8,0.2c0.9-5.2,3.4-8.9,6.9-13c3.9-4.4,8.1-8.5,12.5-12.4c1.4-1.2-0.2-3.7-1.6-2.5C29.7-18.1,19.3-9.5,17.5,2.3
		C9.6,2.2,1.7,1.2-6-0.5C-7.8-1-8.4,1.9-6.5,2.4C1.1,4.2,8.8,5,16.5,5.2C20.7,14,27.1,21.5,35.2,27c1.6,1.1,3.5-1.2,1.9-2.2
		c-7.4-4.9-13.4-11.7-17.4-19.6l8.2-0.1c6.8,9.4,15.7,16.8,24.7,24c1.5,1.2,3.4-1,1.9-2.2C46.4,20.2,38.1,13.4,31.6,5l12.1-0.8
		C50.9,13,60.1,20,70.5,24.5c1.7,0.7,3-1.9,1.3-2.7c-9.5-4-17.8-10.2-24.5-18l7.5-0.6l3.9-0.3c6,7.2,13.6,12.6,22.4,15.7
		c1.8,0.6,3.1-2,1.3-2.7c-7.7-2.7-14.6-7.3-20.1-13.4l12.6-1.3c5.2,6.9,11.9,12.4,19.6,16.1c1.7,0.8,3-1.8,1.3-2.7
		c-6.8-3.3-12.7-8-17.5-13.9l7.1-1l0.1,0.1c6.4,6,13.7,10.9,21.7,14.5c1.7,0.8,3-1.9,1.3-2.7c-7.1-3.1-13.6-7.3-19.3-12.4l10.2-1.9
		l0.4,0.4c5.5,4.3,11.8,7.3,18.5,9C120.1,7.2,120.7,4.3,118.8,3.9z"/>
	<path id="pino_x5F_4_13_" fill="#009488" stroke="#009488" stroke-width="3" stroke-miterlimit="10" d="M37,103.9
		c-1.3-5.7-0.6-11.5,0.4-17.2c3,4.1,6.2,8,9.5,11.9c1.3,1.4,3.4-0.6,2.2-2l-6.5-7.9c3.4,1,6.7,2.4,9.9,4.2c1.6,1,3.2-1.5,1.6-2.5
		C49.7,87.8,45,86,40,85h-0.1c-2.5-3.3-4.8-6.7-7.1-10.1c5.6,1.6,10.9,3.8,15.9,6.8c1.6,1,3.2-1.5,1.6-2.5
		c-6.1-3.6-12.7-6.2-19.6-7.9h-0.2L26,64c7.4,1.4,14.4,4.3,20.8,8.3c1.6,1,3.2-1.5,1.6-2.5c-7-4.4-14.8-7.4-23-8.9
		c-0.4-0.1-0.8,0-1.1,0.2l-5.9-10.3c10,1.8,19.5,5.6,28,11.1c1.6,1,3.2-1.5,1.6-2.5c-9.4-6-20-10.1-31-11.9h-0.3l-2-3.7l-4.1-7.6
		c9.8,1.7,19.1,5.3,27.5,10.5c1.6,1,3.2-1.5,1.6-2.5C30.4,38.5,20.1,34.7,9.3,33H8.9l-4.7-9c10.1,3,20,6.4,29.8,10.3
		c1.8,0.7,2.6-2.1,0.9-2.8c-10.4-4.2-21-7.8-31.8-10.9l-0.6-0.1c-1.3-2.4-2.5-4.8-3.6-7.3C4,12,8.4,12.7,13.6,14.3
		c5.6,1.8,11.1,4,16.4,6.5c1.7,0.8,3.3-1.7,1.6-2.5C21.3,13.4,9.2,7.4-2.3,10.4c-3-7.3-5.5-14.8-6.9-22.6c-0.3-1.9-3.2-1.2-2.9,0.7
		c1.4,7.7,3.7,15.1,6.7,22.3c-6.4,7.4-10.7,16.4-12.5,26c-0.3,1.9,2.5,2.7,2.8,0.9c1.6-8.7,5.3-16.9,10.9-23.8l3.4,7.5
		c-5.9,10-9,21.1-12,32.3c-0.5,1.8,2.3,2.7,2.8,0.9c2.4-10.4,6-20.4,10.8-29.9l5.6,10.7C1.2,45.5-1.4,56.7-1.3,68c0,1.9,3,2,3,0.1
		C1.5,57.8,3.8,47.6,8.3,38.4c1.9,3.4,3.7,6.8,5.5,10.2c-4.2,8.2-6.1,17.5-5.4,26.7c0.1,1.9,3.1,2,3,0.1c-0.6-8.2,0.8-16.3,4.2-23.8
		l6.2,11c-4.2,7.5-6.5,15.8-6.9,24.4c-0.1,1.9,2.9,2,3,0.1c0.3-7.6,2.2-14.9,5.7-21.6l3.7,6.1v0.1c-3,8.3-4.5,16.9-4.5,25.7
		c0,1.9,3,2,3,0.1c0-7.8,1.2-15.3,3.6-22.7l5.8,8.6L35,83.9c-1.7,6.7-2,13.7-0.8,20.5C34.5,106.4,37.4,105.7,37,103.9L37,103.9z"/>
</g>
<g id="rami">
	
		<path id="pino_x5F_1_6_" fill="#002764" stroke="#002764" stroke-width="2" stroke-linecap="round" stroke-linejoin="round" stroke-miterlimit="10" d="
		M178.1,14.7c-5.8,0.9-11.3,2.9-16.2,6c4.8,1.5,9.6,3.2,14.3,5.2c1.8,0.7,0.6,3.4-1.2,2.7c-3.1-1.3-6.3-2.5-9.5-3.6
		c2,2.9,4.4,5.6,7.2,8c1.4,1.2-0.4,3.6-1.8,2.3c-3.8-3.3-7.1-7.2-9.7-11.6l-0.1-0.1c-3.9-1.2-7.9-2.4-11.9-3.4
		c3.3,4.7,7.1,9,11.6,12.8c1.4,1.2-0.4,3.6-1.8,2.3c-5.4-4.6-10-10-13.8-16l-0.1-0.2l-8.4-1.9c3.8,6.5,8.7,12.3,14.6,17
		c1.5,1.2-0.4,3.5-1.8,2.3c-6.5-5.2-11.8-11.6-15.8-18.9c-0.2-0.4-0.2-0.8-0.2-1.1l-11.7-2.2c5,8.9,11.6,16.6,19.6,22.9
		c1.5,1.2-0.3,3.5-1.8,2.3c-8.8-7-16-15.6-21.3-25.5l-0.1-0.3L114,13l-8.5-1.4c4.8,8.6,11.2,16.3,18.8,22.6c1.5,1.2-0.4,3.5-1.8,2.3
		c-8.4-6.9-15.4-15.4-20.4-25.1L102,11L92,9.5c6.1,8.6,12.6,16.9,19.4,24.8c1.2,1.4-1.2,3.2-2.4,1.7c-7.3-8.5-14.2-17.3-20.6-26.5
		l-0.2-0.6L80,8c0.5,5.3,2.6,9.2,5.8,13.5c3.5,4.7,7.3,9.2,11.5,13.4c1.3,1.3-0.5,3.7-1.8,2.3c-8-8-17.6-17.5-18.5-29.4
		c-7.9-0.5-15.8-0.4-23.6,0.8c-1.9,0.3-2.2-2.7-0.3-2.9c7.7-1.2,15.5-1.3,23.2-0.9c5-8.5,11.9-15.4,20.5-20.2
		c1.6-0.9,3.4,1.5,1.7,2.4c-7.7,4.3-14.3,10.5-19,18l8.2,0.8c7.6-8.8,17.1-15.4,26.6-21.9c1.6-1.1,3.3,1.3,1.7,2.4
		c-8.8,6-17.6,12-24.8,19.9l12,1.8c7.8-8.3,17.6-14.5,28.4-18.1c1.8-0.6,2.9,2.2,1,2.8c-9.8,3.2-18.6,8.6-25.9,15.9l7.5,1.3l3.9,0.7
		c6.4-6.7,14.6-11.5,23.6-13.8c1.8-0.5,2.9,2.3,1,2.8c-8,2.1-15.2,6-21.1,11.7l12.4,2.3c5.8-6.3,13-11.3,21-14.4
		c1.8-0.7,2.8,2.1,1,2.8c-7,2.7-13.4,7-18.6,12.4l7,1.6l0.1-0.1c6.8-5.5,14.6-9.8,22.9-12.6c1.8-0.6,2.9,2.2,1,2.8
		c-7.3,2.5-14.2,6.1-20.3,10.8c3.4,0.8,6.7,1.7,10,2.7l0.4-0.4c6-3.4,12.1-6.7,19.1-7.4C179.7,11.5,180,14.5,178.1,14.7L178.1,14.7z
		"/>
	
		<path id="pino_x5F_2_6_" fill="#002764" stroke="#002764" stroke-width="2" stroke-linecap="round" stroke-linejoin="round" stroke-miterlimit="10" d="
		M95.9,67.4c-5.6-1.5-11.5-1.8-17.2-1c3.8,3.3,7.5,6.8,11,10.5c1.3,1.4-0.8,3.4-2.2,2l-7.3-7.1c0.7,3.5,1.8,6.9,3.4,10.2
		c0.8,1.7-1.8,3.1-2.6,1.4c-2.2-4.6-3.6-9.5-4.2-14.5v-0.1l-9.5-7.9c1.1,5.7,2.9,11.2,5.5,16.4c0.8,1.7-1.8,3.1-2.6,1.4
		c-3.1-6.4-5.2-13.2-6.3-20.2v-0.2L57,53.2c0.9,7.5,3,14.7,6.5,21.4c0.9,1.7-1.7,3.1-2.6,1.4c-3.8-7.3-6.2-15.4-7-23.6
		c0-0.4,0.1-0.8,0.3-1.1c-3.2-2.3-6.5-4.5-9.8-6.7c1,10.1,4,19.8,8.8,28.8c0.9,1.7-1.7,3.1-2.6,1.4c-5.3-9.9-8.4-20.7-9.3-31.9v-0.3
		l-3.5-2.3l-7.2-4.7c0.9,9.9,3.7,19.4,8.2,28.3c0.9,1.7-1.8,3.1-2.6,1.4c-5-9.8-7.8-20.3-8.7-31.2v-0.4c-2.8-1.8-5.7-3.7-8.6-5.4
		c2.1,10.3,4.7,20.5,7.8,30.5c0.6,1.8-2.3,2.5-2.9,0.6c-3.3-10.7-6.1-21.6-8.3-32.6v-0.6l-6.9-3.9c-1.7,5-1.3,9.4-0.1,14.7
		c1.3,5.7,3,11.4,5.1,16.9c0.7,1.8-1.9,3.2-2.6,1.4C7,44.7,2,32.1,5.9,20.9c-7-3.6-14.3-6.7-22-8.7c-1.8-0.5-0.9-3.3,0.9-2.8
		c7.5,2,14.7,5,21.6,8.5c7.9-5.8,17.2-9.3,26.9-10.3c1.9-0.2,2.5,2.7,0.6,2.9c-8.9,0.9-17.3,3.9-24.6,8.9l7.2,4
		c10.5-5,21.8-7.3,33.1-9.4c1.9-0.3,2.5,2.5,0.6,2.9c-10.5,1.5-20.8,4.3-30.7,8.3l10.3,6.5c10.5-4.4,21.9-6.2,33.3-5.2
		c1.9,0.2,1.8,3.1-0.1,3c-10.3-1-20.5,0.4-30.1,4.2c3.1,2.1,6.3,4.2,9.6,6.2c8.6-3.5,18-4.7,27.2-3.2c1.9,0.3,1.7,3.3-0.1,3
		c-8.1-1.3-16.3-0.6-24,2.2L56,49c7.8-3.6,16.3-5.2,24.9-4.9c1.9,0.1,1.8,3-0.1,3c-7.6-0.3-15,1-22,3.9l5.8,4.2h0.1
		c8.5-2.3,17.3-3.1,26-2.4c1.9,0.2,1.8,3.1-0.1,3c-7.7-0.6-15.4,0-22.9,1.8c2.7,2.1,5.4,4.3,8.1,6.5l0.6-0.2
		c6.9-0.7,13.8-1.3,20.5,0.9C98.7,65.2,97.8,68,95.9,67.4z"/>
	
		<path id="pino_x5F_3_6_" fill="#002764" stroke="#002764" stroke-width="2" stroke-linecap="round" stroke-linejoin="round" stroke-miterlimit="10" d="
		M220,13.9c5.6-1.4,10.9-3.8,15.6-7.3c-4.9-1.1-9.8-2.4-14.7-3.9c-1.8-0.6-0.9-3.4,1-2.8l9.8,2.8c-2.3-2.8-4.9-5.2-7.8-7.4
		c-1.5-1.1,0.1-3.6,1.6-2.5c4.2,3,7.8,6.7,10.7,10.9c4,0.9,8.1,1.7,12.1,2.4c-3.7-4.5-7.9-8.4-12.6-11.8c-1.5-1.1,0.1-3.6,1.6-2.5
		c5.7,4.1,10.8,9.1,15.1,14.8l0.1,0.2L261,8c-4.3-6.2-9.7-11.5-15.9-15.7c-1.6-1.1,0.1-3.5,1.6-2.5c6.9,4.7,12.8,10.6,17.4,17.5
		c0.2,0.4,0.3,0.8,0.2,1.1c3.9,0.5,7.9,0.9,11.8,1.2c-5.7-8.4-13-15.6-21.4-21.2c-1.6-1.1,0.1-3.5,1.6-2.5
		c9.3,6.2,17.3,14.3,23.3,23.7l0.2,0.3l4.2,0.4l8.6,0.7c-5.5-8.2-12.5-15.3-20.6-21c-1.6-1.1,0.1-3.5,1.6-2.5
		c9,6.2,16.5,14.1,22.5,23.3l0.2,0.4l10.1,0.7c-6.8-8-13.9-15.8-21.4-23.1c-1.4-1.3,0.9-3.3,2.2-1.9c8,7.9,15.6,16.1,22.8,24.7
		l0.3,0.5l8,0.2c-0.9-5.2-3.4-8.9-6.9-13c-3.9-4.4-8.1-8.5-12.5-12.4c-1.4-1.2,0.2-3.7,1.6-2.5c8.6,7.4,18.9,16.1,20.8,27.8
		c7.9-0.2,15.7-0.9,23.5-2.8c1.9-0.4,2.4,2.5,0.5,2.9c-7.6,1.8-15.3,2.6-23.1,2.8c-4.2,8.8-10.6,16.3-18.7,21.8
		c-1.6,1.1-3.5-1.2-1.9-2.2c7.4-5,13.4-11.6,17.4-19.6l-8.2-0.1c-7.1,9.1-15.4,17.2-24.7,24c-1.5,1.2-3.4-1-1.9-2.2
		c8.5-6.4,16.3-13.7,23.1-21.9l-12.1-0.8c-7.1,8.9-16.3,15.9-26.8,20.4c-1.7,0.7-3-1.9-1.3-2.7c9.5-4,17.8-10.2,24.5-18l-7.5-0.6
		l-3.9-0.3c-5.9,7.2-13.6,12.6-22.4,15.7c-1.8,0.6-3.1-2-1.3-2.7c7.7-2.7,14.6-7.3,20.1-13.4L264,11.2c-5.2,6.9-11.9,12.4-19.6,16.1
		c-1.7,0.8-3-1.8-1.3-2.7c6.8-3.3,12.7-8,17.5-13.9c-2.4-0.3-4.7-0.6-7.1-1l-0.1,0.1c-6.4,6-13.7,10.9-21.7,14.5
		c-1.7,0.8-3-1.9-1.3-2.7c7.1-3.1,13.6-7.3,19.3-12.4c-3.4-0.6-6.8-1.2-10.2-1.9l-0.4,0.4c-5.5,4.3-11.8,7.3-18.5,9
		C218.7,17.2,218.1,14.3,220,13.9L220,13.9z"/>
	
		<path id="pino_x5F_4_10_" fill="#002764" stroke="#002764" stroke-width="2" stroke-linecap="round" stroke-linejoin="round" stroke-miterlimit="10" d="
		M301.8,113.9c1.3-5.7,0.6-11.5-0.4-17.2c-3,4.1-6.2,8-9.5,11.9c-1.3,1.4-3.4-0.6-2.2-2l6.5-7.9c-3.4,1-6.7,2.4-9.9,4.2
		c-1.6,1-3.2-1.5-1.6-2.5c4.4-2.6,9.1-4.4,14.1-5.4h0.1c2.5-3.3,4.8-6.7,7.1-10.1c-5.6,1.6-10.9,3.8-15.9,6.8
		c-1.6,1-3.2-1.5-1.6-2.5c6.1-3.6,12.7-6.2,19.6-7.9h0.2l4.5-7.3c-7.4,1.4-14.4,4.3-20.8,8.3c-1.6,1-3.2-1.5-1.6-2.5
		c7-4.4,14.8-7.4,23-8.9c0.4-0.1,0.8,0,1.1,0.2l5.9-10.3c-10,1.8-19.5,5.6-28,11.1c-1.6,1-3.2-1.5-1.6-2.5c9.5-6.1,19.9-10,31-11.9
		h0.3l2-3.7l4.1-7.6c-9.8,1.7-19.1,5.3-27.5,10.5c-1.6,1-3.2-1.5-1.6-2.5c9.3-5.7,19.6-9.5,30.4-11.2h0.4l4.7-9
		c-10.1,3-20,6.4-29.8,10.3c-1.8,0.7-2.6-2.1-0.9-2.8c10.4-4.2,21-7.8,31.8-10.9l0.6-0.1l3.4-7.2c-5.1-1.2-9.5-0.5-14.7,1.1
		c-5.6,1.8-11.1,4-16.4,6.5c-1.7,0.8-3.3-1.7-1.6-2.5c10.2-4.9,22.4-10.9,33.9-7.9c3-7.3,5.5-14.8,6.9-22.6c0.3-1.9,3.2-1.2,2.9,0.7
		c-1.4,7.7-3.7,15.1-6.7,22.3c6.4,7.4,10.7,16.4,12.5,26c0.3,1.9-2.5,2.7-2.8,0.9c-1.6-8.7-5.3-16.9-10.9-23.8l-3.4,7.5
		c5.9,10,9,21.1,12,32.3c0.5,1.8-2.3,2.7-2.8,0.9c-2.4-10.4-6-20.4-10.8-29.9l-5.6,10.7c5.3,10.1,8,21.3,7.9,32.7c0,1.9-3,2-3,0.1
		c0.1-10.3-2.1-20.4-6.6-29.7l-3.6,6.7l-1.9,3.5c4.2,8.3,6.1,17.5,5.4,26.8c-0.1,1.9-3.1,2-3,0.1c0.6-8.2-0.8-16.3-4.2-23.8l-6.2,11
		c4.2,7.5,6.5,15.8,6.9,24.4c0.1,1.9-2.9,2-3,0.1c-0.3-7.5-2.2-14.9-5.7-21.6l-3.7,6.1V82c3,8.3,4.5,16.9,4.5,25.7c0,1.9-3,2-3,0.1
		c0-7.8-1.2-15.3-3.6-22.7l-5.8,8.6l0.2,0.5c1.7,6.7,2,13.7,0.8,20.5C304.3,116.4,301.4,115.7,301.8,113.9L301.8,113.9z"/>
	
		<path id="pino_x5F_5_6_" fill="#002764" stroke="#002764" stroke-width="2" stroke-linecap="round" stroke-linejoin="round" stroke-miterlimit="10" d="
		M19.9,155.5c-1.9-5.5-5-10.5-8.9-14.8c-0.6,5-1.4,10-2.4,15c-0.4,1.9-3.3,1.2-2.9-0.7c0.7-3.3,1.3-6.7,1.8-10
		c-2.5,2.6-4.7,5.4-6.5,8.5c-1,1.6-3.6,0.3-2.6-1.4c2.6-4.4,5.8-8.3,9.7-11.7l0.1-0.1c0.5-4.1,0.9-8.2,1.1-12.3
		c-4.1,4.1-7.6,8.7-10.5,13.7c-1,1.6-3.6,0.3-2.6-1.4c3.6-6.2,8-11.7,13.2-16.5l0.2-0.1l0.3-8.6c-5.7,4.9-10.4,10.8-14,17.4
		c-0.9,1.7-3.5,0.3-2.6-1.4c3.9-7.3,9.2-13.8,15.6-19c0.3-0.3,0.7-0.4,1.1-0.4V99.8c-7.8,6.6-14.3,14.6-19,23.6
		c-0.9,1.7-3.5,0.3-2.6-1.4c5.2-9.9,12.4-18.7,21.2-25.6l0.3-0.2L9.8,92l-0.2-8.6c-7.6,6.3-14,14-18.7,22.7
		c-0.9,1.7-3.5,0.3-2.6-1.4C-6.4,95,0.8,86.6,9.5,79.8L9.2,69.7C1.9,77.2-5.1,85.1-11.7,93.3c-1.2,1.5-3.3-0.5-2.2-2
		c7-8.8,14.4-17.2,22.3-25.2L9,65.8l-0.6-8C3.6,59.3-0.7,62.1-3.9,66c-4,4.3-7.7,8.9-11.1,13.7c-1.1,1.5-3.7,0.2-2.6-1.4
		C-11.1,69.1-3.5,57.9,8,54.9C7,47,5.5,39.3,2.8,31.8C2.2,30,5,29.2,5.7,31c2.6,7.4,4.2,15,5.2,22.7C20.1,57,28.2,62.6,34.5,70
		c1.2,1.4-0.8,3.6-2,2.2c-5.7-6.8-12.9-12.1-21.2-15.3l0.7,8.2C22,70.9,30.3,79,38.4,87.2c1.3,1.3-0.7,3.5-2,2.2
		c-7.2-7.8-15.3-14.8-24.2-20.7l0.4,12.1c9.6,6.2,17.5,14.6,23,24.6c0.9,1.7-1.6,3.2-2.5,1.5c-5-9-11.9-16.7-20.4-22.5l0.1,7.6
		l0.1,3.9c7.8,5.1,14,12.3,17.9,20.7c0.8,1.7-1.7,3.3-2.5,1.5c-3.4-7.4-8.7-13.8-15.4-18.6v12.6c7.4,4.4,13.5,10.6,18,17.9
		c1,1.6-1.5,3.2-2.5,1.5c-4-6.4-9.3-11.8-15.6-16l-0.2,7.1h0.1c6.7,5.7,12.3,12.5,16.6,20.1c0.9,1.7-1.6,3.2-2.5,1.5
		c-3.8-6.7-8.6-12.8-14.3-18l-0.8,10.3l0.5,0.4c4.8,5,8.5,10.9,10.8,17.4C23.3,156.5,20.5,157.3,19.9,155.5z"/>
	
		<path id="pino_x5F_4_9_" fill="#002764" stroke="#002764" stroke-width="2" stroke-linecap="round" stroke-linejoin="round" stroke-miterlimit="10" d="
		M352.1,204c-1.6-5.5-4.3-10.7-8-15.2c-0.9,5-1.9,9.9-3.2,14.9c-0.5,1.8-3.3,1-2.8-0.8c0.9-3.3,1.6-6.6,2.3-9.9
		c-2.6,2.4-5,5.1-7,8.1c-1.1,1.6-3.6,0.1-2.5-1.5c2.8-4.3,6.2-8,10.3-11.1l0.1-0.1c0.7-4.1,1.3-8.1,1.8-12.2
		c-4.3,3.9-8,8.3-11.2,13.1c-1,1.6-3.6,0.1-2.5-1.5c3.9-6,8.6-11.2,14-15.8l0.2-0.1l0.8-8.5c-6,4.6-11,10.2-15,16.7
		c-1,1.6-3.5,0.1-2.5-1.5c4.3-7.1,9.9-13.3,16.6-18.2c0.4-0.3,0.7-0.3,1.1-0.3c0.3-3.9,0.5-7.9,0.6-11.8
		c-8.1,6.1-14.9,13.7-20.1,22.4c-1,1.6-3.5,0.1-2.5-1.5c5.7-9.6,13.4-17.9,22.5-24.4l0.3-0.2l0.1-4.2l0.3-8.6
		c-8,5.9-14.7,13.2-19.9,21.6c-1,1.6-3.5,0.1-2.5-1.5c5.9-9.3,13.5-17.4,22.6-23.7l0.2-10.1c-7.7,7.2-15.1,14.7-22.1,22.5
		c-1.3,1.4-3.3-0.7-2-2.1c7.5-8.4,15.3-16.3,23.6-23.9c0.2-0.2,0.3-0.3,0.5-0.3l-0.2-8c-4.8,1.2-9.2,3.8-12.6,7.5
		c-4.2,4.1-8.2,8.5-11.8,13.1c-1.2,1.5-3.7,0-2.5-1.5c7-8.9,15.2-19.7,26.8-22.1c-0.4-7.9-1.8-15.7-3.9-23.3
		c-0.5-1.8,2.3-2.5,2.9-0.7c2.2,7.5,3.4,15.2,3.9,22.9c9,3.8,16.8,9.8,22.7,17.7c1.1,1.5-1,3.6-2.1,2c-5.3-7.1-12.3-12.8-20.4-16.4
		l0.2,8.2c9.7,6.4,17.5,14.9,25.2,23.5c1.3,1.4-0.9,3.5-2.1,2c-7.1-7.9-14.2-15.9-23-22l-0.2,12.1c9.3,6.6,16.7,15.5,21.6,25.8
		c0.8,1.7-1.8,3.1-2.6,1.4c-4.5-9.3-11-17.3-19.2-23.6l-0.3,7.6l-0.1,3.9c7.5,5.5,13.3,13,16.8,21.6c0.7,1.7-1.9,3.2-2.6,1.4
		c-3-7.6-7.9-14.3-14.3-19.4l-0.7,12.6c7.1,4.8,12.9,11.3,17.1,18.8c0.9,1.7-1.7,3.1-2.6,1.4c-3.6-6.6-8.6-12.3-14.7-16.8l-0.6,7.1
		h0.1c6.4,6,11.6,13.1,15.5,21c0.8,1.7-1.8,3.1-2.6,1.4c-3.4-7-7.9-13.2-13.3-18.7c-0.4,3.4-0.8,6.9-1.4,10.3l0.4,0.4
		c4.5,5.2,7.8,11.4,9.8,18C355.4,205.1,352.5,205.8,352.1,204L352.1,204z"/>
</g>
</svg>
