<?xml version="1.0" encoding="utf-8"?>
<!-- Generator: Adobe Illustrator 27.0.1, SVG Export Plug-In . SVG Version: 6.00 Build 0)  -->
<svg version="1.1"
	 id="villaggio-elfo" xmlns:sodipodi="http://sodipodi.sourceforge.net/DTD/sodipodi-0.dtd" xmlns:svg="http://www.w3.org/2000/svg" xmlns:inkscape="http://www.inkscape.org/namespaces/inkscape" inkscape:version="1.1.2 (b8e25be8, 2022-02-05)" sodipodi:docname="villaggio-copy-01.svg"
	 xmlns="http://www.w3.org/2000/svg" xmlns:xlink="http://www.w3.org/1999/xlink" x="0px" y="0px" viewBox="0 0 1683.8 841.9"
	 style="enable-background:new 0 0 1683.8 841.9;" xml:space="preserve">
<style type="text/css">
	.st0{fill:#BEFCDF;}
	.st1{fill:none;stroke:#FFFFFF;stroke-width:3.1817;stroke-linecap:round;stroke-linejoin:round;stroke-miterlimit:12.727;}
	.st2{fill:none;stroke:#000000;}
	
		.st3{opacity:0.5;fill:#C1D1D6;stroke:#C1D1D6;stroke-width:0.3182;stroke-linecap:round;stroke-linejoin:round;stroke-miterlimit:31.8175;enable-background:new    ;}
	.st4{fill:none;stroke:#009488;stroke-width:1.5909;stroke-miterlimit:31.8175;}
	.st5{fill:none;stroke:#6CF7C6;stroke-width:1.5909;stroke-miterlimit:31.8175;stroke-dasharray:3.4999;}
	.st6{fill:#F8CEDE;}
	.st7{fill:#002764;stroke:#002764;stroke-width:0.3182;stroke-miterlimit:31.8175;}
	.st8{fill:none;stroke:#DE8BB5;stroke-width:0.6363;stroke-linecap:round;stroke-linejoin:round;stroke-miterlimit:31.8175;}
	.st9{fill:none;stroke:#11142A;stroke-width:0.6363;stroke-linecap:round;stroke-linejoin:round;stroke-miterlimit:31.8175;}
	.st10{fill:#FFFFFF;}
	.st11{fill:#11142A;}
	.st12{fill:#FF0055;stroke:#FF0055;stroke-width:0.3182;stroke-linecap:round;stroke-linejoin:round;stroke-miterlimit:31.8175;}
	.st13{fill:none;stroke:#092860;stroke-width:0.3182;stroke-linecap:round;stroke-linejoin:round;stroke-miterlimit:31.8175;}
	.st14{fill:#FF335A;stroke:#FF335A;stroke-width:0.3182;stroke-linecap:round;stroke-linejoin:round;stroke-miterlimit:31.8175;}
	.st15{fill:#009289;}
	.st16{fill:none;}
	.st17{fill:none;stroke:#002764;stroke-width:1.5909;stroke-miterlimit:31.8175;}
	.st18{fill:none;stroke:#1A49C3;stroke-width:1.5909;stroke-miterlimit:31.8175;stroke-dasharray:3.4999;}
	.st19{fill:#1A49C3;}
	.st20{fill:#002764;}
	.st21{fill:none;stroke:#E21A4A;stroke-width:1.5909;stroke-miterlimit:31.8175;}
	.st22{stroke:#000000;stroke-width:0.3182;stroke-miterlimit:31.8175;}
	.st23{fill:#E21A4A;}
	.st24{fill:#024C45;stroke:#024C45;stroke-width:0.3182;stroke-miterlimit:31.8175;}
	.st25{fill:none;stroke:#A01234;stroke-width:1.5909;stroke-miterlimit:12.727;stroke-dasharray:3.1817,0;}
	.st26{fill:none;stroke:#A01234;stroke-width:1.5909;stroke-miterlimit:12.727;stroke-dasharray:3.1817,9.5452;}
	.st27{fill:#F2D1DE;}
	.st28{fill:none;stroke:#111428;stroke-width:0.6363;stroke-linecap:round;stroke-linejoin:round;stroke-miterlimit:12.727;}
	.st29{fill:none;stroke:#D390B4;stroke-width:0.6363;stroke-linecap:round;stroke-linejoin:round;stroke-miterlimit:12.727;}
	.st30{fill:#111428;}
	.st31{fill:#FF335A;stroke:#FF335A;stroke-width:0.3182;stroke-linecap:round;stroke-linejoin:round;stroke-miterlimit:12.727;}
	.st32{fill:none;stroke:#009289;stroke-width:1.5909;stroke-miterlimit:31.8175;}
	.st33{fill:none;stroke:#92F4CA;stroke-width:1.5909;stroke-miterlimit:31.8175;stroke-dasharray:3.4999;}
	.st34{fill:#092860;stroke:#092860;stroke-width:0.3182;stroke-miterlimit:31.8175;}
	.st35{fill:#092860;}
	.st36{fill:#FF335A;}
	.st37{fill:#FFF7CF;}
	.st38{fill:#4E50FF;}
	.st39{fill:none;stroke:#D390B4;stroke-width:0.3182;stroke-linecap:round;stroke-linejoin:round;stroke-miterlimit:31.8175;}
	.st40{fill:none;stroke:#111428;stroke-width:0.3182;stroke-linecap:round;stroke-linejoin:round;stroke-miterlimit:31.8175;}
	.st41{fill:none;stroke:#4E50FF;stroke-width:1.5909;stroke-miterlimit:31.8175;}
	.st42{fill:none;stroke:#D390B4;stroke-width:0.6363;stroke-linecap:round;stroke-linejoin:round;stroke-miterlimit:31.8175;}
	.st43{fill:none;stroke:#111428;stroke-width:0.6363;stroke-linecap:round;stroke-linejoin:round;stroke-miterlimit:31.8175;}
	.st44{fill:none;stroke:#009488;stroke-width:3.4999;stroke-linecap:round;stroke-linejoin:round;stroke-miterlimit:31.8175;}
	.st45{fill:none;stroke:#009488;stroke-width:3.4999;stroke-miterlimit:31.8175;}
	.st46{fill:none;stroke:#009488;stroke-width:3.1817;stroke-linecap:round;stroke-linejoin:round;stroke-miterlimit:31.8175;}
	.st47{fill:none;stroke:#009488;stroke-width:3.1817;stroke-miterlimit:31.8175;}
	.st48{fill:none;stroke:#843A36;stroke-width:1.909;stroke-linecap:round;stroke-linejoin:round;stroke-miterlimit:31.8175;}
	.st49{fill:#7BECBF;}
	.st50{fill:#A0EFCD;}
	.st51{fill:#8ADDB3;}
	.st52{fill:#FDFDFD;}
	.st53{fill:#E5C6D2;}
	.st54{fill:#ACDBD5;}
	.st55{fill:#97D0C9;}
</style>
<sodipodi:namedview  bordercolor="#666666" borderopacity="1.0" id="namedview6561" inkscape:current-layer="villaggio-elfo" inkscape:cx="663.94452" inkscape:cy="220.637" inkscape:pagecheckerboard="0" inkscape:pageopacity="0.0" inkscape:pageshadow="2" inkscape:snap-global="false" inkscape:window-height="1027" inkscape:window-maximized="1" inkscape:window-width="1920" inkscape:window-x="0" inkscape:window-y="25" inkscape:zoom="0.49175795" pagecolor="#ffffff" showgrid="false">
	</sodipodi:namedview>
<path id="path4711" class="st0" d="M0,0h1683.8v841.9H0V0z"/>
<g id="g6457">
	<g id="righe">
		<polyline id="q3-q7" class="st1" points="599.5,528.8 559.4,552 415.3,469 		"/>
		<polyline id="q12-q18" class="st1" points="496.1,372.9 849.9,577.2 809.5,600.4 931,670.7 		"/>
		<polyline id="q11-q18" class="st1" points="337,723.5 486.9,810.1 757,654.2 875,722.3 944.1,682.2 		"/>
		<polyline id="q11-q17" class="st1" points="315,706.7 230.1,657.7 255.9,643 153.4,583.9 		"/>
		<polyline id="q13-q18" class="st1" points="1081.2,516.1 1140.7,550.4 941.5,665.3 		"/>
		<polyline id="q13-q19" class="st1" points="1081.2,516.1 1193.8,581 1219.3,566.4 1344.3,638.6 		"/>
		<polyline id="q7-q13" class="st1" points="429.6,468.7 666,605.2 755.4,553.6 877.6,624.3 1071.3,512.6 		"/>
		<polyline id="q7-q12" class="st1" points="429.6,455.9 533.9,395.8 491.9,371.6 		"/>
		<polyline id="q6-q12" class="st1" points="433.7,609.9 312.2,539.6 359.6,512.3 297.2,476.3 483.7,368.8 		"/>
		<polyline id="q6-q11" class="st1" points="433.7,622.7 372.3,658.3 388.9,667.8 321.4,706.7 		"/>
		<polyline id="q3-q6" class="st1" points="599.5,530.1 539.7,564.8 533.6,561.3 445.2,612.5 		"/>
		<polyline id="q5-q10" class="st1" points="1164.2,408.2 1211.3,381.2 1332.6,451.2 		"/>
		<polyline id="q2-q5" class="st1" points="984.2,338.5 1052.6,378 1068.8,368.4 1142.3,410.8 		"/>
		<polyline id="q9-q16" class="st1" points="1293.7,157.5 1419.1,229.7 1385.7,249.1 1511.7,322 		"/>
		<polyline id="q9-q15" class="st1" points="1293.7,143.2 1366.6,101.2 1415.3,129.2 1519.3,69 		"/>
		<polyline id="q4-q9" class="st1" points="1152.8,238 1208.8,205.9 1198.6,200.1 1274.3,155.9 		"/>
		<polyline id="q8-q15" class="st1" points="1016,143.2 1098.4,95.5 1285.8,203.6 1517.1,70 		"/>
		<polyline id="q8-q14" class="st1" points="994,143.2 931.7,107.2 897.9,126.6 795.5,67.5 		"/>
		<polyline id="q4-q8" class="st1" points="1130.8,238 1080.9,209.4 1089.5,204.6 1008.3,157.5 		"/>
		<polyline id="q2-q4" class="st1" points="983.8,324.5 1047.5,287.9 1061.5,295.9 1135.9,252.9 		"/>
		<polyline id="q1-q3" class="st1" points="789.4,435.9 727.4,471.5 707.7,460.1 607.1,518 		"/>
		<polyline id="q1-q2" class="st1" points="811.1,421.6 888.1,377 891.9,379.3 969.2,334.7 		"/>
		<polyline id="q5-q11" class="st2" points="1130.6,427.6 672.1,692 528.1,609.9 349.8,712.6 		"/>
		<line id="q12-q17" class="st2" x1="461.8" y1="386.9" x2="167.8" y2="555.5"/>
		<polyline id="q10-q16" class="st2" points="1506.9,343.2 1433.1,385.5 1451.5,396.4 1367.7,444.7 		"/>
		<polyline id="q10-q17" class="st2" points="1321.2,470.1 846,743.5 340.6,450.8 163.9,553.3 		"/>
	</g>
	<g id="q1">
		<ellipse id="ellipse4736" class="st3" cx="796.8" cy="449.3" rx="9.2" ry="0.3"/>
		<circle id="circle4738" class="st0" cx="796.4" cy="422.5" r="26.1"/>
		<g id="g4828">
			<g id="g4746">
				<path id="path4740" class="st4" d="M802.2,423.8c0,0,7.6,3.2,7,16.2"/>
				<path id="path4742" class="st5" d="M802.2,423.5c0,0,7.6,3.2,7,16.2"/>
				<path id="path4744" class="st6" d="M808.5,439.7h1.6l0.3,1.9l-0.6-1l-0.3,1.3l-0.3-1.3c0,0,0,1-0.6,0.6L808.5,439.7L808.5,439.7
					z"/>
			</g>
			<g id="g4754">
				<path id="path4748" class="st4" d="M777.7,426c0,0,7-1.6,14-0.3"/>
				<path id="path4750" class="st5" d="M777.7,426c0,0,7-1.6,14-0.3"/>
				<path id="path4752" class="st6" d="M777.7,426.7l-0.3-1.6l-1.9,0.3l1,0.3l-1.3,0.6c0,0.3,1.3,0,1.3,0l-0.6,0.6
					C776.1,427.6,777.7,426.7,777.7,426.7z"/>
			</g>
			<g id="g4762">
				<path id="path4756" class="st4" d="M792,438.1v8"/>
				<path id="path4758" class="st5" d="M792,438.1v7.6"/>
				<path id="path4760" class="st7" d="M792.6,446.1h-1.3c0,0-0.3,1.6-1,1.9c-0.6,0-1.3-0.3-1.3-1l-0.6-1.3c-0.6,0-0.6,1-0.3,1.6
					s1,1.6,1.9,1.6c1,0,1.6-1,1.6-1v1h1L792.6,446.1L792.6,446.1z"/>
			</g>
			<g id="g4770">
				<path id="path4764" class="st4" d="M802.2,438.4v7.6"/>
				<path id="path4766" class="st5" d="M802.2,438.4v7.6"/>
				<path id="path4768" class="st7" d="M801.5,446.1h1.3c0,0,0.3,1.6,1,1.9s1.3-0.3,1.3-1l0.6-1.3c0.6,0,0.6,1,0.3,1.6
					s-1,1.6-1.9,1.6s-1.6-1-1.6-1v1h-1L801.5,446.1L801.5,446.1z"/>
			</g>
			<g id="g4778">
				<path id="path4772" d="M803.4,421.9l-0.3,16.5h-11.8V425"/>
				<path id="path4774" class="st7" d="M803.1,434v1.6l-12.1,0.3v-1.6L803.1,434z"/>
				<path id="path4776" d="M797.1,431.1c-0.6-0.3-1,0.6-1,1c0,0.3,0,0.6,0.6,0.6l1-0.6L797.1,431.1z M797.1,428.3
					c-0.6-0.3-1,0.6-1,1s0,0.6,0.6,0.6l1-0.6L797.1,428.3z"/>
			</g>
			<g id="g4784">
				<path id="path4780" d="M815.5,407.9c-1.9-0.3-2.5,1.6-2.5,1.9c0.3,0.3,0.3,1.6,1.6,1.6c1,0,2.2-0.6,2.2-1.6
					S816.8,408.2,815.5,407.9z M787.5,411.1c0,0,0.6-11.8,5.7-14.6c4.8-2.9,7.3-3.5,10.2-3.5s8,2.9,9.5,5.1c1.6,2.5,1.9,9.2,1.6,9.5
					s-2.2-8-5.7-8.3c-3.5,0-3.8,3.2-4.1,4.1l-0.6,6L787.5,411.1L787.5,411.1z"/>
				<path id="path4782" d="M787.5,411.1c0,0,0.3-5.7,1.9-9.9l3.2,8.9c0,0,3.2-9.5,3.8-10.2s3.8,9.9,3.8,9.9l5.7-8.9l-0.6,9.2
					L787.5,411.1z"/>
			</g>
			<path id="path4786" class="st6" d="M787.8,411.1c0,3.5-1.3,11.8,4.1,14.6c4.5,1.6,8.6,1,11.1-1.9c2.9-3.5,2.5-10.5,2.2-13.7
				c0-0.6-6.4,0-8.9,0.3C794.2,410.1,788.2,410.4,787.8,411.1z"/>
			<g id="g4792">
				<path id="path4788" class="st6" d="M805.3,418.1c0,0,0.3-4.1,1.9-6.4c1.6-2.2,2.5-2.9,2.9-2.9c0,0,0.3,2.9-1.6,6
					C806.6,417.8,805.3,418.1,805.3,418.1z"/>
				<path id="path4790" class="st8" d="M805.7,416.8l1.9-3.5"/>
			</g>
			<g id="g4798">
				<path id="path4794" class="st6" d="M782.8,412c0,0,1.9,0.6,3.5,3.5s1.6,2.5,1.9,4.5c0,0-3.2-1.6-4.5-3.8
					C782.4,413.9,782.8,412,782.8,412L782.8,412z"/>
				<path id="path4796" class="st8" d="M787.5,418.4l-2.9-2.9"/>
			</g>
			<g id="g4816">
				<path id="path4800" class="st9" d="M801.5,412.7l1,0.6 M790.4,413l1-0.3"/>
				<circle id="circle4802" class="st10" cx="791" cy="415.5" r="1.6"/>
				<circle id="circle4804" class="st10" cx="801.5" cy="415.5" r="1.6"/>
				<circle id="circle4806" class="st11" cx="791.3" cy="415.5" r="0.3"/>
				<circle id="circle4808" class="st11" cx="801.5" cy="415.5" r="0.3"/>
				<path id="path4810" class="st6" d="M791.3,420.3c1,0,1.6-0.6,1.6-1.6s-0.6-1.6-1.6-1.6s-1.6,0.6-1.6,1.6
					C789.8,419.7,790.4,420.3,791.3,420.3z M801.5,420.3c1,0,1.6-0.6,1.6-1.6s-0.6-1.6-1.6-1.6s-1.6,0.6-1.6,1.6
					C800.3,419.7,800.9,420.3,801.5,420.3z"/>
				<path id="path4812" class="st12" d="M802.8,418.4c-1-0.3-1.6,1-1.3,1.3s0.3,1,1,1c0.6,0,1.3-0.3,1.3-1
					C803.8,419,803.4,418.4,802.8,418.4z M790.7,418.7c0.3,0,1,0,0.6,1.3c-0.3,1-0.6,1-1,1l-0.6-1
					C789.4,419.4,790.1,418.7,790.7,418.7z"/>
				<path id="path4814" class="st9" d="M795.5,417.1c0,0,0,1,0.6,1l0.6-1 M795.8,420.3c0,0-0.6-0.3-0.6,0l0.6,0.6l-0.6,0.6h1"/>
			</g>
			<g id="g4826">
				<path id="path4818" class="st13" d="M778,427.9c0,0-3.8-7-8.6-11.1"/>
				<path id="path4820" class="st13" d="M771.6,422.2c0,0,2.2,0.3,3.8,1.6 M773.2,420.9c0.3-1.9-0.6-4.1-0.6-4.1 M775.1,418.4
					c0,0-0.3,1.9-1.9,2.5"/>
				<path id="path4822" class="st14" d="M768.4,414.6c-1.3,0.3-1,1.6-1,1.9s0.6,1,1.3,0.6c0.6-0.3,1.3-1,1-1.6
					S769.1,414.6,768.4,414.6z M772.6,414.3c-1.3,0-1.6,1.3-1.6,1.6c0,0.3,0.3,1.3,1,1c0.6,0,1.3-0.6,1.3-1.3
					C773.5,414.6,773.5,414.3,772.6,414.3L772.6,414.3z M775.8,416.5c-1-0.3-1.6,0.6-1.6,1c0,0.3,0,1,0.6,1s1.3-0.3,1.3-1
					C776.4,416.8,776.4,416.5,775.8,416.5L775.8,416.5z M770.7,420.6c-1.3,0-1.6,1.3-1.6,1.6s0.3,1.3,1,1c0.6,0,1.3-0.6,1.3-1.3
					C771.6,421.3,771.6,420.6,770.7,420.6L770.7,420.6z"/>
				<path id="path4824" class="st15" d="M771.9,419.7c0,0-2.2-0.3-2.9,1.3c0,0-1-1.6-2.5-1c0,0-0.3-1.9-1.6-2.2c0,0,2.2,0.6,2.9-0.6
					c0,0,1,1.6,1.9,0.3C769.7,417.8,769.7,419,771.9,419.7z M775.8,424.1c0,0,0.3-1.9-1.3-2.5c0,0,1.6-1,1-2.2c0,0,1.9-0.6,1.9-1.6
					c0,0-0.6,1.9,0.6,2.2c0,0-1.6,1-0.3,1.9C777.7,422.2,776.1,422.2,775.8,424.1z"/>
			</g>
		</g>
		<path id="path4830" class="st16" d="M743.9,384h108.2v126.3H743.9V384L743.9,384z"/>
	</g>
	<g id="q2_00000143587406371603788600000011203949402487376305_">
		<ellipse id="ellipse4833" class="st3" cx="972.1" cy="354.1" rx="9.2" ry="0.3"/>
		<circle id="circle4835" class="st0" cx="971.8" cy="327.7" r="26.1"/>
		<g id="g4917">
			<g id="g4843">
				<path id="path4837" class="st4" d="M977.5,328.7c0,0,7.6,3.2,7,16.2"/>
				<path id="path4839" class="st5" d="M977.5,328.7c0,0,7.6,3.2,7,16.2"/>
				<path id="path4841" class="st6" d="M983.8,344.9h1.6l0.3,1.9l-0.6-1l-0.3,1.3l-0.3-1.3c0,0,0,1-0.6,0.6
					C983.2,346.2,983.8,344.9,983.8,344.9L983.8,344.9z"/>
			</g>
			<g id="g4851">
				<path id="path4845" class="st4" d="M961.3,345.2c0,0-0.6-11.8,6-14.3"/>
				<path id="path4847" class="st5" d="M961.3,345.2c0,0-0.6-11.8,6-14.3"/>
				<path id="path4849" class="st6" d="M961.9,344.9h-1.6l-0.3,1.9l0.6-1l0.3,1.3l0.3-1.3c0,0,0,1,0.6,0.6
					C962.5,346.2,961.9,344.9,961.9,344.9L961.9,344.9z"/>
			</g>
			<g id="g4859">
				<path id="path4853" class="st4" d="M967.3,343v8"/>
				<path id="path4855" class="st5" d="M967.3,343v8"/>
				<path id="path4857" class="st7" d="M967.9,350.9h-1.3c0,0-0.3,1.6-1,1.9c-0.6,0-1.3-0.3-1.3-1l-0.6-1.3c-0.6,0-0.6,1-0.3,1.6
					s1,1.6,1.9,1.6c1,0,1.6-1,1.6-1v1h1L967.9,350.9L967.9,350.9z"/>
			</g>
			<g id="g4867">
				<path id="path4861" class="st4" d="M977.5,343.3v8"/>
				<path id="path4863" class="st5" d="M977.5,343.3v8"/>
				<path id="path4865" class="st7" d="M976.8,351.3h1.3c0,0,0.3,1.6,1,1.9c0.6,0.3,1.3-0.3,1.3-1l0.6-1.3c0.6,0,0.6,1,0.3,1.6
					s-1,1.6-1.9,1.6s-1.6-1-1.6-1v1h-1L976.8,351.3L976.8,351.3z"/>
			</g>
			<g id="g4875">
				<path id="path4869" d="M978.8,326.8l-0.3,16.5h-11.8v-13.4"/>
				<path id="path4871" class="st7" d="M978.4,338.9v1.9l-12.1,0.3v-1.9L978.4,338.9z"/>
				<path id="path4873" d="M972.4,336.3c-0.6-0.3-1,0.6-1,1c0,0.3,0,0.6,0.6,0.6l1-0.6L972.4,336.3z M972.4,333.4
					c-0.6-0.3-1,0.6-1,1c0,0.3,0,0.6,0.6,0.6l1-0.6L972.4,333.4z"/>
			</g>
			<g id="g4883">
				<path id="path4877" d="M990.8,312.8c-1.9-0.3-2.5,1.6-2.5,1.9c0.3,0.3,0.3,1.6,1.6,1.6s2.2-0.6,2.2-1.6S992.1,313.1,990.8,312.8
					L990.8,312.8z"/>
				<path id="path4879" d="M963.2,316.3c0,0,0.6-11.8,5.7-14.6c4.8-2.9,7.3-3.5,10.2-3.5c3.7,0.5,7.1,2.3,9.5,5.1
					c1.6,2.5,1.9,9.2,1.6,9.5s-2.2-8-5.7-8.3c-3.5,0-3.8,3.2-4.1,4.1l-0.6,6L963.2,316.3L963.2,316.3z"/>
				<path id="path4881" d="M962.8,316.3c0,0,0.3-5.7,1.9-9.9l3.2,8.9c0,0,3.2-9.5,3.8-10.2c0.3-0.6,3.8,9.9,3.8,9.9l5.7-8.9
					l-0.6,9.2L962.8,316.3L962.8,316.3z"/>
			</g>
			<path id="path4885" class="st6" d="M963.2,316.3c0,3.5-1.3,11.8,4.1,14.6c4.5,1.6,8.6,1,11.1-1.9c2.9-3.5,2.5-10.5,2.2-13.7
				c0-0.6-6.4,0-8.9,0.3C969.5,315.3,963.5,315.6,963.2,316.3L963.2,316.3z"/>
			<g id="g4891">
				<path id="path4887" class="st6" d="M980.7,323.3c0,0,0.3-4.1,1.9-6.4s2.5-2.9,2.9-2.9c0,0,0.3,2.9-1.6,6
					C981.9,322.6,980.7,323.3,980.7,323.3z"/>
				<path id="path4889" class="st8" d="M981,321.7l1.9-3.2"/>
			</g>
			<g id="g4897">
				<path id="path4893" class="st6" d="M958.1,316.9c0,0,1.9,0.6,3.5,3.5s1.6,2.5,1.9,4.5c0,0-3.2-1.6-4.5-3.8
					C957.8,318.8,958.1,316.9,958.1,316.9L958.1,316.9z"/>
				<path id="path4895" class="st8" d="M962.8,323.3l-2.9-2.5"/>
			</g>
			<g id="g4915">
				<path id="path4899" class="st9" d="M976.8,317.5l1,0.6 M966,318.2l1-0.3 M970.8,325.8l1,0.6c0.6,0,0.6-1,0.6-1"/>
				<circle id="circle4901" class="st10" cx="966.3" cy="320.7" r="1.6"/>
				<circle id="circle4903" class="st10" cx="976.8" cy="320.7" r="1.6"/>
				<circle id="circle4905" class="st11" cx="966.7" cy="320.7" r="0.3"/>
				<circle id="circle4907" class="st11" cx="976.8" cy="320.7" r="0.3"/>
				<path id="path4909" class="st6" d="M966.7,325.5c1,0,1.6-0.6,1.6-1.6s-0.6-1.6-1.6-1.6s-1.6,0.6-1.6,1.6
					S965.7,325.5,966.7,325.5z M976.8,325.5c1,0,1.6-0.6,1.6-1.6s-0.6-1.6-1.6-1.6s-1.6,0.6-1.6,1.6S976.2,325.5,976.8,325.5z"/>
				<path id="path4911" class="st12" d="M978.1,323.3c-1-0.3-1.6,1-1.3,1.3c0,0.3,0.3,1,1,1c0.6,0,1.3-0.3,1.3-1L978.1,323.3z
					 M966,323.9c0.3,0,1,0,0.6,1.3c-0.3,1-0.6,1-1,1l-0.6-1C965.1,324.5,965.4,323.9,966,323.9z"/>
				<path id="path4913" class="st9" d="M971.1,322c0,0,0,1,0.6,1s0.6-1,0.6-1"/>
			</g>
		</g>
		<path id="path4919" class="st16" d="M919.6,289.2h108.2v126.3H919.6V289.2z"/>
	</g>
	<g id="q4_00000178176320003187973280000001465630075866218668_">
		<ellipse id="ellipse4922" class="st3" cx="1141.3" cy="265.7" rx="9.2" ry="0.3"/>
		<circle id="circle4924" class="st0" cx="1141" cy="238.9" r="26.1"/>
		<g id="g5006">
			<g id="g4932">
				<path id="path4926" class="st17" d="M1146.7,240.2c0,0,7.6,3.2,7,16.2"/>
				<path id="path4928" class="st18" d="M1146.7,240.2c0,0,7.6,3.2,7,16.2"/>
				<path id="path4930" class="st6" d="M1153.1,256.4h1.6l0.3,1.9l-0.6-1l-0.3,1.3l-0.3-1.3c0,0,0,1-0.6,0.6
					C1152.5,257.7,1153.1,256.4,1153.1,256.4L1153.1,256.4z"/>
			</g>
			<g id="g4940">
				<path id="path4934" class="st17" d="M1130.5,256.4c0,0-0.6-11.8,6-14.3"/>
				<path id="path4936" class="st18" d="M1130.5,256.4c0,0-0.6-11.8,6-14.3"/>
				<path id="path4938" class="st6" d="M1131.2,256.4h-1.6l-0.3,1.9l0.6-1l0.3,1.3l0.3-1.3c0,0,0,1,0.6,0.6
					C1131.8,257.7,1131.2,256.4,1131.2,256.4L1131.2,256.4z"/>
			</g>
			<g id="g4948">
				<path id="path4942" class="st17" d="M1136.6,254.5v8"/>
				<path id="path4944" class="st18" d="M1136.6,254.5v8"/>
				<path id="path4946" class="st7" d="M1137.2,262.5h-1.3c0,0-0.3,1.6-1,1.9c-0.6,0-1.3-0.3-1.3-1l-0.6-1.3c-0.6,0-0.6,1-0.3,1.6
					s1,1.6,1.9,1.6s1.6-1,1.6-1v1h1L1137.2,262.5L1137.2,262.5z"/>
			</g>
			<g id="g4956">
				<path id="path4950" class="st17" d="M1146.7,254.9v8"/>
				<path id="path4952" class="st18" d="M1146.7,254.9v8"/>
				<path id="path4954" class="st7" d="M1146.1,262.5h1.3c0,0,0.3,1.6,1,1.9c0.6,0.3,1.3-0.3,1.3-1l0.6-1.3c0.6,0,0.6,1,0.3,1.6
					c-0.3,0.6-1,1.6-1.9,1.6s-1.6-1-1.6-1v1h-1L1146.1,262.5L1146.1,262.5z"/>
			</g>
			<g id="g4964">
				<path id="path4958" class="st19" d="M1148,238.3l-0.3,16.5h-11.8v-13.4"/>
				<path id="path4960" class="st7" d="M1147.7,250.4v1.6l-12.1,0.3v-1.6L1147.7,250.4z"/>
				<path id="path4962" d="M1141.7,247.9c-0.6-0.3-1,0.6-1,1c0,0.3,0,0.6,0.6,0.6l1-0.6L1141.7,247.9z M1141.7,244.7
					c-0.6-0.3-1,0.6-1,1c0,0.3,0,0.6,0.6,0.6l1-0.6L1141.7,244.7z"/>
			</g>
			<g id="g4972">
				<path id="path4966" d="M1160.1,224.3c-1.9-0.3-2.5,1.6-2.5,1.9c0.3,0.3,0.3,1.6,1.6,1.6s2.2-0.6,2.2-1.6
					C1161.4,225.3,1161.4,224.6,1160.1,224.3L1160.1,224.3z"/>
				<path id="path4968" class="st19" d="M1132.4,227.8c0,0,0.6-11.8,5.7-14.6c4.8-2.9,7.3-3.5,10.2-3.5c3.7,0.5,7.1,2.3,9.5,5.1
					c1.6,2.5,1.9,9.2,1.6,9.5s-2.2-8-5.7-8.3c-3.5,0-3.8,3.2-4.1,4.1l-0.6,6L1132.4,227.8L1132.4,227.8z"/>
				<path id="path4970" class="st20" d="M1132.1,227.8c0,0,0.3-5.7,1.9-9.9l3.2,8.9c0,0,3.2-9.5,3.8-10.2c0.3-0.6,3.8,9.9,3.8,9.9
					l5.7-8.9l-0.6,9.2L1132.1,227.8L1132.1,227.8z"/>
			</g>
			<path id="path4974" class="st6" d="M1132.4,227.8c0,3.5-1.3,11.8,4.1,14.6c4.5,1.6,8.6,1,11.1-1.9c2.9-3.5,2.5-10.5,2.2-13.7
				c0-0.6-6.4,0-8.9,0.3C1138.8,226.5,1132.7,227.2,1132.4,227.8L1132.4,227.8z"/>
			<g id="g4980">
				<path id="path4976" class="st6" d="M1149.9,234.5c0,0,0.3-4.1,1.9-6.4c1.6-2.2,2.5-2.9,2.9-2.9c0,0,0.3,2.9-1.6,6
					C1151.2,234.2,1149.9,234.5,1149.9,234.5z"/>
				<path id="path4978" class="st8" d="M1150.2,233.2l1.9-3.5"/>
			</g>
			<g id="g4986">
				<path id="path4982" class="st6" d="M1127.3,228.4c0,0,1.9,0.6,3.5,3.5s1.6,2.5,1.9,4.5c0,0-3.2-1.6-4.5-3.8
					C1127,230,1127.3,228.4,1127.3,228.4L1127.3,228.4z"/>
				<path id="path4984" class="st8" d="M1132.1,234.8l-2.9-2.9"/>
			</g>
			<g id="g5004">
				<path id="path4988" class="st9" d="M1146.1,229.1l1,0.6 M1135,229.4l1-0.3 M1140.1,237.4l1,0.6c0.6,0,0.6-1,0.6-1"/>
				<circle id="circle4990" class="st10" cx="1135.6" cy="232.3" r="1.6"/>
				<circle id="circle4992" class="st10" cx="1146.1" cy="232.3" r="1.6"/>
				<circle id="circle4994" class="st11" cx="1135.9" cy="231.9" r="0.3"/>
				<circle id="circle4996" class="st11" cx="1146.1" cy="231.9" r="0.3"/>
				<path id="path4998" class="st6" d="M1135.9,236.7c1,0,1.6-0.6,1.6-1.6s-0.6-1.6-1.6-1.6s-1.6,0.6-1.6,1.6
					S1135,236.7,1135.9,236.7z M1146.1,236.7c1,0,1.6-0.6,1.6-1.6s-0.6-1.6-1.6-1.6s-1.6,0.6-1.6,1.6S1145.5,236.7,1146.1,236.7z"/>
				<path id="path5000" class="st12" d="M1147.4,234.8c-1-0.3-1.6,1-1.3,1.3c0,0.3,0.3,1,1,1c0.6,0,1.3-0.3,1.3-1
					C1148.3,235.4,1148,234.8,1147.4,234.8z M1135.3,235.1c0.3,0,1,0,0.6,1.3c-0.3,1-0.6,1-1,1l-0.6-1
					C1134.3,235.8,1134.7,235.1,1135.3,235.1z"/>
				<path id="path5002" class="st9" d="M1140.1,233.5c0,0,0,1,0.6,1l0.6-1"/>
			</g>
		</g>
		<path id="path5008" class="st16" d="M1088.5,200.4h108.2v126.3h-108.2V200.4z"/>
	</g>
	<g id="q8_00000164508252868227210730000013153607565263798944_">
		<ellipse id="ellipse5011" class="st3" cx="1002" cy="170.2" rx="9.2" ry="0.3"/>
		
			<ellipse id="ellipse5013" transform="matrix(0.6644 -0.7474 0.7474 0.6644 228.9237 796.844)" class="st0" cx="1001.7" cy="143.5" rx="26.1" ry="26.1"/>
		<g id="g5095">
			<g id="g5021">
				<path id="path5015" class="st4" d="M1007.1,144.5c0,0,7.6,3.2,7,16.2"/>
				<path id="path5017" class="st5" d="M1007.1,144.5c0,0,7.6,3.2,7,16.2"/>
				<path id="path5019" class="st6" d="M1013.4,160.7h1.6l0.3,1.9l-0.6-1l-0.3,1.3l-0.3-1.3c0,0,0,1-0.6,0.6
					C1012.8,162,1013.4,160.7,1013.4,160.7L1013.4,160.7z"/>
			</g>
			<g id="g5029">
				<path id="path5023" class="st4" d="M990.8,161c0,0-0.6-11.8,6-14.3"/>
				<path id="path5025" class="st5" d="M990.8,161c0,0-0.6-11.8,6-14.3"/>
				<path id="path5027" class="st6" d="M991.5,161h-1.6l-0.3,1.9l0.6-1l0.3,1.3l0.3-1.3c0,0,0,1,0.6,0.6
					C992.1,162.3,991.5,161,991.5,161L991.5,161z"/>
			</g>
			<g id="g5037">
				<path id="path5031" class="st4" d="M996.9,159.1v7.6"/>
				<path id="path5033" class="st5" d="M996.9,159.1v7.6"/>
				<path id="path5035" class="st7" d="M997.5,166.7h-1.2c0,0-0.3,1.6-1,1.9c-0.6,0-1.3-0.3-1.3-1l-0.6-1.3c-0.6,0-0.6,1-0.3,1.6
					s1,1.6,1.9,1.6s1.6-1,1.6-1v1h1L997.5,166.7L997.5,166.7z"/>
			</g>
			<g id="g5045">
				<path id="path5039" class="st4" d="M1007.1,159.4v7.6"/>
				<path id="path5041" class="st5" d="M1007.1,159.1v8"/>
				<path id="path5043" class="st7" d="M1006.8,167h1.3c0,0,0.3,1.6,1,1.9c0.6,0.3,1.3-0.3,1.3-1l0.6-1.3c0.6,0,0.6,1,0.3,1.6
					s-1,1.6-1.9,1.6s-1.6-1-1.6-1v1h-1L1006.8,167L1006.8,167z"/>
			</g>
			<g id="g5053">
				<path id="path5047" d="M1008.3,142.9l-0.3,16.5h-11.7V146"/>
				<path id="path5049" class="st7" d="M1008,154.6v1.9l-11.8,0.3l-0.3-1.6L1008,154.6z"/>
				<path id="path5051" d="M1002,152.1c-0.6-0.3-1,0.6-1,1c0,0.3,0,0.6,0.6,0.6l1-0.6L1002,152.1z M1002,149.2c-0.6-0.3-1,0.6-1,1
					c0,0.3,0,0.6,0.6,0.6l1-0.6L1002,149.2z"/>
			</g>
			<g id="g5061">
				<path id="path5055" d="M1020.4,128.9c-1.9-0.3-2.5,1.6-2.5,1.9c0.3,0.3,0.3,1.6,1.6,1.6c1,0,2.2-0.6,2.2-1.6
					C1021.7,129.8,1021.7,128.9,1020.4,128.9L1020.4,128.9z"/>
				<path id="path5057" d="M992.8,132c0,0,0.6-11.8,5.7-14.6c4.8-2.9,7.3-3.5,10.2-3.5c3.7,0.5,7.1,2.3,9.5,5.1
					c1.6,2.5,1.9,9.2,1.6,9.5c-0.3,0.3-2.2-8-5.7-8.3c-3.5,0-3.8,3.2-4.1,4.1l-0.6,6L992.8,132L992.8,132z"/>
				<path id="path5059" d="M992.8,132c0,0,0.3-5.7,1.9-9.9l3.2,8.9c0,0,3.2-9.5,3.8-10.2c0.3-0.6,3.8,9.9,3.8,9.9l5.7-8.9l-0.6,9.2
					L992.8,132z"/>
			</g>
			<path id="path5063" class="st6" d="M992.8,132c0,3.5-1.3,11.8,4.1,14.6c4.5,1.6,8.6,1,11.1-1.9c2.9-3.5,2.5-10.5,2.2-13.7
				c0-0.6-6.4,0-8.9,0.3C998.8,131.7,993.1,131.4,992.8,132z"/>
			<g id="g5069">
				<path id="path5065" class="st6" d="M1010.3,139c0,0,0.3-4.1,1.9-6.4c1.6-2.2,2.5-2.9,2.9-2.9c0,0,0.3,2.9-1.6,6
					C1011.5,139,1010.3,139,1010.3,139z"/>
				<path id="path5067" class="st8" d="M1010.6,137.5l1.9-3.2"/>
			</g>
			<g id="g5075">
				<path id="path5071" class="st6" d="M987.7,132.7c0,0,1.9,0.6,3.5,3.5s1.6,2.5,1.9,4.5c0,0-3.2-1.6-4.5-3.8
					C987.7,134.3,987.7,132.7,987.7,132.7L987.7,132.7z"/>
				<path id="path5073" class="st8" d="M992.4,139.4l-2.9-2.9"/>
			</g>
			<g id="g5093">
				<path id="path5077" class="st9" d="M1006.4,133.6l1,0.6 M995.6,134l1-0.3 M1000.4,141.6l1,0.6c0.6,0,0.6-1,0.6-1"/>
				<circle id="circle5079" class="st10" cx="996.3" cy="136.5" r="1.6"/>
				<circle id="circle5081" class="st10" cx="1006.4" cy="136.5" r="1.6"/>
				<circle id="circle5083" class="st11" cx="996.3" cy="136.5" r="0.3"/>
				<circle id="circle5085" class="st11" cx="1006.4" cy="136.5" r="0.3"/>
				<path id="path5087" class="st6" d="M996.3,141.3c1,0,1.6-0.6,1.6-1.6s-0.6-1.6-1.6-1.6s-1.6,0.6-1.6,1.6
					C994.7,140.6,995.3,141.3,996.3,141.3z M1006.4,141.3c1,0,1.6-0.6,1.6-1.6s-0.6-1.6-1.6-1.6s-1.6,0.6-1.6,1.6
					C1005.2,140.6,1005.8,141.3,1006.4,141.3z"/>
				<path id="path5089" class="st12" d="M1007.7,139c-1-0.3-1.6,1-1.3,1.3c0,0.3,0.3,1,1,1c0.6,0,1.3-0.3,1.3-1
					S1008.3,139.4,1007.7,139z M995.6,139.7c0.3,0,1,0,0.6,1.3c-0.3,1-0.6,1-1,1l-0.6-1C994.7,140.3,995,139.7,995.6,139.7z"/>
				<path id="path5091" class="st9" d="M1000.7,137.8c0,0,0,1,0.6,1s0.6-1,0.6-1"/>
			</g>
		</g>
		<path id="path5097" class="st16" d="M949.2,105h108.1v126.3H949.2V105z"/>
	</g>
	<g id="q14_00000101096040384130676930000017686372179573142927_">
		<ellipse id="ellipse5100" class="st3" cx="793.6" cy="81.1" rx="9.2" ry="0.3"/>
		<circle id="circle5102" class="st0" cx="793.3" cy="54.7" r="26.1"/>
		<path id="path5104" class="st16" d="M740.8,16.2H849v126.3H740.8V16.2L740.8,16.2z"/>
		<g id="g5188">
			<path id="path5106" class="st21" d="M787.5,70v8.3 M798.3,70.3v8.3"/>
			<path id="path5108" class="st22" d="M788.2,78.3h-1.3c0,0-0.3,1.6-1,1.9c-1,0-1.3-0.3-1.6-1l-0.6-1.3c-0.6,0-0.6,1-0.3,1.6
				s1,1.6,1.9,1.6s1.6-1,1.6-1v1h1L788.2,78.3L788.2,78.3z M797.7,78.3h1.3c0,0,0.3,1.6,1,1.9c0.6,0.3,1.3-0.3,1.3-1l0.6-1.3
				c0.6,0,0.6,1,0.3,1.6s-1,1.6-1.9,1.6s-1.6-1-1.6-1v1h-1L797.7,78.3L797.7,78.3z"/>
			<path id="path5110" class="st23" d="M799.3,53.5v17.2h-12.4v-14"/>
			<g id="g5118">
				<path id="path5112" class="st23" d="M799.3,54.1L799,70.6h-12.4V57.3"/>
				<path id="path5114" class="st10" d="M799.3,65.9v1.9l-12.4,0.3l-0.3-1.9L799.3,65.9z"/>
				<path id="path5116" class="st24" d="M792.9,63.3c-0.6-0.3-1.3,0.6-1,1c0.3,0.3,0,0.6,0.6,0.6s1-0.3,1-0.6L792.9,63.3z
					 M792.9,60.5c-0.6-0.3-1.3,0.6-1,1c0,0.3,0,0.6,0.6,0.6l1-0.6L792.9,60.5z"/>
			</g>
			<path id="path5120" class="st21" d="M798.7,55c0,0,1.3,9.2,4.5,8.6c2.9-0.6,0.3-7,0.3-10.8"/>
			<path id="path5122" class="st25" d="M786.6,56.6c0,0-4.5,4.8-3.5,7.6c1,3.5,19.4-7,19.4-11.1"/>
			<path id="path5124" class="st21" d="M787.5,70v8.3 M798.3,70.3v8.3"/>
			<path id="path5126" class="st25" d="M798.7,55c0,0,1.3,9.2,4.5,8.6c2.9-0.6,0.3-7,0.3-10.8"/>
			<path id="path5128" class="st25" d="M782.8,64.3c1,3.5,19.4-7,19.4-11.1"/>
			<path id="path5130" class="st26" d="M787.5,70v8.3 M798.3,70.3v8.3"/>
			<path id="path5132" class="st27" d="M804.1,53.1l-1.6-0.3v-1.9l0.3,1c0,0,0-1.6,0.3-1.3l0.3,1.3c0,0,0.3-1,0.6-0.6L804.1,53.1
				L804.1,53.1z"/>
			<path id="path5134" class="st27" d="M801.8,53.1l1.6-0.3v-1.9l-0.3,1c0,0,0-1.6-0.3-1.3l-0.3,1.3c0,0-0.3-1-0.6-0.6L801.8,53.1
				L801.8,53.1z"/>
			<g id="g5140">
				<path id="path5136" class="st23" d="M783.7,42.3c0,0,0.6-12.4,5.7-15.3c5.1-3.2,7.3-3.5,10.5-3.5s8,2.9,9.5,5.4
					s1.9,9.5,1.6,10.2c-0.3,0.3-2.2-8.3-5.7-8.6c-3.5,0-4.1,3.2-4.1,4.1l-0.6,6.4L783.7,42.3z"/>
				<path id="path5138" class="st10" d="M783.7,42.3c0,0,1-8,1.9-10.2l3.2,9.2c0,0,3.2-10.2,3.8-10.5c0.3-0.6,3.8,10.2,3.8,10.2
					l5.7-9.2l-0.6,9.5L783.7,42.3z M811.7,38.8c-1.9-0.3-2.9,1.6-2.5,1.9c0.3,0.6,0.3,1.9,1.6,1.9s2.2-0.6,2.2-1.9
					C813,39.5,813,39.1,811.7,38.8z"/>
			</g>
			<g id="g5186">
				<path id="path5142" class="st27" d="M783.7,42.3c0,3.5-1.3,12.1,4.1,15c4.5,1.6,8.6,1.3,11.5-2.2c2.9-3.8,2.5-10.8,2.2-14.3
					c0-0.6-6.4,0-8.9,0.3S784,41.7,783.7,42.3z"/>
				<path id="path5144" class="st28" d="M791.7,48.4c0,0,0,1,0.6,1s0.6-1,0.6-1"/>
				<g id="g5150">
					<path id="path5146" class="st27" d="M799.9,50.3c0,0,2.2-3.8,4.8-4.8l3.8-1.6c0,0-1,2.9-4.1,4.8
						C801.5,50.6,799.9,50.3,799.9,50.3z"/>
					<path id="path5148" class="st29" d="M800.9,49l3.5-1.9"/>
				</g>
				<g id="g5156">
					<path id="path5152" class="st27" d="M777,45.2c0,0,2.2,0,4.5,1.9l3.5,3.5c0,0-3.5-0.3-5.4-2.2C777.3,46.5,777,45.2,777,45.2z"
						/>
					<path id="path5154" class="st29" d="M784,49.3l-3.8-1.6"/>
				</g>
				<path id="path5158" class="st10" d="M787.2,48.7c1,0,1.6-0.6,1.6-1.6s-0.6-1.6-1.6-1.6s-1.6,0.6-1.6,1.6
					C785.6,47.7,786.3,48.7,787.2,48.7z M797.7,48.7c1,0,1.6-0.6,1.6-1.6s-0.6-1.6-1.6-1.6s-1.6,0.6-1.6,1.6
					C796.1,47.7,796.8,48.7,797.7,48.7z"/>
				<path id="path5160" class="st30" d="M787.2,47.4l0.3-0.3l-0.3-0.3l-0.3,0.3L787.2,47.4z M797.7,47.4l0.3-0.3l-0.3-0.3l-0.3,0.3
					L797.7,47.4z"/>
				<g id="g5168">
					<path id="path5162" class="st10" d="M787.2,48.7c1,0,1.6-0.6,1.6-1.6s-0.6-1.6-1.6-1.6s-1.6,0.6-1.6,1.6
						C785.6,47.7,786.3,48.7,787.2,48.7z"/>
					<path id="path5164" class="st30" d="M787.2,48c0.6,0,1.3-0.6,1.3-1.3c0-0.6-0.6-1.3-1.3-1.3c-0.6,0-1.3,0.6-1.3,1.3
						C785.9,47.7,786.6,48,787.2,48z"/>
					<path id="path5166" class="st10" d="M786.6,47.1l0.3-0.3l-0.3-0.3l-0.3,0.3L786.6,47.1z M787.2,47.7
						C787.5,47.7,787.5,47.4,787.2,47.7c0.3-0.3,0-0.3,0-0.3V47.7C787.2,47.4,787.2,47.7,787.2,47.7z"/>
				</g>
				<g id="g5176">
					<path id="path5170" class="st10" d="M797.7,48.7c1,0,1.6-0.6,1.6-1.6s-0.6-1.6-1.6-1.6s-1.6,0.6-1.6,1.6
						C796.1,47.7,796.8,48.7,797.7,48.7z"/>
					<path id="path5172" class="st30" d="M797.7,48c0.6,0,1.3-0.6,1.3-1.3c0-0.6-0.6-1.3-1.3-1.3c-0.6,0-1.3,0.6-1.3,1.3
						C796.4,47.7,797.1,48,797.7,48z"/>
					<path id="path5174" class="st10" d="M798,47.1l0.3-0.3l-0.3-0.3l-0.3,0.3L798,47.1z M797.1,47.4
						C797.4,47.4,797.4,47.4,797.1,47.4c0.3-0.3,0-0.3,0-0.3V47.4C796.8,47.4,797.1,47.4,797.1,47.4z"/>
				</g>
				<path id="path5178" class="st27" d="M787.2,50.9c1,0,1.6-0.6,1.6-1.6s-0.6-1.6-1.6-1.6s-1.6,0.6-1.6,1.6S786.3,50.9,787.2,50.9z
					 M797.7,50.9c1,0,1.6-0.6,1.6-1.6s-0.6-1.6-1.6-1.6s-1.6,0.6-1.6,1.6S796.8,50.9,797.7,50.9z"/>
				<path id="path5180" class="st31" d="M799,49.3c-1-0.3-1.6,1-1.3,1.3c0,0.3,0.3,1,1,1s1.3-0.3,1.3-1L799,49.3L799,49.3z
					 M786.6,50c0.3,0,1,0.3,0.6,1.3c-0.3,1.3-0.6,1-1,1l-0.6-1C785.6,50.6,786.3,49.6,786.6,50z"/>
				<path id="path5182" class="st9" d="M788.8,50.9c0,0,1,1.6,3.2,1.6c3.2,0,4.5-2.9,4.5-2.9"/>
				<path id="path5184" class="st28" d="M797.1,44.2c0,0,0.6-0.6,1.3,0.3 M787.5,44.5c0,0-0.6-0.6-1.3,0.3"/>
			</g>
		</g>
	</g>
	<g id="q9_00000098923952402537430090000000781574787885441177_">
		<ellipse id="ellipse5191" class="st3" cx="1282" cy="169.3" rx="9.2" ry="0.3"/>
		<circle id="circle5193" class="st0" cx="1281.7" cy="142.5" r="26.1"/>
		<g id="g5275">
			<g id="g5201">
				<path id="path5195" class="st4" d="M1287.1,143.8c0,0,7.6,3.2,7,16.2"/>
				<path id="path5197" class="st5" d="M1287.1,143.8c0,0,7.6,3.2,7,16.2"/>
				<path id="path5199" class="st6" d="M1293.4,160h1.6l0.3,1.9l-0.6-1l-0.3,1.3l-0.3-1.3c0,0,0,1-0.6,0.6
					C1292.8,161.3,1293.4,160,1293.4,160L1293.4,160z"/>
			</g>
			<g id="g5209">
				<path id="path5203" class="st4" d="M1270.8,160c0,0-0.6-11.8,6-14.3"/>
				<path id="path5205" class="st5" d="M1270.8,160c0,0-0.6-11.8,6-14.3"/>
				<path id="path5207" class="st6" d="M1271.5,160h-1.6l-0.3,1.9l0.6-1l0.3,1.3l0.3-1.3c0,0,0,1,0.6,0.6
					C1272.1,161.6,1271.5,160,1271.5,160L1271.5,160z"/>
			</g>
			<g id="g5217">
				<path id="path5211" class="st4" d="M1276.9,158.1v8"/>
				<path id="path5213" class="st5" d="M1276.9,158.1v8"/>
				<path id="path5215" class="st7" d="M1277.5,166.1h-1.3c0,0-0.3,1.6-1,1.9c-0.6,0-1.3-0.3-1.3-1l-0.6-1.3c-0.6,0-0.6,1-0.3,1.6
					c0.3,0.6,1,1.6,1.9,1.6c1,0,1.6-1,1.6-1v1h1L1277.5,166.1L1277.5,166.1z"/>
			</g>
			<g id="g5225">
				<path id="path5219" class="st4" d="M1287.1,158.5v8"/>
				<path id="path5221" class="st5" d="M1287.1,158.5v8"/>
				<path id="path5223" class="st7" d="M1286.7,166.1h1.3c0,0,0.3,1.6,1,1.9c0.6,0.3,1.3-0.3,1.3-1l0.6-1.3c0.6,0,0.6,1,0.3,1.6
					s-1,1.6-1.9,1.6c-1,0-1.6-1-1.6-1v1h-1L1286.7,166.1L1286.7,166.1z"/>
			</g>
			<g id="g5233">
				<path id="path5227" d="M1288.3,141.9l-0.3,16.5h-11.8V145"/>
				<path id="path5229" class="st7" d="M1288,154v1.6l-11.8,0.3l-0.3-1.6L1288,154z"/>
				<path id="path5231" d="M1282,151.5c-0.6-0.3-1,0.6-1,1c0,0.3,0,0.6,0.6,0.6l1-0.6L1282,151.5z M1282,148.3c-0.6-0.3-1,0.6-1,1
					s0,0.6,0.6,0.6l1-0.6L1282,148.3z"/>
			</g>
			<g id="g5241">
				<path id="path5235" d="M1300.4,127.9c-1.9-0.3-2.5,1.6-2.5,1.9c0.3,0.3,0.3,1.6,1.6,1.6c1,0,2.2-0.6,2.2-1.6
					C1301.7,128.9,1301.7,128.2,1300.4,127.9L1300.4,127.9z"/>
				<path id="path5237" d="M1272.7,131.4c0,0,0.6-11.8,5.7-14.6s7.3-3.5,10.2-3.5c2.9,0,8,2.9,9.5,5.1c1.6,2.2,1.9,9.2,1.6,9.5
					s-2.2-8-5.7-8.3c-3.5,0-3.8,3.2-4.1,4.1l-0.6,6L1272.7,131.4L1272.7,131.4z"/>
				<path id="path5239" d="M1272.7,131.4c0,0,0.3-5.7,1.9-9.9l3.2,8.9c0,0,3.2-9.5,3.8-10.2c0.3-0.6,3.8,9.9,3.8,9.9l5.7-8.9
					l-0.6,9.2L1272.7,131.4z"/>
			</g>
			<path id="path5243" class="st6" d="M1272.7,131.4c0,3.5-1.3,11.8,4.1,14.6c4.5,1.6,8.6,1,11.1-1.9c2.9-3.5,2.5-10.5,2.2-13.7
				c0-0.6-6.4,0-8.9,0.3C1278.8,131.1,1273.1,130.8,1272.7,131.4z"/>
			<g id="g5249">
				<path id="path5245" class="st6" d="M1290.2,138.1c0,0,0.3-4.1,1.9-6.4c1.6-2.2,2.5-2.9,2.9-2.9c0,0,0.3,2.9-1.6,6
					C1291.5,137.9,1290.2,138.1,1290.2,138.1z"/>
				<path id="path5247" class="st8" d="M1290.6,136.8l1.9-3.5"/>
			</g>
			<g id="g5255">
				<path id="path5251" class="st6" d="M1267.7,132c0,0,1.9,0.6,3.5,3.5s1.6,2.5,1.9,4.5c0,0-3.2-1.6-4.5-3.8
					C1267.7,133.6,1267.7,132,1267.7,132L1267.7,132z"/>
				<path id="path5253" class="st8" d="M1272.4,138.4l-2.9-2.9"/>
			</g>
			<g id="g5273">
				<path id="path5257" class="st9" d="M1286.7,132.7l1,0.6 M1275.6,133l1-0.3 M1280.4,141l1,0.6c0.6,0,0.6-1,0.6-1"/>
				<circle id="circle5259" class="st10" cx="1276.2" cy="135.9" r="1.6"/>
				<circle id="circle5261" class="st10" cx="1286.4" cy="135.9" r="1.6"/>
				<circle id="circle5263" class="st11" cx="1276.2" cy="135.5" r="0.3"/>
				<circle id="circle5265" class="st11" cx="1286.4" cy="135.5" r="0.3"/>
				<path id="path5267" class="st6" d="M1276.2,140.3c1,0,1.6-0.6,1.6-1.6s-0.6-1.6-1.6-1.6s-1.6,0.6-1.6,1.6
					C1274.7,139.7,1275.6,140.3,1276.2,140.3z M1286.4,140.3c1,0,1.6-0.6,1.6-1.6s-0.6-1.6-1.6-1.6s-1.6,0.6-1.6,1.6
					C1285.2,139.7,1285.8,140.3,1286.4,140.3z"/>
				<path id="path5269" class="st12" d="M1287.7,138.4c-1-0.3-1.6,1-1.3,1.3c0,0.3,0.3,1,1,1c0.6,0,1.3-0.3,1.3-1
					C1288.3,138.7,1288.3,138.4,1287.7,138.4z M1275.6,138.7c0.3,0,1,0,0.6,1.3c-0.3,1-0.6,1-1,1l-0.6-1L1275.6,138.7z"/>
				<path id="path5271" class="st9" d="M1280.7,137.1c0,0,0,1,0.6,1l0.6-1"/>
			</g>
		</g>
		<path id="path5277" class="st16" d="M1229.2,104h108.1v126.3h-108.1V104z"/>
	</g>
	<g id="q15_00000101825722729045403780000008724669133786189235_">
		<ellipse id="ellipse5280" class="st3" cx="1519.3" cy="84.6" rx="9.2" ry="0.3"/>
		<circle id="circle5282" class="st0" cx="1519" cy="57.9" r="26.1"/>
		<g id="g5364">
			<g id="g5290">
				<path id="path5284" class="st4" d="M1524.7,58.9c0,0,7.6,3.2,7,16.2"/>
				<path id="path5286" class="st5" d="M1524.4,58.9c0,0,7.6,3.2,7,16.2"/>
				<path id="path5288" class="st6" d="M1530.8,75.1h1.6l0.3,1.9l-0.6-1l-0.3,1.3l-0.3-1.3c0,0,0,1-0.6,0.6
					C1530.1,76.4,1530.8,75.1,1530.8,75.1L1530.8,75.1z"/>
			</g>
			<g id="g5298">
				<path id="path5292" class="st4" d="M1508.2,75.4c0,0-0.6-11.8,6-14.3"/>
				<path id="path5294" class="st5" d="M1508.2,75.4c0,0-0.6-11.8,6-14.3"/>
				<path id="path5296" class="st6" d="M1509.1,75.4h-1.6l-0.3,1.9l0.6-1l0.3,1.3l0.3-1.3c0,0,0,1,0.6,0.6L1509.1,75.4L1509.1,75.4z
					"/>
			</g>
			<g id="g5306">
				<path id="path5300" class="st4" d="M1514.6,73.5v7.6"/>
				<path id="path5302" class="st5" d="M1514.2,73.5v7.6"/>
				<path id="path5304" class="st7" d="M1514.9,81.1h-1.3c0,0-0.3,1.6-1,1.9c-0.6,0-1.3-0.3-1.3-1l-0.6-1.3c-0.6,0-0.6,1-0.3,1.6
					s1,1.6,1.9,1.6c1,0,1.6-1,1.6-1v1h1C1514.9,84,1514.9,81.1,1514.9,81.1z"/>
			</g>
			<g id="g5314">
				<path id="path5308" class="st4" d="M1524.4,73.8v7.6"/>
				<path id="path5310" class="st5" d="M1524.4,73.8v7.6"/>
				<path id="path5312" class="st7" d="M1524.1,81.5h1.3c0,0,0.3,1.6,1,1.9c0.6,0.3,1.3-0.3,1.3-1l0.6-1.3c0.6,0,0.6,1,0.3,1.6
					c-0.3,0.6-1,1.6-1.9,1.6c-1,0-1.6-1-1.6-1v1h-1C1524.1,84.3,1524.1,81.5,1524.1,81.5z"/>
			</g>
			<g id="g5322">
				<path id="path5316" d="M1525.7,57.3l-0.3,16.5h-11.8V60.5"/>
				<path id="path5318" class="st7" d="M1525.4,69v2l-11.8,0.3l-0.3-1.6L1525.4,69z"/>
				<path id="path5320" d="M1519.3,66.5c-0.6-0.3-1,0.6-1,1s0,0.6,0.6,0.6l1-0.6C1520,66.8,1519.6,66.8,1519.3,66.5z M1519.3,63.6
					c-0.6-0.3-1,0.6-1,1c0,0.3,0,0.6,0.6,0.6l1-0.6C1520,64.3,1520,63.6,1519.3,63.6z"/>
			</g>
			<g id="g5330">
				<path id="path5324" d="M1537.8,43.3c-1.9-0.3-2.5,1.6-2.5,1.9c0.3,0.3,0.3,1.6,1.6,1.6c1.3,0,2.2-0.6,2.2-1.6
					S1539.1,43.6,1537.8,43.3L1537.8,43.3z"/>
				<path id="path5326" d="M1510.1,46.5c0,0,0.6-11.8,5.7-14.6c4.8-2.9,7.3-3.5,10.2-3.5s8,2.9,9.5,5.1c1.6,2.5,1.9,9.2,1.6,9.5
					s-2.2-8-5.7-8.3c-3.5,0-3.8,3.2-4.1,4.1l-0.6,6C1526.6,44.9,1510.1,46.5,1510.1,46.5z"/>
				<path id="path5328" d="M1510.1,46.5c0,0,0.3-5.7,1.9-9.9l3.2,8.9c0,0,3.2-9.5,3.8-10.2c0.3-0.6,3.8,9.9,3.8,9.9l5.7-8.9
					l-0.6,9.2C1527.9,45.5,1510.1,46.5,1510.1,46.5z"/>
			</g>
			<path id="path5332" class="st6" d="M1510.1,46.5c0,3.5-1.3,11.8,4.1,14.6c4.5,1.6,8.6,1,11.1-1.9c2.9-3.5,2.5-10.5,2.2-13.7
				c0-0.6-6.4,0-8.9,0.3S1510.4,45.8,1510.1,46.5z"/>
			<g id="g5338">
				<path id="path5334" class="st6" d="M1527.6,53.5c0,0,0.3-4.1,1.9-6.4c1.6-2.2,2.5-2.9,2.9-2.9c0,0,0.3,2.9-1.6,6
					C1528.9,53.1,1527.6,53.5,1527.6,53.5z"/>
				<path id="path5336" class="st8" d="M1527.9,52.2l1.9-3.5"/>
			</g>
			<g id="g5344">
				<path id="path5340" class="st6" d="M1505,47.1c0,0,1.9,0.6,3.5,3.5s1.6,2.5,1.9,4.5c0,0-3.2-1.6-4.5-3.8
					C1505,48.7,1505,47.1,1505,47.1L1505,47.1z"/>
				<path id="path5342" class="st8" d="M1509.8,53.8l-2.9-2.9"/>
			</g>
			<g id="g5362">
				<path id="path5346" class="st9" d="M1524.1,48l1,0.6 M1513,48.4l1-0.3 M1517.7,56l1,0.6c0.6,0,0.6-1,0.6-1"/>
				<circle id="circle5348" class="st10" cx="1513.6" cy="50.9" r="1.6"/>
				<circle id="circle5350" class="st10" cx="1523.8" cy="50.9" r="1.6"/>
				<circle id="circle5352" class="st11" cx="1513.6" cy="50.9" r="0.3"/>
				<circle id="circle5354" class="st11" cx="1523.8" cy="50.9" r="0.3"/>
				<path id="path5356" class="st6" d="M1513.6,55.7c1,0,1.6-0.6,1.6-1.6s-0.6-1.6-1.6-1.6s-1.6,0.6-1.6,1.6S1513,55.7,1513.6,55.7z
					 M1523.8,55.7c1,0,1.6-0.6,1.6-1.6s-0.6-1.6-1.6-1.6s-1.6,0.6-1.6,1.6S1523.1,55.7,1523.8,55.7z"/>
				<path id="path5358" class="st12" d="M1525.1,53.8c-1-0.3-1.6,1-1.3,1.3c0,0.3,0.3,1,1,1c0.6,0,1.3-0.3,1.3-1
					C1526,54.1,1525.7,53.8,1525.1,53.8z M1513,54.1c0.3,0,1,0,0.6,1.3c-0.3,1-0.6,1-1,1l-0.6-1C1512,54.7,1512.6,54.1,1513,54.1z"
					/>
				<path id="path5360" class="st9" d="M1518.1,52.2c0,0,0,1,0.6,1l0.6-1"/>
			</g>
		</g>
		<path id="path5366" class="st16" d="M1466.5,19.4h108.2v126.3h-108.2V19.4z"/>
	</g>
	<g id="q16">
		<ellipse id="ellipse5369" class="st3" cx="1524.4" cy="346.5" rx="9.2" ry="0.3"/>
		<circle id="circle5371" class="st0" cx="1524.1" cy="320.1" r="26.1"/>
		<g id="g5453">
			<g id="g5379">
				<path id="path5373" class="st4" d="M1529.8,321c0,0,7.6,3.2,7,16.2"/>
				<path id="path5375" class="st5" d="M1529.8,321c0,0,7.6,3.2,7,16.2"/>
				<path id="path5377" class="st6" d="M1536.2,337.3h1.6l0.3,1.9l-0.6-1l-0.3,1.3l-0.3-1.3c0,0,0,1-0.6,0.6
					C1535.6,338.5,1536.2,337.3,1536.2,337.3L1536.2,337.3z"/>
			</g>
			<g id="g5387">
				<path id="path5381" class="st4" d="M1513.3,337.6c0,0-0.6-11.8,6-14.3"/>
				<path id="path5383" class="st5" d="M1513.3,337.6c0,0-0.6-11.8,6-14.3"/>
				<path id="path5385" class="st6" d="M1514.2,337.3h-1.6l-0.3,1.9l0.6-1l0.3,1.3l0.3-1.3c0,0,0,1,0.6,0.6
					C1514.9,338.5,1514.2,337.3,1514.2,337.3L1514.2,337.3z"/>
			</g>
			<g id="g5395">
				<path id="path5389" class="st4" d="M1519.6,335.4v8"/>
				<path id="path5391" class="st5" d="M1519.6,335.4v8"/>
				<path id="path5393" class="st7" d="M1520,343.3h-1.3c0,0-0.3,1.6-1,1.9c-0.6,0-1.3-0.3-1.3-1l-0.6-1.3c-0.6,0-0.6,1-0.3,1.6
					c0.3,0.6,1,1.6,1.9,1.6s1.6-1,1.6-1v1h1L1520,343.3L1520,343.3z"/>
			</g>
			<g id="g5403">
				<path id="path5397" class="st4" d="M1529.8,335.7v8"/>
				<path id="path5399" class="st5" d="M1529.5,335.7v8"/>
				<path id="path5401" class="st7" d="M1529.2,343.6h1.3c0,0,0.3,1.6,1,1.9c0.6,0.3,1.3-0.3,1.3-1l0.6-1.3c0.6,0,0.6,1,0.3,1.6
					s-1,1.6-1.9,1.6c-1,0-1.6-1-1.6-1v1h-1L1529.2,343.6L1529.2,343.6z"/>
			</g>
			<g id="g5411">
				<path id="path5405" d="M1530.8,319.4l-0.3,16.5h-11.8v-13.4"/>
				<path id="path5407" class="st7" d="M1530.5,331.2v1.9l-11.8,0.3v-1.9L1530.5,331.2z"/>
				<path id="path5409" d="M1524.4,328.7c-0.6-0.3-1,0.6-1,1c0,0.3,0,0.6,0.6,0.6l1-0.6C1525.1,329,1525.1,328.7,1524.4,328.7z
					 M1524.4,325.8c-0.6-0.3-1,0.6-1,1c0,0.3,0,0.6,0.6,0.6s1-0.3,1-0.6C1525.1,326.1,1525.1,325.8,1524.4,325.8z"/>
			</g>
			<g id="g5419">
				<path id="path5413" d="M1542.9,305.1c-1.9-0.3-2.5,1.6-2.5,1.9c0.3,0.3,0.3,1.6,1.6,1.6c1,0,2.2-0.6,2.2-1.6
					S1544.1,305.4,1542.9,305.1L1542.9,305.1z"/>
				<path id="path5415" d="M1515.2,308.6c0,0,0.6-11.8,5.7-14.6c4.8-2.9,7.3-3.5,10.2-3.5c3.7,0.5,7.1,2.3,9.5,5.1
					c1.6,2.5,1.9,9.2,1.6,9.5s-2.2-8-5.7-8.3c-3.5,0-3.8,3.2-4.1,4.1l-0.6,6L1515.2,308.6L1515.2,308.6z"/>
				<path id="path5417" d="M1515.2,308.6c0,0,0.3-5.7,1.9-9.9l3.2,8.9c0,0,3.2-9.5,3.8-10.2c0.3-0.6,3.8,9.9,3.8,9.9l5.7-8.9
					l-0.6,9.2L1515.2,308.6L1515.2,308.6z"/>
			</g>
			<path id="path5421" class="st6" d="M1515.2,308.6c0,3.5-1.3,11.8,4.1,14.6c4.5,1.6,8.6,1,11.1-1.9c2.9-3.5,2.5-10.5,2.2-13.7
				c0-0.6-6.4,0-8.9,0.3C1521.6,307.7,1515.5,308,1515.2,308.6L1515.2,308.6z"/>
			<g id="g5427">
				<path id="path5423" class="st6" d="M1532.7,315.6c0,0,0.3-4.1,1.9-6.4c1.6-2.2,2.5-2.9,2.9-2.9c0,0,0.3,2.9-1.6,6
					C1534.3,315,1532.7,315.6,1532.7,315.6z"/>
				<path id="path5425" class="st8" d="M1533,314l2.2-3.2"/>
			</g>
			<g id="g5433">
				<path id="path5429" class="st6" d="M1510.1,309.3c0,0,1.9,0.6,3.5,3.5s1.6,2.5,1.9,4.5c0,0-3.2-1.6-4.5-3.8
					C1510.1,310.9,1510.1,309.3,1510.1,309.3L1510.1,309.3z"/>
				<path id="path5431" class="st8" d="M1514.9,315.6l-2.9-2.5"/>
			</g>
			<g id="g5451">
				<path id="path5435" class="st9" d="M1529.2,309.9l1,0.6 M1518.1,310.5l1-0.3 M1522.8,318.2l1,0.6c0.6,0,0.6-1,0.6-1"/>
				<circle id="circle5437" class="st10" cx="1518.7" cy="313.1" r="1.6"/>
				<circle id="circle5439" class="st10" cx="1528.9" cy="313.1" r="1.6"/>
				<circle id="circle5441" class="st11" cx="1518.7" cy="313.1" r="0.3"/>
				<circle id="circle5443" class="st11" cx="1529.2" cy="313.1" r="0.3"/>
				<path id="path5445" class="st6" d="M1518.7,317.9c1,0,1.6-0.6,1.6-1.6s-0.6-1.6-1.6-1.6s-1.6,0.6-1.6,1.6
					C1517.4,316.9,1518.1,317.9,1518.7,317.9z M1529.2,317.9c1,0,1.6-0.6,1.6-1.6s-0.6-1.6-1.6-1.6s-1.6,0.6-1.6,1.6
					C1527.6,316.9,1528.2,317.9,1529.2,317.9z"/>
				<path id="path5447" class="st12" d="M1530.5,315.6c-1-0.3-1.6,1-1.3,1.3c0,0.3,0.3,1,1,1c0.6,0,1.3-0.3,1.3-1
					S1531.1,315.9,1530.5,315.6z M1518.1,316.3c0.3,0,1,0,0.6,1.3c-0.3,1-0.6,1-1,1l-0.6-1C1517.1,316.9,1517.7,316.3,1518.1,316.3z
					"/>
				<path id="path5449" class="st9" d="M1523.1,314.4c0,0,0,1,0.6,1s0.6-1,0.6-1"/>
			</g>
		</g>
		<path id="path5455" class="st16" d="M1471.6,281.6h108.2v126.3h-108.2V281.6z"/>
	</g>
	<g id="q5_00000125598674891737211000000007588363061320949127_">
		<ellipse id="ellipse5458" class="st3" cx="1151.2" cy="437.8" rx="9.2" ry="0.3"/>
		<circle id="circle5460" class="st0" cx="1150.9" cy="411.1" r="26.1"/>
		<path id="path5462" class="st16" d="M1098.4,372.6h108.2v126.3h-108.2V372.6L1098.4,372.6z"/>
		<g id="g5552">
			<g id="g5470">
				<path id="path5464" class="st4" d="M1156.9,412.4c0,0,7.6,3.2,7,16.2"/>
				<path id="path5466" class="st5" d="M1156.9,412c0,0,7.6,3.2,7,16.2"/>
				<path id="path5468" class="st6" d="M1163.3,428.3h1.6l0.3,1.9l-0.6-1l-0.3,1.3l-0.3-1.3c0,0,0,1-0.6,0.6
					C1162.7,430.2,1163.3,428.3,1163.3,428.3L1163.3,428.3z"/>
			</g>
			<g id="g5478">
				<path id="path5472" class="st4" d="M1132.1,414.6c0,0,7-1.6,14-0.3"/>
				<path id="path5474" class="st5" d="M1132.1,414.6c0,0,7-1.6,14-0.3"/>
				<path id="path5476" class="st6" d="M1132.4,415.2l-0.3-1.6l-1.9,0.3l1,0.3l-1.3,0.6c0,0.3,1.3,0,1.3,0l-0.6,0.6
					C1130.8,416.2,1132.4,415.2,1132.4,415.2L1132.4,415.2z"/>
			</g>
			<g id="g5486">
				<path id="path5480" class="st4" d="M1146.7,426.7v8"/>
				<path id="path5482" class="st5" d="M1146.7,426.7v8"/>
				<path id="path5484" class="st7" d="M1147.4,434.6h-1.3c0,0-0.3,1.6-1,1.9c-0.6,0-1.3-0.3-1.3-1l-0.6-1.3c-0.6,0-0.6,1-0.3,1.6
					s1,1.6,1.9,1.6s1.6-1,1.6-1v1h1L1147.4,434.6L1147.4,434.6z"/>
			</g>
			<g id="g5494">
				<path id="path5488" class="st4" d="M1156.9,427v8"/>
				<path id="path5490" class="st5" d="M1156.9,427v7.6"/>
				<path id="path5492" class="st7" d="M1156.3,434.6h1.3c0,0,0.3,1.6,1,1.9c0.6,0.3,1.3-0.3,1.3-1l0.6-1.3c0.6,0,0.6,1,0.3,1.6
					s-1,1.6-1.9,1.6s-1.6-1-1.6-1v1h-1L1156.3,434.6L1156.3,434.6z"/>
			</g>
			<g id="g5502">
				<path id="path5496" d="M1158.2,410.4l-0.3,16.5h-11.8v-13.4"/>
				<path id="path5498" class="st7" d="M1157.9,422.5v1.6l-12.1,0.3v-1.6L1157.9,422.5z"/>
				<path id="path5500" d="M1151.8,419.7c-0.6-0.3-1,0.6-1,1c0,0.3,0,0.6,0.6,0.6l1-0.6L1151.8,419.7z M1151.8,416.8
					c-0.6-0.3-1,0.6-1,1c0,0.3,0,0.6,0.6,0.6l1-0.6L1151.8,416.8z"/>
			</g>
			<g id="g5508">
				<path id="path5504" d="M1170.3,396.4c-1.9-0.3-2.5,1.6-2.5,1.9s0.3,1.6,1.6,1.6c1,0,2.2-0.6,2.2-1.6S1171.2,396.8,1170.3,396.4
					L1170.3,396.4z M1142.3,399.6c0,0,0.6-11.8,5.7-14.6c5.1-2.9,7.3-3.5,10.2-3.5c3.7,0.5,7.1,2.3,9.5,5.1c1.6,2.5,1.9,9.2,1.6,9.5
					s-2.2-8-5.7-8.3c-3.5,0-3.8,3.2-4.1,4.1l-0.6,6L1142.3,399.6L1142.3,399.6z"/>
				<path id="path5506" d="M1142.3,399.6c0,0,0.3-5.7,1.9-9.9l3.2,8.9c0,0,3.2-9.5,3.8-10.2c0.3-0.6,3.8,9.9,3.8,9.9l5.7-8.9
					l-0.6,9.2L1142.3,399.6L1142.3,399.6z"/>
			</g>
			<path id="path5510" class="st6" d="M1142.6,399.6c0,3.5-1.3,11.8,4.1,14.6c4.5,1.6,8.6,1,11.1-1.9c2.9-3.5,2.5-10.5,2.2-13.7
				c0-0.6-6.4,0-8.9,0.3C1149,398.7,1142.9,399.3,1142.6,399.6L1142.6,399.6z"/>
			<g id="g5516">
				<path id="path5512" class="st6" d="M1160.1,406.6c0,0,0.3-4.1,1.9-6.4c1.6-2.2,2.5-2.9,2.9-2.9c0,0,0.3,2.9-1.6,6
					C1161.4,406.3,1160.1,406.6,1160.1,406.6z"/>
				<path id="path5514" class="st8" d="M1160.1,405.4l2.2-3.5"/>
			</g>
			<g id="g5522">
				<path id="path5518" class="st6" d="M1137.5,400.6c0,0,1.9,0.6,3.5,3.5s1.6,2.5,1.9,4.5c0,0-3.2-1.6-4.5-3.8
					C1137.2,401.9,1137.5,400.6,1137.5,400.6L1137.5,400.6z"/>
				<path id="path5520" class="st8" d="M1142.3,406.9l-2.9-2.9"/>
			</g>
			<g id="g5540">
				<path id="path5524" class="st9" d="M1156.3,401.2l1,0.6 M1145.2,401.5l1-0.3 M1149.9,409.2l1,0.6c0.6,0,0.6-1,0.6-1"/>
				<circle id="circle5526" class="st10" cx="1145.8" cy="404.1" r="1.6"/>
				<circle id="circle5528" class="st10" cx="1156.3" cy="404.1" r="1.6"/>
				<circle id="circle5530" class="st11" cx="1145.8" cy="404.1" r="0.3"/>
				<circle id="circle5532" class="st11" cx="1156.3" cy="404.1" r="0.3"/>
				<path id="path5534" class="st6" d="M1146.1,408.9c1,0,1.6-0.6,1.6-1.6s-0.6-1.6-1.6-1.6s-1.6,0.6-1.6,1.6
					S1145.2,408.9,1146.1,408.9z M1156.3,408.9c1,0,1.6-0.6,1.6-1.6s-0.6-1.6-1.6-1.6s-1.6,0.6-1.6,1.6S1155.3,408.9,1156.3,408.9z"
					/>
				<path id="path5536" class="st12" d="M1157.6,406.9c-1-0.3-1.6,1-1.3,1.3c0,0.3,0.3,1,1,1c0.6,0,1.3-0.3,1.3-1
					C1158.2,407.3,1158.2,406.9,1157.6,406.9z M1145.5,407.3c0.3,0,1,0,0.6,1.3c-0.3,1-0.6,1-1,1l-0.6-1
					C1144.2,407.9,1144.8,407.3,1145.5,407.3L1145.5,407.3z"/>
				<path id="path5538" class="st9" d="M1150.2,405.7c0,0,0,1,0.6,1s0.6-1,0.6-1"/>
			</g>
			<g id="g5550">
				<path id="path5542" class="st13" d="M1132.7,416.5c0,0-3.8-7-8.6-11.1"/>
				<path id="path5544" class="st13" d="M1126.4,410.8c0,0,2.2,0.3,3.8,1.6 M1128,409.5c0.3-1.9-0.6-4.1-0.6-4.1 M1129.9,406.9
					c0,0-0.3,1.9-1.9,2.5"/>
				<path id="path5546" class="st14" d="M1123.2,403.1c-1.3,0.3-1,1.6-1,1.9c0.3,0.3,0.6,1,1.3,0.6c0.6-0.3,1.3-1,1-1.6
					S1123.8,403.1,1123.2,403.1L1123.2,403.1z M1127.3,402.8c-1.3,0-1.6,1.3-1.6,1.6c0,0.3,0.3,1.3,1,1c0.6,0,1.3-0.6,1.3-1.3
					C1128.3,403.1,1128,402.8,1127.3,402.8L1127.3,402.8z M1130.5,405c-1-0.3-1.6,0.6-1.6,1c0,0.3,0,1,0.6,1s1.3-0.3,1.3-1
					C1131.2,405.4,1131.2,405,1130.5,405z M1125.4,409.2c-1.3,0-1.6,1.3-1.6,1.6s0.3,1.3,1,1c0.6,0,1.3-0.6,1.3-1.3
					C1126.4,409.8,1126.4,409.2,1125.4,409.2L1125.4,409.2z"/>
				<path id="path5548" class="st15" d="M1126.7,408.5c0,0-2.2-0.3-2.9,1.3c0,0-1-1.6-2.5-1c0,0-0.3-1.9-1.6-2.2
					c0,0,2.2,0.6,2.9-0.6c0,0,1,1.6,1.9,0.3C1124.5,406.3,1124.5,407.6,1126.7,408.5L1126.7,408.5z M1130.2,412.7
					c0,0,0.3-1.9-1.3-2.5c0,0,1.6-1,1-2.2c0,0,1.9-0.6,1.9-1.6c0,0-0.6,1.9,0.6,2.2c0,0-1.6,1-0.3,1.9
					C1132.4,410.8,1130.8,410.8,1130.2,412.7z"/>
			</g>
		</g>
	</g>
	<g id="q10">
		<ellipse id="ellipse5555" class="st3" cx="1342.1" cy="474.7" rx="9.2" ry="0.3"/>
		<circle id="circle5557" class="st0" cx="1341.8" cy="448" r="26.1"/>
		<path id="path5559" class="st16" d="M1289.3,409.8h108.2v126.3h-108.2V409.8z"/>
		<g id="g5643">
			<path id="path5561" class="st21" d="M1336.7,463.6v8.3 M1347.2,463.9v8.3"/>
			<path id="path5563" class="st22" d="M1337.3,471.9h-1.3c0,0-0.3,1.6-1,1.9c-1,0-1.3-0.3-1.6-1l-0.6-1.3c-0.6,0-0.6,1-0.3,1.6
				c0.3,0.6,1,1.6,1.9,1.6s1.6-1,1.6-1v1h1v-2.9L1337.3,471.9L1337.3,471.9z M1346.6,471.9h1.3c0,0,0.3,1.6,1,1.9
				c0.6,0.3,1.3-0.3,1.3-1l0.6-1.3c0.6,0,0.6,1,0.3,1.6c-0.3,0.6-1,1.6-1.9,1.6s-1.6-1-1.6-1v1h-1L1346.6,471.9L1346.6,471.9z"/>
			<path id="path5565" class="st23" d="M1348.2,446.7v17.2h-12.4v-14"/>
			<g id="g5573">
				<path id="path5567" class="st23" d="M1348.5,447.4l-0.3,16.5h-12.4v-13.4"/>
				<path id="path5569" class="st10" d="M1348.2,459.4v1.9l-12.4,0.3v-1.9L1348.2,459.4z"/>
				<path id="path5571" class="st24" d="M1341.8,456.9c-0.6-0.3-1.3,0.6-1,1c0,0.3,0,0.6,0.6,0.6l1-0.6
					C1342.4,457.2,1342.4,456.9,1341.8,456.9z M1341.8,454c-0.6-0.3-1.3,0.6-1,1c0,0.3,0,0.6,0.6,0.6l1-0.6
					C1342.4,454.4,1342.4,454,1341.8,454z"/>
			</g>
			<path id="path5575" class="st21" d="M1347.8,448.6c0,0,1.3,9.2,4.5,8.6c2.9-0.6,0.3-7,0.3-10.8"/>
			<path id="path5577" class="st25" d="M1335.7,449.9c0,0-4.5,4.8-3.5,7.6c1,3.5,19.4-7,19.4-11.1"/>
			<path id="path5579" class="st21" d="M1336.7,463.6v8.3 M1347.2,463.9v8.3"/>
			<path id="path5581" class="st25" d="M1347.8,448.6c0,0,1.3,9.2,4.5,8.6c2.9-0.6,0.3-7,0.3-10.8"/>
			<path id="path5583" class="st25" d="M1331.9,457.5c1,3.5,19.4-7,19.4-11.1"/>
			<path id="path5585" class="st26" d="M1336.7,463.6v8.3 M1347.2,463.9v8.3"/>
			<path id="path5587" class="st27" d="M1352.9,446.7l-1.6-0.3v-1.9l0.3,1c0,0,0-1.6,0.3-1.3l0.3,1.3c0,0,0.3-1,0.6-0.6
				C1353.9,445.1,1352.9,446.7,1352.9,446.7L1352.9,446.7z"/>
			<path id="path5589" class="st27" d="M1350.7,446.7l1.6-0.3v-1.9l-0.3,1c0,0,0-1.6-0.3-1.3l-0.3,1.3c0,0-0.3-1-0.6-0.6
				C1350.4,445.1,1350.7,446.7,1350.7,446.7L1350.7,446.7z"/>
			<g id="g5595">
				<path id="path5591" class="st23" d="M1332.9,435.9c0,0,0.6-12.4,5.7-15.3c5.1-3.2,7.3-3.5,10.5-3.5c2.9,0,8,2.9,9.5,5.4
					s1.9,9.5,1.6,10.2c-0.3,0.3-2.2-8.3-5.7-8.6c-3.5,0-4.1,3.2-4.1,4.1l-0.6,6.4L1332.9,435.9L1332.9,435.9z"/>
				<path id="path5593" class="st10" d="M1332.6,435.9c0,0,1-8,1.9-10.2l3.2,9.2c0,0,3.2-10.2,3.8-10.5c0.3-0.6,3.8,10.2,3.8,10.2
					l5.7-9.2l-0.6,9.5L1332.6,435.9z M1360.9,432.4c-1.9-0.3-2.9,1.6-2.5,1.9c0.3,0.6,0.3,1.9,1.6,1.9c1.3,0,2.2-0.6,2.2-1.9
					C1362.2,433.4,1361.8,432.7,1360.9,432.4L1360.9,432.4z"/>
			</g>
			<g id="g5641">
				<path id="path5597" class="st27" d="M1332.9,435.9c0,3.5-1.3,12.1,4.1,15c4.5,1.6,8.6,1.3,11.5-2.2c2.9-3.8,2.5-10.8,2.2-14.3
					c0-0.6-6.4,0-8.9,0.3C1339.2,434.9,1333.2,435.3,1332.9,435.9L1332.9,435.9z"/>
				<path id="path5599" class="st28" d="M1340.8,441.9c0,0,0,1,0.6,1s0.6-1,0.6-1"/>
				<g id="g5605">
					<path id="path5601" class="st27" d="M1349.1,443.9c0,0,2.2-3.8,4.8-4.8l3.8-1.6c0,0-1,2.9-4.1,4.8
						C1350.7,443.9,1349.1,443.9,1349.1,443.9L1349.1,443.9z"/>
					<path id="path5603" class="st29" d="M1350.1,442.6l3.5-1.9"/>
				</g>
				<g id="g5611">
					<path id="path5607" class="st27" d="M1326.2,438.4c0,0,2.2,0,4.5,1.9l3.5,3.5c0,0-3.5-0.3-5.4-2.2
						C1326.5,440,1326.2,438.4,1326.2,438.4L1326.2,438.4z"/>
					<path id="path5609" class="st29" d="M1332.9,442.9l-3.8-1.6"/>
				</g>
				<path id="path5613" class="st10" d="M1336.1,441.9c1,0,1.6-0.6,1.6-1.6s-0.6-1.6-1.6-1.6s-1.6,0.6-1.6,1.6
					S1335.4,441.9,1336.1,441.9z M1346.6,441.9c1,0,1.6-0.6,1.6-1.6s-0.6-1.6-1.6-1.6s-1.6,0.6-1.6,1.6S1345.9,441.9,1346.6,441.9z"
					/>
				<path id="path5615" class="st30" d="M1336.4,441l0.3-0.3l-0.3-0.3l-0.3,0.3L1336.4,441z M1346.6,441l0.3-0.3l-0.3-0.3l-0.3,0.3
					L1346.6,441z"/>
				<g id="g5623">
					<path id="path5617" class="st10" d="M1336.1,441.9c1,0,1.6-0.6,1.6-1.6s-0.6-1.6-1.6-1.6s-1.6,0.6-1.6,1.6
						S1335.4,441.9,1336.1,441.9z"/>
					<path id="path5619" class="st30" d="M1336.1,441.6c0.6,0,1.3-0.6,1.3-1.3s-0.6-1.3-1.3-1.3s-1.3,0.6-1.3,1.3
						C1335.1,441.3,1335.4,441.6,1336.1,441.6z"/>
					<path id="path5621" class="st10" d="M1335.7,440.7l0.3-0.3l-0.3-0.3l-0.3,0.3L1335.7,440.7z M1336.4,441
						C1336.7,441,1336.7,441,1336.4,441c0.3-0.3,0-0.3,0-0.3S1336.1,440.7,1336.4,441C1336.1,441,1336.4,441,1336.4,441z"/>
				</g>
				<g id="g5631">
					<path id="path5625" class="st10" d="M1346.6,441.9c1,0,1.6-0.6,1.6-1.6s-0.6-1.6-1.6-1.6s-1.6,0.6-1.6,1.6
						S1345.9,441.9,1346.6,441.9z"/>
					<path id="path5627" class="st30" d="M1346.6,441.6c0.6,0,1.3-0.6,1.3-1.3s-0.6-1.3-1.3-1.3s-1.3,0.6-1.3,1.3
						C1345.6,441.3,1345.9,441.6,1346.6,441.6z"/>
					<path id="path5629" class="st10" d="M1346.9,440.7l0.3-0.3l-0.3-0.3l-0.3,0.3L1346.9,440.7z M1346.2,441
						C1346.2,441,1346.6,441,1346.2,441c0.3-0.3,0-0.3,0-0.3S1345.9,440.7,1346.2,441C1345.9,441,1346.2,441,1346.2,441z"/>
				</g>
				<path id="path5633" class="st27" d="M1336.1,444.5c1,0,1.6-0.6,1.6-1.6s-0.6-1.6-1.6-1.6s-1.6,0.6-1.6,1.6
					C1334.8,443.9,1335.4,444.5,1336.1,444.5z M1346.9,444.5c1,0,1.6-0.6,1.6-1.6s-0.6-1.6-1.6-1.6s-1.6,0.6-1.6,1.6
					S1345.9,444.5,1346.9,444.5z"/>
				<path id="path5635" class="st31" d="M1348.2,442.9c-1-0.3-1.6,1-1.3,1.3c0,0.3,0.3,1,1,1c0.6,0,1.3-0.3,1.3-1
					C1348.8,443.2,1348.8,442.9,1348.2,442.9L1348.2,442.9z M1335.7,443.2c0.3,0,1,0.3,0.6,1.3c-0.3,1.3-0.6,1-1,1l-0.6-1
					C1334.8,443.9,1335.1,443.2,1335.7,443.2z"/>
				<path id="path5637" class="st9" d="M1338,444.5c0,0,1,1.6,3.2,1.6c3.2,0,4.5-2.9,4.5-2.9"/>
				<path id="path5639" class="st28" d="M1346.2,437.5c0,0,0.6-0.6,1.3,0.3 M1336.7,438.1c0,0-0.6-0.6-1.3,0.3"/>
			</g>
		</g>
	</g>
	<g id="q13">
		<ellipse id="ellipse5646" class="st3" cx="1066.6" cy="530.7" rx="9.2" ry="0.3"/>
		<circle id="circle5648" class="st0" cx="1066.3" cy="504.3" r="26.1"/>
		<path id="path5650" class="st16" d="M1014.1,465.8h108.2v126.3h-108.2L1014.1,465.8L1014.1,465.8z"/>
		<g id="g5732">
			<g id="g5658">
				<path id="path5652" class="st17" d="M1070.7,505.3c0,0,7.6,3.2,7,16.2"/>
				<path id="path5654" class="st18" d="M1070.7,505.3c0,0,7.6,3.2,7,16.2"/>
				<path id="path5656" class="st6" d="M1076.8,521.5h1.6l0.3,1.9l-0.6-1l-0.3,1.3l-0.3-1.3c0,0,0,1-0.6,0.6L1076.8,521.5
					L1076.8,521.5z"/>
			</g>
			<g id="g5666">
				<path id="path5660" class="st17" d="M1054.2,521.8c0,0-0.6-11.8,6-14.3"/>
				<path id="path5662" class="st18" d="M1054.2,521.8c0,0-0.6-11.8,6-14.3"/>
				<path id="path5664" class="st6" d="M1055.1,521.5h-1.6l-0.3,1.9l0.6-1l0.3,1.3l0.3-1.3c0,0,0,1,0.6,0.6L1055.1,521.5
					L1055.1,521.5z"/>
			</g>
			<g id="g5674">
				<path id="path5668" class="st17" d="M1060.5,519.6v8"/>
				<path id="path5670" class="st18" d="M1060.5,519.6v8"/>
				<path id="path5672" class="st7" d="M1060.8,527.5h-1.3c0,0-0.3,1.6-1,1.9c-0.6,0-1.3-0.3-1.3-1l-0.6-1.3c-0.6,0-0.6,1-0.3,1.6
					s1,1.6,1.9,1.6c1,0,1.6-1,1.6-1v1h1L1060.8,527.5L1060.8,527.5z"/>
			</g>
			<g id="g5682">
				<path id="path5676" class="st17" d="M1070.4,519.9v8"/>
				<path id="path5678" class="st18" d="M1070.4,519.9v8"/>
				<path id="path5680" class="st7" d="M1070.1,527.9h1.3c0,0,0.3,1.6,1,1.9c0.6,0.3,1.3-0.3,1.3-1l0.6-1.3c0.6,0,0.6,1,0.3,1.6
					c-0.3,0.6-1,1.6-1.9,1.6c-1,0-1.6-1-1.6-1v1h-1L1070.1,527.9L1070.1,527.9z"/>
			</g>
			<g id="g5690">
				<path id="path5684" class="st19" d="M1071.7,503.4l-0.3,16.5h-11.8v-13.4"/>
				<path id="path5686" class="st7" d="M1071.3,515.4v1.9l-11.8,0.3v-1.9L1071.3,515.4z"/>
				<path id="path5688" d="M1065.3,512.9c-0.6-0.3-1,0.6-1,1s0,0.6,0.6,0.6l1-0.6C1065.9,513.2,1065.9,512.9,1065.3,512.9z
					 M1065.3,510c-0.6-0.3-1,0.6-1,1s0,0.6,0.6,0.6l1-0.6C1065.9,510.4,1065.9,510,1065.3,510z"/>
			</g>
			<g id="g5698">
				<path id="path5692" d="M1083.8,489.4c-1.9-0.3-2.5,1.6-2.5,1.9c0.3,0.3,0.3,1.6,1.6,1.6c1,0,2.2-0.6,2.2-1.6
					S1085,489.7,1083.8,489.4L1083.8,489.4z"/>
				<path id="path5694" class="st19" d="M1056.1,492.9c0,0,0.6-11.8,5.7-14.6c4.8-2.9,7.3-3.5,10.2-3.5c3.7,0.5,7.1,2.3,9.5,5.1
					c1.6,2.5,1.9,9.2,1.6,9.5s-2.2-8-5.7-8.3c-3.5,0-3.8,3.2-4.1,4.1l-0.6,6L1056.1,492.9L1056.1,492.9z"/>
				<path id="path5696" class="st20" d="M1056.1,492.9c0,0,0.3-5.7,1.9-9.9l3.2,8.9c0,0,3.2-9.5,3.8-10.2c0.3-0.6,3.8,9.9,3.8,9.9
					l5.7-8.9l-0.6,9.2L1056.1,492.9z"/>
			</g>
			<path id="path5700" class="st6" d="M1056.1,492.9c0,3.5-1.3,11.8,4.1,14.6c4.5,1.6,8.6,1,11.1-1.9c2.9-3.5,2.5-10.5,2.2-13.7
				c0-0.6-6.4,0-8.9,0.3C1062.1,492.5,1056.4,492.2,1056.1,492.9z"/>
			<g id="g5706">
				<path id="path5702" class="st6" d="M1073.6,499.9c0,0,0.3-4.1,1.9-6.4c1.6-2.2,2.5-2.9,2.9-2.9c0,0,0.3,2.9-1.6,6
					C1074.8,499.2,1073.6,499.9,1073.6,499.9z"/>
				<path id="path5704" class="st8" d="M1073.9,498.3l2.2-3.2"/>
			</g>
			<g id="g5712">
				<path id="path5708" class="st6" d="M1051,493.5c0,0,1.9,0.6,3.5,3.5s1.6,2.5,1.9,4.5c0,0-3.2-1.6-4.5-3.8
					C1050.7,495.4,1051,493.5,1051,493.5L1051,493.5z"/>
				<path id="path5710" class="st8" d="M1055.8,499.9l-2.9-2.5"/>
			</g>
			<g id="g5730">
				<path id="path5714" class="st9" d="M1070.1,494.1l1,0.6 M1058.9,494.8l1-0.3 M1063.7,502.4l1,0.6c0.6,0,0.6-1,0.6-1"/>
				<circle id="circle5716" class="st10" cx="1059.6" cy="497.3" r="1.6"/>
				<circle id="circle5718" class="st10" cx="1069.8" cy="497.3" r="1.6"/>
				<circle id="circle5720" class="st11" cx="1059.6" cy="497.3" r="0.3"/>
				<circle id="circle5722" class="st11" cx="1070.1" cy="497.3" r="0.3"/>
				<path id="path5724" class="st6" d="M1059.6,502.1c1,0,1.6-0.6,1.6-1.6s-0.6-1.6-1.6-1.6s-1.6,0.6-1.6,1.6
					C1058.3,501.1,1058.9,502.1,1059.6,502.1z M1070.1,502.1c1,0,1.6-0.6,1.6-1.6s-0.6-1.6-1.6-1.6s-1.6,0.6-1.6,1.6
					C1068.5,501.1,1069.1,502.1,1070.1,502.1z"/>
				<path id="path5726" class="st12" d="M1071.3,499.9c-1-0.3-1.6,1-1.3,1.3c0,0.3,0.3,1,1,1c0.6,0,1.3-0.3,1.3-1
					C1072.3,500.5,1072,500.2,1071.3,499.9z M1058.9,500.5c0.3,0,1,0,0.6,1.3c-0.3,1-0.6,1-1,1l-0.6-1
					C1058,501.1,1058.6,500.2,1058.9,500.5z"/>
				<path id="path5728" class="st9" d="M1064,498.6c0,0,0,1,0.6,1s0.6-1,0.6-1"/>
			</g>
		</g>
	</g>
	<g id="q18">
		<ellipse id="ellipse5735" class="st3" cx="936.1" cy="691.7" rx="9.2" ry="0.3"/>
		<circle id="circle5737" class="st0" cx="935.8" cy="665.3" r="26.1"/>
		<path id="path5739" class="st16" d="M883.3,626.8h108.2v126.3H883.3V626.8z"/>
		<g id="g5747">
			<path id="path5741" class="st32" d="M919.3,659.3c0,0,4.1,10.8,11.1,10.2"/>
			<path id="path5743" class="st33" d="M919.3,659.3c0,0,4.1,10.8,11.1,10.2"/>
			<path id="path5745" class="st27" d="M920.2,658.9l-1.3,0.6c0,0-1.3-1.3-1-1.6l1,0.6l-0.3-1.3l1,1c0,0-0.3-0.6,0.3-1L920.2,658.9z
				"/>
		</g>
		<g id="g5755">
			<path id="path5749" class="st32" d="M940.6,668.8c0,0,8.3,0.6,13.7-10.8"/>
			<path id="path5751" class="st33" d="M940.6,668.8c0,0,8.3,0.6,13.7-10.8"/>
			<path id="path5753" class="st27" d="M953.6,657.7l1.3,0.6c0,0,1.3-1.3,1-1.6s-1,0.6-1,0.6l0.3-1.3l-1,1v-1L953.6,657.7z"/>
		</g>
		<g id="g5763">
			<path id="path5757" class="st32" d="M931.3,680.9v7.6"/>
			<path id="path5759" class="st33" d="M931.3,680.9v7.6"/>
			<path id="path5761" class="st34" d="M932,688.5h-1.3c0,0-0.3,1.6-1,1.6c-0.6,0-1.3-0.3-1.3-1l-0.6-1.3c-0.6,0-0.6,1-0.3,1.6
				s1,1.6,1.9,1.6s1.6-1,1.6-1v1h0.6L932,688.5L932,688.5z"/>
		</g>
		<g id="g5771">
			<path id="path5765" class="st32" d="M941.5,681.2v7.6"/>
			<path id="path5767" class="st33" d="M941.5,681.2v7.6"/>
			<path id="path5769" class="st34" d="M940.9,688.8h1.3c0,0,0.3,1.6,1,1.6c0.6,0.3,1-0.3,1.3-1l0.6-1.3c0.6,0,0.6,1,0.3,1.6
				s-1,1.6-1.9,1.6s-1.6-1-1.6-1v1h-0.6L940.9,688.8L940.9,688.8z"/>
		</g>
		<g id="g5779">
			<path id="path5773" d="M942.5,665l-0.3,16.2h-11.8v-13.4"/>
			<path id="path5775" class="st35" d="M942.2,676.8v1.6l-11.5,0.3l-0.3-1.6L942.2,676.8z"/>
			<path id="path5777" d="M936.4,674.2c-0.6,0-1,0.6-1,1c0,0.3,0,0.6,0.6,0.6l1-0.6L936.4,674.2z M936.4,671.3c-0.6,0-1,0.6-1,1
				s0,0.6,0.6,0.6l1-0.6L936.4,671.3z"/>
		</g>
		<g id="g5787">
			<path id="path5781" d="M954.6,651c-1.9-0.3-2.5,1.6-2.5,1.9c0.3,0.3,0.3,1.6,1.3,1.6s2.2-0.6,2.2-1.6
				C955.8,651.9,955.5,651.3,954.6,651L954.6,651z"/>
			<path id="path5783" d="M927.2,654.5c0,0,0.6-11.8,5.4-14.6c4.8-2.9,7.3-3.5,10.2-3.5s7.6,2.9,9.2,5.1c1.6,2.2,1.9,9.2,1.6,9.5
				c-0.3,0.3-2.2-8-5.7-8s-3.8,3.2-4.1,4.1l-0.6,6L927.2,654.5L927.2,654.5z"/>
			<path id="path5785" d="M927.2,654.5c0,0,0.3-5.7,1.9-9.5l3.2,8.9c0,0,3.2-9.5,3.8-10.2c0.3-0.6,3.8,9.5,3.8,9.5l5.7-8.9l-0.6,8.9
				L927.2,654.5z"/>
		</g>
		<g id="g5811">
			<g id="g5801">
				<g id="g5799">
					<g id="g5797">
						<g id="g5795">
							<g id="g5791">
								<path id="path5789" class="st36" d="M920.5,648.1c-1.3-1-1.3-2.2-1.3-2.2h-1.3c0,0,0,1.3-1.3,2.2s-2.2,1.9-2.2,4.1
									c0,1.9,1.3,2.9,2.5,3.5c1.3,0.6,1.6,2.9,1.6,2.9s0.3-1.9,1.6-2.9c1-0.6,2.2-1.6,2.2-3.5C922.8,650,921.8,649.1,920.5,648.1z
									"/>
							</g>
							<path id="path5793" class="st37" d="M919.3,644.9h-1l-0.3,0.3l0.3,0.3h1l0.3-0.3L919.3,644.9z"/>
						</g>
					</g>
				</g>
			</g>
			<g id="g5809">
				<path id="path5803" class="st37" d="M918.3,651.9l-1.9,0.6c-0.6,0-1-0.3-1-0.6c0-0.6,0.6-1,1-0.6L918.3,651.9z M918.9,651.9
					l1.9,0.6c0.6,0,1-0.3,1-0.6c0-0.6-0.6-1-1-0.6L918.9,651.9z M918.9,652.3l0.6,1.9c0,0.6-0.3,1-0.6,1c-0.6,0-1-0.6-0.6-1
					L918.9,652.3z M918.9,651.6l0.6-1.9c0-0.6-0.3-1-0.6-1c-0.6,0-1,0.6-0.6,1L918.9,651.6z"/>
				<circle id="circle5805" class="st38" cx="918.6" cy="651.9" r="0.3"/>
				<path id="path5807" class="st16" d="M920.8,653.8l-4.5-4.1 M916.4,653.8l4.5-4.1"/>
			</g>
		</g>
		<path id="path5813" class="st27" d="M927.2,654.5c0,3.5-1.3,11.5,4.1,14.3c4.1,1.6,8.6,1,11.1-1.9c2.9-3.5,2.5-10.2,2.2-13.7
			c0-0.6-6.4,0-8.6,0.3S927.5,653.8,927.2,654.5z"/>
		<g id="g5819">
			<path id="path5815" class="st27" d="M944.4,661.2c0,0,0.3-4.1,1.9-6.4c1.6-2.2,2.5-2.9,2.9-2.9c0,0,0.3,2.9-1.6,5.7
				C945.7,660.8,944.4,661.2,944.4,661.2L944.4,661.2z"/>
			<path id="path5817" class="st39" d="M944.7,659.9l2.2-3.5"/>
		</g>
		<g id="g5825">
			<path id="path5821" class="st27" d="M922.1,655.1c0,0,1.9,0.6,3.5,3.5c1.6,2.5,1.6,2.5,1.9,4.5c0,0-2.9-1.6-4.1-3.8
				C922.1,656.7,922.1,655.1,922.1,655.1L922.1,655.1z"/>
			<path id="path5823" class="st39" d="M926.9,661.5l-2.9-2.9"/>
		</g>
		<g id="g5835">
			<path id="path5827" class="st40" d="M940.9,655.8l1,0.6 M930.1,656.1l1-0.3 M934.8,663.7c0,0,0.3,0.6,1,0.6c0.6,0,0.6-1,0.6-1"/>
			<path id="path5829" class="st27" d="M930.7,663.4c0.6,0,1.3-0.6,1.3-1.6s-0.6-1.6-1.3-1.6s-1.3,0.6-1.3,1.6
				S930.1,663.4,930.7,663.4z M940.9,663.4c0.6,0,1.3-0.6,1.3-1.6s-0.6-1.6-1.3-1.6s-1.3,0.6-1.3,1.6S939.9,663.4,940.9,663.4z"/>
			<path id="path5831" class="st14" d="M942.2,661.5c-1-0.3-1.6,1-1.3,1.3l0.6,1c0.3,0,1.3-0.3,1.3-1S942.8,661.5,942.2,661.5z
				 M930.1,661.8c0.3,0,1,0,0.6,1.3c-0.3,1-0.6,1-1,1l-0.6-1C929.1,662.4,929.8,661.8,930.1,661.8z"/>
			<path id="path5833" class="st40" d="M934.8,660.2c0,0,0,1,0.6,1s0.6-1,0.6-1 M929.8,659.3c0,0,1-1,1.9,0 M939.6,659.3
				c0,0,1-1,1.9,0"/>
		</g>
	</g>
	<g id="q19">
		<ellipse id="ellipse5838" class="st3" cx="1345.3" cy="663.4" rx="9.2" ry="0.3"/>
		<circle id="circle5840" class="st0" cx="1345" cy="637" r="26.1"/>
		<g id="g5922">
			<g id="g5848">
				<path id="path5842" class="st4" d="M1350.7,637.9c0,0,7.6,3.2,7,16.2"/>
				<path id="path5844" class="st5" d="M1350.7,637.9c0,0,7.6,3.2,7,16.2"/>
				<path id="path5846" class="st6" d="M1356.7,654.2h1.6l0.3,1.9l-0.6-1l-0.3,1.3l-0.3-1.3c0,0,0,1-0.6,0.6L1356.7,654.2
					L1356.7,654.2z"/>
			</g>
			<g id="g5856">
				<path id="path5850" class="st4" d="M1334.2,654.5c0,0-0.6-11.8,6-14.3"/>
				<path id="path5852" class="st5" d="M1334.2,654.5c0,0-0.6-11.8,6-14.3"/>
				<path id="path5854" class="st6" d="M1335.1,654.2h-1.6l-0.3,1.9l0.6-1l0.3,1.3l0.3-1.3c0,0,0,1,0.6,0.6L1335.1,654.2
					L1335.1,654.2z"/>
			</g>
			<g id="g5864">
				<path id="path5858" class="st4" d="M1340.5,652.3v8"/>
				<path id="path5860" class="st5" d="M1340.5,652.3v8"/>
				<path id="path5862" class="st7" d="M1340.8,660.2h-1.3c0,0-0.3,1.6-1,1.9c-0.6,0-1.3-0.3-1.3-1l-0.6-1.3c-0.6,0-0.6,1-0.3,1.6
					s1,1.6,1.9,1.6c1,0,1.6-1,1.6-1v1h1L1340.8,660.2L1340.8,660.2z"/>
			</g>
			<g id="g5872">
				<path id="path5866" class="st4" d="M1350.4,652.6v8"/>
				<path id="path5868" class="st5" d="M1350.4,652.6v8"/>
				<path id="path5870" class="st7" d="M1350.1,660.5h1.3c0,0,0.3,1.6,1,1.9c0.6,0.3,1.3-0.3,1.3-1l0.6-1.3c0.6,0,0.6,1,0.3,1.6
					c-0.3,0.6-1,1.6-1.9,1.6c-1,0-1.6-1-1.6-1v1h-1L1350.1,660.5L1350.1,660.5z"/>
			</g>
			<g id="g5880">
				<path id="path5874" d="M1351.7,636l-0.3,16.5h-11.8v-13.4"/>
				<path id="path5876" class="st7" d="M1351.3,648.1v1.6l-11.8,0.6v-1.9L1351.3,648.1z"/>
				<path id="path5878" d="M1345.3,645.6c-0.6-0.3-1,0.6-1,1s0,0.6,0.6,0.6l1-0.6C1345.9,645.9,1345.9,645.6,1345.3,645.6z
					 M1345.3,642.7c-0.6-0.3-1,0.6-1,1c0,0.3,0,0.6,0.6,0.6l1-0.6C1345.9,643,1345.9,642.7,1345.3,642.7z"/>
			</g>
			<g id="g5888">
				<path id="path5882" d="M1363.7,622c-1.9-0.3-2.5,1.6-2.5,1.9c0.3,0.3,0.3,1.6,1.6,1.6c1,0,2.2-0.6,2.2-1.6
					S1365,622.3,1363.7,622L1363.7,622z"/>
				<path id="path5884" d="M1336.1,625.5c0,0,0.6-11.8,5.7-14.6c4.8-2.9,7.3-3.5,10.2-3.5s8,2.9,9.5,5.1c1.6,2.5,1.9,9.2,1.6,9.5
					s-2.2-8-5.7-8.3c-3.5,0-3.8,3.2-4.1,4.1l-0.6,6L1336.1,625.5L1336.1,625.5z"/>
				<path id="path5886" d="M1336.1,625.5c0,0,0.3-5.7,1.9-9.9l3.2,8.9c0,0,3.2-9.5,3.8-10.2c0.3-0.6,3.8,9.9,3.8,9.9l5.7-8.9
					l-0.6,9.2L1336.1,625.5z"/>
			</g>
			<path id="path5890" class="st6" d="M1336.1,625.5c0,3.5-1.3,11.8,4.1,14.6c4.5,1.6,8.6,1,11.1-1.9c2.9-3.5,2.5-10.5,2.2-13.7
				c0-0.6-6.4,0-8.9,0.3C1342.1,625.2,1336.4,624.9,1336.1,625.5z"/>
			<g id="g5896">
				<path id="path5892" class="st6" d="M1353.6,632.2c0,0,0.3-4.1,1.9-6.4c1.6-2.2,2.5-2.9,2.9-2.9c0,0,0.3,2.9-1.6,6
					C1354.8,631.9,1353.6,632.2,1353.6,632.2z"/>
				<path id="path5894" class="st8" d="M1353.9,630.9l2.2-3.2"/>
			</g>
			<g id="g5902">
				<path id="path5898" class="st6" d="M1331,626.2c0,0,1.9,0.6,3.5,3.5s1.6,2.5,1.9,4.5c0,0-3.2-1.6-4.5-3.8
					C1330.7,628.1,1331,626.2,1331,626.2L1331,626.2z"/>
				<path id="path5900" class="st8" d="M1335.7,632.5l-2.9-2.5"/>
			</g>
			<g id="g5920">
				<path id="path5904" class="st9" d="M1350.1,626.8l1,0.6 M1338.9,627.4l1-0.3 M1343.7,635.1l1,0.6c0.6,0,0.6-1,0.6-1"/>
				<circle id="circle5906" class="st10" cx="1339.6" cy="630" r="1.6"/>
				<circle id="circle5908" class="st10" cx="1349.7" cy="630" r="1.6"/>
				<circle id="circle5910" class="st11" cx="1339.6" cy="630" r="0.3"/>
				<circle id="circle5912" class="st11" cx="1350.1" cy="630" r="0.3"/>
				<path id="path5914" class="st6" d="M1339.6,634.4c1,0,1.6-0.6,1.6-1.6s-0.6-1.6-1.6-1.6s-1.6,0.6-1.6,1.6
					C1338.3,633.8,1338.9,634.4,1339.6,634.4z M1350.1,634.4c1,0,1.6-0.6,1.6-1.6s-0.6-1.6-1.6-1.6s-1.6,0.6-1.6,1.6
					S1349.1,634.4,1350.1,634.4z"/>
				<path id="path5916" class="st12" d="M1351.3,632.5c-1-0.3-1.6,1-1.3,1.3c0,0.3,0.3,1,1,1c0.6,0,1.3-0.3,1.3-1L1351.3,632.5z
					 M1338.9,633.2c0.3,0,1,0,0.6,1.3c-0.3,1-0.6,1-1,1l-0.6-1C1338,633.8,1338.6,632.8,1338.9,633.2z"/>
				<path id="path5918" class="st9" d="M1344,631.3c0,0,0,1,0.6,1s0.6-1,0.6-1"/>
			</g>
		</g>
		<path id="path5924" class="st16" d="M1292.5,598.5h108.2v126.3h-108.2V598.5z"/>
	</g>
	<g id="q11">
		<ellipse id="ellipse5927" class="st3" cx="326.8" cy="735" rx="9.2" ry="0.3"/>
		<circle id="circle5929" class="st0" cx="326.5" cy="708.3" r="26.1"/>
		<g id="g6011">
			<g id="g5937">
				<path id="path5931" class="st4" d="M332.2,709.5c0,0,7.6,3.2,7,16.2"/>
				<path id="path5933" class="st5" d="M332.2,709.5c0,0,7.6,3.2,7,16.2"/>
				<path id="path5935" class="st6" d="M338.3,725.8h1.6l0.3,1.9l-0.6-1l-0.3,1.3l-0.3-1.3c0,0,0,1-0.6,0.6L338.3,725.8L338.3,725.8
					z"/>
			</g>
			<g id="g5945">
				<path id="path5939" class="st4" d="M315.7,726.1c0,0-0.6-11.8,6-14.3"/>
				<path id="path5941" class="st5" d="M315.7,726.1c0,0-0.6-11.8,6-14.3"/>
				<path id="path5943" class="st6" d="M316.6,725.8H315l-0.3,1.9l0.6-1l0.3,1.3l0.3-1.3c0,0,0,1,0.6,0.6L316.6,725.8L316.6,725.8z"
					/>
			</g>
			<g id="g5953">
				<path id="path5947" class="st4" d="M322,723.8v8"/>
				<path id="path5949" class="st5" d="M322,723.8v8"/>
				<path id="path5951" class="st7" d="M322.4,731.8h-1.3c0,0-0.3,1.6-1,1.9c-0.6,0-1.3-0.3-1.3-1l-0.6-1.3c-0.6,0-0.6,1-0.3,1.6
					c0.3,0.6,1,1.6,1.9,1.6c1,0,1.6-1,1.6-1v1h1L322.4,731.8L322.4,731.8z"/>
			</g>
			<g id="g5961">
				<path id="path5955" class="st4" d="M331.9,724.2v8"/>
				<path id="path5957" class="st5" d="M331.9,724.2v8"/>
				<path id="path5959" class="st7" d="M331.6,732.1h1.3c0,0,0.3,1.6,1,1.9c0.6,0.3,1.3-0.3,1.3-1l0.6-1.3c0.6,0,0.6,1,0.3,1.6
					s-1,1.6-1.9,1.6c-1,0-1.6-1-1.6-1v1h-1L331.6,732.1L331.6,732.1z"/>
			</g>
			<g id="g5969">
				<path id="path5963" d="M333.2,707.6l-0.3,16.5h-11.8v-13.4"/>
				<path id="path5965" class="st7" d="M332.9,719.7v1.6l-11.8,0.3V720L332.9,719.7z"/>
				<path id="path5967" d="M326.8,717.2c-0.6-0.3-1,0.6-1,1c0,0.3,0,0.6,0.6,0.6l1-0.6C327.4,717.8,327.4,717.2,326.8,717.2z
					 M326.8,714.3c-0.6-0.3-1,0.6-1,1s0,0.6,0.6,0.6l1-0.6C327.4,714.6,327.4,714.3,326.8,714.3z"/>
			</g>
			<g id="g5977">
				<path id="path5971" d="M345.3,693.6c-1.9-0.3-2.5,1.6-2.5,1.9c0.3,0.3,0.3,1.6,1.6,1.6s2.2-0.6,2.2-1.6S346.5,693.9,345.3,693.6
					L345.3,693.6z"/>
				<path id="path5973" d="M317.6,697.1c0,0,0.6-11.8,5.7-14.6c4.8-2.9,7.3-3.5,10.2-3.5c2.9,0,8,2.9,9.5,5.1
					c1.6,2.5,1.9,9.2,1.6,9.5s-2.2-8-5.7-8.3c-3.5,0-3.8,3.2-4.1,4.1l-0.6,6L317.6,697.1L317.6,697.1z"/>
				<path id="path5975" d="M317.6,697.1c0,0,0.3-5.7,1.9-9.9l3.2,8.9c0,0,3.2-9.5,3.8-10.2c0.3-0.6,3.8,9.9,3.8,9.9l5.7-8.9
					l-0.6,9.2L317.6,697.1z"/>
			</g>
			<path id="path5979" class="st6" d="M317.6,697.1c0,3.5-1.3,11.8,4.1,14.6c4.5,1.6,8.6,1,11.1-1.9c2.9-3.5,2.5-10.5,2.2-13.7
				c0-0.6-6.4,0-8.9,0.3C323.9,696.2,317.9,696.5,317.6,697.1z"/>
			<g id="g5985">
				<path id="path5981" class="st6" d="M335.1,703.8c0,0,0.3-4.1,1.9-6.4c1.6-2.2,2.5-2.9,2.9-2.9c0,0,0.3,2.9-1.6,6
					C336.4,703.6,335.1,703.8,335.1,703.8z"/>
				<path id="path5983" class="st8" d="M335.4,702.5l2.2-3.2"/>
			</g>
			<g id="g5991">
				<path id="path5987" class="st6" d="M312.5,697.8c0,0,1.9,0.6,3.5,3.5s1.6,2.5,1.9,4.5c0,0-3.2-1.6-4.5-3.8
					C312.5,699.3,312.5,697.8,312.5,697.8L312.5,697.8z"/>
				<path id="path5989" class="st8" d="M317.3,704.1l-2.9-2.9"/>
			</g>
			<g id="g6009">
				<path id="path5993" class="st9" d="M331.6,698.4l1,0.6 M320.4,699l1-0.3 M325.2,706.7l1,0.6l0.6-1"/>
				<circle id="circle5995" class="st10" cx="321.1" cy="701.6" r="1.6"/>
				<circle id="circle5997" class="st10" cx="331.3" cy="701.6" r="1.6"/>
				<circle id="circle5999" class="st11" cx="321.1" cy="701.6" r="0.3"/>
				<circle id="circle6001" class="st11" cx="331.6" cy="701.6" r="0.3"/>
				<path id="path6003" class="st6" d="M321.1,706c1,0,1.6-0.6,1.6-1.6s-0.6-1.6-1.6-1.6s-1.6,0.6-1.6,1.6S320.4,706,321.1,706z
					 M331.6,706c1,0,1.6-0.6,1.6-1.6s-0.6-1.6-1.6-1.6s-1.6,0.6-1.6,1.6S330.6,706,331.6,706z"/>
				<path id="path6005" class="st12" d="M332.9,704.1c-1-0.3-1.6,1-1.3,1.3c0,0.3,0.3,1,1,1c0.6,0,1.3-0.3,1.3-1
					C333.5,704.8,333.5,704.1,332.9,704.1z M320.4,704.8c0.3,0,1,0,0.6,1.3c-0.3,1-0.6,1-1,1l-0.6-1
					C319.5,705.7,320.1,704.4,320.4,704.8z"/>
				<path id="path6007" class="st9" d="M325.5,702.8c0,0,0,1,0.6,1l0.6-1"/>
			</g>
		</g>
		<path id="path6013" class="st16" d="M274,670.1h108.2v126.3H274V670.1z"/>
	</g>
	<g id="q6">
		<ellipse id="ellipse6016" class="st3" cx="443.9" cy="635.1" rx="9.2" ry="0.3"/>
		<circle id="circle6018" class="st0" cx="443.6" cy="608.3" r="26.1"/>
		<g id="g6100">
			<g id="g6026">
				<path id="path6020" class="st4" d="M449.3,609.6c0,0,7.6,3.2,7,16.2"/>
				<path id="path6022" class="st5" d="M449.3,609.6c0,0,7.6,3.2,7,16.2"/>
				<path id="path6024" class="st6" d="M455.7,625.8h1.6l0.3,1.9l-0.6-1l-0.3,1.3l-0.3-1.3c0,0,0,1-0.6,0.6L455.7,625.8L455.7,625.8
					z"/>
			</g>
			<g id="g6034">
				<path id="path6028" class="st4" d="M433.1,625.8c0,0-0.6-11.8,6-14.3"/>
				<path id="path6030" class="st5" d="M433.1,625.8c0,0-0.6-11.8,6-14.3"/>
				<path id="path6032" class="st6" d="M433.7,625.8h-1.6l-0.3,1.9l0.6-1l0.3,1.3l0.3-1.3c0,0,0,1,0.6,0.6
					C434.4,627.4,433.7,625.8,433.7,625.8z"/>
			</g>
			<g id="g6042">
				<path id="path6036" class="st4" d="M439.1,623.9v8"/>
				<path id="path6038" class="st5" d="M439.1,623.9v8"/>
				<path id="path6040" class="st7" d="M439.8,631.9h-1.3c0,0-0.3,1.6-1,1.9c-0.6,0-1.3-0.3-1.3-1l-0.6-1.3c-0.6,0-0.6,1-0.3,1.6
					s1,1.6,1.9,1.6c1,0,1.6-1,1.6-1v1h1L439.8,631.9L439.8,631.9z"/>
			</g>
			<g id="g6050">
				<path id="path6044" class="st4" d="M449.3,624.3v8"/>
				<path id="path6046" class="st5" d="M449.3,624.3v8"/>
				<path id="path6048" class="st7" d="M448.7,631.9h1.3c0,0,0.3,1.6,1,1.9c0.6,0.3,1.3-0.3,1.3-1l0.6-1.3c0.6,0,0.6,1,0.3,1.6
					c-0.3,0.6-1,1.6-1.9,1.6c-1,0-1.6-1-1.6-1v1h-1L448.7,631.9L448.7,631.9z"/>
			</g>
			<g id="g6058">
				<path id="path6052" d="M450.6,607.7l-0.3,16.5h-11.8v-13.4"/>
				<path id="path6054" class="st7" d="M450.3,619.8v1.6l-12.1,0.3v-1.6L450.3,619.8z"/>
				<path id="path6056" d="M444.2,617.3c-0.6-0.3-1,0.6-1,1c0,0.3,0,0.6,0.6,0.6l1-0.6L444.2,617.3z M444.2,614.1
					c-0.6-0.3-1,0.6-1,1s0,0.6,0.6,0.6l1-0.6L444.2,614.1z"/>
			</g>
			<g id="g6066">
				<path id="path6060" d="M462.7,593.7c-1.9-0.3-2.5,1.6-2.5,1.9c0,0.3,0.3,1.6,1.6,1.6c1,0,2.2-0.6,2.2-1.6S463.6,594,462.7,593.7
					z"/>
				<path id="path6062" d="M434.7,597.2c0,0,0.6-11.8,5.7-14.6c4.8-2.9,7.3-3.5,10.2-3.5c2.9,0,8,2.9,9.5,5.1
					c1.6,2.5,1.9,9.2,1.6,9.5s-2.2-8-5.7-8.3c-3.5,0-3.8,3.2-4.1,4.1l-0.6,6L434.7,597.2L434.7,597.2z"/>
				<path id="path6064" d="M434.7,597.2c0,0,0.3-5.7,1.9-9.9l3.2,8.9c0,0,3.2-9.5,3.8-10.2c0.3-0.6,3.8,9.9,3.8,9.9l5.7-8.9
					l-0.6,9.2L434.7,597.2z"/>
			</g>
			<path id="path6068" class="st6" d="M435,597.2c0,3.5-1.3,11.8,4.1,14.6c4.5,1.6,8.6,1,11.1-1.9c2.9-3.5,2.5-10.5,2.2-13.7
				c0-0.6-6.4,0-8.9,0.3C441.4,595.9,435.3,596.6,435,597.2z"/>
			<g id="g6074">
				<path id="path6070" class="st6" d="M452.5,603.9c0,0,0.3-4.1,1.9-6.4c1.6-2.2,2.5-2.9,2.9-2.9c0,0,0.3,2.9-1.6,6
					C453.8,603.6,452.5,603.9,452.5,603.9z"/>
				<path id="path6072" class="st8" d="M452.8,602.6l1.9-3.5"/>
			</g>
			<g id="g6080">
				<path id="path6076" class="st6" d="M429.9,597.8c0,0,1.9,0.6,3.5,3.5s1.6,2.5,1.9,4.5c0,0-3.2-1.6-4.5-3.8
					C429.6,599.8,429.9,597.8,429.9,597.8L429.9,597.8z"/>
				<path id="path6078" class="st8" d="M434.7,604.2l-2.9-2.9"/>
			</g>
			<g id="g6098">
				<path id="path6082" class="st9" d="M448.7,598.5l1,0.6 M437.5,598.8l1-0.3 M442.6,606.8l1,0.6c0.6,0,0.6-1,0.6-1"/>
				<circle id="circle6084" class="st10" cx="438.2" cy="601.7" r="1.6"/>
				<circle id="circle6086" class="st10" cx="448.7" cy="601.7" r="1.6"/>
				<circle id="circle6088" class="st11" cx="438.5" cy="601.3" r="0.3"/>
				<circle id="circle6090" class="st11" cx="448.7" cy="601.3" r="0.3"/>
				<path id="path6092" class="st6" d="M438.5,606.1c1,0,1.6-0.6,1.6-1.6s-0.6-1.6-1.6-1.6s-1.6,0.6-1.6,1.6
					S437.5,606.1,438.5,606.1z M448.7,606.1c1,0,1.6-0.6,1.6-1.6s-0.6-1.6-1.6-1.6s-1.6,0.6-1.6,1.6
					C447.4,605.5,448,606.1,448.7,606.1z"/>
				<path id="path6094" class="st12" d="M449.9,604.2c-1-0.3-1.6,1-1.3,1.3c0.3,0.3,0.3,1,1,1s1.3-0.3,1.3-1
					C450.6,604.5,450.6,604.2,449.9,604.2z M437.9,604.5c0.3,0,1,0,0.6,1.3c-0.3,1-0.6,1-1,1l-0.6-1
					C436.6,605.2,437.2,604.5,437.9,604.5z"/>
				<path id="path6096" class="st9" d="M442.6,602.9c0,0,0,1,0.6,1l0.6-1"/>
			</g>
		</g>
		<path id="path6102" class="st16" d="M391.1,569.9h108.2v126.3H391.1V569.9L391.1,569.9z"/>
	</g>
	<g id="q17">
		<ellipse id="ellipse6105" class="st3" cx="145.1" cy="594.7" rx="9.2" ry="0.3"/>
		
			<ellipse id="ellipse6107" transform="matrix(6.652051e-02 -0.9978 0.9978 6.652051e-02 -431.5054 674.5825)" class="st0" cx="144.8" cy="567.9" rx="26.1" ry="26.1"/>
		<g id="g6189">
			<g id="g6115">
				<path id="path6109" class="st4" d="M150.5,569.2c0,0,7.6,3.2,7,16.2"/>
				<path id="path6111" class="st5" d="M150.5,569.2c0,0,7.6,3.2,7,16.2"/>
				<path id="path6113" class="st6" d="M156.9,585.4h1.6l0.3,1.9l-0.6-1l-0.3,1.3l-0.3-1.3c0,0,0,1-0.6,0.6
					C156.3,587,156.9,585.4,156.9,585.4z"/>
			</g>
			<g id="g6123">
				<path id="path6117" class="st4" d="M134,585.8c0,0-0.6-11.8,6-14.3"/>
				<path id="path6119" class="st5" d="M134,585.4c0,0-0.6-11.8,6-14.3"/>
				<path id="path6121" class="st6" d="M135,585.4h-1.6l-0.3,1.9l0.6-1l0.3,1.3l0.3-1.3c0,0,0,1,0.6,0.6L135,585.4L135,585.4z"/>
			</g>
			<g id="g6131">
				<path id="path6125" class="st4" d="M140.4,583.5v8"/>
				<path id="path6127" class="st5" d="M140.4,583.5v8"/>
				<path id="path6129" class="st7" d="M141,591.5h-1.3c0,0-0.3,1.6-1,1.9c-0.6,0-1.3-0.3-1.3-1l-0.6-1.3c-0.6,0-0.6,1-0.3,1.6
					s1,1.6,1.9,1.6s1.6-1,1.6-1v1h1L141,591.5L141,591.5z"/>
			</g>
			<g id="g6139">
				<path id="path6133" class="st4" d="M150.5,583.9v8"/>
				<path id="path6135" class="st5" d="M150.5,583.9v8"/>
				<path id="path6137" class="st7" d="M149.9,591.8h1.3c0,0,0.3,1.6,1,1.9s1.3-0.3,1.3-1l0.6-1.3c0.6,0,0.6,1,0.3,1.6
					s-1,1.6-1.9,1.6s-1.6-1-1.6-1v1h-1L149.9,591.8L149.9,591.8z"/>
			</g>
			<g id="g6147">
				<path id="path6141" d="M151.5,567.3l-0.3,16.5h-11.8v-13.4"/>
				<path id="path6143" class="st7" d="M151.5,579.4v1.6l-12.1,0.3v-1.6L151.5,579.4z"/>
				<path id="path6145" d="M145.1,576.9c-0.6-0.3-1,0.6-1,1c0,0.3,0,0.6,0.6,0.6l1-0.6C145.8,577.5,145.8,576.9,145.1,576.9z
					 M145.1,574c-0.6-0.3-1,0.6-1,1c0,0.3,0,0.6,0.6,0.6l1-0.6C145.8,574.6,145.8,574,145.1,574z"/>
			</g>
			<g id="g6155">
				<path id="path6149" d="M163.9,553.3c-1.9-0.3-2.5,1.6-2.5,1.9c0.3,0.3,0.3,1.6,1.6,1.6s2.2-0.6,2.2-1.6S164.9,553.6,163.9,553.3
					z"/>
				<path id="path6151" d="M135.9,556.8c0,0,0.6-11.8,5.7-14.6c4.8-2.9,7.3-3.5,10.2-3.5s8,2.9,9.5,5.1c1.6,2.5,1.9,9.2,1.6,9.5
					s-2.2-8-5.7-8.3c-3.5,0-3.8,3.2-4.1,4.1l-0.6,6L135.9,556.8L135.9,556.8z"/>
				<path id="path6153" d="M135.9,556.8c0,0,0.3-5.7,1.9-9.9l3.2,8.9c0,0,3.2-9.5,3.8-10.2c0.3-0.6,3.8,9.9,3.8,9.9l5.7-8.9
					l-0.6,9.2L135.9,556.8z"/>
			</g>
			<path id="path6157" class="st6" d="M135.9,556.8c0,3.5-1.3,11.8,4.1,14.6c4.5,1.6,8.6,1,11.1-1.9c2.9-3.5,2.5-10.5,2.2-13.7
				c0-0.6-6.4,0-8.9,0.3C142.3,555.9,136.2,556.2,135.9,556.8z"/>
			<g id="g6163">
				<path id="path6159" class="st6" d="M153.7,563.5c0,0,0.3-4.1,1.9-6.4c1.6-2.2,2.5-2.9,2.9-2.9c0,0,0.3,2.9-1.6,6
					C155,563.5,153.7,563.5,153.7,563.5z"/>
				<path id="path6161" class="st8" d="M153.7,562.2l2.2-3.2"/>
			</g>
			<g id="g6169">
				<path id="path6165" class="st6" d="M130.8,557.4c0,0,1.9,0.6,3.5,3.5s1.6,2.5,1.9,4.5c0,0-3.2-1.6-4.5-3.8
					C130.5,559.4,130.8,557.4,130.8,557.4L130.8,557.4z"/>
				<path id="path6167" class="st8" d="M135.9,563.8l-3.2-2.9"/>
			</g>
			<g id="g6187">
				<path id="path6171" class="st9" d="M149.9,558.1l1,0.6 M138.8,558.7l1-0.3 M143.5,566.4l1,0.6l0.6-1"/>
				<circle id="circle6173" class="st10" cx="139.4" cy="561.3" r="1.6"/>
				<circle id="circle6175" class="st10" cx="149.9" cy="561.3" r="1.6"/>
				<circle id="circle6177" class="st11" cx="139.4" cy="561.3" r="0.3"/>
				<circle id="circle6179" class="st11" cx="149.9" cy="561.3" r="0.3"/>
				<path id="path6181" class="st6" d="M139.4,565.7c1,0,1.6-0.6,1.6-1.6s-0.6-1.6-1.6-1.6s-1.6,0.6-1.6,1.6
					S138.8,565.7,139.4,565.7z M149.9,565.7c1,0,1.6-0.6,1.6-1.6s-0.6-1.6-1.6-1.6s-1.6,0.6-1.6,1.6S149,565.7,149.9,565.7z"/>
				<path id="path6183" class="st12" d="M151.2,563.8c-1-0.3-1.6,1-1.3,1.3c0,0.3,0.3,1,1,1s1.3-0.3,1.3-1
					C151.8,564.4,151.8,563.8,151.2,563.8z M138.8,564.4c0.3,0,1,0,0.6,1.3c-0.3,1-0.6,1-1,1l-0.6-1
					C137.8,565.4,138.5,564.1,138.8,564.4z"/>
				<path id="path6185" class="st9" d="M143.9,562.5c0,0,0,1,0.6,1l0.6-1"/>
			</g>
		</g>
		<path id="path6191" class="st16" d="M92.3,529.8h108.2v126.3H92.3V529.8z"/>
	</g>
	<g id="q3">
		<ellipse id="ellipse6194" class="st3" cx="610" cy="541.2" rx="9.2" ry="0.3"/>
		<circle id="circle6196" class="st0" cx="609.7" cy="514.5" r="26.1"/>
		<path id="path6198" class="st16" d="M557.2,476h108.2v126.3H557.2V476z"/>
		<g id="g6206">
			<path id="path6200" class="st41" d="M604.3,529.4v8.3"/>
			<path id="path6202" class="st18" d="M604.3,529.4v8"/>
			<path id="path6204" class="st34" d="M604.9,537.7h-1.3c0,0-0.3,1.6-1,1.9c-0.6,0.3-1.3-0.3-1.3-1l-0.6-1.3c-0.6,0-0.6,1-0.3,1.6
				s1,1.6,1.9,1.6c1,0,1.6-1,1.6-1v1h1L604.9,537.7L604.9,537.7z"/>
		</g>
		<g id="g6214">
			<path id="path6208" class="st41" d="M614.8,515.1c0,0,8,3.2,7.3,16.5"/>
			<path id="path6210" class="st18" d="M614.8,515.1c0,0,8,3.2,7.3,16.5"/>
			<path id="path6212" class="st27" d="M621.1,531.7h1.6l0.3,1.9l-0.6-1c0,0,0,1.6-0.3,1.3l-0.3-1.3c0,0,0,1-0.6,0.6
				C620.5,533.3,621.1,531.7,621.1,531.7z"/>
		</g>
		<g id="g6222">
			<path id="path6216" class="st41" d="M597.9,531c0,0-0.6-12.1,6-14.6"/>
			<path id="path6218" class="st18" d="M597.9,531c0,0-0.6-12.1,6-14.6"/>
			<path id="path6220" class="st27" d="M598.9,531h-1.6l-0.3,1.9l0.6-1c0,0,0,1.6,0.3,1.3l0.3-1.3c0,0,0,1,0.6,0.6L598.9,531
				L598.9,531z"/>
		</g>
		<g id="g6230">
			<path id="path6224" class="st41" d="M614.8,529.8v8.3"/>
			<path id="path6226" class="st18" d="M614.8,529.8v8"/>
			<path id="path6228" class="st34" d="M614.1,537.7h1.3c0,0,0.3,1.6,1,1.9c0.7,0.3,1.3-0.3,1.3-1l0.6-1.3c0.6,0,0.6,1,0.3,1.6
				s-1,1.6-1.9,1.6c-1,0-1.6-1-1.6-1v1h-1L614.1,537.7L614.1,537.7z"/>
		</g>
		<g id="g6238">
			<path id="path6232" class="st38" d="M616,513.2l-0.3,16.9h-12.1v-13.7"/>
			<path id="path6234" class="st34" d="M615.7,525.3v1.6l-12.4,0.6v-1.9L615.7,525.3z"/>
			<path id="path6236" d="M609.4,522.4c-0.6-0.3-1,0.6-1,1s0,0.6,0.6,0.6l1-0.6C610,523.1,610,522.8,609.4,522.4z M609.4,519.6
				c-0.6-0.3-1,0.6-1,1c0,0.3,0,0.6,0.6,0.6l1-0.6C610,519.9,610,519.9,609.4,519.6z"/>
		</g>
		<g id="g6244">
			<path id="path6240" class="st38" d="M599.8,502.1c0,0,0.6-12.1,5.7-15c5.1-2.9,7.6-3.5,10.5-3.5c3.8,0.5,7.3,2.5,9.9,5.4
				c1.6,2.5,2.2,9.5,1.6,9.9c-0.3,0.3-2.2-8.3-5.7-8.3s-4.1,3.2-4.1,4.1l-0.6,6.4L599.8,502.1L599.8,502.1z"/>
			<path id="path6242" class="st35" d="M599.8,502.1c0,0,0.3-5.7,1.9-10.2l3.2,9.2c0,0,3.2-9.9,3.8-10.5s3.8,9.9,3.8,9.9l5.7-9.2
				l-0.6,9.2C617.9,500.8,599.8,502.1,599.8,502.1z M628.1,498.9c-1.9-0.3-2.9,1.6-2.5,1.9c0.3,0.3,0.3,1.6,1.6,1.9
				c1.3,0,2.2-0.6,2.2-1.9S629.4,498.9,628.1,498.9z"/>
		</g>
		<path id="path6246" class="st27" d="M599.8,502.1c0,3.5-1.3,12.1,4.5,14.6c4.5,1.6,8.9,1,11.5-1.9c2.9-3.5,2.5-10.8,2.2-14
			c0-0.6-6.4,0-8.9,0.3C606.5,501.1,600.4,501.4,599.8,502.1L599.8,502.1z"/>
		<g id="g6252">
			<path id="path6248" class="st27" d="M617.9,509.1c0,0,0.3-4.5,1.9-6.4l2.9-3.2c0,0,0.3,2.9-1.6,6
				C619.2,508.8,617.9,509.1,617.9,509.1z"/>
			<path id="path6250" class="st42" d="M617.9,507.8l2.2-3.5"/>
		</g>
		<g id="g6258">
			<path id="path6254" class="st27" d="M594.7,503c0,0,1.9,0.6,3.5,3.5s1.6,2.5,1.9,4.5c0,0-3.2-1.6-4.5-4.1L594.7,503L594.7,503z"
				/>
			<path id="path6256" class="st42" d="M599.8,509.4l-3.2-2.9"/>
		</g>
		<g id="g6274">
			<circle id="circle6260" class="st10" cx="603.3" cy="506.9" r="1.6"/>
			<circle id="circle6262" class="st10" cx="613.8" cy="506.9" r="1.6"/>
			<circle id="circle6264" class="st30" cx="603.6" cy="506.9" r="0.3"/>
			<circle id="circle6266" class="st30" cx="614.1" cy="506.9" r="0.3"/>
			<path id="path6268" class="st27" d="M603.6,511.6c1,0,1.6-0.6,1.6-1.6s-0.6-1.6-1.6-1.6S602,509,602,510S602.7,511.6,603.6,511.6
				z M614.1,511.6c1,0,1.6-0.6,1.6-1.6s-0.6-1.6-1.6-1.6s-1.6,0.6-1.6,1.6S613.2,511.6,614.1,511.6z"/>
			<path id="path6270" class="st14" d="M615.4,509.4c-1-0.3-1.6,1-1.3,1.3s0.3,1,1,1c0.6,0,1.3-0.3,1.3-1
				C616,510,616,509.4,615.4,509.4z M603,510c0.3,0,1,0,0.6,1.3c-0.3,1.3-0.6,1-1,1l-0.6-1C601.7,510.7,602.4,509.7,603,510z"/>
			<path id="path6272" class="st43" d="M608.1,508.1c0,0,0,1,0.6,1l0.6-1"/>
		</g>
		<path id="path6276" class="st43" d="M613.5,503.7c0,0,0.6-0.6,1.3,0 M603.9,504c0,0-0.6-0.6-1.3,0"/>
	</g>
	<g id="q7">
		<ellipse id="ellipse6279" class="st3" cx="417.2" cy="487.1" rx="9.2" ry="0.3"/>
		<circle id="circle6281" class="st0" cx="416.9" cy="460.7" r="26.1"/>
		<g id="g6361">
			<g id="g6289">
				<path id="path6283" class="st4" d="M422.6,461.7c0,0,7.6,3.2,7,16.2"/>
				<path id="path6285" class="st5" d="M422.6,461.7c0,0,7.6,3.2,7,16.2"/>
				<path id="path6287" class="st6" d="M428.9,477.9h1.6l0.3,1.9l-0.6-1l-0.3,1.3l-0.3-1.3c0,0,0,1-0.6,0.6
					C428.3,479.5,428.9,477.9,428.9,477.9z"/>
			</g>
			<g id="g6297">
				<path id="path6291" class="st4" d="M406.4,478.2c0,0-0.6-11.8,6-14.3"/>
				<path id="path6293" class="st5" d="M406.4,478.2c0,0-0.6-11.8,6-14.3"/>
				<path id="path6295" class="st6" d="M407,478.2h-1.6l-0.3,1.9l0.6-1l0.3,1.3l0.3-1.3c0,0,0,1,0.6,0.6
					C407.6,479.8,407,478.2,407,478.2L407,478.2z"/>
			</g>
			<g id="g6305">
				<path id="path6299" class="st4" d="M412.4,476.3v7.6"/>
				<path id="path6301" class="st5" d="M412.4,476v8"/>
				<path id="path6303" class="st7" d="M413,483.9h-1.3c0,0-0.3,1.6-1,1.9c-0.6,0-1.3-0.3-1.3-1l-0.6-1.3c-0.6,0-0.6,1-0.3,1.6
					s1,1.6,1.9,1.6s1.6-1,1.6-1v1h1L413,483.9L413,483.9z"/>
			</g>
			<g id="g6313">
				<path id="path6307" class="st4" d="M422.6,476.3v8"/>
				<path id="path6309" class="st5" d="M422.6,476.3v8"/>
				<path id="path6311" class="st7" d="M421.9,484.3h1.3c0,0,0.3,1.6,1,1.9c0.6,0.3,1.3-0.3,1.3-1l0.6-1.3c0.6,0,0.6,1,0.3,1.6
					c-0.3,0.6-1,1.6-1.9,1.6c-1,0-1.6-1-1.6-1v1h-1L421.9,484.3L421.9,484.3z"/>
			</g>
			<g id="g6321">
				<path id="path6315" d="M423.9,460.1l-0.3,16.5h-11.8v-13.4"/>
				<path id="path6317" class="st7" d="M423.5,471.9v1.9l-12.1,0.3v-1.9L423.5,471.9z"/>
				<path id="path6319" d="M417.5,469.3c-0.6-0.3-1,0.6-1,1s0,0.6,0.6,0.6l1-0.6L417.5,469.3z M417.5,466.4c-0.6-0.3-1,0.6-1,1
					c0,0.3,0,0.6,0.6,0.6s1-0.3,1-0.6L417.5,466.4z"/>
			</g>
			<g id="g6327">
				<path id="path6323" d="M435.9,446.1c-1.9-0.3-2.5,1.6-2.5,1.9c0.3,0.3,0.3,1.6,1.6,1.6c1.3,0,2.2-0.6,2.2-1.6
					S436.9,446.1,435.9,446.1z M407.9,449.3c0,0,0.6-11.8,5.7-14.6c5.1-2.9,7.3-3.5,10.2-3.5s8,2.9,9.5,5.1c1.6,2.5,1.9,9.2,1.6,9.5
					s-2.2-8-5.7-8.3c-3.5,0-3.8,3.2-4.1,4.1l-0.6,6L407.9,449.3L407.9,449.3z"/>
				<path id="path6325" d="M407.9,449.3c0,0,0.3-5.7,1.9-9.9l3.2,8.9c0,0,3.2-9.5,3.8-10.2c0.3-0.6,3.8,9.9,3.8,9.9l5.7-8.9
					l-0.6,9.2L407.9,449.3z"/>
			</g>
			<path id="path6329" class="st6" d="M408.3,449.3c0,3.5-1.3,11.8,4.1,14.6c4.5,1.6,8.6,1,11.1-1.9c2.9-3.5,2.5-10.5,2.2-13.7
				c0-0.6-6.4,0-8.9,0.3C414.6,448.3,408.6,448.6,408.3,449.3z"/>
			<g id="g6335">
				<path id="path6331" class="st6" d="M425.8,456.3c0,0,0.3-4.1,1.9-6.4c1.6-2.2,2.5-2.9,2.9-2.9c0,0,0.3,2.9-1.6,6
					C427,455.6,425.8,456.3,425.8,456.3z"/>
				<path id="path6333" class="st8" d="M425.8,454.7l2.2-3.2"/>
			</g>
			<g id="g6341">
				<path id="path6337" class="st6" d="M403.2,449.9c0,0,1.9,0.6,3.5,3.5s1.6,2.5,1.9,4.5c0,0-3.2-1.6-4.5-3.8
					C402.9,451.8,403.2,449.9,403.2,449.9L403.2,449.9z"/>
				<path id="path6339" class="st8" d="M407.9,456.3l-2.9-2.5"/>
			</g>
			<g id="g6359">
				<path id="path6343" class="st9" d="M421.9,450.5l1,0.6 M410.8,451.2l1-0.3 M415.9,458.8l1,0.6c0.6,0,0.6-1,0.6-1"/>
				<circle id="circle6345" class="st10" cx="411.4" cy="453.7" r="1.6"/>
				<circle id="circle6347" class="st10" cx="421.9" cy="453.7" r="1.6"/>
				<circle id="circle6349" class="st11" cx="411.8" cy="453.7" r="0.3"/>
				<circle id="circle6351" class="st11" cx="421.9" cy="453.7" r="0.3"/>
				<path id="path6353" class="st6" d="M411.8,458.5c1,0,1.6-0.6,1.6-1.6s-0.6-1.6-1.6-1.6s-1.6,0.6-1.6,1.6
					S410.8,458.5,411.8,458.5z M421.9,458.5c1,0,1.6-0.6,1.6-1.6s-0.6-1.6-1.6-1.6s-1.6,0.6-1.6,1.6S421.3,458.5,421.9,458.5z"/>
				<path id="path6355" class="st12" d="M423.2,456.3c-1-0.3-1.6,1-1.3,1.3c0,0.3,0.3,1,1,1c0.6,0,1.3-0.3,1.3-1L423.2,456.3z
					 M411.1,456.9c0.3,0,1,0,0.6,1.3c-0.3,1-0.6,1-1,1l-0.6-1C409.9,457.5,410.5,456.9,411.1,456.9z"/>
				<path id="path6357" class="st9" d="M415.9,455c0,0,0,1,0.6,1l0.6-1"/>
			</g>
		</g>
		<path id="path6363" class="st16" d="M364.4,422.2h108.2v126.3H364.4V422.2z"/>
	</g>
	<g id="q12">
		<ellipse id="ellipse6366" class="st3" cx="482.7" cy="387.2" rx="9.2" ry="0.3"/>
		<circle id="circle6368" class="st0" cx="482.4" cy="360.8" r="26.1"/>
		<g id="g6450">
			<g id="g6376">
				<path id="path6370" class="st4" d="M488.1,361.8c0,0,7.6,3.2,7,16.2"/>
				<path id="path6372" class="st5" d="M488.1,361.8c0,0,7.6,3.2,7,16.2"/>
				<path id="path6374" class="st6" d="M494.5,378h1.6l0.3,1.9l-0.6-1l-0.3,1.3l-0.3-1.3c0,0,0,1-0.6,0.6
					C493.9,379.3,494.5,378,494.5,378L494.5,378z"/>
			</g>
			<g id="g6384">
				<path id="path6378" class="st4" d="M471.9,378.3c0,0-0.6-11.8,6-14.3"/>
				<path id="path6380" class="st5" d="M471.9,378.3c0,0-0.6-11.8,6-14.3"/>
				<path id="path6382" class="st6" d="M472.5,378.3h-1.6l-0.3,1.9l0.6-1l0.3,1.3l0.3-1.3c0,0,0,1,0.6,0.6
					C473.2,379.6,472.5,378.3,472.5,378.3L472.5,378.3z"/>
			</g>
			<g id="g6392">
				<path id="path6386" class="st4" d="M477.9,376.1v8"/>
				<path id="path6388" class="st5" d="M477.9,376.1v8"/>
				<path id="path6390" class="st7" d="M478.6,384h-1.3c0,0-0.3,1.6-1,1.9c-0.6,0.3-1.3-0.3-1.3-1l-0.6-1.3c-0.6,0-0.6,1-0.3,1.6
					s1,1.6,1.9,1.6c1,0,1.6-1,1.6-1v1h1L478.6,384L478.6,384z"/>
			</g>
			<g id="g6400">
				<path id="path6394" class="st4" d="M488.1,376.4v8"/>
				<path id="path6396" class="st5" d="M488.1,376.4v8"/>
				<path id="path6398" class="st7" d="M487.5,384.4h1.3c0,0,0.3,1.6,1,1.9c0.6,0.3,1.3-0.3,1.3-1l0.6-1.3c0.6,0,0.6,1,0.3,1.6
					c-0.3,0.6-1,1.6-1.9,1.6c-1,0-1.6-1-1.6-1v1h-1L487.5,384.4L487.5,384.4z"/>
			</g>
			<g id="g6408">
				<path id="path6402" d="M489.4,360.2l-0.3,16.5h-11.8v-13.4"/>
				<path id="path6404" class="st7" d="M489.1,371.9v1.9l-12.1,0.3v-1.9L489.1,371.9z"/>
				<path id="path6406" d="M482.7,369.4c-0.6-0.3-1,0.6-1,1c0,0.3,0,0.6,0.6,0.6l1-0.6C483.4,369.7,483.4,369.4,482.7,369.4z
					 M483,366.5c-0.6-0.3-1,0.6-1,1s0,0.6,0.6,0.6l1-0.6L483,366.5z"/>
			</g>
			<g id="g6416">
				<path id="path6410" d="M501.5,345.9c-1.9-0.3-2.5,1.6-2.5,1.9s0.3,1.6,1.6,1.6c1,0,2.2-0.6,2.2-1.6S502.4,346.2,501.5,345.9z"/>
				<path id="path6412" d="M473.5,349.4c0,0,0.6-11.8,5.7-14.6c4.8-2.9,7.3-3.5,10.2-3.5c2.9,0,8,2.9,9.5,5.1s1.9,9.2,1.6,9.5
					s-2.2-8-5.7-8.3s-3.8,3.2-4.1,4.1l-0.6,6L473.5,349.4L473.5,349.4z"/>
				<path id="path6414" d="M473.5,349.4c0,0,0.3-5.7,1.9-9.9l3.2,8.9c0,0,3.2-9.5,3.8-10.2c0.6-0.6,3.8,9.9,3.8,9.9l5.7-8.9
					l-0.6,9.2L473.5,349.4L473.5,349.4z"/>
			</g>
			<path id="path6418" class="st6" d="M473.5,349.4c0,3.5-1.3,11.8,4.1,14.6c4.5,1.6,8.6,1,11.1-1.9c2.9-3.5,2.5-10.5,2.2-13.7
				c0-0.6-6.4,0-8.9,0.3C479.9,348.4,473.8,348.7,473.5,349.4L473.5,349.4z"/>
			<g id="g6424">
				<path id="path6420" class="st6" d="M491.3,356.4c0,0,0.3-4.1,1.9-6.4c1.6-2.2,2.5-2.9,2.9-2.9c0,0,0.3,2.9-1.6,6
					C492.6,355.7,491.3,356.4,491.3,356.4z"/>
				<path id="path6422" class="st8" d="M491.3,354.8l2.2-3.2"/>
			</g>
			<g id="g6430">
				<path id="path6426" class="st6" d="M468.4,350c0,0,1.9,0.6,3.5,3.5s1.6,2.5,1.9,4.5c0,0-3.2-1.6-4.5-3.8
					C468.4,351.6,468.4,350,468.4,350L468.4,350z"/>
				<path id="path6428" class="st8" d="M473.5,356.4l-3.2-2.5"/>
			</g>
			<g id="g6448">
				<path id="path6432" class="st9" d="M487.5,350.6l1,0.6 M476.4,351.3l1-0.3 M481.1,358.9l1,0.6c0.6,0,0.6-1,0.6-1"/>
				<circle id="circle6434" class="st10" cx="477" cy="353.8" r="1.6"/>
				<circle id="circle6436" class="st10" cx="487.5" cy="353.8" r="1.6"/>
				<circle id="circle6438" class="st11" cx="477" cy="353.8" r="0.3"/>
				<circle id="circle6440" class="st11" cx="487.5" cy="353.8" r="0.3"/>
				<path id="path6442" class="st6" d="M477.3,358.6c1,0,1.6-0.6,1.6-1.6s-0.6-1.6-1.6-1.6s-1.6,0.6-1.6,1.6
					S476.4,358.6,477.3,358.6z M487.5,358.6c1,0,1.6-0.6,1.6-1.6s-0.6-1.6-1.6-1.6s-1.6,0.6-1.6,1.6S486.5,358.6,487.5,358.6z"/>
				<path id="path6444" class="st12" d="M488.8,356.4c-1-0.3-1.6,1-1.3,1.3c0,0.3,0.3,1,1,1c0.6,0,1.3-0.3,1.3-1
					S489.4,356.7,488.8,356.4z M476.7,357c0.3,0,1,0,0.6,1.3c-0.3,1-0.6,1-1,1l-0.6-1C475.4,357.6,476,357,476.7,357z"/>
				<path id="path6446" class="st9" d="M481.4,355.1c0,0,0,1,0.6,1l0.6-1"/>
			</g>
		</g>
		<path id="path6452" class="st16" d="M429.9,322.3h108.2v126.3H429.9C429.9,448.6,429.9,322.3,429.9,322.3z"/>
	</g>
	<circle id="circle6455" class="st43" cx="609" cy="511.9" r="0.6"/>
</g>
<g id="g6463">
	<path id="path6459" class="st44" d="M578.5,212.2l9.9-16.9l8.9,16.5 M578.5,236.7l9.9-16.9l8.9,16.5 M578.5,259.6l9.9-16.9
		l8.9,16.5"/>
	<path id="path6461" class="st45" d="M588.4,195.4v96.7"/>
</g>
<g id="g6468">
	<path id="path6465" class="st46" d="M1509.8,448.3l12.4-15l11.8,15 M1508.2,479.2l13.4-19.1l14,16.5"/>
	<path id="tronco3" class="st47" d="M1522.2,433.4l-0.3,73.5"/>
</g>
<path id="path6470" class="st48" d="M442,198.9v26.7 M429.3,212.2H456 M436.6,206.5l11.1,11.8 M447.7,206.2L436.6,218"/>
<g id="g6476">
	<path id="path6472" class="st46" d="M1557.8,474.1l10.2-14.6l8.9,14.3 M1557.8,495.1l10.2-14.3l8.9,14 M1557.8,515.1l10.2-14.6
		l8.9,14.3"/>
	<path id="path6474" class="st47" d="M1568,459.4v83.7"/>
</g>
<g id="g6482">
	<path id="path6478" class="st44" d="M161.4,239.9l9.9-16.9l9.2,16.5 M161.4,264.4l9.9-16.9l9.2,16.5 M161.4,287.6l9.9-16.9
		l9.2,16.2"/>
	<path id="path6480" class="st45" d="M171.2,223v97"/>
</g>
<g id="g6487">
	<path id="path6484" class="st44" d="M293.1,329l12.1-17.5L317,329 M291.2,364.6l13.7-22l14,19.1"/>
	<path id="tronco" class="st45" d="M305.2,311.5l-0.3,85.3"/>
</g>
<g id="g6501">
	<path id="path6489" class="st49" d="M311.5,152.1h1.9v12.7h-1.9V152.1z"/>
	<path id="path6491" class="st50" d="M316.3,170.5v36.3h-18.5l-1.6-34l9.9-15.6l2.2-1L316.3,170.5z"/>
	<path id="path6493" class="st51" d="M284.8,171.8l-1,32.8l14,2.5l1.3-38.8L284.8,171.8L284.8,171.8z"/>
	<path id="path6495" class="st19" d="M306.1,191.5h7.3v15.3h-7.3V191.5z"/>
	<path id="path6497" class="st52" d="M292.8,180.7v12.7h-4.1v-12.7H292.8z"/>
	<path id="path6499" class="st19" d="M308.4,156.2l10.8,18.1l-1.3,1.3l-10.2-17.2l-9.2,18.8l-17.2-1.2l5.1-21.6L308.4,156.2z"/>
</g>
<g id="g6515">
	<g id="g6513">
		<path id="path6503" class="st27" d="M265.1,256.8l-1.3,62.7l-33.4,0.6l-6.7-57.9l22.3-29L265.1,256.8z"/>
		<path id="path6505" class="st36" d="M243.5,297.8h12.1v22h-12.1V297.8z"/>
		<path id="path6507" class="st53" d="M202.7,262.2l4.8,52.2l22.9,5.7l-4.8-62.4L202.7,262.2z"/>
		<path id="path6509" class="st52" d="M212.3,283.8h5.4v-12.4l-6-0.6L212.3,283.8z M212.6,305.8l7.6,1.3v-13.4l-8.3-0.6L212.6,305.8
			z"/>
		<path id="path6511" class="st36" d="M268,258.7l-1,1.3l-21.3-23.5L226.3,266l-25.8-2.5l11.8-29.9l33.7-0.3l19.7,22.9L268,258.7z"
			/>
	</g>
</g>
<g id="g6531">
	<g id="g6529">
		<path id="path6517" class="st54" d="M310.3,248.8v37.9l27.7,1.6l2.5-38.2L326.2,232L310.3,248.8z"/>
		<path id="path6519" class="st55" d="M367.5,248.8l3.5,4.5V280l-33.1,8.3v-47.4L367.5,248.8z"/>
		<path id="path6521" class="st19" d="M306.5,251.7l1.3,1.3l18.8-18.5l14.6,22l33.7-3.5l-18.8-22.9l-29.9,1.9l-17.8,17.5
			L306.5,251.7z"/>
		<path id="path6523" class="st52" d="M351.3,263.1v9.9l15.3-3.2v-9.2L351.3,263.1z M318.2,253.9v7.3h7l0.6-7.3L318.2,253.9
			L318.2,253.9z"/>
		<path id="path6525" class="st38" d="M315.4,287v-13.4c0,0,0-5.4,5.7-4.8c4.1,0.3,4.5,3.8,4.5,5.1c0.3,1-0.3,13.7-0.3,13.7
			L315.4,287L315.4,287z"/>
		<path id="path6527" class="st55" d="M347.2,235.1H344v-8l3.8-0.6L347.2,235.1z"/>
	</g>
</g>
<g id="g6547">
	<g id="g6545">
		<path id="path6533" class="st54" d="M754.8,293v37.9l27.7,1.6l2.2-38.5l-14.4-17.8L754.8,293z"/>
		<path id="path6535" class="st55" d="M811.7,293l3.5,4.5v26.4l-32.8,8.6v-47.4L811.7,293z"/>
		<path id="path6537" class="st19" d="M750.6,295.9l1.3,1.3l18.8-18.5l14.6,22l33.7-3.5l-18.7-22.9l-29.9,1.9l-17.8,17.5
			L750.6,295.9z"/>
		<path id="path6539" class="st52" d="M795.5,307v10.2l15.3-3.2v-9.2L795.5,307z M762.7,298.1v7.3h6.7l1-7.3H762.7z"/>
		<path id="path6541" class="st38" d="M759.5,330.9v-13.4c0,0,0-5.4,5.7-4.8c4.1,0.3,4.5,3.8,4.5,5.1c0.3,1-0.3,13.7-0.3,13.7
			L759.5,330.9L759.5,330.9z"/>
		<path id="path6543" class="st55" d="M791.3,279.4h-3.2v-8l3.8-0.6L791.3,279.4z"/>
	</g>
</g>
<g id="g6552">
	<path id="path6549" class="st46" d="M1039.2,678.7l12.1-15l11.8,15 M1037.3,709.5l13.7-19.1l14,16.5"/>
	<path id="tronco2" class="st47" d="M1051.3,663.7l-0.3,73.5"/>
</g>
<g id="g6558">
	<path id="path6554" class="st46" d="M1087.3,704.4l9.9-14.3l9.2,14 M1087.3,725.8l9.9-14.6l9.2,14.3 M1087.3,745.5l9.9-14.3l9.2,14
		"/>
	<path id="path6556" class="st47" d="M1097.1,690.1v83.4"/>
</g>
</svg>
